<svg width="56" height="44" viewBox="0 0 56 44" fill="none" xmlns="http://www.w3.org/2000/svg">
<path d="M29.5538 18.2353V25.6471C29.5538 28.8627 29.213 31.6373 28.5315 33.9706C27.8499 36.2843 26.8666 38.1863 25.5814 39.6765C24.3157 41.1471 22.8066 42.2353 21.054 42.9412C19.3015 43.6471 17.3543 44 15.2123 44C13.4987 44 11.902 43.7843 10.4221 43.3529C8.94217 42.902 7.6083 42.2059 6.42048 41.2647C5.25214 40.3235 4.23957 39.1373 3.38278 37.7059C2.54546 36.2549 1.90287 34.5294 1.455 32.5294C1.00714 30.5294 0.783203 28.2353 0.783203 25.6471V18.2353C0.783203 15.0196 1.12397 12.2647 1.80551 9.97059C2.50652 7.65686 3.48988 5.76471 4.75559 4.29412C6.04077 2.82353 7.55962 1.7451 9.31215 1.05882C11.0647 0.352941 13.0119 0 15.1539 0C16.8675 0 18.4545 0.22549 19.9149 0.676471C21.3948 1.10784 22.7287 1.78431 23.9165 2.70588C25.1043 3.62745 26.1169 4.81373 26.9542 6.26471C27.7915 7.69608 28.4341 9.41177 28.882 11.4118C29.3298 13.3922 29.5538 15.6667 29.5538 18.2353ZM21.1125 26.7647V17.0882C21.1125 15.5392 21.0248 14.1863 20.8496 13.0294C20.6938 11.8725 20.4504 10.8922 20.1194 10.0882C19.7883 9.26471 19.3794 8.59804 18.8926 8.08824C18.4058 7.57843 17.8508 7.20588 17.2277 6.97059C16.6046 6.73529 15.9133 6.61765 15.1539 6.61765C14.1997 6.61765 13.3527 6.80392 12.6127 7.17647C11.8922 7.54902 11.2789 8.14706 10.7726 8.97059C10.2663 9.77451 9.87685 10.8529 9.60423 12.2059C9.35109 13.5392 9.22452 15.1667 9.22452 17.0882V26.7647C9.22452 28.3137 9.30241 29.6765 9.45819 30.8529C9.63344 32.0294 9.88658 33.0392 10.2176 33.8824C10.5681 34.7059 10.977 35.3824 11.4444 35.9118C11.9312 36.4216 12.4862 36.7941 13.1093 37.0294C13.7519 37.2647 14.4529 37.3824 15.2123 37.3824C16.147 37.3824 16.9746 37.1961 17.695 36.8235C18.435 36.4314 19.0581 35.8235 19.5644 35C20.0902 34.1569 20.4796 33.0588 20.7328 31.7059C20.9859 30.3529 21.1125 28.7059 21.1125 26.7647Z" fill="#F5F5F5"/>
<path d="M55.7832 0.5V43.4118H47.3711V10.2647L37.2649 13.5V6.82353L54.8777 0.5H55.7832Z" fill="#F5F5F5"/>
</svg>
