<svg width="37" height="30" viewBox="0 0 37 30" fill="none" xmlns="http://www.w3.org/2000/svg">
<g opacity="0.7">
<path d="M19.2383 12.1094V17.0312C19.2383 19.1667 19.0104 21.0091 18.5547 22.5586C18.099 24.0951 17.4414 25.3581 16.582 26.3477C15.7357 27.3242 14.7266 28.0469 13.5547 28.5156C12.3828 28.9844 11.0807 29.2188 9.64844 29.2188C8.5026 29.2188 7.4349 29.0755 6.44531 28.7891C5.45573 28.4896 4.5638 28.0273 3.76953 27.4023C2.98828 26.7773 2.3112 25.9896 1.73828 25.0391C1.17839 24.0755 0.748698 22.9297 0.449219 21.6016C0.14974 20.2734 0 18.75 0 17.0312V12.1094C0 9.97396 0.227865 8.14453 0.683594 6.62109C1.15234 5.08464 1.8099 3.82812 2.65625 2.85156C3.51562 1.875 4.53125 1.15885 5.70312 0.703125C6.875 0.234375 8.17708 0 9.60938 0C10.7552 0 11.8164 0.14974 12.793 0.449219C13.7826 0.735677 14.6745 1.1849 15.4688 1.79688C16.263 2.40885 16.9401 3.19661 17.5 4.16016C18.0599 5.11068 18.4896 6.25 18.7891 7.57812C19.0885 8.89323 19.2383 10.4036 19.2383 12.1094ZM13.5938 17.7734V11.3477C13.5938 10.319 13.5352 9.42057 13.418 8.65234C13.3138 7.88411 13.151 7.23307 12.9297 6.69922C12.7083 6.15234 12.4349 5.70964 12.1094 5.37109C11.7839 5.03255 11.4128 4.78516 10.9961 4.62891C10.5794 4.47266 10.1172 4.39453 9.60938 4.39453C8.97135 4.39453 8.40495 4.51823 7.91016 4.76562C7.42839 5.01302 7.01823 5.41016 6.67969 5.95703C6.34115 6.49089 6.08073 7.20703 5.89844 8.10547C5.72917 8.99089 5.64453 10.0716 5.64453 11.3477V17.7734C5.64453 18.8021 5.69661 19.707 5.80078 20.4883C5.91797 21.2695 6.08724 21.9401 6.30859 22.5C6.54297 23.0469 6.81641 23.4961 7.12891 23.8477C7.45443 24.1862 7.82552 24.4336 8.24219 24.5898C8.67188 24.7461 9.14062 24.8242 9.64844 24.8242C10.2734 24.8242 10.8268 24.7005 11.3086 24.4531C11.8034 24.1927 12.2201 23.7891 12.5586 23.2422C12.9102 22.6823 13.1706 21.9531 13.3398 21.0547C13.5091 20.1562 13.5938 19.0625 13.5938 17.7734Z" fill="#14112A"/>
<path d="M36.7773 0.332031V28.8281H31.1523V6.81641L24.3945 8.96484V4.53125L36.1719 0.332031H36.7773Z" fill="#14112A"/>
</g>
</svg>
