<svg width="65" height="45" viewBox="0 0 65 45" fill="none" xmlns="http://www.w3.org/2000/svg">
<path d="M29.7405 18.981V26.3878C29.7405 29.6014 29.3975 32.374 28.7115 34.7058C28.0256 37.018 27.0358 38.9187 25.7423 40.4079C24.4684 41.8775 22.9495 42.965 21.1856 43.6704C19.4217 44.3758 17.4618 44.7285 15.3059 44.7285C13.5812 44.7285 11.9741 44.513 10.4846 44.0819C8.99512 43.6312 7.6526 42.9356 6.45707 41.995C5.28114 41.0545 4.262 39.869 3.39965 38.4386C2.5569 36.9886 1.91014 35.2643 1.45936 33.2656C1.00859 31.2669 0.783203 28.9743 0.783203 26.3878V18.981C0.783203 15.7675 1.12618 13.0144 1.81214 10.7218C2.5177 8.40966 3.50744 6.51876 4.78137 5.04916C6.07489 3.57955 7.6036 2.50184 9.36749 1.81602C11.1314 1.11061 13.0913 0.757908 15.2471 0.757908C16.9718 0.757908 18.5691 0.983247 20.0391 1.43393C21.5286 1.86501 22.8711 2.54103 24.0666 3.46198C25.2621 4.38294 26.2813 5.56842 27.124 7.01843C27.9668 8.44885 28.6136 10.1634 29.0643 12.162C29.5151 14.1411 29.7405 16.4141 29.7405 18.981ZM21.2444 27.5047V17.8347C21.2444 16.2867 21.1562 14.9347 20.9798 13.7786C20.823 12.6225 20.578 11.6428 20.2448 10.8394C19.9117 10.0164 19.5001 9.3502 19.0101 8.84074C18.5201 8.33128 17.9616 7.95898 17.3344 7.72384C16.7073 7.4887 16.0115 7.37113 15.2471 7.37113C14.2868 7.37113 13.4343 7.55728 12.6895 7.92958C11.9643 8.30188 11.347 8.89952 10.8374 9.7225C10.3278 10.5259 9.93586 11.6036 9.66148 12.9556C9.40669 14.2881 9.2793 15.9144 9.2793 17.8347V27.5047C9.2793 29.0527 9.35769 30.4146 9.51448 31.5902C9.69087 32.7659 9.94566 33.7751 10.2788 34.6176C10.6316 35.4406 11.0432 36.1166 11.5136 36.6457C12.0035 37.1551 12.5621 37.5274 13.1893 37.7626C13.836 37.9977 14.5416 38.1153 15.3059 38.1153C16.2467 38.1153 17.0796 37.9291 17.8048 37.5568C18.5495 37.1649 19.1767 36.5575 19.6863 35.7345C20.2154 34.892 20.6074 33.7946 20.8622 32.4426C21.117 31.0906 21.2444 29.4446 21.2444 27.5047Z" fill="#F5F5F5"/>
<path d="M64.7832 37.5274V44.1407H35.5025V38.4974L49.3491 23.6544C50.7406 22.1064 51.8382 20.7445 52.6417 19.5689C53.4453 18.3736 54.0234 17.3057 54.3762 16.3651C54.7486 15.405 54.9348 14.4938 54.9348 13.6317C54.9348 12.3384 54.7192 11.2313 54.288 10.3103C53.8569 9.3698 53.2199 8.64479 52.3771 8.13533C51.554 7.62587 50.5348 7.37113 49.3197 7.37113C48.0262 7.37113 46.9091 7.68465 45.9683 8.31168C45.0472 8.93871 44.3416 9.81068 43.8516 10.9276C43.3813 12.0445 43.1461 13.3083 43.1461 14.7192H34.65C34.65 12.1718 35.2576 9.84007 36.4727 7.72384C37.6878 5.58801 39.4027 3.89307 41.6174 2.639C43.832 1.36534 46.4583 0.728516 49.4961 0.728516C52.4947 0.728516 55.023 1.21838 57.0809 2.19812C59.1583 3.15826 60.7262 4.54949 61.7846 6.3718C62.8625 8.17452 63.4015 10.3299 63.4015 12.8381C63.4015 14.2489 63.1761 15.6303 62.7253 16.9824C62.2746 18.3148 61.6278 19.6472 60.785 20.9797C59.9619 22.2925 58.9623 23.625 57.7864 24.977C56.6105 26.3291 55.3072 27.7301 53.8765 29.1801L46.4387 37.5274H64.7832Z" fill="#F5F5F5"/>
</svg>
