<svg width="42" height="30" viewBox="0 0 42 30" fill="none" xmlns="http://www.w3.org/2000/svg">
<g opacity="0.7">
<path d="M19.0032 12.4449V17.495C19.0032 19.686 18.7781 21.5765 18.328 23.1663C17.8778 24.7428 17.2283 26.0387 16.3794 27.0541C15.5434 28.0561 14.5466 28.7976 13.3891 29.2786C12.2315 29.7595 10.9453 30 9.53055 30C8.39871 30 7.34405 29.853 6.36656 29.5591C5.38907 29.2518 4.50804 28.7776 3.72347 28.1363C2.95177 27.495 2.28296 26.6867 1.71704 25.7114C1.16399 24.7228 0.73955 23.5471 0.44373 22.1844C0.14791 20.8216 0 19.2585 0 17.495V12.4449C0 10.2538 0.22508 8.37675 0.675241 6.81363C1.13826 5.23714 1.78778 3.9479 2.62379 2.94589C3.47267 1.94389 4.47588 1.20908 5.63344 0.741483C6.791 0.260521 8.07717 0.0200401 9.49196 0.0200401C10.6238 0.0200401 11.672 0.173681 12.6367 0.480962C13.6141 0.774883 14.4952 1.2358 15.2797 1.86373C16.0643 2.49165 16.7331 3.29993 17.2862 4.28858C17.8392 5.26386 18.2637 6.43287 18.5595 7.79559C18.8553 9.14496 19.0032 10.6947 19.0032 12.4449ZM13.4277 18.2565V11.6633C13.4277 10.6079 13.3698 9.68604 13.254 8.8978C13.1511 8.10955 12.9904 7.44155 12.7717 6.89379C12.5531 6.33267 12.283 5.87842 11.9614 5.53106C11.6399 5.1837 11.2733 4.92986 10.8617 4.76954C10.4502 4.60922 9.99357 4.52906 9.49196 4.52906C8.86174 4.52906 8.30225 4.65598 7.8135 4.90982C7.33762 5.16366 6.93248 5.57114 6.59807 6.13226C6.26367 6.68003 6.00643 7.41483 5.82637 8.33667C5.65916 9.24516 5.57556 10.354 5.57556 11.6633V18.2565C5.57556 19.312 5.62701 20.2405 5.7299 21.0421C5.84566 21.8437 6.01286 22.5317 6.23151 23.1062C6.46302 23.6673 6.73312 24.1283 7.0418 24.489C7.36334 24.8363 7.7299 25.0902 8.14148 25.2505C8.56592 25.4108 9.02894 25.491 9.53055 25.491C10.1479 25.491 10.6945 25.3641 11.1704 25.1102C11.6592 24.843 12.0707 24.4289 12.4051 23.8677C12.7524 23.2933 13.0096 22.5451 13.1768 21.6232C13.3441 20.7014 13.4277 19.5792 13.4277 18.2565Z" fill="#14112A"/>
<path d="M42 25.0902V29.5992H22.7846V25.7515L31.8714 15.6313C32.7846 14.5758 33.5048 13.6473 34.0322 12.8457C34.5595 12.0307 34.9389 11.3026 35.1704 10.6613C35.4148 10.0067 35.537 9.38544 35.537 8.7976C35.537 7.91583 35.3955 7.16099 35.1125 6.53307C34.8296 5.89178 34.4116 5.39746 33.8585 5.0501C33.3183 4.70274 32.6495 4.52906 31.8521 4.52906C31.0032 4.52906 30.2701 4.74282 29.6527 5.17034C29.0482 5.59786 28.5852 6.19238 28.2637 6.95391C27.955 7.71543 27.8006 8.57715 27.8006 9.53908H22.2251C22.2251 7.80227 22.6238 6.21242 23.4212 4.76954C24.2186 3.31329 25.3441 2.15765 26.7974 1.30261C28.2508 0.434202 29.9743 0 31.9678 0C33.9357 0 35.5949 0.334001 36.9453 1.002C38.3087 1.65665 39.3376 2.60521 40.0322 3.8477C40.7395 5.07682 41.0932 6.54643 41.0932 8.25651C41.0932 9.21844 40.9453 10.1603 40.6495 11.0822C40.3537 11.9906 39.9293 12.8991 39.3762 13.8076C38.836 14.7027 38.1801 15.6112 37.4084 16.5331C36.6367 17.4549 35.7814 18.4102 34.8424 19.3988L29.9614 25.0902H42Z" fill="#14112A"/>
</g>
</svg>
