<svg width="65" height="45" viewBox="0 0 65 45" fill="none" xmlns="http://www.w3.org/2000/svg">
<path d="M29.9819 18.981V26.3878C29.9819 29.6014 29.6361 32.374 28.9444 34.7058C28.2527 37.018 27.2547 38.9187 25.9504 40.4079C24.6659 41.8775 23.1343 42.965 21.3557 43.6704C19.5771 44.3758 17.6009 44.7285 15.427 44.7285C13.6879 44.7285 12.0674 44.513 10.5655 44.0819C9.06358 43.6312 7.70987 42.9356 6.50437 41.995C5.31864 41.0545 4.291 39.869 3.42146 38.4386C2.57169 36.9886 1.91953 35.2643 1.465 33.2656C1.01047 31.2669 0.783203 28.9743 0.783203 26.3878V18.981C0.783203 15.7675 1.12904 13.0144 1.82072 10.7218C2.53216 8.40966 3.53015 6.51876 4.8147 5.04916C6.11901 3.57955 7.66046 2.50184 9.43906 1.81602C11.2177 1.11061 13.1939 0.757908 15.3677 0.757908C17.1068 0.757908 18.7174 0.983247 20.1996 1.43393C21.7015 1.86501 23.0552 2.54103 24.2607 3.46198C25.4662 4.38294 26.4939 5.56842 27.3436 7.01843C28.1934 8.44885 28.8456 10.1634 29.3001 12.162C29.7546 14.1411 29.9819 16.4141 29.9819 18.981ZM21.415 27.5047V17.8347C21.415 16.2867 21.326 14.9347 21.1482 13.7786C20.9901 12.6225 20.7431 11.6428 20.4071 10.8394C20.0711 10.0164 19.6561 9.3502 19.1621 8.84074C18.668 8.33128 18.1048 7.95898 17.4724 7.72384C16.84 7.4887 16.1385 7.37113 15.3677 7.37113C14.3994 7.37113 13.5397 7.55728 12.7888 7.92958C12.0576 8.30188 11.435 8.89952 10.9212 9.7225C10.4074 10.5259 10.0122 11.6036 9.7355 12.9556C9.47859 14.2881 9.35013 15.9144 9.35013 17.8347V27.5047C9.35013 29.0527 9.42918 30.4146 9.58728 31.5902C9.76514 32.7659 10.022 33.7751 10.358 34.6176C10.7137 35.4406 11.1287 36.1166 11.603 36.6457C12.0971 37.1551 12.6603 37.5274 13.2927 37.7626C13.9449 37.9977 14.6563 38.1153 15.427 38.1153C16.3756 38.1153 17.2155 37.9291 17.9467 37.5568C18.6977 37.1649 19.3301 36.5575 19.8439 35.7345C20.3775 34.892 20.7727 33.7946 21.0296 32.4426C21.2865 31.0906 21.415 29.4446 21.415 27.5047Z" fill="#F5F5F5"/>
<path d="M44.5368 19.0692H49.1019C50.5643 19.0692 51.7698 18.8243 52.7184 18.3344C53.6669 17.8249 54.3685 17.1195 54.823 16.2182C55.2973 15.2972 55.5345 14.2293 55.5345 13.0144C55.5345 11.9171 55.3171 10.9472 54.8823 10.1046C54.4673 9.24243 53.825 8.57621 52.9555 8.10594C52.086 7.61607 50.9892 7.37113 49.6651 7.37113C48.6177 7.37113 47.6493 7.57688 46.76 7.98837C45.8707 8.39986 45.1593 8.9779 44.6257 9.7225C44.0921 10.4671 43.8254 11.3685 43.8254 12.4266H35.2584C35.2584 10.0752 35.8908 8.02756 37.1556 6.28363C38.4401 4.53969 40.1595 3.17786 42.3135 2.19812C44.4676 1.21838 46.8391 0.728516 49.4279 0.728516C52.3528 0.728516 54.912 1.19879 57.1056 2.13934C59.2992 3.06029 61.0086 4.42213 62.2339 6.22484C63.4591 8.02756 64.0718 10.2614 64.0718 12.9262C64.0718 14.2783 63.7556 15.5911 63.1232 16.8648C62.4908 18.1189 61.5817 19.2553 60.396 20.2743C59.23 21.2736 57.8071 22.077 56.1273 22.6844C54.4476 23.2723 52.5603 23.5662 50.4655 23.5662H44.5368V19.0692ZM44.5368 25.5061V21.1266H50.4655C52.8172 21.1266 54.8823 21.3912 56.6609 21.9202C58.4395 22.4493 59.9316 23.2135 61.1371 24.2128C62.3426 25.1926 63.2516 26.3584 63.8643 27.7105C64.4769 29.0429 64.7832 30.5223 64.7832 32.1487C64.7832 34.1474 64.3978 35.9305 63.6271 37.4981C62.8564 39.046 61.7695 40.3589 60.3663 41.4366C58.983 42.5143 57.3625 43.3373 55.5048 43.9055C53.6472 44.4542 51.6216 44.7285 49.4279 44.7285C47.6098 44.7285 45.8213 44.4836 44.0625 43.9937C42.3234 43.4842 40.7424 42.7299 39.3196 41.7305C37.9164 40.7116 36.79 39.4379 35.9402 37.9095C35.1102 36.3616 34.6952 34.5295 34.6952 32.4132H43.2621C43.2621 33.5105 43.5388 34.4903 44.0921 35.3524C44.6455 36.2146 45.4063 36.8906 46.3747 37.3805C47.3628 37.8704 48.4596 38.1153 49.6651 38.1153C51.0287 38.1153 52.1947 37.8704 53.163 37.3805C54.1511 36.871 54.9021 36.1656 55.4159 35.2643C55.9495 34.3433 56.2163 33.2754 56.2163 32.0605C56.2163 30.4929 55.9297 29.2389 55.3566 28.2983C54.7835 27.3382 53.9634 26.6328 52.8962 26.1821C51.8291 25.7314 50.5643 25.5061 49.1019 25.5061H44.5368Z" fill="#F5F5F5"/>
</svg>
