<svg width="43" height="31" viewBox="0 0 43 31" fill="none" xmlns="http://www.w3.org/2000/svg">
<g opacity="0.7">
<path d="M20.0171 12.5972V17.6473C20.0171 19.8384 19.7902 21.7288 19.3362 23.3187C18.8823 24.8952 18.2274 26.1911 17.3714 27.2065C16.5285 28.2085 15.5234 28.9499 14.3562 29.4309C13.189 29.9119 11.8921 30.1523 10.4655 30.1523C9.3242 30.1523 8.26075 30.0054 7.27511 29.7115C6.28947 29.4042 5.40109 28.9299 4.60998 28.2886C3.83185 27.6473 3.15746 26.8391 2.58683 25.8638C2.02916 24.8751 1.60118 23.6994 1.3029 22.3367C1.00461 20.974 0.855469 19.4109 0.855469 17.6473V12.5972C0.855469 10.4062 1.08243 8.5291 1.53634 6.96597C2.00322 5.38948 2.65816 4.10024 3.50114 3.09824C4.35709 2.09623 5.36867 1.36143 6.53588 0.893827C7.70308 0.412865 8.99998 0.172384 10.4266 0.172384C11.5678 0.172384 12.6248 0.326024 13.5975 0.633306C14.5831 0.927227 15.4715 1.38815 16.2626 2.01607C17.0537 2.64399 17.7281 3.45228 18.2858 4.44092C18.8434 5.4162 19.2714 6.58521 19.5697 7.94794C19.868 9.2973 20.0171 10.8471 20.0171 12.5972ZM14.3951 18.4089V11.8157C14.3951 10.7602 14.3367 9.83838 14.22 9.05014C14.1162 8.2619 13.9541 7.59389 13.7337 7.04613C13.5132 6.48501 13.2408 6.03077 12.9166 5.68341C12.5924 5.33604 12.2228 5.0822 11.8078 4.92188C11.3928 4.76156 10.9324 4.6814 10.4266 4.6814C9.79109 4.6814 9.22694 4.80832 8.73412 5.06216C8.25426 5.316 7.84574 5.72349 7.50855 6.28461C7.17136 6.83237 6.91198 7.56717 6.73041 8.48902C6.56181 9.3975 6.47752 10.5064 6.47752 11.8157V18.4089C6.47752 19.4643 6.52939 20.3928 6.63314 21.1944C6.74986 21.996 6.91846 22.6841 7.13893 23.2586C7.37237 23.8197 7.64472 24.2806 7.95598 24.6413C8.2802 24.9887 8.64982 25.2425 9.06482 25.4028C9.4928 25.5632 9.95968 25.6433 10.4655 25.6433C11.088 25.6433 11.6392 25.5164 12.119 25.2626C12.6118 24.9954 13.0268 24.5812 13.364 24.0201C13.7142 23.4456 13.9736 22.6974 14.1422 21.7756C14.3108 20.8537 14.3951 19.7315 14.3951 18.4089Z" fill="#14112A"/>
<path d="M29.5688 12.6574H32.5646C33.5243 12.6574 34.3154 12.4904 34.9379 12.1564C35.5604 11.809 36.0208 11.328 36.3191 10.7135C36.6304 10.0855 36.786 9.35742 36.786 8.5291C36.786 7.78093 36.6433 7.11961 36.358 6.54513C36.0857 5.95729 35.6642 5.50305 35.0935 5.1824C34.5229 4.8484 33.8031 4.6814 32.9342 4.6814C32.2469 4.6814 31.6114 4.82168 31.0278 5.10224C30.4442 5.3828 29.9773 5.77693 29.6271 6.28461C29.277 6.79229 29.1019 7.40685 29.1019 8.1283H23.4798C23.4798 6.52509 23.8948 5.12896 24.7249 3.93992C25.5678 2.75087 26.6961 1.82235 28.1098 1.15435C29.5234 0.486345 31.0796 0.152344 32.7786 0.152344C34.698 0.152344 36.3775 0.472985 37.817 1.11427C39.2566 1.74219 40.3784 2.67071 41.1825 3.89984C41.9865 5.12896 42.3886 6.65201 42.3886 8.46898C42.3886 9.39082 42.1811 10.2859 41.7661 11.1543C41.3511 12.0094 40.7545 12.7843 39.9764 13.479C39.2112 14.1604 38.2774 14.7081 37.1751 15.1223C36.0727 15.5231 34.8342 15.7235 33.4595 15.7235H29.5688V12.6574ZM29.5688 17.0461V14.0602H33.4595C35.0028 14.0602 36.358 14.2405 37.5252 14.6012C38.6924 14.962 39.6716 15.483 40.4627 16.1644C41.2538 16.8324 41.8504 17.6273 42.2524 18.5491C42.6545 19.4576 42.8555 20.4663 42.8555 21.5752C42.8555 22.9379 42.6026 24.1537 42.0968 25.2225C41.591 26.2779 40.8777 27.1731 39.9569 27.9079C39.0491 28.6427 37.9856 29.2038 36.7665 29.5912C35.5475 29.9653 34.2181 30.1523 32.7786 30.1523C31.5854 30.1523 30.4117 29.9853 29.2575 29.6513C28.1162 29.304 27.0787 28.7896 26.145 28.1083C25.2242 27.4135 24.4849 26.5451 23.9273 25.503C23.3826 24.4476 23.1102 23.1984 23.1102 21.7556H28.7323C28.7323 22.5037 28.9138 23.1717 29.277 23.7596C29.6401 24.3474 30.1394 24.8083 30.7749 25.1423C31.4233 25.4763 32.1431 25.6433 32.9342 25.6433C33.8291 25.6433 34.5942 25.4763 35.2297 25.1423C35.8782 24.795 36.371 24.314 36.7082 23.6994C37.0583 23.0715 37.2334 22.3434 37.2334 21.5151C37.2334 20.4463 37.0454 19.5912 36.6693 18.9499C36.2932 18.2953 35.755 17.8143 35.0546 17.5071C34.3543 17.1998 33.5243 17.0461 32.5646 17.0461H29.5688Z" fill="#14112A"/>
</g>
</svg>
