<svg width="66" height="45" viewBox="0 0 66 45" fill="none" xmlns="http://www.w3.org/2000/svg">
<path d="M29.8723 18.9931V26.4049C29.8723 29.6206 29.5277 32.3951 28.8386 34.7284C28.1496 37.0421 27.1553 38.9441 25.8559 40.4343C24.5762 41.9049 23.0504 42.9931 21.2784 43.699C19.5065 44.4049 17.5377 44.7578 15.372 44.7578C13.6395 44.7578 12.0251 44.5421 10.5288 44.1108C9.03248 43.6598 7.68385 42.9637 6.48288 42.0225C5.3016 41.0813 4.27783 39.8951 3.41155 38.4637C2.56497 37.0127 1.91526 35.2872 1.46244 33.2872C1.00962 31.2872 0.783203 28.9931 0.783203 26.4049V18.9931C0.783203 15.7774 1.12774 13.0225 1.81682 10.7284C2.52559 8.41468 3.51984 6.52252 4.79956 5.05193C6.09897 3.58134 7.63463 2.50291 9.40656 1.81664C11.1785 1.11075 13.1473 0.757812 15.313 0.757812C17.0455 0.757812 18.6501 0.983303 20.1267 1.43428C21.623 1.86566 22.9716 2.54213 24.1726 3.4637C25.3735 4.38526 26.3973 5.57154 27.2439 7.02252C28.0905 8.45389 28.7402 10.1696 29.193 12.1696C29.6458 14.15 29.8723 16.4245 29.8723 18.9931ZM21.3375 27.5225V17.846C21.3375 16.297 21.2489 14.9441 21.0717 13.7872C20.9142 12.6304 20.6681 11.65 20.3334 10.846C19.9987 10.0225 19.5853 9.35585 19.0931 8.84605C18.6009 8.33624 18.0398 7.9637 17.4097 7.7284C16.7797 7.49311 16.0808 7.37546 15.313 7.37546C14.3482 7.37546 13.4918 7.56173 12.7437 7.93428C12.0152 8.30683 11.395 8.90487 10.8832 9.7284C10.3713 10.5323 9.97751 11.6108 9.70188 12.9637C9.44593 14.297 9.31796 15.9245 9.31796 17.846V27.5225C9.31796 29.0715 9.39671 30.4343 9.55422 31.6108C9.73141 32.7872 9.98735 33.797 10.322 34.6402C10.6764 35.4637 11.0899 36.1402 11.5624 36.6696C12.0546 37.1794 12.6157 37.5519 13.2457 37.7872C13.8954 38.0225 14.6042 38.1402 15.372 38.1402C16.3171 38.1402 17.1538 37.9539 17.8822 37.5813C18.6304 37.1892 19.2604 36.5813 19.7723 35.7578C20.3039 34.9147 20.6976 33.8166 20.9536 32.4637C21.2095 31.1108 21.3375 29.4637 21.3375 27.5225Z" fill="#F5F5F5"/>
<path d="M65.7832 28.1696V34.8166H34.8041L34.3907 29.6696L52.3166 1.34605H59.0794L51.7555 13.5519L42.8368 28.1696H65.7832ZM60.9104 1.34605V44.1696H52.4052V1.34605H60.9104Z" fill="#F5F5F5"/>
</svg>
