<svg width="43" height="31" viewBox="0 0 43 31" fill="none" xmlns="http://www.w3.org/2000/svg">
<g opacity="0.7">
<path d="M19.6515 12.605V17.6585C19.6515 19.851 19.4288 21.7427 18.9836 23.3336C18.5383 24.9112 17.8959 26.208 17.0563 27.224C16.2294 28.2267 15.2435 28.9687 14.0985 29.4499C12.9536 29.9312 11.6815 30.1719 10.2821 30.1719C9.1626 30.1719 8.11944 30.0248 7.15261 29.7307C6.18577 29.4232 5.31435 28.9486 4.53834 28.3069C3.77505 27.6652 3.11353 26.8564 2.55379 25.8804C2.00676 24.8911 1.58695 23.7147 1.29436 22.351C1.00177 20.9874 0.855469 19.4232 0.855469 17.6585V12.605C0.855469 10.4125 1.07809 8.53417 1.52335 6.97C1.98132 5.39246 2.62376 4.10236 3.45065 3.09968C4.29027 2.09701 5.28255 1.36171 6.42748 0.8938C7.57242 0.412517 8.84456 0.171875 10.2439 0.171875C11.3634 0.171875 12.4002 0.325618 13.3543 0.633105C14.3212 0.927223 15.1926 1.38845 15.9686 2.01679C16.7446 2.64514 17.4061 3.45396 17.9532 4.44327C18.5002 5.4192 18.92 6.58899 19.2126 7.95262C19.5052 9.30289 19.6515 10.8537 19.6515 12.605ZM14.1367 18.4205V11.8229C14.1367 10.7668 14.0795 9.84433 13.965 9.05556C13.8632 8.26679 13.7042 7.59835 13.4879 7.05022C13.2716 6.48872 13.0045 6.03417 12.6865 5.68658C12.3684 5.33899 12.0059 5.08498 11.5988 4.92455C11.1917 4.76412 10.7401 4.68391 10.2439 4.68391C9.62058 4.68391 9.06719 4.81091 8.58377 5.06492C8.11308 5.31893 7.71235 5.72669 7.38159 6.28818C7.05083 6.83631 6.7964 7.57161 6.6183 8.49407C6.45292 9.40316 6.37023 10.5128 6.37023 11.8229V18.4205C6.37023 19.4767 6.42112 20.4058 6.52289 21.208C6.63739 22.0101 6.80277 22.6986 7.01903 23.2735C7.24802 23.835 7.51517 24.2962 7.82048 24.6572C8.13852 25.0048 8.50108 25.2588 8.90817 25.4192C9.32798 25.5796 9.78595 25.6598 10.2821 25.6598C10.8927 25.6598 11.4334 25.5328 11.9041 25.2788C12.3875 25.0114 12.7946 24.597 13.1253 24.0355C13.4688 23.4606 13.7233 22.712 13.8886 21.7895C14.054 20.8671 14.1367 19.7441 14.1367 18.4205Z" fill="#14112A"/>
<path d="M42.8555 18.8617V23.3938H22.8382L22.5711 19.8844L34.154 0.572945H38.5238L33.7914 8.89514L28.0286 18.8617H42.8555ZM39.7069 0.572945V29.7708H34.2112V0.572945H39.7069Z" fill="#14112A"/>
</g>
</svg>
