<svg width="65" height="45" viewBox="0 0 65 45" fill="none" xmlns="http://www.w3.org/2000/svg">
<path d="M29.8205 18.9931V26.4049C29.8205 29.6206 29.4766 32.3951 28.7887 34.7284C28.1009 37.0421 27.1084 38.9441 25.8113 40.4343C24.5339 41.9049 23.0107 42.9931 21.242 43.699C19.4732 44.4049 17.5079 44.7578 15.3461 44.7578C13.6166 44.7578 12.0051 44.5421 10.5114 44.1108C9.01781 43.6598 7.67158 42.9637 6.47275 42.0225C5.29357 41.0813 4.27161 39.8951 3.40688 38.4637C2.5618 37.0127 1.91325 35.2872 1.46123 33.2872C1.00921 31.2872 0.783203 28.9931 0.783203 26.4049V18.9931C0.783203 15.7774 1.12713 13.0225 1.81499 10.7284C2.52249 8.41468 3.51497 6.52252 4.79242 5.05193C6.08951 3.58134 7.62245 2.50291 9.39122 1.81664C11.16 1.11075 13.1253 0.757812 15.2871 0.757812C17.0166 0.757812 18.6183 0.983303 20.0923 1.43428C21.5859 1.86566 22.9321 2.54213 24.131 3.4637C25.3298 4.38526 26.3518 5.57154 27.1968 7.02252C28.0419 8.45389 28.6905 10.1696 29.1425 12.1696C29.5945 14.15 29.8205 16.4245 29.8205 18.9931ZM21.3009 27.5225V17.846C21.3009 16.297 21.2125 14.9441 21.0356 13.7872C20.8784 12.6304 20.6327 11.65 20.2986 10.846C19.9645 10.0225 19.5518 9.35585 19.0605 8.84605C18.5692 8.33624 18.0091 7.9637 17.3802 7.7284C16.7513 7.49311 16.0536 7.37546 15.2871 7.37546C14.3241 7.37546 13.4692 7.56173 12.7224 7.93428C11.9952 8.30683 11.3762 8.90487 10.8652 9.7284C10.3542 10.5323 9.96115 11.6108 9.68601 12.9637C9.43052 14.297 9.30278 15.9245 9.30278 17.846V27.5225C9.30278 29.0715 9.38139 30.4343 9.53862 31.6108C9.71549 32.7872 9.97098 33.797 10.3051 34.6402C10.6588 35.4637 11.0715 36.1402 11.5432 36.6696C12.0345 37.1794 12.5947 37.5519 13.2236 37.7872C13.8721 38.0225 14.5796 38.1402 15.3461 38.1402C16.2894 38.1402 17.1247 37.9539 17.8518 37.5813C18.5986 37.1892 19.2275 36.5813 19.7385 35.7578C20.2692 34.9147 20.6622 33.8166 20.9177 32.4637C21.1732 31.1108 21.3009 29.4637 21.3009 27.5225Z" fill="#F5F5F5"/>
<path d="M43.5874 24.6696L36.8072 23.0519L39.254 1.34605H63.3682V8.19899H46.2406L45.1793 17.699C45.7493 17.3657 46.614 17.0127 47.7735 16.6402C48.9331 16.248 50.2302 16.0519 51.6648 16.0519C53.748 16.0519 55.5954 16.3755 57.207 17.0225C58.8185 17.6696 60.1844 18.6108 61.3046 19.846C62.4445 21.0813 63.3092 22.5911 63.8988 24.3755C64.4884 26.1598 64.7832 28.1794 64.7832 30.4343C64.7832 32.3362 64.4884 34.15 63.8988 35.8755C63.3092 37.5813 62.415 39.1108 61.2162 40.4637C60.0174 41.797 58.5139 42.8461 56.7058 43.6108C54.8977 44.3755 52.7556 44.7578 50.2793 44.7578C48.4319 44.7578 46.6435 44.4833 44.914 43.9343C43.2042 43.3853 41.6614 42.5715 40.2857 41.4931C38.9297 40.4147 37.8389 39.1108 37.0135 37.5813C36.2077 36.0323 35.7852 34.2676 35.7459 32.2872H44.177C44.2949 33.5029 44.6094 34.5519 45.1204 35.4343C45.651 36.297 46.3487 36.9637 47.2134 37.4343C48.0782 37.9049 49.0903 38.1402 50.2498 38.1402C51.3307 38.1402 52.2544 37.9343 53.0209 37.5225C53.7873 37.1108 54.4064 36.5421 54.8781 35.8166C55.3498 35.0715 55.6937 34.2088 55.9099 33.2284C56.1457 32.2284 56.2636 31.15 56.2636 29.9931C56.2636 28.8362 56.1261 27.7872 55.8509 26.846C55.5758 25.9049 55.1532 25.0911 54.5833 24.4049C54.0134 23.7186 53.2862 23.1892 52.4018 22.8166C51.5371 22.4441 50.525 22.2578 49.3654 22.2578C47.7932 22.2578 46.5747 22.5029 45.71 22.9931C44.8649 23.4833 44.1574 24.0421 43.5874 24.6696Z" fill="#F5F5F5"/>
</svg>
