<svg width="43" height="31" viewBox="0 0 43 31" fill="none" xmlns="http://www.w3.org/2000/svg">
<g opacity="0.7">
<path d="M19.9112 12.605V17.6585C19.9112 19.851 19.6855 21.7427 19.2341 23.3336C18.7827 24.9112 18.1314 26.208 17.2802 27.224C16.4418 28.2267 15.4423 28.9687 14.2815 29.4499C13.1208 29.9312 11.8311 30.1719 10.4124 30.1719C9.27739 30.1719 8.21982 30.0248 7.23962 29.7307C6.25943 29.4232 5.37597 28.9486 4.58923 28.3069C3.8154 27.6652 3.14474 26.8564 2.57726 25.8804C2.02267 24.8911 1.59706 23.7147 1.30042 22.351C1.00379 20.9874 0.855469 19.4232 0.855469 17.6585V12.605C0.855469 10.4125 1.08117 8.53417 1.53258 6.97C1.99688 5.39246 2.64819 4.10236 3.48651 3.09968C4.33774 2.09701 5.34372 1.36171 6.50448 0.8938C7.66523 0.412517 8.95496 0.171875 10.3737 0.171875C11.5086 0.171875 12.5598 0.325618 13.527 0.633105C14.5072 0.927223 15.3907 1.38845 16.1774 2.01679C16.9642 2.64514 17.6348 3.45396 18.1894 4.44327C18.744 5.4192 19.1696 6.58899 19.4662 7.95262C19.7629 9.30289 19.9112 10.8537 19.9112 12.605ZM14.3202 18.4205V11.8229C14.3202 10.7668 14.2622 9.84433 14.1461 9.05556C14.0429 8.26679 13.8817 7.59835 13.6625 7.05022C13.4432 6.48872 13.1724 6.03417 12.8499 5.68658C12.5275 5.33899 12.1599 5.08498 11.7472 4.92455C11.3345 4.76412 10.8767 4.68391 10.3737 4.68391C9.7417 4.68391 9.18066 4.81091 8.69057 5.06492C8.21337 5.31893 7.8071 5.72669 7.47177 6.28818C7.13645 6.83631 6.8785 7.57161 6.69794 8.49407C6.53027 9.40316 6.44644 10.5128 6.44644 11.8229V18.4205C6.44644 19.4767 6.49803 20.4058 6.60121 21.208C6.71728 22.0101 6.88495 22.6986 7.1042 23.2735C7.33635 23.835 7.6072 24.2962 7.91673 24.6572C8.23916 25.0048 8.60674 25.2588 9.01945 25.4192C9.44506 25.5796 9.90936 25.6598 10.4124 25.6598C11.0314 25.6598 11.5796 25.5328 12.0568 25.2788C12.5469 25.0114 12.9596 24.597 13.2949 24.0355C13.6431 23.4606 13.9011 22.712 14.0687 21.7895C14.2364 20.8671 14.3202 19.7441 14.3202 18.4205Z" fill="#14112A"/>
<path d="M28.9458 16.4754L24.4962 15.3724L26.1019 0.572945H41.9269V5.2454H30.6869L29.9904 11.7227C30.3645 11.4954 30.9319 11.2548 31.6929 11.0008C32.4538 10.7334 33.305 10.5997 34.2465 10.5997C35.6136 10.5997 36.826 10.8203 37.8836 11.2614C38.9411 11.7026 39.8375 12.3443 40.5727 13.1866C41.3207 14.0288 41.8882 15.0582 42.2751 16.2748C42.662 17.4914 42.8555 18.8684 42.8555 20.4058C42.8555 21.7026 42.662 22.9393 42.2751 24.1157C41.8882 25.2788 41.3013 26.3216 40.5146 27.2441C39.7279 28.1532 38.7412 28.8684 37.5547 29.3898C36.3681 29.9112 34.9623 30.1719 33.3373 30.1719C32.1249 30.1719 30.9513 29.9847 29.8163 29.6104C28.6943 29.236 27.6818 28.6812 26.779 27.9459C25.8891 27.2106 25.1733 26.3216 24.6316 25.2788C24.1028 24.2227 23.8255 23.0195 23.7997 21.6692H29.3327C29.4101 22.4981 29.6164 23.2133 29.9517 23.8149C30.3 24.4032 30.7578 24.8577 31.3253 25.1786C31.8928 25.4994 32.557 25.6598 33.3179 25.6598C34.0273 25.6598 34.6335 25.5195 35.1364 25.2387C35.6394 24.958 36.0457 24.5703 36.3552 24.0756C36.6648 23.5676 36.8905 22.9794 37.0323 22.3109C37.1871 21.6291 37.2645 20.8938 37.2645 20.105C37.2645 19.3163 37.1742 18.601 36.9937 17.9593C36.8131 17.3176 36.5358 16.7628 36.1618 16.2949C35.7878 15.827 35.3106 15.466 34.7302 15.212C34.1627 14.958 33.4985 14.831 32.7376 14.831C31.7058 14.831 30.9061 14.9981 30.3387 15.3323C29.7841 15.6665 29.3198 16.0475 28.9458 16.4754Z" fill="#14112A"/>
</g>
</svg>
