<svg width="65" height="45" viewBox="0 0 65 45" fill="none" xmlns="http://www.w3.org/2000/svg">
<path d="M29.6345 18.9931V26.4049C29.6345 29.6206 29.2927 32.3951 28.6093 34.7284C27.9258 37.0421 26.9397 38.9441 25.6509 40.4343C24.3817 41.9049 22.8683 42.9931 21.1109 43.699C19.3535 44.4049 17.4007 44.7578 15.2528 44.7578C13.5344 44.7578 11.9332 44.5421 10.4491 44.1108C8.96505 43.6598 7.62744 42.9637 6.43629 42.0225C5.26467 41.0813 4.24926 39.8951 3.39007 38.4637C2.5504 37.0127 1.90601 35.2872 1.45689 33.2872C1.00776 31.2872 0.783203 28.9931 0.783203 26.4049V18.9931C0.783203 15.7774 1.12493 13.0225 1.80837 10.7284C2.51135 8.41468 3.49747 6.52252 4.76673 5.05193C6.05551 3.58134 7.57863 2.50291 9.33606 1.81664C11.0935 1.11075 13.0462 0.757812 15.1942 0.757812C16.9126 0.757812 18.504 0.983303 19.9686 1.43428C21.4526 1.86566 22.7902 2.54213 23.9814 3.4637C25.1725 4.38526 26.1879 5.57154 27.0276 7.02252C27.8673 8.45389 28.5117 10.1696 28.9608 12.1696C29.4099 14.15 29.6345 16.4245 29.6345 18.9931ZM21.1695 27.5225V17.846C21.1695 16.297 21.0816 14.9441 20.9059 13.7872C20.7496 12.6304 20.5056 11.65 20.1736 10.846C19.8416 10.0225 19.4316 9.35585 18.9434 8.84605C18.4552 8.33624 17.8987 7.9637 17.2738 7.7284C16.649 7.49311 15.9557 7.37546 15.1942 7.37546C14.2374 7.37546 13.3879 7.56173 12.6459 7.93428C11.9234 8.30683 11.3083 8.90487 10.8006 9.7284C10.2929 10.5323 9.90235 11.6108 9.62897 12.9637C9.37512 14.297 9.24819 15.9245 9.24819 17.846V27.5225C9.24819 29.0715 9.3263 30.4343 9.48252 31.6108C9.65826 32.7872 9.91211 33.797 10.2441 34.6402C10.5956 35.4637 11.0056 36.1402 11.4743 36.6696C11.9625 37.1794 12.519 37.5519 13.1438 37.7872C13.7882 38.0225 14.4912 38.1402 15.2528 38.1402C16.1901 38.1402 17.02 37.9539 17.7425 37.5813C18.4845 37.1892 19.1094 36.5813 19.6171 35.7578C20.1443 34.9147 20.5348 33.8166 20.7887 32.4637C21.0425 31.1108 21.1695 29.4637 21.1695 27.5225Z" fill="#F5F5F5"/>
<path d="M57.1384 0.904871H58.3686V7.66958H57.8706C55.6445 7.66958 53.6625 8.00291 51.9246 8.66958C50.1867 9.33624 48.7124 10.2872 47.5017 11.5225C46.3106 12.7382 45.3928 14.2088 44.7484 15.9343C44.1236 17.6598 43.8111 19.5911 43.8111 21.7284V28.846C43.8111 30.3755 43.9576 31.7284 44.2505 32.9049C44.5629 34.0617 45.0023 35.0323 45.5686 35.8166C46.1544 36.5813 46.8378 37.1598 47.6189 37.5519C48.4 37.9245 49.2787 38.1108 50.2551 38.1108C51.1728 38.1108 52.0027 37.9147 52.7448 37.5225C53.5063 37.1304 54.1507 36.5813 54.6779 35.8755C55.2247 35.15 55.6348 34.3068 55.9081 33.346C56.2011 32.3657 56.3475 31.297 56.3475 30.1402C56.3475 28.9833 56.2011 27.9147 55.9081 26.9343C55.6348 25.9539 55.2247 25.1108 54.6779 24.4049C54.1312 23.6794 53.4673 23.1206 52.6862 22.7284C51.9051 22.3362 51.0264 22.1402 50.05 22.1402C48.7222 22.1402 47.5506 22.4539 46.5351 23.0813C45.5393 23.6892 44.7582 24.4735 44.1919 25.4343C43.6256 26.3951 43.3229 27.4049 43.2839 28.4637L40.7356 26.8166C40.7942 25.3068 41.1066 23.8755 41.6729 22.5225C42.2587 21.1696 43.0593 19.9735 44.0747 18.9343C45.1097 17.8755 46.3496 17.0519 47.7946 16.4637C49.2396 15.8559 50.8702 15.5519 52.6862 15.5519C54.6779 15.5519 56.4256 15.9343 57.9292 16.699C59.4523 17.4637 60.7216 18.5127 61.737 19.846C62.7524 21.1794 63.5139 22.7186 64.0216 24.4637C64.5294 26.2088 64.7832 28.0715 64.7832 30.0519C64.7832 32.1304 64.4415 34.0617 63.758 35.846C63.0941 37.6304 62.1275 39.1892 60.8583 40.5225C59.6085 41.8559 58.1049 42.8951 56.3475 43.6402C54.5901 44.3853 52.6178 44.7578 50.4308 44.7578C48.1657 44.7578 46.1056 44.3461 44.2505 43.5225C42.4149 42.6794 40.8332 41.5029 39.5054 39.9931C38.1776 38.4833 37.1524 36.6892 36.4299 34.6108C35.7269 32.5323 35.3754 30.2578 35.3754 27.7872V24.4931C35.3754 21.0421 35.8734 17.8853 36.8692 15.0225C37.8847 12.1402 39.3394 9.64997 41.2335 7.55193C43.1277 5.43428 45.4123 3.79703 48.0876 2.64017C50.7628 1.4833 53.7797 0.904871 57.1384 0.904871Z" fill="#F5F5F5"/>
</svg>
