<svg width="43" height="31" viewBox="0 0 43 31" fill="none" xmlns="http://www.w3.org/2000/svg">
<g opacity="0.7">
<path d="M19.7891 12.605V17.6585C19.7891 19.851 19.5649 21.7427 19.1163 23.3336C18.6678 24.9112 18.0207 26.208 17.1749 27.224C16.342 28.2267 15.3488 28.9687 14.1955 29.4499C13.0422 29.9312 11.7607 30.1719 10.3511 30.1719C9.22343 30.1719 8.17263 30.0248 7.19872 29.7307C6.22481 29.4232 5.347 28.9486 4.56531 28.3069C3.79643 27.6652 3.13007 26.8564 2.56622 25.8804C2.01519 24.8911 1.59231 23.7147 1.29757 22.351C1.00284 20.9874 0.855469 19.4232 0.855469 17.6585V12.605C0.855469 10.4125 1.07973 8.53417 1.52824 6.97C1.98956 5.39246 2.6367 4.10236 3.46966 3.09968C4.31542 2.09701 5.31497 1.36171 6.46828 0.8938C7.6216 0.412517 8.90307 0.171875 10.3127 0.171875C11.4404 0.171875 12.4848 0.325618 13.4459 0.633105C14.4198 0.927223 15.2976 1.38845 16.0793 2.01679C16.861 2.64514 17.5273 3.45396 18.0784 4.44327C18.6294 5.4192 19.0523 6.58899 19.347 7.95262C19.6417 9.30289 19.7891 10.8537 19.7891 12.605ZM14.234 18.4205V11.8229C14.234 10.7668 14.1763 9.84433 14.061 9.05556C13.9584 8.26679 13.7983 7.59835 13.5804 7.05022C13.3626 6.48872 13.0935 6.03417 12.7731 5.68658C12.4527 5.33899 12.0875 5.08498 11.6774 4.92455C11.2674 4.76412 10.8124 4.68391 10.3127 4.68391C9.68476 4.68391 9.12732 4.81091 8.64037 5.06492C8.16622 5.31893 7.76256 5.72669 7.42938 6.28818C7.0962 6.83631 6.83991 7.57161 6.6605 8.49407C6.49391 9.40316 6.41062 10.5128 6.41062 11.8229V18.4205C6.41062 19.4767 6.46188 20.4058 6.56439 21.208C6.67973 22.0101 6.84632 22.6986 7.06416 23.2735C7.29483 23.835 7.56394 24.2962 7.87149 24.6572C8.19185 25.0048 8.55707 25.2588 8.96714 25.4192C9.39002 25.5796 9.85135 25.6598 10.3511 25.6598C10.9662 25.6598 11.5108 25.5328 11.985 25.2788C12.4719 25.0114 12.882 24.597 13.2152 24.0355C13.5612 23.4606 13.8175 22.712 13.9841 21.7895C14.1507 20.8671 14.234 19.7441 14.234 18.4205Z" fill="#14112A"/>
<path d="M37.8385 0.272142H38.6459V4.88444H38.3191C36.8582 4.88444 35.5575 5.11171 34.417 5.56626C33.2765 6.02081 32.309 6.6692 31.5145 7.51145C30.7328 8.34032 30.1305 9.343 29.7076 10.5195C29.2976 11.6959 29.0925 13.0128 29.0925 14.47V19.3229C29.0925 20.3657 29.1886 21.2882 29.3809 22.0903C29.5859 22.8791 29.8742 23.5409 30.2459 24.0756C30.6303 24.597 31.0788 24.9914 31.5914 25.2588C32.104 25.5128 32.6806 25.6398 33.3214 25.6398C33.9237 25.6398 34.4683 25.5061 34.9552 25.2387C35.455 24.9713 35.8779 24.597 36.2239 24.1157C36.5827 23.6211 36.8518 23.0462 37.0312 22.3911C37.2234 21.7227 37.3195 20.9941 37.3195 20.2053C37.3195 19.4165 37.2234 18.6879 37.0312 18.0195C36.8518 17.351 36.5827 16.7762 36.2239 16.2949C35.8651 15.8002 35.4294 15.4192 34.9168 15.1518C34.4042 14.8844 33.8276 14.7508 33.1868 14.7508C32.3154 14.7508 31.5465 14.9647 30.8802 15.3925C30.2266 15.8069 29.7141 16.3417 29.3424 16.9967C28.9708 17.6518 28.7722 18.3403 28.7465 19.0622L27.0742 17.9393C27.1127 16.9098 27.3177 15.9339 27.6893 15.0114C28.0738 14.089 28.5992 13.2735 29.2655 12.5649C29.9447 11.843 30.7584 11.2815 31.7067 10.8804C32.655 10.466 33.725 10.2588 34.9168 10.2588C36.2239 10.2588 37.3708 10.5195 38.3575 11.0409C39.3571 11.5622 40.19 12.2775 40.8564 13.1866C41.5227 14.0957 42.0225 15.1451 42.3557 16.335C42.6889 17.5248 42.8555 18.7949 42.8555 20.1451C42.8555 21.5622 42.6312 22.8791 42.1827 24.0957C41.747 25.3122 41.1127 26.3751 40.2797 27.2842C39.4596 28.1933 38.4729 28.9018 37.3195 29.4098C36.1662 29.9179 34.8719 30.1719 33.4367 30.1719C31.9502 30.1719 30.5983 29.8911 29.3809 29.3296C28.1763 28.7548 27.1383 27.9526 26.2669 26.9232C25.3955 25.8938 24.7227 24.6705 24.2486 23.2534C23.7873 21.8363 23.5566 20.2855 23.5566 18.601V16.355C23.5566 14.0021 23.8834 11.8497 24.5369 9.89781C25.2033 7.93257 26.158 6.23471 27.401 4.80423C28.644 3.36038 30.1433 2.24407 31.8989 1.4553C33.6546 0.666527 35.6344 0.272142 37.8385 0.272142Z" fill="#14112A"/>
</g>
</svg>
