<svg width="43" height="31" viewBox="0 0 43 31" fill="none" xmlns="http://www.w3.org/2000/svg">
<g opacity="0.7">
<path d="M19.92 12.605V17.6585C19.92 19.851 19.6942 21.7427 19.2426 23.3336C18.791 24.9112 18.1393 26.208 17.2877 27.224C16.449 28.2267 15.449 28.9687 14.2877 29.4499C13.1264 29.9312 11.8361 30.1719 10.4168 30.1719C9.28128 30.1719 8.22321 30.0248 7.24257 29.7307C6.26192 29.4232 5.37805 28.9486 4.59095 28.3069C3.81676 27.6652 3.14579 26.8564 2.57805 25.8804C2.02321 24.8911 1.5974 23.7147 1.30063 22.351C1.00386 20.9874 0.855469 19.4232 0.855469 17.6585V12.605C0.855469 10.4125 1.08128 8.53417 1.53289 6.97C1.9974 5.39246 2.64902 4.10236 3.48773 3.09968C4.33934 2.09701 5.34579 1.36171 6.50708 0.8938C7.66837 0.412517 8.95869 0.171875 10.378 0.171875C11.5135 0.171875 12.5651 0.325618 13.5329 0.633105C14.5135 0.927223 15.3974 1.38845 16.1845 2.01679C16.9716 2.64514 17.6426 3.45396 18.1974 4.44327C18.7522 5.4192 19.178 6.58899 19.4748 7.95262C19.7716 9.30289 19.92 10.8537 19.92 12.605ZM14.3264 18.4205V11.8229C14.3264 10.7668 14.2684 9.84433 14.1522 9.05556C14.049 8.26679 13.8877 7.59835 13.6684 7.05022C13.449 6.48872 13.178 6.03417 12.8555 5.68658C12.5329 5.33899 12.1651 5.08498 11.7522 4.92455C11.3393 4.76412 10.8813 4.68391 10.378 4.68391C9.74579 4.68391 9.1845 4.81091 8.69418 5.06492C8.21676 5.31893 7.81031 5.72669 7.47482 6.28818C7.13934 6.83631 6.88128 7.57161 6.70063 8.49407C6.53289 9.40316 6.44902 10.5128 6.44902 11.8229V18.4205C6.44902 19.4767 6.50063 20.4058 6.60386 21.208C6.71998 22.0101 6.88773 22.6986 7.10708 23.2735C7.33934 23.835 7.61031 24.2962 7.91998 24.6572C8.24257 25.0048 8.61031 25.2588 9.02321 25.4192C9.44902 25.5796 9.91353 25.6598 10.4168 25.6598C11.0361 25.6598 11.5845 25.5328 12.0619 25.2788C12.5522 25.0114 12.9651 24.597 13.3006 24.0355C13.649 23.4606 13.9071 22.712 14.0748 21.7895C14.2426 20.8671 14.3264 19.7441 14.3264 18.4205Z" fill="#14112A"/>
<path d="M42.8555 0.572945V3.68123L31.9587 29.7708H26.0748L36.9716 5.08498H22.9393V0.572945H42.8555Z" fill="#14112A"/>
</g>
</svg>
