<svg width="43" height="31" viewBox="0 0 43 31" fill="none" xmlns="http://www.w3.org/2000/svg">
<g opacity="0.7">
<path d="M19.9905 12.5972V17.6473C19.9905 19.8384 19.7639 21.7288 19.3106 23.3187C18.8573 24.8952 18.2033 26.1911 17.3485 27.2065C16.5067 28.2085 15.503 28.9499 14.3374 29.4309C13.1718 29.9119 11.8767 30.1523 10.4521 30.1523C9.31245 30.1523 8.25047 30.0054 7.2662 29.7115C6.28193 29.4042 5.39478 28.9299 4.60477 28.2886C3.82772 27.6473 3.15427 26.8391 2.58442 25.8638C2.02753 24.8751 1.60015 23.6994 1.30228 22.3367C1.0044 20.974 0.855469 19.4109 0.855469 17.6473V12.5972C0.855469 10.4062 1.08211 8.5291 1.53539 6.96597C2.00163 5.38948 2.65565 4.10024 3.49747 3.09824C4.35223 2.09623 5.36241 1.36143 6.52799 0.893827C7.69358 0.412865 8.98868 0.172384 10.4133 0.172384C11.553 0.172384 12.6085 0.326024 13.5798 0.633306C14.5641 0.927227 15.4512 1.38815 16.2412 2.01607C17.0312 2.64399 17.7047 3.45228 18.2616 4.44092C18.8185 5.4162 19.2458 6.58521 19.5437 7.94794C19.8416 9.2973 19.9905 10.8471 19.9905 12.5972ZM14.3763 18.4089V11.8157C14.3763 10.7602 14.318 9.83838 14.2014 9.05014C14.0978 8.2619 13.9359 7.59389 13.7158 7.04613C13.4956 6.48501 13.2236 6.03077 12.8999 5.68341C12.5761 5.33604 12.207 5.0822 11.7926 4.92188C11.3781 4.76156 10.9184 4.6814 10.4133 4.6814C9.77869 4.6814 9.21532 4.80832 8.72318 5.06216C8.244 5.316 7.83604 5.72349 7.49932 6.28461C7.16259 6.83237 6.90357 7.56717 6.72226 8.48902C6.5539 9.3975 6.46971 10.5064 6.46971 11.8157V18.4089C6.46971 19.4643 6.52152 20.3928 6.62513 21.1944C6.74169 21.996 6.91005 22.6841 7.13021 23.2586C7.36333 23.8197 7.6353 24.2806 7.94613 24.6413C8.2699 24.9887 8.639 25.2425 9.05343 25.4028C9.48082 25.5632 9.94705 25.6433 10.4521 25.6433C11.0738 25.6433 11.6242 25.5164 12.1034 25.2626C12.5955 24.9954 13.01 24.5812 13.3467 24.0201C13.6964 23.4456 13.9554 22.6974 14.1237 21.7756C14.2921 20.8537 14.3763 19.7315 14.3763 18.4089Z" fill="#14112A"/>
<path d="M42.8555 21.7556C42.8555 23.5859 42.441 25.129 41.6122 26.3848C40.7833 27.6273 39.6436 28.5692 38.1931 29.2105C36.7556 29.8384 35.1237 30.1523 33.2977 30.1523C31.4716 30.1523 29.8333 29.8384 28.3828 29.2105C26.9322 28.5692 25.7861 27.6273 24.9443 26.3848C24.1025 25.129 23.6816 23.5859 23.6816 21.7556C23.6816 20.5264 23.9211 19.4175 24.4003 18.4289C24.8795 17.4269 25.5465 16.5718 26.4013 15.8638C27.269 15.1423 28.2856 14.5946 29.4512 14.2205C30.6168 13.833 31.886 13.6393 33.2588 13.6393C35.0978 13.6393 36.7426 13.9733 38.1931 14.6413C39.6436 15.3093 40.7833 16.2512 41.6122 17.467C42.441 18.6827 42.8555 20.1123 42.8555 21.7556ZM37.2218 21.3748C37.2218 20.4797 37.0534 19.7115 36.7167 19.0702C36.3929 18.4155 35.9332 17.9145 35.3374 17.5672C34.7417 17.2198 34.0488 17.0461 33.2588 17.0461C32.4688 17.0461 31.7759 17.2198 31.1802 17.5672C30.5844 17.9145 30.1182 18.4155 29.7815 19.0702C29.4577 19.7115 29.2958 20.4797 29.2958 21.3748C29.2958 22.2566 29.4577 23.0181 29.7815 23.6594C30.1182 24.3006 30.5844 24.795 31.1802 25.1423C31.7889 25.4763 32.4947 25.6433 33.2977 25.6433C34.1006 25.6433 34.7935 25.4763 35.3763 25.1423C35.972 24.795 36.4253 24.3006 36.7361 23.6594C37.0599 23.0181 37.2218 22.2566 37.2218 21.3748ZM42.2532 8.30866C42.2532 9.79162 41.8712 11.1076 41.1071 12.2566C40.343 13.3922 39.281 14.2806 37.9211 14.9219C36.5742 15.5632 35.0331 15.8838 33.2977 15.8838C31.5493 15.8838 29.9952 15.5632 28.6353 14.9219C27.2754 14.2806 26.2135 13.3922 25.4494 12.2566C24.6853 11.1076 24.3032 9.79162 24.3032 8.30866C24.3032 6.54513 24.6853 5.06216 25.4494 3.85976C26.2264 2.64399 27.2884 1.72215 28.6353 1.09423C29.9952 0.466305 31.5363 0.152344 33.2588 0.152344C35.0072 0.152344 36.5548 0.466305 37.9017 1.09423C39.2616 1.72215 40.3236 2.64399 41.0877 3.85976C41.8647 5.06216 42.2532 6.54513 42.2532 8.30866ZM36.6584 8.56918C36.6584 7.78093 36.5224 7.09957 36.2505 6.52509C35.9785 5.93725 35.59 5.48301 35.0849 5.16236C34.5927 4.84172 33.9841 4.6814 33.2588 4.6814C32.5594 4.6814 31.9572 4.83504 31.4521 5.14232C30.96 5.4496 30.5779 5.89717 30.306 6.48501C30.047 7.05949 29.9174 7.75421 29.9174 8.56918C29.9174 9.35742 30.047 10.0521 30.306 10.6533C30.5779 11.2412 30.9665 11.7021 31.4716 12.0361C31.9767 12.3701 32.5853 12.5371 33.2977 12.5371C34.01 12.5371 34.6122 12.3701 35.1043 12.0361C35.6094 11.7021 35.9915 11.2412 36.2505 10.6533C36.5224 10.0521 36.6584 9.35742 36.6584 8.56918Z" fill="#14112A"/>
</g>
</svg>
