<svg width="43" height="31" viewBox="0 0 43 31" fill="none" xmlns="http://www.w3.org/2000/svg">
<g opacity="0.7">
<path d="M20.0884 12.5972V17.6473C20.0884 19.8384 19.8606 21.7288 19.405 23.3187C18.9494 24.8952 18.292 26.1911 17.4329 27.2065C16.5868 28.2085 15.5779 28.9499 14.4064 29.4309C13.2348 29.9119 11.9331 30.1523 10.5012 30.1523C9.3557 30.1523 8.28829 30.0054 7.29898 29.7115C6.30968 29.4042 5.418 28.9299 4.62395 28.2886C3.84292 27.6473 3.16602 26.8391 2.59327 25.8638C2.03353 24.8751 1.60396 23.6994 1.30456 22.3367C1.00517 20.974 0.855469 19.4109 0.855469 17.6473V12.5972C0.855469 10.4062 1.08327 8.5291 1.53887 6.96597C2.00749 5.38948 2.66486 4.10024 3.51098 3.09824C4.37011 2.09623 5.38545 1.36143 6.557 0.893827C7.72855 0.412865 9.03027 0.172384 10.4622 0.172384C11.6077 0.172384 12.6686 0.326024 13.6449 0.633306C14.6342 0.927227 15.5259 1.38815 16.3199 2.01607C17.114 2.64399 17.7908 3.45228 18.3506 4.44092C18.9103 5.4162 19.3399 6.58521 19.6393 7.94794C19.9387 9.2973 20.0884 10.8471 20.0884 12.5972ZM14.4454 18.4089V11.8157C14.4454 10.7602 14.3868 9.83838 14.2697 9.05014C14.1656 8.2619 14.0028 7.59389 13.7815 7.04613C13.5603 6.48501 13.2869 6.03077 12.9615 5.68341C12.636 5.33604 12.265 5.0822 11.8485 4.92188C11.4319 4.76156 10.9698 4.6814 10.4622 4.6814C9.82432 4.6814 9.25807 4.80832 8.76342 5.06216C8.28178 5.316 7.87174 5.72349 7.53329 6.28461C7.19485 6.83237 6.9345 7.56717 6.75226 8.48902C6.58304 9.3975 6.49843 10.5064 6.49843 11.8157V18.4089C6.49843 19.4643 6.55049 20.3928 6.65463 21.1944C6.77179 21.996 6.94101 22.6841 7.1623 23.2586C7.39661 23.8197 7.66997 24.2806 7.98239 24.6413C8.30782 24.9887 8.67881 25.2425 9.09536 25.4028C9.52492 25.5632 9.99354 25.6433 10.5012 25.6433C11.126 25.6433 11.6793 25.5164 12.1609 25.2626C12.6556 24.9954 13.0721 24.5812 13.4106 24.0201C13.762 23.4456 14.0224 22.6974 14.1916 21.7756C14.3608 20.8537 14.4454 19.7315 14.4454 18.4089Z" fill="#14112A"/>
<path d="M27.8987 25.3628H28.2697C29.8318 25.3628 31.1725 25.169 32.292 24.7816C33.4245 24.3808 34.3552 23.8063 35.0842 23.0582C35.8132 22.31 36.3534 21.3948 36.7048 20.3127C37.0563 19.2171 37.232 17.9747 37.232 16.5852V11.0541C37.232 9.9987 37.1279 9.07018 36.9196 8.26858C36.7244 7.46697 36.438 6.80565 36.0605 6.28461C35.696 5.75021 35.2664 5.3494 34.7718 5.0822C34.2901 4.815 33.7564 4.6814 33.1707 4.6814C32.5458 4.6814 31.9926 4.84172 31.511 5.16236C31.0293 5.46965 30.6193 5.89049 30.2809 6.42489C29.9554 6.95929 29.7016 7.57385 29.5193 8.26858C29.3501 8.94994 29.2655 9.6647 29.2655 10.4129C29.2655 11.161 29.3501 11.8758 29.5193 12.5572C29.6886 13.2252 29.9424 13.8197 30.2809 14.3407C30.6193 14.8484 31.0424 15.2559 31.55 15.5632C32.0577 15.8571 32.6565 16.004 33.3464 16.004C34.0103 16.004 34.6026 15.8771 35.1233 15.6233C35.657 15.3561 36.106 15.0087 36.4705 14.5812C36.848 14.1537 37.1344 13.6794 37.3297 13.1584C37.5379 12.6373 37.6421 12.1096 37.6421 11.5752L39.497 12.6173C39.497 13.5525 39.3018 14.4743 38.9113 15.3828C38.5207 16.2913 37.974 17.1196 37.2711 17.8678C36.5812 18.6026 35.7806 19.1904 34.8694 19.6313C33.9582 20.0722 32.9819 20.2926 31.9405 20.2926C30.6128 20.2926 29.4347 20.0455 28.4064 19.5511C27.378 19.0435 26.5059 18.3487 25.7899 17.467C25.087 16.5718 24.5533 15.5298 24.1888 14.3407C23.8243 13.1517 23.6421 11.8624 23.6421 10.473C23.6421 9.05682 23.8634 7.72749 24.306 6.48501C24.7616 5.24252 25.4059 4.147 26.239 3.19844C27.0851 2.24987 28.094 1.50839 29.2655 0.973987C30.4501 0.426225 31.7648 0.152344 33.2097 0.152344C34.6546 0.152344 35.9694 0.439585 37.1539 1.01407C38.3385 1.58855 39.3538 2.40351 40.2 3.45896C41.0461 4.50104 41.6969 5.75021 42.1525 7.20645C42.6212 8.6627 42.8555 10.2793 42.8555 12.0562V14.0602C42.8555 15.9573 42.6537 17.7208 42.2502 19.3507C41.8597 20.9807 41.2674 22.457 40.4733 23.7796C39.6923 25.0889 38.716 26.2111 37.5445 27.1463C36.3859 28.0815 35.0386 28.7963 33.5026 29.2906C31.9666 29.7849 30.2483 30.0321 28.3478 30.0321H27.8987V25.3628Z" fill="#14112A"/>
</g>
</svg>
