<svg width="1215" height="125" viewBox="0 0 1215 125" fill="none" xmlns="http://www.w3.org/2000/svg">
<path opacity="0.03" d="M99.9489 59.3931V107.946C97.9638 110.207 94.931 112.633 90.8504 115.225C86.825 117.817 81.6692 120.05 75.3829 121.925C69.0967 123.744 61.5973 124.654 52.8848 124.654C44.9994 124.654 37.8309 123.386 31.3792 120.849C24.9275 118.258 19.3857 114.48 14.7537 109.518C10.1218 104.5 6.53749 98.3789 4.00093 91.1552C1.51952 83.9315 0.278813 75.6601 0.278813 66.3411V59.2277C0.278813 49.9086 1.51952 41.6372 4.00093 34.4135C6.48235 27.1899 9.9839 21.0966 14.5056 16.1338C19.0273 11.1158 24.4037 7.31099 30.6348 4.71929C36.8659 2.12759 43.7587 0.831743 51.3132 0.831743C62.066 0.831743 70.8612 2.56873 77.6989 6.04271C84.5366 9.46155 89.72 14.2038 93.2491 20.2695C96.8334 26.3352 99.0391 33.3107 99.8662 41.1961H73.8941C73.3427 37.1707 72.2398 33.6967 70.5855 30.7741C68.9864 27.8516 66.698 25.6183 63.7203 24.0743C60.7426 22.4752 56.8826 21.6756 52.1404 21.6756C48.3355 21.6756 44.8891 22.4752 41.8011 24.0743C38.7683 25.6183 36.2042 27.9619 34.1088 31.105C32.0133 34.2481 30.4142 38.1632 29.3114 42.8503C28.2085 47.4823 27.6571 52.8863 27.6571 59.0622V66.3411C27.6571 72.517 28.2085 77.9486 29.3114 82.6357C30.4693 87.3228 32.1512 91.2379 34.3569 94.381C36.5626 97.469 39.3473 99.8126 42.711 101.412C46.1298 103.011 50.1001 103.81 54.6218 103.81C58.1509 103.81 61.1286 103.535 63.5549 102.983C65.9811 102.377 67.9663 101.632 69.5102 100.75C71.0542 99.8126 72.2122 98.9579 72.9842 98.1859V78.1691H51.5614V59.3931H99.9489ZM180.843 91.2379C180.843 89.1976 180.54 87.3779 179.933 85.7788C179.327 84.1245 178.224 82.6081 176.625 81.2295C175.025 79.851 172.765 78.4724 169.842 77.0939C166.92 75.6601 163.087 74.1989 158.345 72.71C152.941 70.9455 147.785 68.9603 142.877 66.7546C138.025 64.4938 133.696 61.8745 129.891 58.8968C126.086 55.9191 123.081 52.4451 120.876 48.4749C118.725 44.5046 117.65 39.8726 117.65 34.579C117.65 29.4507 118.78 24.8187 121.041 20.6831C123.302 16.5474 126.472 13.0182 130.553 10.0957C134.634 7.11799 139.431 4.85715 144.945 3.31316C150.459 1.71402 156.525 0.914457 163.142 0.914457C171.965 0.914457 179.713 2.48602 186.385 5.62914C193.112 8.71712 198.351 13.0734 202.1 18.6979C205.85 24.2673 207.725 30.7466 207.725 38.1357H180.926C180.926 34.8823 180.236 32.0148 178.858 29.5334C177.534 26.9969 175.494 25.0117 172.737 23.578C170.035 22.1443 166.644 21.4275 162.563 21.4275C158.593 21.4275 155.257 22.034 152.555 23.2472C149.908 24.4052 147.895 26.0043 146.517 28.0446C145.193 30.0849 144.532 32.3181 144.532 34.7444C144.532 36.6744 145.028 38.4389 146.02 40.0381C147.068 41.5821 148.557 43.0433 150.487 44.4219C152.472 45.7453 154.898 47.0136 157.766 48.2267C160.633 49.4399 163.914 50.5979 167.609 51.7007C174.06 53.741 179.768 56.0018 184.731 58.4832C189.749 60.9647 193.967 63.7769 197.386 66.9201C200.805 70.0632 203.369 73.6199 205.078 77.5901C206.843 81.5604 207.725 86.0545 207.725 91.0725C207.725 96.4213 206.677 101.164 204.582 105.299C202.542 109.435 199.564 112.964 195.649 115.887C191.789 118.754 187.157 120.932 181.753 122.421C176.349 123.91 170.311 124.654 163.639 124.654C157.573 124.654 151.59 123.882 145.69 122.338C139.789 120.739 134.441 118.313 129.643 115.059C124.901 111.806 121.096 107.67 118.229 102.652C115.416 97.5793 114.01 91.5688 114.01 84.6208H140.975C140.975 88.2602 141.499 91.3482 142.547 93.8847C143.594 96.3662 145.083 98.3789 147.013 99.9229C148.998 101.467 151.397 102.57 154.209 103.231C157.021 103.893 160.165 104.224 163.639 104.224C167.664 104.224 170.917 103.673 173.399 102.57C175.935 101.412 177.81 99.8401 179.023 97.855C180.236 95.8699 180.843 93.6642 180.843 91.2379ZM320.629 59.3931V107.946C318.644 110.207 315.611 112.633 311.531 115.225C307.505 117.817 302.35 120.05 296.063 121.925C289.777 123.744 282.278 124.654 273.565 124.654C265.68 124.654 258.511 123.386 252.06 120.849C245.608 118.258 240.066 114.48 235.434 109.518C230.802 104.5 227.218 98.3789 224.681 91.1552C222.2 83.9315 220.959 75.6601 220.959 66.3411V59.2277C220.959 49.9086 222.2 41.6372 224.681 34.4135C227.163 27.1899 230.664 21.0966 235.186 16.1338C239.708 11.1158 245.084 7.31099 251.315 4.71929C257.546 2.12759 264.439 0.831743 271.994 0.831743C282.746 0.831743 291.542 2.56873 298.379 6.04271C305.217 9.46155 310.4 14.2038 313.929 20.2695C317.514 26.3352 319.719 33.3107 320.547 41.1961H294.574C294.023 37.1707 292.92 33.6967 291.266 30.7741C289.667 27.8516 287.378 25.6183 284.401 24.0743C281.423 22.4752 277.563 21.6756 272.821 21.6756C269.016 21.6756 265.569 22.4752 262.481 24.0743C259.449 25.6183 256.885 27.9619 254.789 31.105C252.694 34.2481 251.095 38.1632 249.992 42.8503C248.889 47.4823 248.337 52.8863 248.337 59.0622V66.3411C248.337 72.517 248.889 77.9486 249.992 82.6357C251.15 87.3228 252.832 91.2379 255.037 94.381C257.243 97.469 260.028 99.8126 263.391 101.412C266.81 103.011 270.78 103.81 275.302 103.81C278.831 103.81 281.809 103.535 284.235 102.983C286.661 102.377 288.647 101.632 290.191 100.75C291.735 99.8126 292.893 98.9579 293.665 98.1859V78.1691H272.242V59.3931H320.629ZM432.706 2.56873V123H405.824V2.56873H432.706ZM469.349 2.56873V23.4953H369.927V2.56873H469.349ZM482.666 2.56873H528.903C538.111 2.56873 546.079 3.9473 552.807 6.70442C559.589 9.46155 564.8 13.5421 568.44 18.9461C572.079 24.35 573.899 31.0223 573.899 38.9628C573.899 45.5799 572.824 51.2044 570.673 55.8364C568.522 60.4684 565.49 64.3008 561.575 67.3336C557.715 70.3665 553.193 72.8203 548.009 74.6952L539.242 79.4926H499.87L499.705 58.566H528.985C533.011 58.566 536.347 57.8491 538.994 56.4154C541.641 54.9817 543.626 52.969 544.949 50.3773C546.328 47.7305 547.017 44.6425 547.017 41.1134C547.017 37.4739 546.328 34.3308 544.949 31.684C543.57 29.0371 541.53 27.0244 538.828 25.6459C536.181 24.2122 532.873 23.4953 528.903 23.4953H509.63V123H482.666V2.56873ZM549.333 123L522.285 69.4842L550.739 69.4015L578.2 121.759V123H549.333ZM642.22 25.4805L611.12 123H582.336L626.918 2.56873H645.115L642.22 25.4805ZM668.027 123L636.844 25.4805L633.618 2.56873H652.063L696.812 123H668.027ZM666.704 78.1691V99.013H603.924V78.1691H666.704ZM806.159 2.56873V123H779.277L733.785 45.1663V123H706.82V2.56873H733.785L779.36 80.4024V2.56873H806.159ZM888.542 91.2379C888.542 89.1976 888.239 87.3779 887.632 85.7788C887.026 84.1245 885.923 82.6081 884.324 81.2295C882.725 79.851 880.464 78.4724 877.541 77.0939C874.619 75.6601 870.786 74.1989 866.044 72.71C860.64 70.9455 855.484 68.9603 850.576 66.7546C845.724 64.4938 841.395 61.8745 837.59 58.8968C833.786 55.9191 830.78 52.4451 828.575 48.4749C826.424 44.5046 825.349 39.8726 825.349 34.579C825.349 29.4507 826.479 24.8187 828.74 20.6831C831.001 16.5474 834.172 13.0182 838.252 10.0957C842.333 7.11799 847.13 4.85715 852.644 3.31316C858.159 1.71402 864.224 0.914457 870.841 0.914457C879.664 0.914457 887.412 2.48602 894.084 5.62914C900.811 8.71712 906.05 13.0734 909.8 18.6979C913.549 24.2673 915.424 30.7466 915.424 38.1357H888.625C888.625 34.8823 887.936 32.0148 886.557 29.5334C885.234 26.9969 883.193 25.0117 880.436 23.578C877.734 22.1443 874.343 21.4275 870.262 21.4275C866.292 21.4275 862.956 22.034 860.254 23.2472C857.607 24.4052 855.594 26.0043 854.216 28.0446C852.892 30.0849 852.231 32.3181 852.231 34.7444C852.231 36.6744 852.727 38.4389 853.72 40.0381C854.767 41.5821 856.256 43.0433 858.186 44.4219C860.171 45.7453 862.598 47.0136 865.465 48.2267C868.332 49.4399 871.613 50.5979 875.308 51.7007C881.76 53.741 887.467 56.0018 892.43 58.4832C897.448 60.9647 901.666 63.7769 905.085 66.9201C908.504 70.0632 911.068 73.6199 912.777 77.5901C914.542 81.5604 915.424 86.0545 915.424 91.0725C915.424 96.4213 914.376 101.164 912.281 105.299C910.241 109.435 907.263 112.964 903.348 115.887C899.488 118.754 894.856 120.932 889.452 122.421C884.048 123.91 878.01 124.654 871.338 124.654C865.272 124.654 859.289 123.882 853.389 122.338C847.488 120.739 842.14 118.313 837.342 115.059C832.6 111.806 828.795 107.67 825.928 102.652C823.115 97.5793 821.709 91.5688 821.709 84.6208H848.674C848.674 88.2602 849.198 91.3482 850.246 93.8847C851.293 96.3662 852.782 98.3789 854.712 99.9229C856.697 101.467 859.096 102.57 861.908 103.231C864.721 103.893 867.864 104.224 871.338 104.224C875.363 104.224 878.616 103.673 881.098 102.57C883.634 101.412 885.509 99.8401 886.722 97.855C887.936 95.8699 888.542 93.6642 888.542 91.2379ZM958.27 2.56873V123H931.305V2.56873H958.27ZM1005.66 53.355V74.1989H950.743V53.355H1005.66ZM1010.96 2.56873V23.4953H950.743V2.56873H1010.96ZM1106 102.156V123H1041.89V102.156H1106ZM1051.07 2.56873V123H1024.11V2.56873H1051.07ZM1097.73 51.039V71.2212H1041.89V51.039H1097.73ZM1106.08 2.56873V23.4953H1041.89V2.56873H1106.08ZM1119.23 2.56873H1165.47C1174.68 2.56873 1182.64 3.9473 1189.37 6.70442C1196.15 9.46155 1201.37 13.5421 1205.01 18.9461C1208.64 24.35 1210.46 31.0223 1210.46 38.9628C1210.46 45.5799 1209.39 51.2044 1207.24 55.8364C1205.09 60.4684 1202.05 64.3008 1198.14 67.3336C1194.28 70.3665 1189.76 72.8203 1184.57 74.6952L1175.81 79.4926H1136.44L1136.27 58.566H1165.55C1169.58 58.566 1172.91 57.8491 1175.56 56.4154C1178.21 54.9817 1180.19 52.969 1181.51 50.3773C1182.89 47.7305 1183.58 44.6425 1183.58 41.1134C1183.58 37.4739 1182.89 34.3308 1181.51 31.684C1180.14 29.0371 1178.1 27.0244 1175.39 25.6459C1172.75 24.2122 1169.44 23.4953 1165.47 23.4953H1146.2V123H1119.23V2.56873ZM1185.9 123L1158.85 69.4842L1187.3 69.4015L1214.77 121.759V123H1185.9Z" fill="#F5F5F5"/>
</svg>
