<svg width="125" height="1215" viewBox="0 0 125 1215" fill="none" xmlns="http://www.w3.org/2000/svg">
<g opacity="0.03">
<path d="M65.6066 99.9494L17.0536 99.9494C14.7928 97.9643 12.3665 94.9314 9.77481 90.8509C7.18311 86.8255 4.94982 81.6696 3.07498 75.3834C1.25528 69.0972 0.345426 61.5978 0.345426 52.8853C0.345427 44.9999 1.61371 37.8314 4.15027 31.3797C6.74197 24.928 10.5192 19.3862 15.4821 14.7542C20.5 10.1222 26.6208 6.53797 33.8445 4.00141C41.0682 1.52 49.3396 0.279294 58.6587 0.279294L65.772 0.279294C75.0911 0.279295 83.3625 1.52 90.5862 4.00142C97.8098 6.48283 103.903 9.98438 108.866 14.5061C113.884 19.0278 117.689 24.4041 120.28 30.6353C122.872 36.8664 124.168 43.7592 124.168 51.3137C124.168 62.0665 122.431 70.8617 118.957 77.6994C115.538 84.5371 110.796 89.7205 104.73 93.2496C98.6645 96.8339 91.689 99.0396 83.8036 99.8667L83.8036 73.8946C87.829 73.3431 91.303 72.2403 94.2256 70.586C97.1481 68.9869 99.3814 66.6985 100.925 63.7208C102.525 60.7431 103.324 56.8831 103.324 52.1408C103.324 48.336 102.525 44.8896 100.925 41.8016C99.3814 38.7688 97.0378 36.2046 93.8947 34.1092C90.7516 32.0138 86.8365 30.4147 82.1494 29.3118C77.5174 28.209 72.1134 27.6576 65.9375 27.6576L58.6587 27.6576C52.4827 27.6576 47.0511 28.209 42.364 29.3118C37.6769 30.4698 33.7618 32.1517 30.6187 34.3574C27.5307 36.5631 25.1871 39.3478 23.588 42.7115C21.9889 46.1303 21.1893 50.1006 21.1893 54.6222C21.1893 58.1514 21.465 61.1291 22.0164 63.5553C22.623 65.9816 23.3674 67.9667 24.2497 69.5107C25.1871 71.0547 26.0418 72.2127 26.8138 72.9847L46.8306 72.9847L46.8306 51.5618L65.6066 51.5618L65.6066 99.9494Z" fill="#F5F5F5"/>
<path d="M33.7618 180.843C35.8021 180.843 37.6218 180.54 39.2209 179.934C40.8752 179.327 42.3916 178.224 43.7702 176.625C45.1487 175.026 46.5273 172.765 47.9059 169.843C49.3396 166.92 50.8008 163.088 52.2897 158.345C54.0542 152.941 56.0394 147.786 58.2451 142.878C60.5059 138.025 63.1252 133.697 66.1029 129.892C69.0806 126.087 72.5546 123.082 76.5248 120.876C80.4951 118.725 85.1271 117.65 90.4207 117.65C95.549 117.65 100.181 118.781 104.317 121.041C108.452 123.302 111.981 126.473 114.904 130.554C117.882 134.634 120.143 139.431 121.687 144.946C123.286 150.46 124.085 156.526 124.085 163.143C124.085 171.966 122.514 179.713 119.371 186.385C116.283 193.113 111.926 198.351 106.302 202.101C100.732 205.851 94.2531 207.725 86.864 207.725L86.864 180.926C90.1175 180.926 92.9849 180.237 95.4663 178.858C98.0028 177.535 99.988 175.495 101.422 172.738C102.855 170.036 103.572 166.644 103.572 162.564C103.572 158.593 102.966 155.257 101.753 152.555C100.595 149.909 98.9954 147.896 96.9551 146.517C94.9149 145.194 92.6816 144.532 90.2553 144.532C88.3253 144.532 86.5608 145.028 84.9616 146.021C83.4176 147.069 81.9564 148.558 80.5778 150.488C79.2544 152.473 77.9861 154.899 76.773 157.766C75.5598 160.634 74.4018 163.915 73.299 167.609C71.2587 174.061 68.9979 179.768 66.5165 184.731C64.035 189.749 61.2228 193.967 58.0796 197.386C54.9365 200.805 51.3798 203.369 47.4096 205.079C43.4393 206.843 38.9452 207.725 33.9272 207.725C28.5784 207.725 23.8361 206.678 19.7004 204.582C15.5648 202.542 12.0356 199.564 9.11309 195.649C6.24568 191.789 4.06754 187.157 2.5787 181.753C1.08985 176.349 0.345421 170.311 0.345421 163.639C0.345422 157.573 1.11743 151.59 2.66142 145.69C4.26055 139.79 6.68682 134.441 9.94023 129.644C13.1936 124.901 17.3293 121.097 22.3473 118.229C27.4204 115.417 33.4309 114.011 40.3789 114.011L40.3789 140.975C36.7395 140.975 33.6515 141.499 31.115 142.547C28.6335 143.595 26.6208 145.084 25.0769 147.014C23.5329 148.999 22.43 151.397 21.7683 154.21C21.1066 157.022 20.7757 160.165 20.7757 163.639C20.7757 167.664 21.3272 170.918 22.43 173.399C23.588 175.936 25.1596 177.811 27.1447 179.024C29.1298 180.237 31.3355 180.843 33.7618 180.843Z" fill="#F5F5F5"/>
<path d="M65.6066 320.63L17.0536 320.63C14.7928 318.645 12.3665 315.612 9.7748 311.531C7.1831 307.506 4.94981 302.35 3.07497 296.064C1.25527 289.778 0.345416 282.278 0.345417 273.566C0.345417 265.68 1.6137 258.512 4.15026 252.06C6.74196 245.608 10.5192 240.067 15.482 235.435C20.5 230.803 26.6208 227.218 33.8445 224.682C41.0682 222.2 49.3396 220.96 58.6586 220.96L65.772 220.96C75.0911 220.96 83.3625 222.2 90.5862 224.682C97.8098 227.163 103.903 230.665 108.866 235.186C113.884 239.708 117.689 245.085 120.28 251.316C122.872 257.547 124.168 264.44 124.168 271.994C124.168 282.747 122.431 291.542 118.957 298.38C115.538 305.217 110.796 310.401 104.73 313.93C98.6645 317.514 91.689 319.72 83.8036 320.547L83.8036 294.575C87.829 294.023 91.303 292.921 94.2256 291.266C97.1481 289.667 99.3814 287.379 100.925 284.401C102.525 281.423 103.324 277.563 103.324 272.821C103.324 269.016 102.525 265.57 100.925 262.482C99.3814 259.449 97.0378 256.885 93.8947 254.79C90.7516 252.694 86.8365 251.095 82.1494 249.992C77.5174 248.889 72.1134 248.338 65.9375 248.338L58.6586 248.338C52.4827 248.338 47.0511 248.889 42.364 249.992C37.6769 251.15 33.7618 252.832 30.6187 255.038C27.5307 257.243 25.1871 260.028 23.588 263.392C21.9889 266.811 21.1893 270.781 21.1893 275.303C21.1893 278.832 21.465 281.809 22.0164 284.236C22.623 286.662 23.3674 288.647 24.2497 290.191C25.1871 291.735 26.0418 292.893 26.8138 293.665L46.8306 293.665L46.8306 272.242L65.6066 272.242L65.6066 320.63Z" fill="#F5F5F5"/>
<path d="M122.431 432.707L1.99969 432.707L1.99969 405.825L122.431 405.825L122.431 432.707ZM122.431 469.349L101.504 469.349L101.504 369.927L122.431 369.927L122.431 469.349Z" fill="#F5F5F5"/>
<path d="M122.431 482.666L122.431 528.903C122.431 538.112 121.052 546.08 118.295 552.807C115.538 559.59 111.458 564.801 106.054 568.44C100.65 572.08 93.9774 573.899 86.0369 573.899C79.4198 573.899 73.7952 572.824 69.1633 570.674C64.5313 568.523 60.6989 565.49 57.6661 561.575C54.6332 557.715 52.1794 553.193 50.3045 548.01L45.5071 539.242L45.5071 499.871L66.4337 499.705L66.4337 528.986C66.4337 533.011 67.1506 536.347 68.5843 538.994C70.018 541.641 72.0307 543.626 74.6224 544.95C77.2692 546.328 80.3572 547.017 83.8863 547.017C87.5257 547.017 90.6689 546.328 93.3157 544.95C95.9625 543.571 97.9752 541.531 99.3538 538.829C100.788 536.182 101.504 532.873 101.504 528.903L101.504 509.631L1.99969 509.631L1.99969 482.666L122.431 482.666ZM1.99969 549.333L55.5155 522.286L55.5982 550.739L3.24039 578.2L1.99968 578.2L1.99969 549.333Z" fill="#F5F5F5"/>
<path d="M99.5192 642.221L1.99968 611.121L1.99968 582.336L122.431 626.919L122.431 645.116L99.5192 642.221ZM1.99968 668.028L99.5192 636.845L122.431 633.619L122.431 652.064L1.99968 696.812L1.99968 668.028ZM46.8306 666.704L25.9867 666.704L25.9867 603.924L46.8306 603.924L46.8306 666.704Z" fill="#F5F5F5"/>
<path d="M122.431 806.16L1.99967 806.16L1.99968 779.278L79.8333 733.785L1.99968 733.785L1.99968 706.82L122.431 706.82L122.431 733.785L44.5973 779.36L122.431 779.36L122.431 806.16Z" fill="#F5F5F5"/>
<path d="M33.7618 888.543C35.802 888.543 37.6217 888.239 39.2209 887.633C40.8751 887.026 42.3916 885.923 43.7701 884.324C45.1487 882.725 46.5273 880.464 47.9058 877.542C49.3395 874.619 50.8008 870.787 52.2897 866.044C54.0542 860.64 56.0393 855.485 58.245 850.577C60.5059 845.724 63.1252 841.396 66.1029 837.591C69.0805 833.786 72.5545 830.781 76.5248 828.575C80.4951 826.425 85.127 825.349 90.4207 825.349C95.549 825.349 100.181 826.48 104.317 828.741C108.452 831.001 111.981 834.172 114.904 838.253C117.882 842.333 120.143 847.131 121.687 852.645C123.286 858.159 124.085 864.225 124.085 870.842C124.085 879.665 122.514 887.412 119.371 894.084C116.283 900.812 111.926 906.05 106.302 909.8C100.732 913.55 94.2531 915.425 86.864 915.425L86.864 888.625C90.1174 888.625 92.9848 887.936 95.4662 886.557C98.0028 885.234 99.9879 883.194 101.422 880.437C102.855 877.735 103.572 874.343 103.572 870.263C103.572 866.293 102.966 862.956 101.752 860.254C100.595 857.608 98.9954 855.595 96.9551 854.216C94.9148 852.893 92.6816 852.231 90.2553 852.231C88.3253 852.231 86.5607 852.728 84.9616 853.72C83.4176 854.768 81.9563 856.257 80.5778 858.187C79.2543 860.172 77.9861 862.598 76.7729 865.465C75.5598 868.333 74.4018 871.614 73.299 875.308C71.2587 881.76 68.9978 887.467 66.5164 892.43C64.035 897.448 61.2227 901.666 58.0796 905.085C54.9365 908.504 51.3798 911.068 47.4095 912.778C43.4393 914.542 38.9452 915.425 33.9272 915.425C28.5784 915.425 23.8361 914.377 19.7004 912.281C15.5647 910.241 12.0356 907.263 9.11306 903.348C6.24565 899.488 4.06751 894.856 2.57867 889.452C1.08982 884.048 0.34539 878.01 0.34539 871.338C0.345391 865.272 1.11739 859.289 2.66139 853.389C4.26052 847.489 6.68679 842.14 9.94019 837.343C13.1936 832.601 17.3293 828.796 22.3473 825.928C27.4204 823.116 33.4309 821.71 40.3789 821.71L40.3789 848.675C36.7395 848.675 33.6515 849.198 31.1149 850.246C28.6335 851.294 26.6208 852.783 25.0768 854.713C23.5328 856.698 22.43 859.096 21.7683 861.909C21.1066 864.721 20.7757 867.864 20.7757 871.338C20.7757 875.364 21.3271 878.617 22.43 881.098C23.588 883.635 25.1595 885.51 27.1447 886.723C29.1298 887.936 31.3355 888.543 33.7618 888.543Z" fill="#F5F5F5"/>
<path d="M122.431 958.27L1.99967 958.27L1.99967 931.306L122.431 931.306L122.431 958.27ZM71.6447 1005.67L50.8008 1005.67L50.8008 950.743L71.6447 950.743L71.6447 1005.67ZM122.431 1010.96L101.504 1010.96L101.504 950.743L122.431 950.743L122.431 1010.96Z" fill="#F5F5F5"/>
<path d="M22.8435 1106L1.99966 1106L1.99966 1041.89L22.8435 1041.89L22.8435 1106ZM122.431 1051.08L1.99966 1051.08L1.99967 1024.11L122.431 1024.11L122.431 1051.08ZM73.9607 1097.73L53.7785 1097.73L53.7785 1041.89L73.9607 1041.89L73.9607 1097.73ZM122.431 1106.08L101.504 1106.08L101.504 1041.89L122.431 1041.89L122.431 1106.08Z" fill="#F5F5F5"/>
<path d="M122.431 1119.23L122.431 1165.47C122.431 1174.68 121.052 1182.65 118.295 1189.37C115.538 1196.16 111.458 1201.37 106.054 1205.01C100.65 1208.64 93.9774 1210.46 86.0369 1210.46C79.4198 1210.46 73.7952 1209.39 69.1632 1207.24C64.5313 1205.09 60.6989 1202.06 57.666 1198.14C54.6332 1194.28 52.1794 1189.76 50.3045 1184.58L45.5071 1175.81L45.5071 1136.44L66.4337 1136.27L66.4337 1165.55C66.4337 1169.58 67.1505 1172.91 68.5843 1175.56C70.018 1178.21 72.0307 1180.19 74.6224 1181.51C77.2692 1182.89 80.3572 1183.58 83.8863 1183.58C87.5257 1183.58 90.6688 1182.89 93.3157 1181.51C95.9625 1180.14 97.9752 1178.1 99.3538 1175.39C100.787 1172.75 101.504 1169.44 101.504 1165.47L101.504 1146.2L1.99966 1146.2L1.99966 1119.23L122.431 1119.23ZM1.99966 1185.9L55.5155 1158.85L55.5982 1187.3L3.24036 1214.77L1.99966 1214.77L1.99966 1185.9Z" fill="#F5F5F5"/>
</g>
</svg>
