<svg width="267" height="699" viewBox="0 0 267 699" fill="none" xmlns="http://www.w3.org/2000/svg">
<g opacity="0.05">
<path d="M48.3709 186.587L88.4476 186.587C90.3137 188.227 92.3164 190.733 94.4556 194.104C96.5949 197.43 98.4383 201.69 99.9858 206.883C101.488 212.077 102.239 218.273 102.239 225.471C102.239 231.986 101.192 237.909 99.0983 243.239C96.959 248.569 93.8412 253.148 89.7448 256.975C85.6028 260.802 80.5506 263.763 74.588 265.859C68.6254 267.909 61.7981 268.934 54.1059 268.934L48.2344 268.934C40.5422 268.934 33.7149 267.909 27.7523 265.859C21.7897 263.809 16.7602 260.916 12.6638 257.18C8.52187 253.444 5.38129 249.002 3.24204 243.854C1.1028 238.706 0.0331828 233.011 0.0331825 226.77C0.0331821 217.886 1.46693 210.619 4.33442 204.97C7.1564 199.321 11.0708 195.038 16.0775 192.122C21.0842 189.161 26.842 187.339 33.3507 186.655L33.3507 208.113C30.0281 208.569 27.1606 209.48 24.7482 210.847C22.3359 212.168 20.4925 214.059 19.2181 216.519C17.8981 218.979 17.2381 222.168 17.2381 226.086C17.2381 229.23 17.8981 232.077 19.2181 234.628C20.4925 237.134 22.4269 239.253 25.0213 240.984C27.6157 242.715 30.8474 244.036 34.7162 244.947C38.5395 245.859 43.0001 246.314 48.0978 246.314L54.1059 246.314C59.2037 246.314 63.687 245.859 67.5558 244.947C71.4247 243.991 74.6563 242.601 77.2507 240.779C79.7996 238.957 81.734 236.656 83.0539 233.877C84.3739 231.052 85.0339 227.772 85.0339 224.036C85.0339 221.12 84.8063 218.66 84.3511 216.656C83.8505 214.651 83.236 213.011 82.5078 211.735C81.734 210.46 81.0285 209.503 80.3913 208.865L63.869 208.865L63.869 226.565L48.3709 226.565L48.3709 186.587Z" fill="#F5F5F5"/>
<path d="M74.6563 119.753C72.9722 119.753 71.4702 120.004 70.1502 120.505C68.7847 121.006 67.5331 121.917 66.3952 123.238C65.2573 124.559 64.1194 126.427 62.9815 128.842C61.7981 131.256 60.5919 134.423 59.363 138.341C57.9065 142.806 56.2679 147.065 54.4473 151.12C52.5811 155.129 50.4191 158.705 47.9613 161.849C45.5034 164.992 42.6359 167.475 39.3588 169.298C36.0817 171.075 32.2583 171.963 27.8888 171.963C23.6559 171.963 19.8325 171.029 16.4189 169.161C13.0052 167.293 10.0922 164.674 7.67983 161.302C5.22198 157.931 3.35583 153.967 2.08139 149.412C0.761431 144.856 0.101452 139.844 0.101452 134.377C0.101452 127.088 1.39865 120.687 3.99305 115.174C6.54193 109.616 10.1377 105.288 14.7803 102.19C19.3774 99.0923 24.7255 97.5433 30.8246 97.5433L30.8246 119.685C28.1392 119.685 25.7723 120.254 23.7241 121.393C21.6304 122.486 19.9918 124.172 18.8084 126.45C17.625 128.682 17.0333 131.484 17.0333 134.856C17.0333 138.136 17.534 140.892 18.5353 143.124C19.4912 145.311 20.8111 146.974 22.4952 148.113C24.1793 149.206 26.0227 149.753 28.0254 149.753C29.6184 149.753 31.0749 149.343 32.3949 148.523C33.6693 147.658 34.8755 146.427 36.0134 144.833C37.1058 143.193 38.1526 141.188 39.154 138.819C40.1553 136.45 41.1112 133.739 42.0215 130.687C43.7056 125.357 45.5717 120.641 47.6199 116.541C49.6681 112.395 51.9894 108.91 54.5838 106.085C57.1782 103.261 60.114 101.142 63.3911 99.7301C66.6683 98.2722 70.3778 97.5433 74.5197 97.5433C78.9348 97.5433 82.8491 98.4089 86.2628 100.14C89.6765 101.826 92.5895 104.286 95.0018 107.521C97.3686 110.71 99.1665 114.537 100.395 119.001C101.624 123.466 102.239 128.455 102.239 133.967C102.239 138.979 101.602 143.922 100.327 148.796C99.0072 153.671 97.0045 158.09 94.3191 162.054C91.6337 165.972 88.22 169.116 84.078 171.485C79.8906 173.808 74.9294 174.97 69.1944 174.97L69.1944 152.692C72.1984 152.692 74.7473 152.259 76.841 151.393C78.8892 150.528 80.5506 149.298 81.825 147.703C83.0995 146.063 84.0098 144.081 84.556 141.758C85.1021 139.434 85.3752 136.837 85.3752 133.967C85.3752 130.641 84.9201 127.954 84.0098 125.903C83.0539 123.808 81.7567 122.259 80.1182 121.256C78.4796 120.254 76.659 119.753 74.6563 119.753Z" fill="#F5F5F5"/>
<path d="M48.3709 4.26249L88.4476 4.26249C90.3137 5.90259 92.3164 8.4083 94.4556 11.7796C96.5949 15.1054 98.4383 19.3651 99.9858 24.5587C101.488 29.7524 102.239 35.9483 102.239 43.1466C102.239 49.6614 101.192 55.584 99.0982 60.9143C96.959 66.2447 93.8412 70.8233 89.7448 74.6502C85.6028 78.4771 80.5506 81.4384 74.588 83.5341C68.6254 85.5842 61.7981 86.6093 54.1059 86.6093L48.2344 86.6093C40.5422 86.6093 33.7148 85.5842 27.7523 83.5341C21.7897 81.484 16.7602 78.591 12.6638 74.8552C8.52187 71.1194 5.38128 66.6775 3.24204 61.5294C1.1028 56.3813 0.0331748 50.6865 0.0331745 44.445C0.0331741 35.5611 1.46692 28.2945 4.33441 22.6453C7.15639 16.9961 11.0707 12.7136 16.0775 9.79783C21.0842 6.83654 26.842 5.0142 33.3507 4.33083L33.3507 25.7888C30.0281 26.2444 27.1606 27.1556 24.7482 28.5223C22.3359 29.8435 20.4925 31.7342 19.2181 34.1943C17.8981 36.6545 17.2381 39.8436 17.2381 43.7616C17.2381 46.9051 17.8981 49.7525 19.2181 52.3038C20.4925 54.8095 22.4269 56.928 25.0213 58.6592C27.6157 60.3904 30.8473 61.7116 34.7162 62.6228C38.5395 63.5339 43.0001 63.9895 48.0978 63.9895L54.1059 63.9895C59.2037 63.9895 63.687 63.5339 67.5558 62.6228C71.4247 61.6661 74.6563 60.2765 77.2507 58.4542C79.7996 56.6319 81.734 54.3312 83.0539 51.5521C84.3739 48.7275 85.0339 45.4473 85.0339 41.7115C85.0339 38.7957 84.8063 36.3356 84.3511 34.331C83.8505 32.3265 83.236 30.6864 82.5077 29.4107C81.734 28.1351 81.0285 27.1784 80.3913 26.5405L63.869 26.5405L63.869 44.24L48.3709 44.24L48.3709 4.26249Z" fill="#F5F5F5"/>
<path d="M165.261 646.704L264.668 646.704L264.668 668.914L165.261 668.914L165.261 646.704ZM165.261 616.43L182.535 616.43L182.535 698.572L165.261 698.572L165.261 616.43Z" fill="#F5F5F5"/>
<path d="M165.261 605.428L165.261 567.227C165.261 559.619 166.399 553.036 168.675 547.478C170.951 541.874 174.319 537.569 178.779 534.562C183.24 531.555 188.747 530.052 195.302 530.052C200.764 530.052 205.406 530.94 209.23 532.717C213.053 534.494 216.216 536.999 218.72 540.234C221.223 543.423 223.248 547.159 224.796 551.441L228.756 558.685L228.756 591.214L211.483 591.351L211.483 567.159C211.483 563.833 210.891 561.077 209.707 558.89C208.524 556.703 206.863 555.063 204.723 553.97C202.539 552.831 199.99 552.262 197.077 552.262C194.073 552.262 191.478 552.831 189.294 553.97C187.109 555.109 185.448 556.795 184.31 559.027C183.126 561.214 182.535 563.947 182.535 567.227L182.535 583.15L264.668 583.15L264.668 605.428L165.261 605.428ZM264.668 550.348L220.495 572.694L220.426 549.186L263.644 526.498L264.668 526.498L264.668 550.348Z" fill="#F5F5F5"/>
<path d="M184.173 473.605L264.668 499.3L264.668 523.081L165.261 486.247L165.261 471.213L184.173 473.605ZM264.668 452.284L184.173 478.047L165.261 480.712L165.261 465.473L264.668 428.502L264.668 452.284ZM227.663 453.377L244.868 453.377L244.868 505.245L227.663 505.245L227.663 453.377Z" fill="#F5F5F5"/>
<path d="M165.261 338.16L264.668 338.16L264.668 360.37L200.422 397.955L264.668 397.955L264.668 420.233L165.261 420.233L165.261 397.955L229.507 360.301L165.261 360.301L165.261 338.16Z" fill="#F5F5F5"/>
<path d="M238.451 270.096C236.767 270.096 235.265 270.346 233.945 270.847C232.579 271.349 231.327 272.26 230.19 273.581C229.052 274.902 227.914 276.77 226.776 279.185C225.592 281.599 224.386 284.765 223.157 288.683C221.701 293.148 220.062 297.408 218.242 301.463C216.375 305.472 214.213 309.048 211.756 312.192C209.298 315.335 206.43 317.818 203.153 319.64C199.876 321.417 196.053 322.306 191.683 322.306C187.45 322.306 183.627 321.372 180.213 319.504C176.8 317.636 173.887 315.016 171.474 311.645C169.016 308.274 167.15 304.31 165.876 299.754C164.556 295.198 163.896 290.187 163.896 284.72C163.896 277.431 165.193 271.03 167.787 265.517C170.336 259.959 173.932 255.631 178.575 252.533C183.172 249.435 188.52 247.886 194.619 247.886L194.619 270.027C191.934 270.027 189.567 270.597 187.518 271.736C185.425 272.829 183.786 274.515 182.603 276.793C181.419 279.025 180.828 281.827 180.828 285.198C180.828 288.478 181.328 291.235 182.33 293.467C183.286 295.654 184.605 297.317 186.29 298.456C187.974 299.549 189.817 300.096 191.82 300.096C193.413 300.096 194.869 299.686 196.189 298.866C197.464 298 198.67 296.77 199.808 295.176C200.9 293.535 201.947 291.531 202.948 289.162C203.95 286.793 204.906 284.082 205.816 281.03C207.5 275.699 209.366 270.984 211.414 266.884C213.462 262.738 215.784 259.253 218.378 256.428C220.973 253.604 223.908 251.485 227.185 250.073C230.463 248.615 234.172 247.886 238.314 247.886C242.729 247.886 246.643 248.752 250.057 250.483C253.471 252.168 256.384 254.629 258.796 257.863C261.163 261.052 262.961 264.879 264.19 269.344C265.419 273.809 266.033 278.797 266.033 284.31C266.033 289.321 265.396 294.264 264.122 299.139C262.802 304.014 260.799 308.433 258.113 312.397C255.428 316.315 252.014 319.458 247.872 321.827C243.685 324.151 238.724 325.312 232.989 325.312L232.989 303.034C235.993 303.034 238.542 302.602 240.635 301.736C242.684 300.87 244.345 299.64 245.619 298.046C246.894 296.406 247.804 294.424 248.35 292.1C248.896 289.777 249.17 287.18 249.17 284.31C249.17 280.984 248.714 278.296 247.804 276.246C246.848 274.15 245.551 272.601 243.913 271.599C242.274 270.597 240.453 270.096 238.451 270.096Z" fill="#F5F5F5"/>
<path d="M165.261 212.487L264.668 212.487L264.668 234.765L165.261 234.765L165.261 212.487ZM207.181 173.33L224.386 173.33L224.386 218.706L207.181 218.706L207.181 173.33ZM165.261 168.956L182.535 168.956L182.535 218.706L165.261 218.706L165.261 168.956Z" fill="#F5F5F5"/>
<path d="M247.463 90.4362L264.668 90.4362L264.668 143.398L247.463 143.398L247.463 90.4362ZM165.261 135.812L264.668 135.812L264.668 158.09L165.261 158.09L165.261 135.812ZM205.27 97.2699L221.928 97.2699L221.928 143.398L205.27 143.398L205.27 97.2699ZM165.261 90.3678L182.534 90.3678L182.534 143.398L165.261 143.398L165.261 90.3678Z" fill="#F5F5F5"/>
<path d="M165.261 79.5022L165.261 41.3015C165.261 33.6932 166.399 27.11 168.675 21.5519C170.951 15.9482 174.319 11.6429 178.779 8.63609C183.24 5.62923 188.747 4.12581 195.302 4.12581C200.764 4.12581 205.406 5.0142 209.229 6.79097C213.053 8.56775 216.216 11.0735 218.72 14.3081C221.223 17.4972 223.248 21.233 224.796 25.5155L228.756 32.7593L228.756 65.2879L211.483 65.4246L211.483 41.2331C211.483 37.9073 210.891 35.1511 209.707 32.9643C208.524 30.7775 206.863 29.1374 204.723 28.044C202.539 26.905 199.99 26.3355 197.077 26.3355C194.073 26.3355 191.478 26.905 189.294 28.044C187.109 29.1829 185.448 30.8686 184.31 33.1009C183.126 35.2877 182.534 38.0212 182.534 41.3014L182.534 57.2241L264.668 57.2241L264.668 79.5022L165.261 79.5022ZM264.668 24.4221L220.495 46.7685L220.426 23.2603L263.644 0.57225L264.668 0.57225L264.668 24.4221Z" fill="#F5F5F5"/>
</g>
</svg>
