<svg width="845" height="324" viewBox="0 0 845 324" fill="none" xmlns="http://www.w3.org/2000/svg">
<g opacity="0.03">
<path d="M619.8 59.3929V107.946C617.815 110.207 614.782 112.633 610.702 115.225C606.676 117.816 601.52 120.05 595.234 121.925C588.948 123.744 581.448 124.654 572.736 124.654C564.851 124.654 557.682 123.386 551.23 120.849C544.779 118.258 539.237 114.48 534.605 109.517C529.973 104.499 526.389 98.3787 523.852 91.155C521.371 83.9313 520.13 75.6599 520.13 66.3409V59.2275C520.13 49.9084 521.371 41.637 523.852 34.4133C526.333 27.1897 529.835 21.0964 534.357 16.1336C538.878 11.1156 544.255 7.31079 550.486 4.71909C556.717 2.12739 563.61 0.831543 571.164 0.831543C581.917 0.831543 590.712 2.56853 597.55 6.04251C604.388 9.46135 609.571 14.2036 613.1 20.2693C616.684 26.335 618.89 33.3105 619.717 41.1959H593.745C593.194 37.1705 592.091 33.6965 590.437 30.7739C588.838 27.8514 586.549 25.6181 583.571 24.0741C580.594 22.475 576.734 21.6754 571.992 21.6754C568.187 21.6754 564.74 22.475 561.652 24.0741C558.619 25.6181 556.055 27.9617 553.96 31.1048C551.864 34.2479 550.265 38.163 549.162 42.8501C548.06 47.4821 547.508 52.8861 547.508 59.062V66.3409C547.508 72.5168 548.06 77.9484 549.162 82.6355C550.32 87.3226 552.002 91.2377 554.208 94.3808C556.414 97.4688 559.198 99.8124 562.562 101.411C565.981 103.011 569.951 103.81 574.473 103.81C578.002 103.81 580.98 103.534 583.406 102.983C585.832 102.376 587.817 101.632 589.361 100.75C590.905 99.8124 592.063 98.9577 592.835 98.1857V78.1689H571.412V59.3929H619.8Z" fill="#F5F5F5"/>
<path d="M700.694 91.2377C700.694 89.1974 700.391 87.3777 699.784 85.7786C699.178 84.1243 698.075 82.6079 696.476 81.2293C694.877 79.8508 692.616 78.4722 689.693 77.0937C686.771 75.6599 682.938 74.1987 678.196 72.7098C672.792 70.9453 667.636 68.9601 662.729 66.7544C657.876 64.4936 653.547 61.8743 649.742 58.8966C645.938 55.9189 642.932 52.4449 640.727 48.4747C638.576 44.5044 637.501 39.8724 637.501 34.5788C637.501 29.4505 638.631 24.8185 640.892 20.6829C643.153 16.5472 646.324 13.018 650.404 10.0955C654.485 7.11779 659.282 4.85695 664.796 3.31296C670.311 1.71382 676.376 0.914257 682.993 0.914257C691.816 0.914257 699.564 2.48582 706.236 5.62894C712.963 8.71693 718.202 13.0732 721.952 18.6977C725.701 24.2671 727.576 30.7464 727.576 38.1355H700.777C700.777 34.8821 700.088 32.0146 698.709 29.5332C697.386 26.9967 695.345 25.0115 692.588 23.5778C689.886 22.1441 686.495 21.4273 682.414 21.4273C678.444 21.4273 675.108 22.0338 672.406 23.247C669.759 24.405 667.746 26.0041 666.368 28.0444C665.044 30.0847 664.383 32.3179 664.383 34.7442C664.383 36.6742 664.879 38.4387 665.872 40.0379C666.919 41.5819 668.408 43.0431 670.338 44.4217C672.323 45.7451 674.75 47.0134 677.617 48.2265C680.484 49.4397 683.765 50.5977 687.46 51.7005C693.912 53.7408 699.619 56.0016 704.582 58.483C709.6 60.9645 713.818 63.7767 717.237 66.9199C720.656 70.063 723.22 73.6197 724.929 77.5899C726.694 81.5602 727.576 86.0543 727.576 91.0723C727.576 96.4211 726.528 101.163 724.433 105.299C722.393 109.435 719.415 112.964 715.5 115.886C711.64 118.754 707.008 120.932 701.604 122.421C696.2 123.91 690.162 124.654 683.49 124.654C677.424 124.654 671.441 123.882 665.541 122.338C659.641 120.739 654.292 118.313 649.494 115.059C644.752 111.806 640.947 107.67 638.08 102.652C635.268 97.5791 633.861 91.5686 633.861 84.6206H660.826C660.826 88.26 661.35 91.348 662.398 93.8846C663.445 96.366 664.934 98.3787 666.864 99.9227C668.849 101.467 671.248 102.569 674.06 103.231C676.873 103.893 680.016 104.224 683.49 104.224C687.515 104.224 690.768 103.672 693.25 102.57C695.786 101.412 697.661 99.8399 698.874 97.8548C700.088 95.8697 700.694 93.664 700.694 91.2377Z" fill="#F5F5F5"/>
<path d="M840.48 59.3929V107.946C838.495 110.207 835.462 112.633 831.382 115.225C827.356 117.816 822.201 120.05 815.914 121.925C809.628 123.744 802.129 124.654 793.416 124.654C785.531 124.654 778.362 123.386 771.911 120.849C765.459 118.258 759.917 114.48 755.285 109.517C750.653 104.499 747.069 98.3787 744.532 91.155C742.051 83.9313 740.81 75.6599 740.81 66.3409V59.2275C740.81 49.9084 742.051 41.637 744.532 34.4133C747.014 27.1897 750.515 21.0964 755.037 16.1336C759.559 11.1156 764.935 7.31079 771.166 4.71909C777.397 2.12739 784.29 0.831543 791.845 0.831543C802.598 0.831543 811.393 2.56853 818.23 6.04251C825.068 9.46135 830.251 14.2036 833.781 20.2693C837.365 26.335 839.571 33.3105 840.398 41.1959H814.426C813.874 37.1705 812.771 33.6965 811.117 30.7739C809.518 27.8514 807.229 25.6181 804.252 24.0741C801.274 22.475 797.414 21.6754 792.672 21.6754C788.867 21.6754 785.421 22.475 782.333 24.0741C779.3 25.6181 776.736 27.9617 774.64 31.1048C772.545 34.2479 770.946 38.163 769.843 42.8501C768.74 47.4821 768.189 52.8861 768.189 59.062V66.3409C768.189 72.5168 768.74 77.9484 769.843 82.6355C771.001 87.3226 772.683 91.2377 774.888 94.3808C777.094 97.4688 779.879 99.8124 783.242 101.411C786.661 103.011 790.632 103.81 795.153 103.81C798.682 103.81 801.66 103.534 804.086 102.983C806.513 102.376 808.498 101.632 810.042 100.75C811.586 99.8124 812.744 98.9577 813.516 98.1857V78.1689H792.093V59.3929H840.48Z" fill="#F5F5F5"/>
<path d="M62.8882 201.569V322H36.0062V201.569H62.8882ZM99.5304 201.569V222.495H0.108398V201.569H99.5304Z" fill="#F5F5F5"/>
<path d="M112.847 201.569H159.084C168.293 201.569 176.261 202.947 182.989 205.704C189.771 208.461 194.982 212.542 198.621 217.946C202.261 223.35 204.081 230.022 204.081 237.963C204.081 244.58 203.005 250.204 200.855 254.836C198.704 259.468 195.671 263.301 191.756 266.333C187.896 269.366 183.375 271.82 178.191 273.695L169.424 278.492H130.052L129.886 257.566H159.167C163.192 257.566 166.529 256.849 169.175 255.415C171.822 253.982 173.807 251.969 175.131 249.377C176.509 246.73 177.199 243.642 177.199 240.113C177.199 236.474 176.509 233.331 175.131 230.684C173.752 228.037 171.712 226.024 169.01 224.646C166.363 223.212 163.055 222.495 159.084 222.495H139.812V322H112.847V201.569ZM179.515 322L152.467 268.484L180.921 268.401L208.382 320.759V322H179.515Z" fill="#F5F5F5"/>
<path d="M272.402 224.48L241.302 322H212.517L257.1 201.569H275.297L272.402 224.48ZM298.209 322L267.026 224.48L263.8 201.569H282.245L326.993 322H298.209ZM296.885 277.169V298.013H234.106V277.169H296.885Z" fill="#F5F5F5"/>
<path d="M436.341 201.569V322H409.459L363.966 244.166V322H337.002V201.569H363.966L409.542 279.402V201.569H436.341Z" fill="#F5F5F5"/>
<path d="M518.724 290.238C518.724 288.197 518.421 286.378 517.814 284.779C517.207 283.124 516.105 281.608 514.505 280.229C512.906 278.851 510.645 277.472 507.723 276.094C504.8 274.66 500.968 273.199 496.226 271.71C490.822 269.945 485.666 267.96 480.758 265.754C475.906 263.494 471.577 260.874 467.772 257.897C463.967 254.919 460.962 251.445 458.756 247.475C456.606 243.504 455.531 238.872 455.531 233.579C455.531 228.451 456.661 223.819 458.922 219.683C461.183 215.547 464.353 212.018 468.434 209.095C472.514 206.118 477.312 203.857 482.826 202.313C488.34 200.714 494.406 199.914 501.023 199.914C509.846 199.914 517.593 201.486 524.266 204.629C530.993 207.717 536.232 212.073 539.981 217.698C543.731 223.267 545.606 229.746 545.606 237.135H518.807C518.807 233.882 518.117 231.015 516.739 228.533C515.415 225.997 513.375 224.012 510.618 222.578C507.916 221.144 504.525 220.427 500.444 220.427C496.474 220.427 493.138 221.034 490.436 222.247C487.789 223.405 485.776 225.004 484.398 227.044C483.074 229.085 482.412 231.318 482.412 233.744C482.412 235.674 482.909 237.439 483.901 239.038C484.949 240.582 486.438 242.043 488.368 243.422C490.353 244.745 492.779 246.013 495.647 247.227C498.514 248.44 501.795 249.598 505.49 250.701C511.941 252.741 517.649 255.002 522.611 257.483C527.629 259.964 531.848 262.777 535.267 265.92C538.685 269.063 541.25 272.62 542.959 276.59C544.724 280.56 545.606 285.054 545.606 290.072C545.606 295.421 544.558 300.163 542.463 304.299C540.422 308.435 537.445 311.964 533.53 314.886C529.67 317.754 525.038 319.932 519.634 321.421C514.23 322.91 508.192 323.654 501.519 323.654C495.454 323.654 489.471 322.882 483.57 321.338C477.67 319.739 472.321 317.313 467.524 314.059C462.782 310.806 458.977 306.67 456.109 301.652C453.297 296.579 451.891 290.569 451.891 283.621H478.856C478.856 287.26 479.38 290.348 480.427 292.885C481.475 295.366 482.964 297.379 484.894 298.923C486.879 300.467 489.278 301.569 492.09 302.231C494.902 302.893 498.045 303.224 501.519 303.224C505.545 303.224 508.798 302.672 511.28 301.57C513.816 300.412 515.691 298.84 516.904 296.855C518.117 294.87 518.724 292.664 518.724 290.238Z" fill="#F5F5F5"/>
<path d="M588.452 201.569V322H561.487V201.569H588.452ZM635.847 252.355V273.199H580.925V252.355H635.847ZM641.14 201.569V222.495H580.925V201.569H641.14Z" fill="#F5F5F5"/>
<path d="M736.178 301.156V322H672.075V301.156H736.178ZM681.256 201.569V322H654.292V201.569H681.256ZM727.907 250.039V270.221H672.075V250.039H727.907ZM736.261 201.569V222.495H672.075V201.569H736.261Z" fill="#F5F5F5"/>
<path d="M749.413 201.569H795.65C804.858 201.569 812.827 202.947 819.554 205.704C826.336 208.461 831.547 212.542 835.187 217.946C838.826 223.35 840.646 230.022 840.646 237.963C840.646 244.58 839.571 250.204 837.42 254.836C835.269 259.468 832.237 263.301 828.322 266.333C824.462 269.366 819.94 271.82 814.756 273.695L805.989 278.492H766.617L766.452 257.566H795.732C799.758 257.566 803.094 256.849 805.741 255.415C808.388 253.982 810.373 251.969 811.696 249.377C813.075 246.73 813.764 243.642 813.764 240.113C813.764 236.474 813.075 233.331 811.696 230.684C810.317 228.037 808.277 226.024 805.575 224.646C802.928 223.212 799.62 222.495 795.65 222.495H776.377V322H749.413V201.569ZM816.08 322L789.032 268.484L817.486 268.401L844.947 320.759V322H816.08Z" fill="#F5F5F5"/>
</g>
</svg>
