<svg width="43" height="50" viewBox="0 0 43 50" fill="none" xmlns="http://www.w3.org/2000/svg">
<circle opacity="0.5" cx="13.2353" cy="13.2353" r="13.2353" fill="#D7BC68"/>
<path d="M42.0428 16.6074L22.8031 5.97982C22.5713 5.85178 22.2881 5.85178 22.0562 5.97982L2.81656 16.6074C2.57759 16.7395 2.42969 16.9875 2.42969 17.2562V38.5113C2.42969 38.7801 2.57751 39.0282 2.81656 39.1602L22.0562 49.7877C22.1721 49.8517 22.3008 49.8838 22.4297 49.8838C22.5586 49.8838 22.6872 49.8518 22.8032 49.7877L42.0428 39.1602C42.2819 39.0281 42.4297 38.7801 42.4297 38.5113V17.2563C42.4297 16.9874 42.2819 16.7394 42.0428 16.6074ZM21.6693 47.8638L3.95042 38.0763V18.5314L21.6693 28.3189V47.8638ZM21.6693 16.5114H13.3055C12.8855 16.5114 12.5451 16.8449 12.5451 17.2563C12.5451 17.6677 12.8855 18.0012 13.3055 18.0012H21.6693V26.6087L6.08654 18.0012H10.3653C10.7853 18.0012 11.1257 17.6677 11.1257 17.2563C11.1257 16.8449 10.7853 16.5114 10.3653 16.5114H6.08663L21.6694 7.90388V16.5114H21.6693ZM23.19 7.90379L38.7727 16.5113H23.19V7.90379ZM23.19 18.0011H38.7727L23.19 26.6086V18.0011V18.0011ZM40.9089 38.0763L23.19 47.8637V28.319L40.9089 18.5314V38.0763V38.0763Z" fill="black"/>
<path d="M17.3065 29.7022L8.63891 24.9144C8.27344 24.7126 7.80938 24.839 7.60304 25.1975C7.3968 25.5558 7.52611 26.01 7.89201 26.2121L16.5596 30.9999C16.6776 31.065 16.8058 31.0961 16.9323 31.0961C17.1978 31.0961 17.4557 30.9596 17.5954 30.7169C17.8016 30.3585 17.6724 29.9043 17.3065 29.7022Z" fill="black"/>
<path d="M17.3089 33.9635L11.8157 30.9292C11.4499 30.7271 10.986 30.8538 10.7798 31.2122C10.5736 31.5706 10.7029 32.0249 11.0688 32.227L16.562 35.2613C16.68 35.3264 16.8082 35.3574 16.9347 35.3574C17.2003 35.3574 17.4581 35.221 17.5978 34.9783C17.804 34.6198 17.6746 34.1656 17.3089 33.9635Z" fill="black"/>
<path d="M9.87418 29.8567L8.63891 29.1743C8.27344 28.9722 7.80938 29.0989 7.60304 29.4573C7.3968 29.8156 7.52611 30.2699 7.89201 30.472L9.12728 31.1545C9.24527 31.2197 9.37353 31.2507 9.50003 31.2507C9.76549 31.2507 10.0234 31.1142 10.1631 30.8716C10.3693 30.5131 10.2401 30.0588 9.87418 29.8567Z" fill="black"/>
<path d="M33.9339 37.4824L33.2473 37.8638L33.232 36.0228C34.6307 35.0382 35.6675 33.145 35.6539 31.5075L35.61 26.233C35.6079 25.969 35.4631 25.7259 35.2297 25.5939C34.9961 25.4619 34.709 25.4609 34.4747 25.5909L29.5788 28.3101C29.3387 28.4435 29.1912 28.6937 29.1934 28.9641L29.2374 34.2386C29.2457 35.2307 29.6503 36.0259 30.3478 36.4202C30.6568 36.5949 31.0067 36.6816 31.3774 36.6816C31.4888 36.6816 31.6022 36.6732 31.7167 36.6576L31.7338 38.7044L30.3113 39.4944C29.9459 39.6973 29.8177 40.152 30.0249 40.5099C30.1649 40.7517 30.4222 40.8875 30.687 40.8875C30.814 40.8875 30.9429 40.8562 31.0613 40.7905L34.6842 38.7783C35.0496 38.5754 35.1778 38.1208 34.9707 37.7629C34.7632 37.4051 34.299 37.2794 33.9339 37.4824ZM32.0933 34.9722C31.6937 35.1941 31.3253 35.2533 31.1077 35.1302C30.889 35.0065 30.7616 34.6773 30.7579 34.2267L30.7176 29.3902L34.0996 27.5117L34.1329 31.5197C34.1436 32.7713 33.2095 34.3523 32.0933 34.9722Z" fill="black"/>
</svg>
