<svg width="45" height="45" viewBox="0 0 45 45" fill="none" xmlns="http://www.w3.org/2000/svg">
<path d="M44.1036 0.0373535H0.896397C0.401309 0.0373535 0 0.43875 0 0.93375V44.0662C0 44.5612 0.401309 44.9626 0.896397 44.9626H44.1036C44.5986 44.9626 45 44.5612 45 44.0662V0.93375C45 0.43875 44.5986 0.0373535 44.1036 0.0373535ZM43.2072 43.1698H1.79279V1.83023H43.2071V43.1698H43.2072Z" fill="#14112A"/>
<path d="M38.3386 5.7666H6.6254C6.13031 5.7666 5.729 6.168 5.729 6.663V38.3761C5.729 38.8712 6.13031 39.2725 6.6254 39.2725H38.3385C38.8335 39.2725 39.2349 38.8711 39.2349 38.3761V6.66309C39.235 6.16809 38.8336 5.7666 38.3386 5.7666ZM37.4422 7.55948V13.6848L31.3169 7.55948H37.4422ZM28.7814 7.55948L37.4422 16.2203V21.3146L27.6146 11.487C27.2644 11.137 26.697 11.137 26.3467 11.487C25.9967 11.837 25.9967 12.4046 26.3467 12.7548L37.4422 23.8503V28.7039L16.298 7.55948H28.7814ZM7.52188 37.4798V31.3766L13.6251 37.4798H7.52188ZM16.1606 37.4798L7.5218 28.841V23.6624L21.3393 37.4798H16.1606ZM23.871 37.4798C23.8592 37.4666 23.848 37.4529 23.8353 37.4403L7.53023 21.1353C7.52751 21.1326 7.52461 21.1304 7.5218 21.1277V16.2844L28.7172 37.4798H23.871ZM31.2498 37.4798C31.2403 37.4694 31.2315 37.4585 31.2214 37.4484L7.52188 13.7488V8.82722L36.1745 37.4797H31.2498V37.4798ZM37.4423 36.2121L8.78953 7.55948H13.7625L37.4422 31.2392V36.2121H37.4423Z" fill="#14112A"/>
<path d="M25.7338 9.60581L25.3706 9.24265C25.0205 8.89267 24.453 8.89267 24.1028 9.24265C23.7528 9.5928 23.7528 10.1604 24.1029 10.5105L24.4661 10.8736C24.6411 11.0486 24.8705 11.1362 25.0999 11.1362C25.3293 11.1362 25.5587 11.0486 25.7338 10.8736C26.0838 10.5236 26.0838 9.95588 25.7338 9.60581Z" fill="#14112A"/>
</svg>
