<svg width="45" height="45" viewBox="0 0 45 45" fill="none" xmlns="http://www.w3.org/2000/svg">
<path d="M37.8645 1.119L36.1927 1.3575L36.465 0H27.75H17.25H9.53925L9.22875 1.24125C8.88825 1.10775 8.4765 0.94575 8.06775 0.78525L7.48725 0.555L0.90525 11.0865L1.695 13.4565C1.50375 13.356 1.30275 13.251 1.0965 13.1437L0 12.5737V23.8995C0 24.5602 0.2295 25.206 0.6465 25.719C1.57425 26.8598 2.415 27.8895 3.01725 28.6245L3.222 28.875L3.5445 28.8975C4.24725 28.9477 4.96125 28.9965 5.63025 29.04L3.477 29.901L0.162 39.3743C0.05475 39.6803 0 40.0005 0 40.3268V42.1193C0 43.707 1.29225 45 2.88075 45H18.8273C19.053 45 19.2787 44.9738 19.4977 44.9212C24.3555 43.7625 28.83 42.6735 30.7223 42.213L31.1445 42.1095L31.2653 41.6917C31.3372 41.4427 31.4115 41.1862 31.4865 40.932L31.8585 42.2332L37.4422 44.7465C37.815 44.9145 38.2132 45 38.6243 45H42.1193C43.7077 45 45 43.707 45 42.1185V36.618C45 36.2318 44.9243 35.8553 44.76 35.4675L40.935 27.4282C40.9253 27.3825 40.9147 27.3382 40.9027 27.2932L40.8105 26.9647L38.634 25.9253L40.7895 25.6567L40.9642 25.278C41.0197 25.158 41.0775 25.0613 41.1427 24.9825L44.3498 21.0623C44.7682 20.5508 45 19.9028 45 19.239V12.5347L37.8645 1.119ZM34.635 1.5L34.3065 3.14175L37.11 2.742L42.897 12H27.75V1.5H34.635ZM22.5 1.5H26.25V12H22.5H18.75V1.5H22.5ZM18.75 13.5H19.5C19.5 13.914 19.836 14.25 20.25 14.25C20.664 14.25 21 13.914 21 13.5H24C24 13.914 24.336 14.25 24.75 14.25C25.164 14.25 25.5 13.914 25.5 13.5H26.25V25.1895L25.5 24.4395L22.5 27.4395L19.5 24.4395L18.75 25.1895V13.5ZM8.09775 2.409C8.8455 2.70375 9.47775 2.949 9.47775 2.949L10.2712 3.258L10.7108 1.5H17.25V12H2.79075L2.5515 11.283L8.09775 2.409ZM43.188 20.1135L39.9825 24.0322C39.921 24.1065 39.864 24.1845 39.8108 24.2677L33.3667 25.0732L39.5527 28.0267C39.5588 28.0417 39.5648 28.0567 39.5715 28.0725L43.392 36.081C43.4632 36.252 43.5 36.4328 43.5 36.618V42.1185C43.5 42.8805 42.8805 43.5 42.1193 43.5H38.6243C38.427 43.5 38.2365 43.4588 38.058 43.3785L33.1095 41.151L31.5188 35.5853L30.7822 38.034C30.7822 38.034 30.3473 39.4778 29.946 40.8577C27.8655 41.3647 23.6745 42.3825 19.149 43.4625C19.044 43.4873 18.9353 43.5 18.8273 43.5H2.88075C2.78175 43.5 2.685 43.4888 2.592 43.4685L4.28025 41.7803C4.5735 41.487 4.5735 41.013 4.28025 40.7197C3.987 40.4265 3.513 40.4265 3.21975 40.7197L1.5315 42.408C1.51125 42.3142 1.5 42.2183 1.5 42.1185V40.326C1.5 40.17 1.52625 40.017 1.578 39.87L4.668 31.041L12.3975 27.9487L9.04425 27.7515C9.04425 27.7515 6.4875 27.6007 3.97425 27.4237C3.39375 26.7135 2.63625 25.7865 1.81125 24.7717C1.61025 24.5257 1.5 24.2153 1.5 23.8988V15.0495C2.17725 15.408 2.64225 15.6593 2.64375 15.6593L4.311 16.56L3.29025 13.5H17.25V28.8105L19.5 26.5605L22.5 29.5605L25.5 26.5605L27.75 28.8105V13.5H43.5V19.239C43.5 19.557 43.3898 19.8675 43.188 20.1135Z" fill="#14112A"/>
<path d="M22.5 3C22.9142 3 23.25 2.66421 23.25 2.25C23.25 1.83579 22.9142 1.5 22.5 1.5C22.0858 1.5 21.75 1.83579 21.75 2.25C21.75 2.66421 22.0858 3 22.5 3Z" fill="#14112A"/>
<path d="M20.25 5.25C20.6642 5.25 21 4.91421 21 4.5C21 4.08579 20.6642 3.75 20.25 3.75C19.8358 3.75 19.5 4.08579 19.5 4.5C19.5 4.91421 19.8358 5.25 20.25 5.25Z" fill="#14112A"/>
<path d="M20.25 9.75C20.6642 9.75 21 9.41421 21 9C21 8.58579 20.6642 8.25 20.25 8.25C19.8358 8.25 19.5 8.58579 19.5 9C19.5 9.41421 19.8358 9.75 20.25 9.75Z" fill="#14112A"/>
<path d="M22.5 7.5C22.9142 7.5 23.25 7.16421 23.25 6.75C23.25 6.33579 22.9142 6 22.5 6C22.0858 6 21.75 6.33579 21.75 6.75C21.75 7.16421 22.0858 7.5 22.5 7.5Z" fill="#14112A"/>
<path d="M24.75 5.25C25.1642 5.25 25.5 4.91421 25.5 4.5C25.5 4.08579 25.1642 3.75 24.75 3.75C24.3358 3.75 24 4.08579 24 4.5C24 4.91421 24.3358 5.25 24.75 5.25Z" fill="#14112A"/>
<path d="M24.75 9.75C25.1642 9.75 25.5 9.41421 25.5 9C25.5 8.58579 25.1642 8.25 24.75 8.25C24.3358 8.25 24 8.58579 24 9C24 9.41421 24.3358 9.75 24.75 9.75Z" fill="#14112A"/>
<path d="M22.5 12C22.9142 12 23.25 11.6642 23.25 11.25C23.25 10.8358 22.9142 10.5 22.5 10.5C22.0858 10.5 21.75 10.8358 21.75 11.25C21.75 11.6642 22.0858 12 22.5 12Z" fill="#14112A"/>
<path d="M20.25 18.75C20.6642 18.75 21 18.4142 21 18C21 17.5858 20.6642 17.25 20.25 17.25C19.8358 17.25 19.5 17.5858 19.5 18C19.5 18.4142 19.8358 18.75 20.25 18.75Z" fill="#14112A"/>
<path d="M22.5 16.5C22.9142 16.5 23.25 16.1642 23.25 15.75C23.25 15.3358 22.9142 15 22.5 15C22.0858 15 21.75 15.3358 21.75 15.75C21.75 16.1642 22.0858 16.5 22.5 16.5Z" fill="#14112A"/>
<path d="M24.75 18.75C25.1642 18.75 25.5 18.4142 25.5 18C25.5 17.5858 25.1642 17.25 24.75 17.25C24.3358 17.25 24 17.5858 24 18C24 18.4142 24.3358 18.75 24.75 18.75Z" fill="#14112A"/>
<path d="M22.5 21C22.9142 21 23.25 20.6642 23.25 20.25C23.25 19.8358 22.9142 19.5 22.5 19.5C22.0858 19.5 21.75 19.8358 21.75 20.25C21.75 20.6642 22.0858 21 22.5 21Z" fill="#14112A"/>
<path d="M20.25 23.25C20.6642 23.25 21 22.9142 21 22.5C21 22.0858 20.6642 21.75 20.25 21.75C19.8358 21.75 19.5 22.0858 19.5 22.5C19.5 22.9142 19.8358 23.25 20.25 23.25Z" fill="#14112A"/>
<path d="M22.5 25.5C22.9142 25.5 23.25 25.1642 23.25 24.75C23.25 24.3358 22.9142 24 22.5 24C22.0858 24 21.75 24.3358 21.75 24.75C21.75 25.1642 22.0858 25.5 22.5 25.5Z" fill="#14112A"/>
<path d="M24.75 23.25C25.1642 23.25 25.5 22.9142 25.5 22.5C25.5 22.0858 25.1642 21.75 24.75 21.75C24.3358 21.75 24 22.0858 24 22.5C24 22.9142 24.3358 23.25 24.75 23.25Z" fill="#14112A"/>
</svg>
