<svg width="45" height="45" viewBox="0 0 45 45" fill="none" xmlns="http://www.w3.org/2000/svg">
<g clip-path="url(#clip0_359_1639)">
<path d="M14.2346 31.6837H7.80606C7.29885 31.6837 6.8877 32.0948 6.8877 32.602V38.1122C6.8877 38.6194 7.29885 39.0306 7.80606 39.0306H14.2346C14.7418 39.0306 15.153 38.6194 15.153 38.1122V32.602C15.153 32.0948 14.7418 31.6837 14.2346 31.6837ZM13.3163 37.1939H8.72443V33.5204H13.3163V37.1939Z" fill="#14112A"/>
<path d="M20.6629 33.0612H16.5303V34.8979H20.6629V33.0612Z" fill="#14112A"/>
<path d="M27.0915 35.8163H16.5303V37.653H27.0915V35.8163Z" fill="#14112A"/>
<path d="M38.112 36.7347H34.4385V38.5714H38.112V36.7347Z" fill="#14112A"/>
<path d="M38.112 33.9796H34.4385V35.8163H38.112V33.9796Z" fill="#14112A"/>
<path d="M44.9434 23.5601L41.7291 14.8356C41.5961 14.4746 41.2522 14.2347 40.8674 14.2347H35.3572V3.21427C35.3572 2.70705 34.946 2.2959 34.4388 2.2959H10.5613C10.054 2.2959 9.64289 2.70705 9.64289 3.21427V14.2347H4.13269C3.75395 14.2347 3.41406 14.4672 3.27677 14.8202L0.0624843 23.0855C-0.0474442 23.3681 -0.0108013 23.6867 0.160382 23.9369C0.331566 24.1871 0.615249 24.3367 0.918402 24.3367H3.21432V41.7857C3.21432 42.2929 3.62547 42.7041 4.13269 42.7041H40.8674C41.3746 42.7041 41.7857 42.2929 41.7857 41.7857V24.7959H44.0817C44.3819 24.7959 44.6632 24.6491 44.835 24.4028C45.0067 24.1565 45.0472 23.8418 44.9434 23.5601ZM11.4796 4.13263H26.1735V6.88774H11.4796V4.13263ZM11.4796 8.72447H26.1735V14.2347H11.4796V8.72447ZM2.26096 22.5L4.76094 16.0714H30.3411L27.8412 22.5H2.26096ZM30.7653 40.8673H5.05105V24.3367H28.4694C28.8482 24.3367 29.188 24.1042 29.3253 23.7513L30.7653 20.0484V40.8673ZM28.0102 14.2347V4.13263H33.5204V14.2347H31.6837H28.0102ZM39.949 40.8673H32.6021V19.2371L34.9863 24.2707C35.1383 24.5915 35.4614 24.7959 35.8164 24.7959H39.949V40.8673ZM36.3975 22.9592L33.1349 16.0714H40.227L42.7645 22.9592H36.3975Z" fill="#14112A"/>
<path d="M32.1428 5.96936H29.3877V7.8061H32.1428V5.96936Z" fill="#14112A"/>
<path d="M32.1428 8.72449H29.3877V10.5612H32.1428V8.72449Z" fill="#14112A"/>
</g>
<defs>
<clipPath id="clip0_359_1639">
<rect width="45" height="45" fill="white"/>
</clipPath>
</defs>
</svg>
