<svg width="45" height="45" viewBox="0 0 45 45" fill="none" xmlns="http://www.w3.org/2000/svg">
<path d="M42.2666 20.9624L34.9935 15.4705C29.487 11.3126 22.6546 9.02271 15.7549 9.02271H7.95252C5.75678 9.02271 3.80559 10.3377 2.98156 12.3728L1.04394 17.1573C0.351239 18.8675 0 20.6705 0 22.5161V26.8365C0 29.5515 2.00962 31.8055 4.61933 32.1906C5.17508 34.3649 7.15052 35.9775 9.4956 35.9775C11.8194 35.9775 13.7795 34.3937 14.3556 32.2492H30.654C31.2301 34.3937 33.1901 35.9775 35.5139 35.9775C37.8377 35.9775 39.7979 34.3937 40.374 32.2492H43.6957C44.4159 32.2492 45 31.6652 45 30.945V26.4515C45 24.3066 43.9782 22.2546 42.2666 20.9624ZM11.9194 30.945C11.9194 32.2816 10.8321 33.369 9.4956 33.369C8.15898 33.369 7.07161 32.2816 7.07161 30.945C7.07161 29.6085 8.15898 28.5211 9.4956 28.5211C10.8321 28.5211 11.9194 29.6085 11.9194 30.945ZM37.9379 30.945C37.9379 32.2816 36.8505 33.369 35.5139 33.369C34.1774 33.369 33.0901 32.2816 33.0901 30.945C33.0901 29.6085 34.1774 28.5211 35.5139 28.5211C36.8505 28.5211 37.9379 29.6085 37.9379 30.945ZM42.3915 29.6407H40.374C39.7979 27.4962 37.8377 25.9126 35.5139 25.9126C33.1901 25.9126 31.2301 27.4962 30.654 29.6407H14.3556C13.7795 27.4962 11.8194 25.9126 9.4956 25.9126C7.2096 25.9126 5.27603 27.4452 4.66511 29.5364C3.48122 29.2081 2.60854 28.1236 2.60854 26.8365V22.5161C2.60854 21.0078 2.89561 19.5343 3.46166 18.1365L5.39915 13.3518C5.82238 12.3066 6.82471 11.6312 7.95239 11.6312H15.7549C22.0909 11.6312 28.3651 13.734 33.4215 17.5521L40.6947 23.044C41.7572 23.8461 42.3915 25.12 42.3915 26.4514V29.6407Z" fill="#14112A"/>
<path d="M31.6241 19.3254L29.232 17.5191C25.8776 14.9862 21.7154 13.5913 17.5123 13.5913C16.7921 13.5913 16.208 14.1754 16.208 14.8956V20.6735C16.208 21.3937 16.7921 21.9778 17.5123 21.9778H30.8381C31.5583 21.9778 32.1424 21.3937 32.1424 20.6735V20.3663C32.1423 19.9573 31.9504 19.5719 31.6241 19.3254ZM18.8165 16.2515C21.8751 16.493 24.8513 17.5768 27.3457 19.3692H18.8165V16.2515Z" fill="#14112A"/>
</svg>
