<svg width="45" height="45" viewBox="0 0 45 45" fill="none" xmlns="http://www.w3.org/2000/svg">
<path d="M44.2123 35.8945H0.787746C0.352713 35.8945 0 35.5418 0 35.1067V17.4258C0 16.9907 0.352713 16.638 0.787746 16.638H44.2123C44.6473 16.638 45 16.9907 45 17.4258V35.1067C45 35.5418 44.6473 35.8945 44.2123 35.8945ZM1.57549 34.319H43.4245V18.2135H1.57549V34.319ZM35.9677 32.4538C34.8759 32.4538 33.5854 31.9733 32.4674 31.0943C32.325 30.9825 32.1879 30.8663 32.0565 30.7462C31.062 31.5331 30.1065 32.0652 29.4263 32.2013C27.7462 32.5369 26.7842 31.105 26.2099 30.2491C26.075 30.048 25.8824 29.7609 25.7585 29.6295C25.5444 29.7426 25.1606 30.1999 24.9268 30.6341C24.7209 31.0164 24.2439 31.1609 23.8608 30.9555C23.478 30.7503 23.333 30.2747 23.5375 29.8913C23.7247 29.5405 24.7274 27.8027 26.0752 28.0558C26.7158 28.1759 27.1056 28.7567 27.5181 29.3713C28.1747 30.3499 28.5607 30.767 29.1171 30.6567C29.5649 30.5671 30.2626 30.168 31.0258 29.5675C29.9241 27.9676 29.5767 25.9657 30.0994 23.9146C30.9594 20.5413 32.7984 19.632 34.2319 19.9034C35.8488 20.211 36.8799 21.925 36.6304 23.8902C36.3697 25.9439 34.8834 28.0926 33.2464 29.6955C33.3158 29.7556 33.3809 29.8089 33.4408 29.856C34.6396 30.7985 35.9831 31.0626 36.5404 30.7672C37.2616 30.3846 37.5184 29.7441 37.8435 28.9334C38.2201 27.9948 38.6466 26.9313 39.9066 26.3182C40.2977 26.1274 40.769 26.2905 40.9596 26.682C41.1501 27.0731 40.9872 27.5446 40.5959 27.735C39.9171 28.0655 39.6634 28.6285 39.3058 29.5198C38.9509 30.4047 38.5092 31.5059 37.2789 32.1588C36.9039 32.3579 36.4555 32.4538 35.9677 32.4538ZM33.766 21.435C33.0808 21.435 32.1704 22.17 31.6264 24.3036C31.154 26.1571 31.6054 27.5511 32.2178 28.5086C33.5804 27.1544 34.8562 25.3572 35.0677 23.6915C35.2249 22.4536 34.6167 21.5799 33.9379 21.4509C33.8825 21.4403 33.8248 21.435 33.766 21.435ZM17.0189 31.6509H5.39882C4.96379 31.6509 4.61107 31.2982 4.61107 30.8631C4.61107 30.4281 4.96379 30.0754 5.39882 30.0754H17.0189C17.4539 30.0754 17.8066 30.4281 17.8066 30.8631C17.8066 31.2982 17.4539 31.6509 17.0189 31.6509ZM17.0189 27.0538H5.39882C4.96379 27.0538 4.61107 26.7011 4.61107 26.266C4.61107 25.831 4.96379 25.4783 5.39882 25.4783H17.0189C17.4539 25.4783 17.8066 25.831 17.8066 26.266C17.8066 26.7011 17.4539 27.0538 17.0189 27.0538ZM17.0189 22.4567H5.39882C4.96379 22.4567 4.61107 22.104 4.61107 21.669C4.61107 21.2339 4.96379 20.8812 5.39882 20.8812H17.0189C17.4539 20.8812 17.8066 21.2339 17.8066 21.669C17.8066 22.104 17.4539 22.4567 17.0189 22.4567ZM14.4729 14.2882C14.464 14.2882 14.4553 14.288 14.4465 14.2878C14.3803 14.2854 14.3161 14.2754 14.2549 14.2576L7.42963 12.4588C7.08381 12.3676 6.84276 12.0547 6.84276 11.6971C6.84276 11.3394 7.08381 11.0265 7.42963 10.9353L14.2551 9.13631C14.3135 9.11937 14.3746 9.10913 14.4378 9.10657C14.4508 9.10578 14.4628 9.10559 14.4776 9.10578H36.1325C37.5515 9.10578 38.7057 10.26 38.7057 11.679V11.7152C38.7057 13.1339 37.5515 14.2882 36.1325 14.2882H14.476C14.4748 14.2882 14.4739 14.2882 14.4729 14.2882ZM15.2606 12.7127H36.1323C36.6824 12.7127 37.13 12.2652 37.13 11.7152V11.679C37.13 11.1287 36.6826 10.6813 36.1323 10.6813H15.2606V12.7127ZM10.721 11.6971L13.6849 12.4783V10.9158L10.721 11.6971Z" fill="#14112A"/>
</svg>
