<svg width="114" height="33" viewBox="0 0 114 33" fill="none" xmlns="http://www.w3.org/2000/svg">
<path d="M4.49755 9V0.727331H7.59389C8.2951 0.727331 8.89782 0.841573 9.40206 1.07006C9.9063 1.29066 10.2924 1.61369 10.5602 2.03914C10.836 2.45671 10.9739 2.96489 10.9739 3.56368C10.9739 4.1467 10.836 4.65094 10.5602 5.07639C10.2924 5.49396 9.9063 5.81699 9.40206 6.04548C8.89782 6.27396 8.2951 6.3882 7.59389 6.3882H4.98209L5.37209 5.97457V9H4.49755ZM5.37209 6.04548L4.98209 5.62002H7.57026C8.39752 5.62002 9.02388 5.44275 9.44933 5.08821C9.88266 4.72579 10.0993 4.21761 10.0993 3.56368C10.0993 2.90186 9.88266 2.38974 9.44933 2.02732C9.02388 1.6649 8.39752 1.48369 7.57026 1.48369H4.98209L5.37209 1.07006V6.04548ZM16.3551 9V7.6291L16.3196 7.40456V5.11185C16.3196 4.58397 16.1699 4.17822 15.8705 3.89458C15.579 3.61095 15.1417 3.46913 14.5587 3.46913C14.1569 3.46913 13.7748 3.5361 13.4124 3.67004C13.0499 3.80398 12.7427 3.98125 12.4906 4.20185L12.1124 3.57549C12.4275 3.30762 12.8057 3.10277 13.2469 2.96095C13.6881 2.81126 14.153 2.73641 14.6414 2.73641C15.4451 2.73641 16.0636 2.93732 16.4969 3.33913C16.9381 3.73307 17.1587 4.33579 17.1587 5.1473V9H16.3551ZM14.216 9.05909C13.7512 9.05909 13.3454 8.98424 12.9987 8.83455C12.6599 8.67697 12.3999 8.46425 12.2187 8.19637C12.0375 7.92061 11.9469 7.60546 11.9469 7.25092C11.9469 6.92789 12.0218 6.63638 12.1715 6.37638C12.329 6.10851 12.5812 5.89578 12.9278 5.7382C13.2824 5.57275 13.7551 5.49002 14.346 5.49002H16.4851V6.11638H14.3696C13.7708 6.11638 13.3533 6.22275 13.1169 6.43547C12.8884 6.6482 12.7742 6.91214 12.7742 7.22729C12.7742 7.58183 12.9121 7.86546 13.1878 8.07819C13.4636 8.29091 13.8496 8.39728 14.346 8.39728C14.8187 8.39728 15.2245 8.29091 15.5633 8.07819C15.9099 7.85758 16.162 7.54243 16.3196 7.13274L16.5087 7.71183C16.3511 8.12152 16.0754 8.44849 15.6814 8.69273C15.2954 8.93697 14.8069 9.05909 14.216 9.05909ZM20.9318 9.07091C21.4439 9.07091 21.9048 8.99212 22.3145 8.83455C22.7321 8.67697 23.063 8.46031 23.3073 8.18455C23.5515 7.90092 23.6736 7.57395 23.6736 7.20365C23.6736 6.73093 23.4727 6.35669 23.0709 6.08093C22.677 5.80517 22.1254 5.6673 21.4164 5.6673L21.3809 5.89184C21.7827 5.89184 22.1412 5.82881 22.4564 5.70275C22.7715 5.57669 23.0236 5.39942 23.2127 5.17094C23.4018 4.94245 23.4963 4.67458 23.4963 4.36731C23.4963 4.02064 23.3782 3.72519 23.1418 3.48095C22.9054 3.22883 22.5863 3.0358 22.1845 2.90186C21.7906 2.76792 21.3454 2.70883 20.8491 2.72459C20.4867 2.72459 20.1242 2.7758 19.7618 2.87823C19.4073 2.97277 19.0488 3.11459 18.6864 3.30368L18.9227 3.95367C19.2458 3.78822 19.5727 3.6661 19.9036 3.58731C20.2345 3.50065 20.5536 3.45337 20.8609 3.44549C21.1997 3.44549 21.503 3.48489 21.7709 3.56368C22.0388 3.64246 22.2476 3.76064 22.3973 3.91822C22.5548 4.07579 22.6336 4.26488 22.6336 4.48549C22.6336 4.69033 22.5667 4.86761 22.4327 5.0173C22.3067 5.167 22.1254 5.28124 21.8891 5.36003C21.6527 5.43881 21.3809 5.47821 21.0736 5.47821H20.0691V6.09275H21.1327C21.6527 6.09275 22.0624 6.18729 22.3618 6.37638C22.6612 6.55759 22.8109 6.81365 22.8109 7.14456C22.8109 7.37304 22.7321 7.57789 22.5745 7.7591C22.417 7.94031 22.1964 8.08213 21.9127 8.18455C21.6291 8.28697 21.2942 8.34213 20.9082 8.35C20.5221 8.35 20.1321 8.29485 19.7382 8.18455C19.3443 8.06637 18.9976 7.89698 18.6982 7.67637L18.4264 8.30273C18.7652 8.56273 19.1552 8.75576 19.5964 8.88182C20.0376 9.00788 20.4827 9.07091 20.9318 9.07091ZM28.7812 9.05909C28.2454 9.05909 27.7609 8.93697 27.3275 8.69273C26.8942 8.44061 26.5475 8.08213 26.2875 7.61728C26.0354 7.14456 25.9094 6.56941 25.9094 5.89184C25.9094 5.21427 26.0354 4.64306 26.2875 4.17822C26.5397 3.70549 26.8824 3.34701 27.3157 3.10277C27.749 2.85853 28.2375 2.73641 28.7812 2.73641C29.3721 2.73641 29.8999 2.87035 30.3648 3.13822C30.8375 3.39822 31.2078 3.76852 31.4757 4.24912C31.7436 4.72185 31.8775 5.26942 31.8775 5.89184C31.8775 6.52214 31.7436 7.07365 31.4757 7.54637C31.2078 8.0191 30.8375 8.3894 30.3648 8.65728C29.8999 8.92515 29.3721 9.05909 28.7812 9.05909ZM25.5785 11.2927V2.7955H26.3821V4.66276L26.2994 5.90366L26.4175 7.15638V11.2927H25.5785ZM28.7221 8.31455C29.1633 8.31455 29.5572 8.21607 29.9039 8.0191C30.2505 7.81425 30.5263 7.53062 30.7311 7.16819C30.936 6.79789 31.0384 6.37244 31.0384 5.89184C31.0384 5.41124 30.936 4.98973 30.7311 4.6273C30.5263 4.26488 30.2505 3.98125 29.9039 3.7764C29.5572 3.57155 29.1633 3.46913 28.7221 3.46913C28.2809 3.46913 27.883 3.57155 27.5284 3.7764C27.1818 3.98125 26.906 4.26488 26.7012 4.6273C26.5042 4.98973 26.4057 5.41124 26.4057 5.89184C26.4057 6.37244 26.5042 6.79789 26.7012 7.16819C26.906 7.53062 27.1818 7.81425 27.5284 8.0191C27.883 8.21607 28.2809 8.31455 28.7221 8.31455ZM37.4984 9V7.6291L37.4629 7.40456V5.11185C37.4629 4.58397 37.3132 4.17822 37.0138 3.89458C36.7223 3.61095 36.2851 3.46913 35.702 3.46913C35.3002 3.46913 34.9181 3.5361 34.5557 3.67004C34.1933 3.80398 33.886 3.98125 33.6339 4.20185L33.2557 3.57549C33.5708 3.30762 33.949 3.10277 34.3902 2.96095C34.8314 2.81126 35.2963 2.73641 35.7848 2.73641C36.5884 2.73641 37.2069 2.93732 37.6402 3.33913C38.0814 3.73307 38.302 4.33579 38.302 5.1473V9H37.4984ZM35.3593 9.05909C34.8945 9.05909 34.4887 8.98424 34.142 8.83455C33.8033 8.67697 33.5433 8.46425 33.3621 8.19637C33.1808 7.92061 33.0902 7.60546 33.0902 7.25092C33.0902 6.92789 33.1651 6.63638 33.3148 6.37638C33.4724 6.10851 33.7245 5.89578 34.0711 5.7382C34.4257 5.57275 34.8984 5.49002 35.4893 5.49002H37.6284V6.11638H35.5129C34.9142 6.11638 34.4966 6.22275 34.2602 6.43547C34.0317 6.6482 33.9175 6.91214 33.9175 7.22729C33.9175 7.58183 34.0554 7.86546 34.3311 8.07819C34.6069 8.29091 34.9929 8.39728 35.4893 8.39728C35.962 8.39728 36.3678 8.29091 36.7066 8.07819C37.0532 7.85758 37.3054 7.54243 37.4629 7.13274L37.652 7.71183C37.4944 8.12152 37.2187 8.44849 36.8248 8.69273C36.4387 8.93697 35.9502 9.05909 35.3593 9.05909ZM43.3248 9.07091C42.8206 9.07091 42.3715 8.98818 41.9775 8.82273C41.5915 8.65728 41.2606 8.40516 40.9848 8.06637C40.7091 7.72758 40.5003 7.31001 40.3585 6.81365C40.2166 6.30941 40.1457 5.72639 40.1457 5.06457C40.1457 4.47367 40.2009 3.95761 40.3112 3.5164C40.4215 3.06731 40.5751 2.68126 40.7721 2.35823C40.9691 2.0352 41.1975 1.76338 41.4575 1.54278C41.7254 1.3143 42.013 1.13309 42.3203 0.999148C42.6354 0.85733 42.9584 0.750968 43.2893 0.680059L46.0784 0.0300635L46.2202 0.810058L43.5966 1.40096C43.4312 1.44036 43.2303 1.49551 42.9939 1.56642C42.7654 1.63733 42.529 1.74369 42.2848 1.8855C42.0484 2.02732 41.8278 2.22429 41.623 2.47641C41.4181 2.72853 41.2527 3.0555 41.1266 3.45731C41.0085 3.85125 40.9494 4.34367 40.9494 4.93457C40.9494 5.06063 40.9533 5.16306 40.9612 5.24184C40.9691 5.31275 40.9769 5.39154 40.9848 5.47821C41.0006 5.55699 41.0124 5.67518 41.0203 5.83275L40.6539 5.52548C40.7406 5.04488 40.9178 4.6273 41.1857 4.27276C41.4536 3.91034 41.7884 3.63064 42.1903 3.43368C42.6 3.22883 43.053 3.12641 43.5493 3.12641C44.1245 3.12641 44.6366 3.25247 45.0857 3.50458C45.5348 3.74883 45.8854 4.09155 46.1375 4.53276C46.3975 4.97397 46.5275 5.48609 46.5275 6.06911C46.5275 6.64426 46.3936 7.16032 46.1257 7.61728C45.8657 8.07425 45.4954 8.43273 45.0148 8.69273C44.5342 8.94485 43.9709 9.07091 43.3248 9.07091ZM43.4193 8.37364C43.8606 8.37364 44.2506 8.27516 44.5893 8.07819C44.9281 7.87334 45.1921 7.59759 45.3812 7.25092C45.5781 6.90426 45.6766 6.51426 45.6766 6.08093C45.6766 5.65548 45.5781 5.2773 45.3812 4.94639C45.1921 4.61549 44.9281 4.35549 44.5893 4.1664C44.2506 3.96943 43.8566 3.87095 43.4075 3.87095C42.9663 3.87095 42.5763 3.96549 42.2375 4.15458C41.8988 4.33579 41.6309 4.59185 41.4339 4.92276C41.2448 5.25366 41.1503 5.63578 41.1503 6.06911C41.1503 6.50244 41.2448 6.89244 41.4339 7.2391C41.6309 7.58577 41.8988 7.86152 42.2375 8.06637C42.5842 8.27122 42.9781 8.37364 43.4193 8.37364ZM50.8787 9.05909C50.2799 9.05909 49.7402 8.92515 49.2596 8.65728C48.7869 8.38152 48.4126 8.00728 48.1369 7.53456C47.8611 7.05395 47.7233 6.50638 47.7233 5.89184C47.7233 5.26942 47.8611 4.72185 48.1369 4.24912C48.4126 3.7764 48.7869 3.4061 49.2596 3.13822C49.7323 2.87035 50.272 2.73641 50.8787 2.73641C51.4932 2.73641 52.0369 2.87035 52.5096 3.13822C52.9902 3.4061 53.3644 3.7764 53.6323 4.24912C53.9081 4.72185 54.0459 5.26942 54.0459 5.89184C54.0459 6.50638 53.9081 7.05395 53.6323 7.53456C53.3644 8.00728 52.9902 8.38152 52.5096 8.65728C52.029 8.92515 51.4854 9.05909 50.8787 9.05909ZM50.8787 8.31455C51.3278 8.31455 51.7257 8.21607 52.0723 8.0191C52.419 7.81425 52.6908 7.53062 52.8878 7.16819C53.0926 6.79789 53.195 6.37244 53.195 5.89184C53.195 5.40336 53.0926 4.97791 52.8878 4.61549C52.6908 4.25306 52.419 3.97337 52.0723 3.7764C51.7257 3.57155 51.3317 3.46913 50.8905 3.46913C50.4493 3.46913 50.0554 3.57155 49.7087 3.7764C49.362 3.97337 49.0863 4.25306 48.8814 4.61549C48.6766 4.97791 48.5742 5.40336 48.5742 5.89184C48.5742 6.37244 48.6766 6.79789 48.8814 7.16819C49.0863 7.53062 49.362 7.81425 49.7087 8.0191C50.0554 8.21607 50.4454 8.31455 50.8787 8.31455ZM56.7902 9V3.30368L57.003 3.52822H54.4384V2.7955H59.9811V3.52822H57.4166L57.6293 3.30368V9H56.7902ZM65.7443 9L63.1916 5.92729L63.8888 5.51366L66.737 9H65.7443ZM61.1943 9V2.7955H62.0334V9H61.1943ZM61.7734 6.23457V5.51366H63.7707V6.23457H61.7734ZM63.9598 5.98638L63.1798 5.8682L65.6497 2.7955H66.5597L63.9598 5.98638ZM71.7986 9V7.6291L71.7631 7.40456V5.11185C71.7631 4.58397 71.6134 4.17822 71.314 3.89458C71.0225 3.61095 70.5852 3.46913 70.0022 3.46913C69.6004 3.46913 69.2183 3.5361 68.8559 3.67004C68.4934 3.80398 68.1862 3.98125 67.9341 4.20185L67.5559 3.57549C67.871 3.30762 68.2492 3.10277 68.6904 2.96095C69.1316 2.81126 69.5965 2.73641 70.0849 2.73641C70.8886 2.73641 71.5071 2.93732 71.9404 3.33913C72.3816 3.73307 72.6022 4.33579 72.6022 5.1473V9H71.7986ZM69.6595 9.05909C69.1946 9.05909 68.7889 8.98424 68.4422 8.83455C68.1034 8.67697 67.8434 8.46425 67.6622 8.19637C67.481 7.92061 67.3904 7.60546 67.3904 7.25092C67.3904 6.92789 67.4653 6.63638 67.615 6.37638C67.7725 6.10851 68.0247 5.89578 68.3713 5.7382C68.7259 5.57275 69.1986 5.49002 69.7895 5.49002H71.9286V6.11638H69.8131C69.2143 6.11638 68.7968 6.22275 68.5604 6.43547C68.3319 6.6482 68.2177 6.91214 68.2177 7.22729C68.2177 7.58183 68.3556 7.86546 68.6313 8.07819C68.9071 8.29091 69.2931 8.39728 69.7895 8.39728C70.2622 8.39728 70.668 8.29091 71.0068 8.07819C71.3534 7.85758 71.6055 7.54243 71.7631 7.13274L71.9522 7.71183C71.7946 8.12152 71.5189 8.44849 71.1249 8.69273C70.7389 8.93697 70.2504 9.05909 69.6595 9.05909ZM80.5289 9.05909C79.9144 9.05909 79.3629 8.92515 78.8744 8.65728C78.3938 8.38152 78.0156 8.00728 77.7398 7.53456C77.4641 7.05395 77.3262 6.50638 77.3262 5.89184C77.3262 5.26942 77.4641 4.72185 77.7398 4.24912C78.0156 3.7764 78.3938 3.4061 78.8744 3.13822C79.3629 2.87035 79.9144 2.73641 80.5289 2.73641C81.0568 2.73641 81.5335 2.83883 81.9589 3.04368C82.3844 3.24853 82.7192 3.5558 82.9634 3.96549L82.3371 4.39094C82.1244 4.07579 81.8604 3.84337 81.5453 3.69367C81.2301 3.54398 80.8874 3.46913 80.5171 3.46913C80.0759 3.46913 79.678 3.57155 79.3235 3.7764C78.9689 3.97337 78.6892 4.25306 78.4844 4.61549C78.2795 4.97791 78.1771 5.40336 78.1771 5.89184C78.1771 6.38032 78.2795 6.80577 78.4844 7.16819C78.6892 7.53062 78.9689 7.81425 79.3235 8.0191C79.678 8.21607 80.0759 8.31455 80.5171 8.31455C80.8874 8.31455 81.2301 8.2397 81.5453 8.09001C81.8604 7.94031 82.1244 7.71183 82.3371 7.40456L82.9634 7.83001C82.7192 8.23182 82.3844 8.53909 81.9589 8.75182C81.5335 8.95667 81.0568 9.05909 80.5289 9.05909ZM88.4408 9V7.6291L88.4054 7.40456V5.11185C88.4054 4.58397 88.2557 4.17822 87.9563 3.89458C87.6648 3.61095 87.2275 3.46913 86.6445 3.46913C86.2427 3.46913 85.8606 3.5361 85.4981 3.67004C85.1357 3.80398 84.8284 3.98125 84.5763 4.20185L84.1981 3.57549C84.5133 3.30762 84.8915 3.10277 85.3327 2.96095C85.7739 2.81126 86.2387 2.73641 86.7272 2.73641C87.5309 2.73641 88.1493 2.93732 88.5827 3.33913C89.0239 3.73307 89.2445 4.33579 89.2445 5.1473V9H88.4408ZM86.3018 9.05909C85.8369 9.05909 85.4312 8.98424 85.0845 8.83455C84.7457 8.67697 84.4857 8.46425 84.3045 8.19637C84.1233 7.92061 84.0327 7.60546 84.0327 7.25092C84.0327 6.92789 84.1075 6.63638 84.2572 6.37638C84.4148 6.10851 84.6669 5.89578 85.0136 5.7382C85.3681 5.57275 85.8409 5.49002 86.4318 5.49002H88.5708V6.11638H86.4554C85.8566 6.11638 85.439 6.22275 85.2027 6.43547C84.9742 6.6482 84.86 6.91214 84.86 7.22729C84.86 7.58183 84.9978 7.86546 85.2736 8.07819C85.5493 8.29091 85.9354 8.39728 86.4318 8.39728C86.9045 8.39728 87.3102 8.29091 87.649 8.07819C87.9957 7.85758 88.2478 7.54243 88.4054 7.13274L88.5945 7.71183C88.4369 8.12152 88.1611 8.44849 87.7672 8.69273C87.3812 8.93697 86.8927 9.05909 86.3018 9.05909ZM91.4782 9V2.7955H92.3173V7.72365L96.4654 2.7955H97.21V9H96.3709V4.06004L92.2345 9H91.4782ZM94.2909 1.89732C93.7709 1.89732 93.3494 1.76732 93.0264 1.50733C92.7112 1.23945 92.5458 0.857331 92.53 0.360971H93.1327C93.1406 0.67612 93.2509 0.9243 93.4636 1.10551C93.6764 1.28672 93.9521 1.37733 94.2909 1.37733C94.6297 1.37733 94.9054 1.28672 95.1182 1.10551C95.3388 0.9243 95.453 0.67612 95.4609 0.360971H96.0636C96.0557 0.857331 95.8903 1.23945 95.5673 1.50733C95.2442 1.76732 94.8188 1.89732 94.2909 1.89732ZM100.796 9V3.30368L101.009 3.52822H98.4447V2.7955H103.987V3.52822H101.423L101.636 3.30368V9H100.796ZM109.053 9V7.6291L109.018 7.40456V5.11185C109.018 4.58397 108.868 4.17822 108.569 3.89458C108.277 3.61095 107.84 3.46913 107.257 3.46913C106.855 3.46913 106.473 3.5361 106.111 3.67004C105.748 3.80398 105.441 3.98125 105.189 4.20185L104.811 3.57549C105.126 3.30762 105.504 3.10277 105.945 2.96095C106.386 2.81126 106.851 2.73641 107.34 2.73641C108.143 2.73641 108.762 2.93732 109.195 3.33913C109.636 3.73307 109.857 4.33579 109.857 5.1473V9H109.053ZM106.914 9.05909C106.449 9.05909 106.044 8.98424 105.697 8.83455C105.358 8.67697 105.098 8.46425 104.917 8.19637C104.736 7.92061 104.645 7.60546 104.645 7.25092C104.645 6.92789 104.72 6.63638 104.87 6.37638C105.027 6.10851 105.279 5.89578 105.626 5.7382C105.981 5.57275 106.453 5.49002 107.044 5.49002H109.183V6.11638H107.068C106.469 6.11638 106.051 6.22275 105.815 6.43547C105.587 6.6482 105.472 6.91214 105.472 7.22729C105.472 7.58183 105.61 7.86546 105.886 8.07819C106.162 8.29091 106.548 8.39728 107.044 8.39728C107.517 8.39728 107.923 8.29091 108.261 8.07819C108.608 7.85758 108.86 7.54243 109.018 7.13274L109.207 7.71183C109.049 8.12152 108.774 8.44849 108.38 8.69273C107.994 8.93697 107.505 9.05909 106.914 9.05909ZM0.692183 33V16.0806H9.27274C11.3675 16.0806 12.987 16.4673 14.131 17.2408C15.2912 18.0142 15.8713 19.1019 15.8713 20.5038C15.8713 21.8735 15.3396 22.9612 14.276 23.7668C13.2125 24.5564 11.7784 24.9512 9.97369 24.9512L10.4571 23.646C12.3746 23.646 13.8813 24.0247 14.977 24.782C16.0727 25.5393 16.6206 26.6431 16.6206 28.0934C16.6206 29.5919 16.0244 30.7844 14.832 31.6706C13.6396 32.5569 11.9396 33 9.73198 33H0.692183ZM6.29976 29.0119H9.4661C9.9334 29.0119 10.2798 28.8991 10.5054 28.6735C10.7471 28.4318 10.868 28.0934 10.868 27.6583C10.868 27.2232 10.7471 26.901 10.5054 26.6915C10.2798 26.4659 9.9334 26.3531 9.4661 26.3531H6.29976V29.0119ZM6.29976 22.5825H8.71682C9.20023 22.5825 9.55473 22.4777 9.78032 22.2683C10.0059 22.0588 10.1187 21.7526 10.1187 21.3498C10.1187 20.9308 10.0059 20.6166 9.78032 20.4071C9.55473 20.1815 9.20023 20.0687 8.71682 20.0687H6.29976V22.5825ZM27.7672 21.2773C29.8298 21.2773 31.4411 21.7446 32.6013 22.6792C33.7776 23.5976 34.3658 24.9915 34.3658 26.8607C34.3658 28.8749 33.7051 30.4057 32.3838 31.4531C31.0625 32.4844 29.2819 33 27.0421 33H18.6549V16.0806H24.2625V21.2773H27.7672ZM26.6554 29.0119C27.2193 29.0119 27.6866 28.8346 28.0572 28.4801C28.444 28.1095 28.6373 27.6019 28.6373 26.9574C28.6373 26.3128 28.444 25.8697 28.0572 25.628C27.6866 25.3863 27.2193 25.2654 26.6554 25.2654H24.2625V29.0119H26.6554ZM35.9127 33V16.0806H41.5203V33H35.9127ZM44.525 33V16.0806H59.1965V20.383H50.1325V22.3408H54.169C56.2316 22.3408 57.8107 22.7839 58.9065 23.6702C60.0183 24.5403 60.5742 25.8052 60.5742 27.4649C60.5742 29.1891 59.9458 30.5427 58.6889 31.5256C57.4321 32.5085 55.6837 33 53.4439 33H44.525ZM50.1325 29.0119H53.0572C53.6212 29.0119 54.0562 28.891 54.3624 28.6493C54.6847 28.4076 54.8458 28.0611 54.8458 27.61C54.8458 26.7398 54.2496 26.3047 53.0572 26.3047H50.1325V29.0119ZM67.7557 22.3649H75.2969V26.4739H67.7557V22.3649ZM68.1424 28.6976H76.6022V33H62.5349V16.0806H76.2879V20.383H68.1424V28.6976ZM78.9161 33V16.0806H87.0616C88.6407 16.0806 90.0023 16.3384 91.1464 16.8541C92.3066 17.3697 93.2009 18.1109 93.8293 19.0777C94.4578 20.0285 94.772 21.1564 94.772 22.4616C94.772 23.7668 94.4578 24.8948 93.8293 25.8455C93.2009 26.7962 92.3066 27.5374 91.1464 28.0692C90.0023 28.5848 88.6407 28.8427 87.0616 28.8427H82.0824L84.6204 26.4014V33H78.9161ZM84.6204 27.0299L82.0824 24.4436H86.699C87.4886 24.4436 88.0687 24.2664 88.4393 23.9119C88.826 23.5574 89.0194 23.0739 89.0194 22.4616C89.0194 21.8493 88.826 21.3659 88.4393 21.0114C88.0687 20.6569 87.4886 20.4796 86.699 20.4796H82.0824L84.6204 17.8934V27.0299ZM96.5011 33V16.0806H102.109V24.8787L107.934 16.0806H113.3V33H107.692V24.2261L101.891 33H96.5011Z" fill="#F5F5F5"/>
</svg>
