<svg width="106" height="33" viewBox="0 0 106 33" fill="none" xmlns="http://www.w3.org/2000/svg">
<path d="M0.497551 9V0.727331H3.59389C4.2951 0.727331 4.89782 0.841573 5.40206 1.07006C5.9063 1.29066 6.29236 1.61369 6.56024 2.03914C6.83599 2.45671 6.97387 2.96489 6.97387 3.56368C6.97387 4.1467 6.83599 4.65094 6.56024 5.07639C6.29236 5.49396 5.9063 5.81699 5.40206 6.04548C4.89782 6.27396 4.2951 6.3882 3.59389 6.3882H0.982093L1.37209 5.97457V9H0.497551ZM1.37209 6.04548L0.982093 5.62002H3.57026C4.39752 5.62002 5.02388 5.44275 5.44933 5.08821C5.88266 4.72579 6.09933 4.21761 6.09933 3.56368C6.09933 2.90186 5.88266 2.38974 5.44933 2.02732C5.02388 1.6649 4.39752 1.48369 3.57026 1.48369H0.982093L1.37209 1.07006V6.04548ZM12.3551 9V7.6291L12.3196 7.40456V5.11185C12.3196 4.58397 12.1699 4.17822 11.8705 3.89458C11.579 3.61095 11.1417 3.46913 10.5587 3.46913C10.1569 3.46913 9.77479 3.5361 9.41237 3.67004C9.04995 3.80398 8.74267 3.98125 8.49056 4.20185L8.11238 3.57549C8.42753 3.30762 8.8057 3.10277 9.24691 2.96095C9.68812 2.81126 10.153 2.73641 10.6414 2.73641C11.4451 2.73641 12.0636 2.93732 12.4969 3.33913C12.9381 3.73307 13.1587 4.33579 13.1587 5.1473V9H12.3551ZM10.216 9.05909C9.75115 9.05909 9.3454 8.98424 8.99873 8.83455C8.65995 8.67697 8.39995 8.46425 8.21874 8.19637C8.03753 7.92061 7.94692 7.60546 7.94692 7.25092C7.94692 6.92789 8.02177 6.63638 8.17147 6.37638C8.32904 6.10851 8.58116 5.89578 8.92782 5.7382C9.28237 5.57275 9.75509 5.49002 10.346 5.49002H12.4851V6.11638H10.3696C9.77085 6.11638 9.35328 6.22275 9.11691 6.43547C8.88843 6.6482 8.77419 6.91214 8.77419 7.22729C8.77419 7.58183 8.91207 7.86546 9.18782 8.07819C9.46358 8.29091 9.84964 8.39728 10.346 8.39728C10.8187 8.39728 11.2245 8.29091 11.5633 8.07819C11.9099 7.85758 12.162 7.54243 12.3196 7.13274L12.5087 7.71183C12.3511 8.12152 12.0754 8.44849 11.6814 8.69273C11.2954 8.93697 10.8069 9.05909 10.216 9.05909ZM16.9318 9.07091C17.4439 9.07091 17.9048 8.99212 18.3145 8.83455C18.7321 8.67697 19.063 8.46031 19.3073 8.18455C19.5515 7.90092 19.6736 7.57395 19.6736 7.20365C19.6736 6.73093 19.4727 6.35669 19.0709 6.08093C18.677 5.80517 18.1254 5.6673 17.4164 5.6673L17.3809 5.89184C17.7827 5.89184 18.1412 5.82881 18.4564 5.70275C18.7715 5.57669 19.0236 5.39942 19.2127 5.17094C19.4018 4.94245 19.4963 4.67458 19.4963 4.36731C19.4963 4.02064 19.3782 3.72519 19.1418 3.48095C18.9054 3.22883 18.5863 3.0358 18.1845 2.90186C17.7906 2.76792 17.3454 2.70883 16.8491 2.72459C16.4867 2.72459 16.1242 2.7758 15.7618 2.87823C15.4073 2.97277 15.0488 3.11459 14.6864 3.30368L14.9227 3.95367C15.2458 3.78822 15.5727 3.6661 15.9036 3.58731C16.2345 3.50065 16.5536 3.45337 16.8609 3.44549C17.1997 3.44549 17.503 3.48489 17.7709 3.56368C18.0388 3.64246 18.2476 3.76064 18.3973 3.91822C18.5548 4.07579 18.6336 4.26488 18.6336 4.48549C18.6336 4.69033 18.5667 4.86761 18.4327 5.0173C18.3067 5.167 18.1254 5.28124 17.8891 5.36003C17.6527 5.43881 17.3809 5.47821 17.0736 5.47821H16.0691V6.09275H17.1327C17.6527 6.09275 18.0624 6.18729 18.3618 6.37638C18.6612 6.55759 18.8109 6.81365 18.8109 7.14456C18.8109 7.37304 18.7321 7.57789 18.5745 7.7591C18.417 7.94031 18.1964 8.08213 17.9127 8.18455C17.6291 8.28697 17.2942 8.34213 16.9082 8.35C16.5221 8.35 16.1321 8.29485 15.7382 8.18455C15.3443 8.06637 14.9976 7.89698 14.6982 7.67637L14.4264 8.30273C14.7652 8.56273 15.1552 8.75576 15.5964 8.88182C16.0376 9.00788 16.4827 9.07091 16.9318 9.07091ZM24.7812 9.05909C24.2454 9.05909 23.7609 8.93697 23.3275 8.69273C22.8942 8.44061 22.5475 8.08213 22.2875 7.61728C22.0354 7.14456 21.9094 6.56941 21.9094 5.89184C21.9094 5.21427 22.0354 4.64306 22.2875 4.17822C22.5397 3.70549 22.8824 3.34701 23.3157 3.10277C23.749 2.85853 24.2375 2.73641 24.7812 2.73641C25.3721 2.73641 25.8999 2.87035 26.3648 3.13822C26.8375 3.39822 27.2078 3.76852 27.4757 4.24912C27.7436 4.72185 27.8775 5.26942 27.8775 5.89184C27.8775 6.52214 27.7436 7.07365 27.4757 7.54637C27.2078 8.0191 26.8375 8.3894 26.3648 8.65728C25.8999 8.92515 25.3721 9.05909 24.7812 9.05909ZM21.5785 11.2927V2.7955H22.3821V4.66276L22.2994 5.90366L22.4175 7.15638V11.2927H21.5785ZM24.7221 8.31455C25.1633 8.31455 25.5572 8.21607 25.9039 8.0191C26.2505 7.81425 26.5263 7.53062 26.7311 7.16819C26.936 6.79789 27.0384 6.37244 27.0384 5.89184C27.0384 5.41124 26.936 4.98973 26.7311 4.6273C26.5263 4.26488 26.2505 3.98125 25.9039 3.7764C25.5572 3.57155 25.1633 3.46913 24.7221 3.46913C24.2809 3.46913 23.883 3.57155 23.5284 3.7764C23.1818 3.98125 22.906 4.26488 22.7012 4.6273C22.5042 4.98973 22.4057 5.41124 22.4057 5.89184C22.4057 6.37244 22.5042 6.79789 22.7012 7.16819C22.906 7.53062 23.1818 7.81425 23.5284 8.0191C23.883 8.21607 24.2809 8.31455 24.7221 8.31455ZM33.4984 9V7.6291L33.4629 7.40456V5.11185C33.4629 4.58397 33.3132 4.17822 33.0138 3.89458C32.7223 3.61095 32.2851 3.46913 31.702 3.46913C31.3002 3.46913 30.9181 3.5361 30.5557 3.67004C30.1933 3.80398 29.886 3.98125 29.6339 4.20185L29.2557 3.57549C29.5708 3.30762 29.949 3.10277 30.3902 2.96095C30.8314 2.81126 31.2963 2.73641 31.7848 2.73641C32.5884 2.73641 33.2069 2.93732 33.6402 3.33913C34.0814 3.73307 34.302 4.33579 34.302 5.1473V9H33.4984ZM31.3593 9.05909C30.8945 9.05909 30.4887 8.98424 30.142 8.83455C29.8033 8.67697 29.5433 8.46425 29.3621 8.19637C29.1808 7.92061 29.0902 7.60546 29.0902 7.25092C29.0902 6.92789 29.1651 6.63638 29.3148 6.37638C29.4724 6.10851 29.7245 5.89578 30.0711 5.7382C30.4257 5.57275 30.8984 5.49002 31.4893 5.49002H33.6284V6.11638H31.5129C30.9142 6.11638 30.4966 6.22275 30.2602 6.43547C30.0317 6.6482 29.9175 6.91214 29.9175 7.22729C29.9175 7.58183 30.0554 7.86546 30.3311 8.07819C30.6069 8.29091 30.9929 8.39728 31.4893 8.39728C31.962 8.39728 32.3678 8.29091 32.7066 8.07819C33.0532 7.85758 33.3054 7.54243 33.4629 7.13274L33.652 7.71183C33.4944 8.12152 33.2187 8.44849 32.8248 8.69273C32.4387 8.93697 31.9502 9.05909 31.3593 9.05909ZM39.3248 9.07091C38.8206 9.07091 38.3715 8.98818 37.9775 8.82273C37.5915 8.65728 37.2606 8.40516 36.9848 8.06637C36.7091 7.72758 36.5003 7.31001 36.3585 6.81365C36.2166 6.30941 36.1457 5.72639 36.1457 5.06457C36.1457 4.47367 36.2009 3.95761 36.3112 3.5164C36.4215 3.06731 36.5751 2.68126 36.7721 2.35823C36.9691 2.0352 37.1975 1.76338 37.4575 1.54278C37.7254 1.3143 38.013 1.13309 38.3203 0.999148C38.6354 0.85733 38.9584 0.750968 39.2893 0.680059L42.0784 0.0300635L42.2202 0.810058L39.5966 1.40096C39.4312 1.44036 39.2303 1.49551 38.9939 1.56642C38.7654 1.63733 38.529 1.74369 38.2848 1.8855C38.0484 2.02732 37.8278 2.22429 37.623 2.47641C37.4181 2.72853 37.2527 3.0555 37.1266 3.45731C37.0085 3.85125 36.9494 4.34367 36.9494 4.93457C36.9494 5.06063 36.9533 5.16306 36.9612 5.24184C36.9691 5.31275 36.9769 5.39154 36.9848 5.47821C37.0006 5.55699 37.0124 5.67518 37.0203 5.83275L36.6539 5.52548C36.7406 5.04488 36.9178 4.6273 37.1857 4.27276C37.4536 3.91034 37.7884 3.63064 38.1903 3.43368C38.6 3.22883 39.053 3.12641 39.5493 3.12641C40.1245 3.12641 40.6366 3.25247 41.0857 3.50458C41.5348 3.74883 41.8854 4.09155 42.1375 4.53276C42.3975 4.97397 42.5275 5.48609 42.5275 6.06911C42.5275 6.64426 42.3936 7.16032 42.1257 7.61728C41.8657 8.07425 41.4954 8.43273 41.0148 8.69273C40.5342 8.94485 39.9709 9.07091 39.3248 9.07091ZM39.4193 8.37364C39.8606 8.37364 40.2506 8.27516 40.5893 8.07819C40.9281 7.87334 41.1921 7.59759 41.3812 7.25092C41.5781 6.90426 41.6766 6.51426 41.6766 6.08093C41.6766 5.65548 41.5781 5.2773 41.3812 4.94639C41.1921 4.61549 40.9281 4.35549 40.5893 4.1664C40.2506 3.96943 39.8566 3.87095 39.4075 3.87095C38.9663 3.87095 38.5763 3.96549 38.2375 4.15458C37.8988 4.33579 37.6309 4.59185 37.4339 4.92276C37.2448 5.25366 37.1503 5.63578 37.1503 6.06911C37.1503 6.50244 37.2448 6.89244 37.4339 7.2391C37.6309 7.58577 37.8988 7.86152 38.2375 8.06637C38.5842 8.27122 38.9781 8.37364 39.4193 8.37364ZM46.8787 9.05909C46.2799 9.05909 45.7402 8.92515 45.2596 8.65728C44.7869 8.38152 44.4126 8.00728 44.1369 7.53456C43.8611 7.05395 43.7233 6.50638 43.7233 5.89184C43.7233 5.26942 43.8611 4.72185 44.1369 4.24912C44.4126 3.7764 44.7869 3.4061 45.2596 3.13822C45.7323 2.87035 46.272 2.73641 46.8787 2.73641C47.4932 2.73641 48.0369 2.87035 48.5096 3.13822C48.9902 3.4061 49.3644 3.7764 49.6323 4.24912C49.9081 4.72185 50.0459 5.26942 50.0459 5.89184C50.0459 6.50638 49.9081 7.05395 49.6323 7.53456C49.3644 8.00728 48.9902 8.38152 48.5096 8.65728C48.029 8.92515 47.4854 9.05909 46.8787 9.05909ZM46.8787 8.31455C47.3278 8.31455 47.7257 8.21607 48.0723 8.0191C48.419 7.81425 48.6908 7.53062 48.8878 7.16819C49.0926 6.79789 49.195 6.37244 49.195 5.89184C49.195 5.40336 49.0926 4.97791 48.8878 4.61549C48.6908 4.25306 48.419 3.97337 48.0723 3.7764C47.7257 3.57155 47.3317 3.46913 46.8905 3.46913C46.4493 3.46913 46.0554 3.57155 45.7087 3.7764C45.362 3.97337 45.0863 4.25306 44.8814 4.61549C44.6766 4.97791 44.5742 5.40336 44.5742 5.89184C44.5742 6.37244 44.6766 6.79789 44.8814 7.16819C45.0863 7.53062 45.362 7.81425 45.7087 8.0191C46.0554 8.21607 46.4454 8.31455 46.8787 8.31455ZM52.7902 9V3.30368L53.003 3.52822H50.4384V2.7955H55.9811V3.52822H53.4166L53.6293 3.30368V9H52.7902ZM61.7443 9L59.1916 5.92729L59.8888 5.51366L62.737 9H61.7443ZM57.1943 9V2.7955H58.0334V9H57.1943ZM57.7734 6.23457V5.51366H59.7707V6.23457H57.7734ZM59.9598 5.98638L59.1798 5.8682L61.6497 2.7955H62.5597L59.9598 5.98638ZM67.7986 9V7.6291L67.7631 7.40456V5.11185C67.7631 4.58397 67.6134 4.17822 67.314 3.89458C67.0225 3.61095 66.5852 3.46913 66.0022 3.46913C65.6004 3.46913 65.2183 3.5361 64.8559 3.67004C64.4934 3.80398 64.1862 3.98125 63.934 4.20185L63.5559 3.57549C63.871 3.30762 64.2492 3.10277 64.6904 2.96095C65.1316 2.81126 65.5965 2.73641 66.0849 2.73641C66.8886 2.73641 67.5071 2.93732 67.9404 3.33913C68.3816 3.73307 68.6022 4.33579 68.6022 5.1473V9H67.7986ZM65.6595 9.05909C65.1946 9.05909 64.7889 8.98424 64.4422 8.83455C64.1034 8.67697 63.8434 8.46425 63.6622 8.19637C63.481 7.92061 63.3904 7.60546 63.3904 7.25092C63.3904 6.92789 63.4653 6.63638 63.615 6.37638C63.7725 6.10851 64.0247 5.89578 64.3713 5.7382C64.7259 5.57275 65.1986 5.49002 65.7895 5.49002H67.9286V6.11638H65.8131C65.2143 6.11638 64.7968 6.22275 64.5604 6.43547C64.3319 6.6482 64.2177 6.91214 64.2177 7.22729C64.2177 7.58183 64.3556 7.86546 64.6313 8.07819C64.9071 8.29091 65.2931 8.39728 65.7895 8.39728C66.2622 8.39728 66.668 8.29091 67.0068 8.07819C67.3534 7.85758 67.6055 7.54243 67.7631 7.13274L67.9522 7.71183C67.7946 8.12152 67.5189 8.44849 67.1249 8.69273C66.7389 8.93697 66.2504 9.05909 65.6595 9.05909ZM76.5289 9.05909C75.9144 9.05909 75.3629 8.92515 74.8744 8.65728C74.3938 8.38152 74.0156 8.00728 73.7398 7.53456C73.4641 7.05395 73.3262 6.50638 73.3262 5.89184C73.3262 5.26942 73.4641 4.72185 73.7398 4.24912C74.0156 3.7764 74.3938 3.4061 74.8744 3.13822C75.3629 2.87035 75.9144 2.73641 76.5289 2.73641C77.0568 2.73641 77.5335 2.83883 77.9589 3.04368C78.3844 3.24853 78.7192 3.5558 78.9634 3.96549L78.3371 4.39094C78.1244 4.07579 77.8604 3.84337 77.5453 3.69367C77.2301 3.54398 76.8874 3.46913 76.5171 3.46913C76.0759 3.46913 75.678 3.57155 75.3235 3.7764C74.9689 3.97337 74.6892 4.25306 74.4844 4.61549C74.2795 4.97791 74.1771 5.40336 74.1771 5.89184C74.1771 6.38032 74.2795 6.80577 74.4844 7.16819C74.6892 7.53062 74.9689 7.81425 75.3235 8.0191C75.678 8.21607 76.0759 8.31455 76.5171 8.31455C76.8874 8.31455 77.2301 8.2397 77.5453 8.09001C77.8604 7.94031 78.1244 7.71183 78.3371 7.40456L78.9634 7.83001C78.7192 8.23182 78.3844 8.53909 77.9589 8.75182C77.5335 8.95667 77.0568 9.05909 76.5289 9.05909ZM84.4408 9V7.6291L84.4054 7.40456V5.11185C84.4054 4.58397 84.2557 4.17822 83.9563 3.89458C83.6648 3.61095 83.2275 3.46913 82.6445 3.46913C82.2427 3.46913 81.8606 3.5361 81.4981 3.67004C81.1357 3.80398 80.8284 3.98125 80.5763 4.20185L80.1981 3.57549C80.5133 3.30762 80.8915 3.10277 81.3327 2.96095C81.7739 2.81126 82.2387 2.73641 82.7272 2.73641C83.5309 2.73641 84.1493 2.93732 84.5827 3.33913C85.0239 3.73307 85.2445 4.33579 85.2445 5.1473V9H84.4408ZM82.3018 9.05909C81.8369 9.05909 81.4312 8.98424 81.0845 8.83455C80.7457 8.67697 80.4857 8.46425 80.3045 8.19637C80.1233 7.92061 80.0327 7.60546 80.0327 7.25092C80.0327 6.92789 80.1075 6.63638 80.2572 6.37638C80.4148 6.10851 80.6669 5.89578 81.0136 5.7382C81.3681 5.57275 81.8409 5.49002 82.4318 5.49002H84.5708V6.11638H82.4554C81.8566 6.11638 81.439 6.22275 81.2027 6.43547C80.9742 6.6482 80.86 6.91214 80.86 7.22729C80.86 7.58183 80.9978 7.86546 81.2736 8.07819C81.5493 8.29091 81.9354 8.39728 82.4318 8.39728C82.9045 8.39728 83.3102 8.29091 83.649 8.07819C83.9957 7.85758 84.2478 7.54243 84.4054 7.13274L84.5945 7.71183C84.4369 8.12152 84.1611 8.44849 83.7672 8.69273C83.3812 8.93697 82.8927 9.05909 82.3018 9.05909ZM87.4782 9V2.7955H88.3173V7.72365L92.4654 2.7955H93.21V9H92.3709V4.06004L88.2345 9H87.4782ZM90.2909 1.89732C89.7709 1.89732 89.3494 1.76732 89.0264 1.50733C88.7112 1.23945 88.5458 0.857331 88.53 0.360971H89.1327C89.1406 0.67612 89.2509 0.9243 89.4636 1.10551C89.6764 1.28672 89.9521 1.37733 90.2909 1.37733C90.6297 1.37733 90.9054 1.28672 91.1182 1.10551C91.3388 0.9243 91.453 0.67612 91.4609 0.360971H92.0636C92.0557 0.857331 91.8903 1.23945 91.5673 1.50733C91.2442 1.76732 90.8188 1.89732 90.2909 1.89732ZM96.7965 9V3.30368L97.0092 3.52822H94.4447V2.7955H99.9874V3.52822H97.4228L97.6356 3.30368V9H96.7965ZM105.053 9V7.6291L105.018 7.40456V5.11185C105.018 4.58397 104.868 4.17822 104.569 3.89458C104.277 3.61095 103.84 3.46913 103.257 3.46913C102.855 3.46913 102.473 3.5361 102.111 3.67004C101.748 3.80398 101.441 3.98125 101.189 4.20185L100.811 3.57549C101.126 3.30762 101.504 3.10277 101.945 2.96095C102.386 2.81126 102.851 2.73641 103.34 2.73641C104.143 2.73641 104.762 2.93732 105.195 3.33913C105.636 3.73307 105.857 4.33579 105.857 5.1473V9H105.053ZM102.914 9.05909C102.449 9.05909 102.044 8.98424 101.697 8.83455C101.358 8.67697 101.098 8.46425 100.917 8.19637C100.736 7.92061 100.645 7.60546 100.645 7.25092C100.645 6.92789 100.72 6.63638 100.87 6.37638C101.027 6.10851 101.279 5.89578 101.626 5.7382C101.981 5.57275 102.453 5.49002 103.044 5.49002H105.183V6.11638H103.068C102.469 6.11638 102.051 6.22275 101.815 6.43547C101.587 6.6482 101.472 6.91214 101.472 7.22729C101.472 7.58183 101.61 7.86546 101.886 8.07819C102.162 8.29091 102.548 8.39728 103.044 8.39728C103.517 8.39728 103.923 8.29091 104.261 8.07819C104.608 7.85758 104.86 7.54243 105.018 7.13274L105.207 7.71183C105.049 8.12152 104.774 8.44849 104.38 8.69273C103.994 8.93697 103.505 9.05909 102.914 9.05909ZM5.07163 33V16.0806H13.6522C15.747 16.0806 17.3664 16.4673 18.5105 17.2408C19.6707 18.0142 20.2508 19.1019 20.2508 20.5038C20.2508 21.8735 19.719 22.9612 18.6555 23.7668C17.592 24.5564 16.1579 24.9512 14.3531 24.9512L14.8365 23.646C16.7541 23.646 18.2607 24.0247 19.3564 24.782C20.4522 25.5393 21 26.6431 21 28.0934C21 29.5919 20.4038 30.7844 19.2114 31.6706C18.019 32.5569 16.319 33 14.1114 33H5.07163ZM10.6792 29.0119H13.8456C14.3128 29.0119 14.6593 28.8991 14.8849 28.6735C15.1266 28.4318 15.2474 28.0934 15.2474 27.6583C15.2474 27.2232 15.1266 26.901 14.8849 26.6915C14.6593 26.4659 14.3128 26.3531 13.8456 26.3531H10.6792V29.0119ZM10.6792 22.5825H13.0963C13.5797 22.5825 13.9342 22.4777 14.1598 22.2683C14.3854 22.0588 14.4982 21.7526 14.4982 21.3498C14.4982 20.9308 14.3854 20.6166 14.1598 20.4071C13.9342 20.1815 13.5797 20.0687 13.0963 20.0687H10.6792V22.5825ZM32.1466 21.2773C34.2092 21.2773 35.8206 21.7446 36.9808 22.6792C38.1571 23.5976 38.7452 24.9915 38.7452 26.8607C38.7452 28.8749 38.0846 30.4057 36.7632 31.4531C35.4419 32.4844 33.6613 33 31.4215 33H23.0343V16.0806H28.6419V21.2773H32.1466ZM31.0348 29.0119C31.5988 29.0119 32.0661 28.8346 32.4367 28.4801C32.8234 28.1095 33.0168 27.6019 33.0168 26.9574C33.0168 26.3128 32.8234 25.8697 32.4367 25.628C32.0661 25.3863 31.5988 25.2654 31.0348 25.2654H28.6419V29.0119H31.0348ZM40.2921 33V16.0806H45.8997V33H40.2921ZM58.6935 18.9086L55.5997 20.5522V19.7304L58.6935 21.374L57.0257 24.0811L54.2461 22.3649L54.657 22.1232L54.7295 25.2171H51.4907L51.5632 22.1232L51.9741 22.3649L49.1945 24.0811L47.5509 21.374L50.6447 19.7304V20.5522L47.5509 18.9086L49.1945 16.2014L51.9741 17.9176L51.5632 18.1593L51.4907 15.0654H54.7295L54.657 18.1593L54.2461 17.9176L57.0257 16.2014L58.6935 18.9086ZM70.5899 18.9086L67.4961 20.5522V19.7304L70.5899 21.374L68.9222 24.0811L66.1426 22.3649L66.5535 22.1232L66.626 25.2171H63.3871L63.4596 22.1232L63.8705 22.3649L61.0909 24.0811L59.4473 21.374L62.5411 19.7304V20.5522L59.4473 18.9086L61.0909 16.2014L63.8705 17.9176L63.4596 18.1593L63.3871 15.0654H66.626L66.5535 18.1593L66.1426 17.9176L68.9222 16.2014L70.5899 18.9086ZM82.4864 18.9086L79.3926 20.5522V19.7304L82.4864 21.374L80.8186 24.0811L78.039 22.3649L78.4499 22.1232L78.5224 25.2171H75.2836L75.3561 22.1232L75.767 22.3649L72.9874 24.0811L71.3438 21.374L74.4376 19.7304V20.5522L71.3438 18.9086L72.9874 16.2014L75.767 17.9176L75.3561 18.1593L75.2836 15.0654H78.5224L78.4499 18.1593L78.039 17.9176L80.8186 16.2014L82.4864 18.9086ZM84.1217 33V16.0806H89.7293V24.8787L95.5544 16.0806H100.92V33H95.3127V24.2261L89.5117 33H84.1217Z" fill="#F5F5F5"/>
</svg>
