<svg width="18" height="19" viewBox="0 0 18 19" fill="none" xmlns="http://www.w3.org/2000/svg">
<path fill-rule="evenodd" clip-rule="evenodd" d="M0.518857 0.690544C0.805619 0.398158 1.27055 0.398158 1.55731 0.690544L17.1342 16.5729C17.4209 16.8653 17.4209 17.3393 17.1342 17.6317C16.8474 17.9241 16.3825 17.9241 16.0957 17.6317L0.518857 1.74937C0.232095 1.45698 0.232095 0.98293 0.518857 0.690544Z" fill="white"/>
<path fill-rule="evenodd" clip-rule="evenodd" d="M0.864932 17.6317C0.57817 17.3393 0.57817 16.8653 0.864932 16.5729L16.4418 0.690547C16.7286 0.398161 17.1935 0.398161 17.4802 0.690547C17.767 0.982932 17.767 1.45698 17.4802 1.74937L1.90339 17.6317C1.61663 17.9241 1.15169 17.9241 0.864932 17.6317Z" fill="white"/>
</svg>
