<svg width="45" height="45" viewBox="0 0 45 45" fill="none" xmlns="http://www.w3.org/2000/svg">
<path d="M9.00003 32.25C8.175 32.25 7.5 32.925 7.5 33.75C7.5 34.5751 8.175 35.2501 9.00003 35.2501C9.82506 35.2501 10.5001 34.5751 10.5001 33.75C10.5001 32.925 9.82506 32.25 9.00003 32.25Z" fill="#14112A"/>
<path d="M36 32.25C35.175 32.25 34.5 32.925 34.5 33.75C34.5 34.5751 35.175 35.2501 36 35.2501C36.8251 35.2501 37.5001 34.5751 37.5001 33.75C37.5001 32.925 36.8251 32.25 36 32.25Z" fill="#14112A"/>
<path d="M33.75 27H32.25C31.8 27 31.5 27.3 31.5 27.75C31.5 28.2 31.8 28.4999 32.25 28.4999H33.75C34.2 28.4999 34.5 28.2 34.5 27.75C34.5 27.3 34.2 27 33.75 27Z" fill="#14112A"/>
<path d="M44.025 25.425L41.1 24.225L39.2251 16.7251C39.0001 15.675 38.1001 15 37.05 15H27.75C27.3 15 27 15.3 27 15.75V17.25H26.25V7.49997C26.25 7.04997 25.9501 6.75 25.5001 6.75H22.5H18H15C14.55 6.75 14.2501 7.04997 14.2501 7.49997V9.74997H12.0001H7.50006H4.5C4.05 9.74997 3.75003 10.0499 3.75003 10.4999V17.2499H3.00006C2.55006 17.2499 2.25009 17.5499 2.25009 17.9999V23.2499H0.749971C0.299971 23.2499 0 23.5499 0 23.9999V32.9999C0 33.8249 0.675 34.4999 1.50003 34.4999H4.56416C4.92407 36.621 6.7805 38.2499 9 38.2499C11.2195 38.2499 13.0759 36.621 13.4358 34.4999H31.5642C31.9241 36.621 33.7805 38.2499 36 38.2499C38.2195 38.2499 40.0759 36.621 40.4358 34.4999H43.5C44.325 34.4999 45 33.8249 45 32.9999V26.8499C45 26.175 44.625 25.65 44.025 25.425ZM21.75 8.25003V10.6501L20.7 9.90009C20.55 9.82512 20.4 9.75006 20.25 9.75006C20.1 9.75006 19.95 9.82503 19.8 9.82503L18.75 10.575V8.25003H21.75ZM15.75 8.25003H17.25V12.0001C17.25 12.3 17.4001 12.525 17.7 12.6001C17.925 12.7501 18.225 12.7501 18.45 12.6001L20.25 11.4001L22.05 12.6001C22.2 12.6751 22.35 12.7501 22.5 12.7501C22.65 12.7501 22.725 12.7501 22.875 12.6751C23.1 12.5251 23.2501 12.3001 23.2501 12.0001V8.25003H24.75V17.25H15.75V10.5V8.25003ZM11.25 11.25V13.65L10.2 12.9001C10.0499 12.8251 9.9 12.75 9.74997 12.75C9.59994 12.75 9.45 12.825 9.29997 12.825L8.24994 13.575V11.25H11.25ZM5.24997 11.25H6.75V15C6.75 15.3 6.90003 15.525 7.2 15.6001C7.425 15.7501 7.72497 15.7501 7.94997 15.6001L9.74997 14.4001L11.55 15.6001C11.7 15.675 11.8499 15.7501 12 15.7501C12.15 15.7501 12.225 15.7501 12.375 15.6751C12.6 15.5251 12.75 15.3001 12.75 15.0001V11.25H14.2501V17.25H5.25006V11.25H5.24997ZM3.75003 18.75H4.5H15H25.5001H27V23.25H3.75003V18.75ZM9 36.75C7.35003 36.75 6.00003 35.4 6.00003 33.75C6.00003 32.1 7.35003 30.75 9 30.75C10.65 30.75 12 32.1 12 33.75C12 35.4 10.65 36.75 9 36.75ZM36 36.75C34.35 36.75 33 35.4 33 33.75C33 32.1 34.35 30.75 36 30.75C37.65 30.75 39 32.1 39 33.75C39 35.4 37.65 36.75 36 36.75ZM43.5 33H40.4358C40.1826 31.5077 39.1885 30.2599 37.848 29.6509C37.8183 29.6372 37.7887 29.6233 37.7586 29.6104C37.7397 29.6023 37.7205 29.5949 37.7015 29.5871C37.653 29.5669 37.6042 29.5473 37.5548 29.529C37.5413 29.524 37.5277 29.5194 37.5142 29.5145C37.4592 29.4946 37.404 29.4757 37.3481 29.458C37.3359 29.4541 37.3238 29.4505 37.3116 29.4468C37.2546 29.4293 37.1972 29.4128 37.1392 29.3976C37.1263 29.3942 37.1135 29.3909 37.1006 29.3876C37.0436 29.3732 36.9862 29.3599 36.9283 29.3477C36.9137 29.3446 36.8992 29.3414 36.8846 29.3385C36.8287 29.3273 36.7724 29.3172 36.7157 29.3081C36.6989 29.3054 36.6822 29.3025 36.6653 29.2999C36.6108 29.2918 36.5556 29.285 36.5004 29.2788C36.4816 29.2767 36.463 29.2743 36.4442 29.2723C36.3889 29.2669 36.3332 29.2629 36.2773 29.2595C36.2588 29.2584 36.2406 29.2566 36.2221 29.2557C36.1485 29.2521 36.0744 29.25 35.9998 29.25C35.9252 29.25 35.8511 29.2521 35.7775 29.2557C35.7591 29.2566 35.7408 29.2584 35.7224 29.2595C35.6665 29.2629 35.6107 29.2669 35.5555 29.2723C35.5366 29.2742 35.518 29.2767 35.4993 29.2788C35.444 29.285 35.3889 29.2918 35.3343 29.2999C35.3174 29.3025 35.3007 29.3054 35.2839 29.3081C35.2272 29.3172 35.1709 29.3273 35.115 29.3384C35.1004 29.3414 35.0858 29.3445 35.0713 29.3476C35.0134 29.3598 34.956 29.3731 34.8991 29.3876C34.8862 29.3908 34.8733 29.3941 34.8605 29.3975C34.8025 29.4128 34.745 29.4292 34.6881 29.4468C34.6759 29.4505 34.6638 29.4541 34.6517 29.458C34.5957 29.4757 34.5403 29.4947 34.4854 29.5146C34.4719 29.5194 34.4583 29.524 34.445 29.529C34.3955 29.5474 34.3466 29.567 34.298 29.5872C34.2791 29.595 34.2599 29.6023 34.2411 29.6104C34.211 29.6234 34.1814 29.6373 34.1516 29.6511C32.8112 30.2601 31.8171 31.5078 31.564 33.0001H13.4358C13.1826 31.5077 12.1885 30.26 10.848 29.651C10.8183 29.6373 10.7887 29.6234 10.7586 29.6104C10.7397 29.6024 10.7205 29.595 10.7015 29.5872C10.653 29.567 10.6042 29.5474 10.5548 29.5291C10.5413 29.524 10.5277 29.5195 10.5142 29.5146C10.4592 29.4947 10.404 29.4758 10.3481 29.458C10.3359 29.4542 10.3238 29.4506 10.3116 29.4469C10.2546 29.4294 10.1972 29.413 10.1392 29.3977C10.1263 29.3943 10.1135 29.391 10.1006 29.3877C10.0436 29.3733 9.98622 29.36 9.92839 29.3477C9.9138 29.3447 9.8993 29.3415 9.88462 29.3386C9.82872 29.3273 9.77238 29.3173 9.71578 29.3082C9.69899 29.3055 9.68229 29.3026 9.66542 29.3C9.61084 29.2918 9.55573 29.2851 9.50045 29.2789C9.48173 29.2768 9.4631 29.2744 9.44429 29.2724C9.389 29.267 9.33328 29.263 9.27738 29.2596C9.25893 29.2584 9.24073 29.2567 9.22219 29.2558C9.14862 29.2522 9.07453 29.2501 8.99991 29.2501C8.92529 29.2501 8.8512 29.2522 8.77764 29.2558C8.75918 29.2567 8.7409 29.2584 8.72244 29.2596C8.66654 29.263 8.61082 29.267 8.55554 29.2724C8.53673 29.2743 8.5181 29.2768 8.49938 29.2789C8.44409 29.2851 8.38898 29.2919 8.3344 29.3C8.31753 29.3026 8.30083 29.3055 8.28395 29.3082C8.22727 29.3173 8.17102 29.3274 8.11512 29.3385C8.10044 29.3415 8.08594 29.3446 8.07135 29.3477C8.01352 29.3599 7.95612 29.3732 7.89917 29.3876C7.88634 29.3909 7.87342 29.3941 7.86059 29.3976C7.80258 29.4129 7.7451 29.4293 7.68814 29.4469C7.67602 29.4506 7.66389 29.4542 7.65176 29.458C7.59577 29.4758 7.5404 29.4948 7.48547 29.5146C7.47202 29.5195 7.4584 29.524 7.44504 29.5291C7.39556 29.5475 7.34669 29.5671 7.29809 29.5872C7.27919 29.5951 7.26003 29.6024 7.24122 29.6104C7.21107 29.6235 7.18146 29.6374 7.15166 29.6511C5.81133 30.2602 4.8172 31.5079 4.56407 33.0002H1.50003V24.75H3.00006H27.7501C28.2001 24.75 28.5 24.45 28.5 24V18V16.5H37.05C37.4251 16.5 37.725 16.7999 37.8 17.1L39.5086 24H33V19.5C33 19.05 32.7001 18.7501 32.2501 18.7501C31.8001 18.7501 31.5001 19.05 31.5001 19.5V24.75C31.5001 25.2 31.8001 25.5 32.2501 25.5H40.2L43.5001 26.775V33H43.5Z" fill="#14112A"/>
</svg>
