<svg width="45" height="45" viewBox="0 0 45 45" fill="none" xmlns="http://www.w3.org/2000/svg">
<path d="M35.645 13.2294L36.3132 12.561L36.8394 13.0872C37.043 13.2908 37.3096 13.3925 37.5764 13.3925C37.843 13.3925 38.1099 13.2908 38.3134 13.0873C38.7204 12.6803 38.7204 12.0204 38.3134 11.6133L35.7387 9.0385C35.3316 8.6314 34.6717 8.6314 34.2647 9.03841C33.8577 9.44542 33.8577 10.1053 34.2647 10.5124L34.8395 11.0871L34.0873 11.8391C31.6571 9.90001 28.7328 8.55618 25.5361 8.02936V6.2574H27.4222C28.4864 6.2574 29.3523 5.39154 29.3523 4.3273V1.9301C29.3521 0.865859 28.4863 0 27.422 0H17.5778C16.5136 0 15.6477 0.865859 15.6477 1.9301V4.3273C15.6477 5.39154 16.5136 6.2574 17.5778 6.2574H19.464V8.02945C10.6416 9.4833 3.89014 17.1626 3.89014 26.3902C3.89014 36.6517 12.2385 45 22.5 45C32.7615 45 41.1098 36.6517 41.1098 26.3902C41.1097 21.2555 39.0193 16.5999 35.645 13.2294ZM17.7322 2.08444H27.2677V4.17296H17.7322V2.08444ZM21.5484 6.2574H23.4516V7.80451C23.1363 7.78856 22.8191 7.7804 22.5 7.7804C22.1809 7.7804 21.8637 7.78856 21.5484 7.80451V6.2574ZM22.5 42.9156C13.3878 42.9156 5.97458 35.5023 5.97458 26.3902C5.97458 17.2781 13.3878 9.86484 22.5 9.86484C31.6121 9.86484 39.0254 17.2781 39.0254 26.3902C39.0253 35.5023 31.612 42.9156 22.5 42.9156Z" fill="#14112A"/>
<path d="M34.5157 25.348C33.9401 25.348 33.4735 25.8146 33.4735 26.3902C33.4735 32.4409 28.5508 37.3637 22.4999 37.3637C16.4491 37.3637 11.5263 32.4409 11.5263 26.3902C11.5263 20.7785 15.7608 16.1379 21.2021 15.4938L20.0302 16.6656C19.6232 17.0726 19.6232 17.7325 20.0302 18.1396C20.2338 18.3431 20.5005 18.4448 20.7672 18.4448C21.0338 18.4448 21.3007 18.3431 21.5042 18.1396L24.322 15.3219C24.5174 15.1264 24.6272 14.8613 24.6272 14.5849C24.6272 14.3085 24.5174 14.0434 24.322 13.8479L21.5528 11.0789C21.1457 10.6719 20.4858 10.6719 20.0788 11.079C19.6718 11.486 19.6718 12.1459 20.0788 12.5528L20.9505 13.4246C14.478 14.1933 9.44189 19.7143 9.44189 26.3902C9.44189 33.5904 15.2997 39.4481 22.4999 39.4481C29.7001 39.4481 35.5579 33.5904 35.5579 26.3902C35.5579 25.8146 35.0913 25.348 34.5157 25.348Z" fill="#14112A"/>
<path d="M22.5002 22.7894C20.5147 22.7894 18.8994 24.4047 18.8994 26.3902C18.8994 28.3757 20.5147 29.9909 22.5002 29.9909C24.4855 29.9909 26.1008 28.3757 26.1008 26.3902C26.1008 25.8989 26.0016 25.4303 25.8227 25.0032L32.4246 18.5873C32.8374 18.1862 32.8469 17.5263 32.4457 17.1135C32.0444 16.7006 31.3845 16.6913 30.9719 17.0925L24.4903 23.3913C23.9198 23.0114 23.2355 22.7894 22.5002 22.7894ZM22.5002 27.9066C21.664 27.9066 20.9839 27.2263 20.9839 26.3903C20.9839 25.5541 21.6641 24.8739 22.5002 24.8739C23.3363 24.8739 24.0164 25.5541 24.0164 26.3903C24.0164 27.2263 23.3362 27.9066 22.5002 27.9066Z" fill="#14112A"/>
</svg>
