<svg width="45" height="45" viewBox="0 0 45 45" fill="none" xmlns="http://www.w3.org/2000/svg">
<g clip-path="url(#clip0_359_1569)">
<path d="M42.2655 29.4398C42.075 29.4398 41.8834 29.4638 41.6961 29.511C38.3804 30.3456 34.5847 31.2241 31.5714 31.4123C31.4258 31.4214 31.242 31.426 31.0249 31.426C28.7288 31.4261 25.0967 31.0017 24.4377 30.6565C23.9735 30.4134 23.679 30.1122 23.4924 29.8235H28.7132C30.025 29.8235 31.1063 29.0758 31.4696 28.0144H41.9192C43.2861 28.0144 44.3981 26.9024 44.3981 25.5355V6.68883C44.3981 5.32194 43.2861 4.2099 41.9192 4.2099H20.2198C18.853 4.2099 17.741 5.32194 17.741 6.68874V22.6251C15.4858 22.7013 12.3739 23.35 10.3915 24.9877C9.59506 25.6455 9.02081 26.0942 8.55935 26.4548C8.26089 26.688 8.0032 26.8893 7.7605 27.0886C6.78174 27.8923 5.93635 28.5863 1.05125 28.5863C0.470593 28.5863 0 29.057 0 29.6376V39.7387C0 40.0807 0.166371 40.4013 0.446003 40.5982C0.62563 40.7247 0.837433 40.7899 1.05134 40.7899C1.17054 40.7899 1.29038 40.7696 1.40556 40.7284C5.5728 39.2364 6.31553 39.0192 8.10979 38.4942L8.27113 38.447C8.4205 38.4032 8.56484 38.3593 8.70699 38.3159C9.53445 38.0635 10.188 37.8642 11.416 37.8642C12.7585 37.8642 14.5842 38.1048 17.162 38.6213C22.2076 39.6322 24.6383 40.0753 26.739 40.0753H26.7391C27.9588 40.0753 29.0728 39.9317 30.5133 39.7288C33.5169 39.3059 39.4221 37.3343 42.4353 35.7482C43.3946 35.2434 45.0002 34.3983 45.0002 32.595V32.5265C45 31.0665 43.877 29.4398 42.2655 29.4398ZM28.6647 6.31249H33.4742V15.0484H28.6647V6.31249ZM20.2198 6.31249H26.5622V16.0996C26.5622 16.6802 27.0328 17.1508 27.6135 17.1508H34.5255C35.1061 17.1508 35.5767 16.6802 35.5767 16.0996V6.3124H41.9192C42.1267 6.3124 42.2956 6.48123 42.2956 6.68883V25.5355C42.2956 25.7431 42.1267 25.9119 41.9192 25.9119H31.5039C31.2071 24.6807 30.1889 23.8045 28.8872 23.7203C27.6294 23.639 25.6282 23.3963 23.6929 23.1614C22.2802 22.99 20.9302 22.8264 19.8435 22.7202V6.68883C19.8435 6.48133 20.0123 6.31249 20.2198 6.31249ZM42.8975 32.595C42.8975 33.0042 42.5606 33.3062 41.4559 33.8878C38.6589 35.36 32.9885 37.2571 30.2201 37.6469C28.8649 37.8378 27.822 37.9729 26.739 37.9728C24.9326 37.9728 22.8666 37.62 17.5749 36.5598C14.8577 36.0154 12.9006 35.7618 11.4159 35.7618C9.87442 35.7618 8.96898 36.038 8.09351 36.305C7.95868 36.3462 7.82202 36.3879 7.68042 36.4293L7.51935 36.4764C5.90774 36.9479 5.12534 37.1768 2.1024 38.2481V30.6774C6.48666 30.5767 7.74359 29.8228 9.09448 28.7137C9.31753 28.5306 9.56599 28.3365 9.85376 28.1116C10.3252 27.7432 10.912 27.2848 11.7304 26.6088C13.3099 25.304 16.1133 24.7198 18.1909 24.7198C18.4298 24.7198 18.6566 24.7279 18.8646 24.744C19.9985 24.8312 21.67 25.0339 23.4396 25.2487C25.4036 25.487 27.4347 25.7333 28.7514 25.8185C29.1698 25.8456 29.4513 26.1328 29.4859 26.564C29.4906 26.637 29.496 26.972 29.4981 27.2309C29.4981 27.5652 29.0297 27.7211 28.7132 27.7211H22.1201C21.5597 27.7211 21.0979 28.1606 21.0701 28.7202C21.0651 28.8215 20.9757 31.2165 23.4621 32.519C24.816 33.2283 29.421 33.5285 31.0249 33.5285C31.2855 33.5285 31.5135 33.5225 31.7024 33.5106C34.8865 33.3118 38.8005 32.4078 42.2093 31.5498C42.2293 31.5448 42.2477 31.5423 42.2655 31.5423C42.5032 31.5423 42.8975 32.0191 42.8975 32.5266V32.595Z" fill="#14112A"/>
</g>
<defs>
<clipPath id="clip0_359_1569">
<rect width="45" height="45" fill="white"/>
</clipPath>
</defs>
</svg>
