<svg width="45" height="45" viewBox="0 0 45 45" fill="none" xmlns="http://www.w3.org/2000/svg">
<g clip-path="url(#clip0_360_1730)">
<path d="M45.0005 14.3465C45.0005 9.05454 39.9492 4.94983 35.6037 4.94983C31.6297 4.94983 16.1169 7.73769 15.4585 7.8564C14.9822 7.94226 14.6357 8.35669 14.6357 8.84054V19.8528C14.6357 20.3367 14.9822 20.7511 15.4585 20.837C15.939 20.9235 24.3342 22.4324 30.3792 23.241V36.1163C30.3792 38.2855 32.144 40.0504 34.3132 40.0504C36.4823 40.0504 38.2472 38.2855 38.2472 36.1163V23.2725C41.766 22.0527 45.0005 18.5808 45.0005 14.3465ZM36.7319 14.8314C35.852 14.8314 35.309 14.5105 35.187 14.3464C35.309 14.1824 35.852 13.8615 36.7319 13.8615C37.6117 13.8615 38.1546 14.1824 38.2767 14.3464C38.1546 14.5105 37.6117 14.8314 36.7319 14.8314ZM33.1717 14.3465C33.1717 15.4727 34.1393 16.378 35.5556 16.7023C35.2802 18.4935 34.685 20.1811 33.8113 21.6344C30.3435 21.3063 24.1665 20.3054 20.029 19.6023V9.09069C24.1456 8.39097 30.2819 7.39669 33.7593 7.06369C34.6473 8.51312 35.2556 10.198 35.5422 11.994C34.1333 12.3208 33.1717 13.224 33.1717 14.3465ZM16.6357 9.67826C16.9995 9.61412 17.4719 9.53112 18.029 9.43426V19.2587C17.4719 19.1618 16.9995 19.0788 16.6357 19.0147V9.67826ZM36.2472 36.1161C36.2472 37.1827 35.3796 38.0503 34.3132 38.0503C33.2467 38.0503 32.3792 37.1827 32.3792 36.1161V23.4914C33.7373 23.6477 34.8683 23.7434 35.6036 23.7434C35.8165 23.7434 36.0315 23.7307 36.2472 23.7113V36.1161ZM36.0439 21.7227C36.8043 20.2108 37.3225 18.5281 37.5676 16.7675C39.167 16.5184 40.2919 15.5608 40.2919 14.3465C40.2919 13.129 39.1609 12.1694 37.5545 11.9235C37.2992 10.1584 36.771 8.47569 35.9979 6.9664C39.263 7.20954 43.0005 10.4085 43.0005 14.3465C43.0005 18.266 39.298 21.4531 36.0439 21.7227Z" fill="#14112A"/>
<path d="M10.7911 11.255C10.6227 11.255 10.5709 11.2212 10.2864 10.9265C9.92528 10.5527 9.37957 9.98767 8.34314 9.98767C7.30671 9.98767 6.76114 10.5527 6.39985 10.9265C6.11528 11.2212 6.06357 11.255 5.89514 11.255C5.72685 11.255 5.675 11.2212 5.39057 10.9265C5.02957 10.5527 4.48371 9.98767 3.44743 9.98767C2.411 9.98767 1.86543 10.5527 1.50443 10.9267C1.22 11.2212 1.16814 11.255 1 11.255C0.447714 11.255 0 11.7027 0 12.255C0 12.8072 0.447714 13.255 1 13.255C2.03643 13.255 2.582 12.69 2.94314 12.316C3.22757 12.0214 3.27943 11.9877 3.44757 11.9877C3.61571 11.9877 3.66757 12.0214 3.952 12.316C4.313 12.6898 4.85886 13.255 5.89528 13.255C6.93171 13.255 7.47743 12.69 7.83857 12.316C8.123 12.0214 8.175 11.9877 8.34314 11.9877C8.51143 11.9877 8.56328 12.0214 8.84771 12.316C9.20885 12.69 9.75471 13.255 10.7911 13.255C11.3434 13.255 11.7911 12.8072 11.7911 12.255C11.7911 11.7027 11.3434 11.255 10.7911 11.255Z" fill="#14112A"/>
<path d="M10.7911 16.7056C10.6229 16.7056 10.571 16.6718 10.2864 16.3771C9.92543 16.0031 9.37957 15.438 8.34314 15.438C7.30671 15.438 6.761 16.0031 6.39986 16.3771C6.11529 16.6718 6.06343 16.7056 5.89514 16.7056C5.727 16.7056 5.67514 16.6718 5.39071 16.3771C5.02957 16.0031 4.48386 15.438 3.44743 15.438C2.411 15.438 1.86529 16.0031 1.50429 16.3771C1.21986 16.6718 1.168 16.7056 1 16.7056C0.447714 16.7056 0 17.1533 0 17.7056C0 18.2579 0.447714 18.7056 1 18.7056C2.03643 18.7056 2.58214 18.1404 2.94329 17.7664C3.22771 17.4717 3.27957 17.438 3.44757 17.438C3.61571 17.438 3.66743 17.4717 3.95186 17.7664C4.313 18.1404 4.85871 18.7056 5.89529 18.7056C6.93186 18.7056 7.47757 18.1404 7.83871 17.7664C8.12314 17.4717 8.175 17.438 8.34314 17.438C8.51129 17.438 8.56314 17.4717 8.84757 17.7664C9.20871 18.1404 9.75457 18.7056 10.791 18.7056C11.3433 18.7056 11.791 18.2579 11.791 17.7056C11.7911 17.1533 11.3434 16.7056 10.7911 16.7056Z" fill="#14112A"/>
</g>
<defs>
<clipPath id="clip0_360_1730">
<rect width="45" height="45" fill="white"/>
</clipPath>
</defs>
</svg>
