<svg width="44" height="51" viewBox="0 0 44 51" fill="none" xmlns="http://www.w3.org/2000/svg">
<circle opacity="0.3" cx="14.706" cy="14.2333" r="13.2353" fill="#48BE34"/>
<path d="M39.0083 6.22363V19.8312H35.382V12.5738H21.7744V8.94514H7.71098V19.8312H4.53818V6.22363H0V50.2236H4.53809V42.0591H39.0082V50.2236H44V6.22363H39.0083ZM1.36312 48.8605V7.58675H3.17497V48.8605H1.36312ZM21.7744 13.9369H34.0188V19.8311H21.7744V13.9369ZM13.6098 10.3083H15.8754V14.3881H13.6098V10.3083ZM9.0741 10.3083H12.2468V15.7513H17.2386V10.3083H20.4113V19.8312H9.0741V10.3083ZM39.0083 40.696H4.53818V39.3376H39.0083V40.696ZM9.98121 37.9745V32.0803H22.2256V37.9745H9.98121ZM31.7532 33.8946V28.4516H34.9259V37.9745H23.5888V28.4516H26.7615V33.8946H31.7532ZM28.1247 32.5315V28.4516H30.3903V32.5315H28.1247ZM39.0083 37.9745H36.2891V27.0885H22.2256V30.7172H8.61809V37.9745H4.53818V23.9158H39.0083V37.9745ZM39.0083 22.5527H4.53818V21.1943H39.0083V22.5527ZM42.6369 48.8605H40.3713V7.58675H42.6369V48.8605Z" fill="black"/>
<path d="M32.4324 16.2021H29.7109V17.5653H32.4324V16.2021Z" fill="black"/>
<path d="M28.8044 16.2021H24.2686V17.5653H28.8044V16.2021Z" fill="black"/>
<path d="M20.6395 34.3457H17.918V35.7088H20.6395V34.3457Z" fill="black"/>
<path d="M17.0104 34.3457H12.4746V35.7088H17.0104V34.3457Z" fill="black"/>
</svg>
