<svg width="45" height="45" viewBox="0 0 45 45" fill="none" xmlns="http://www.w3.org/2000/svg">
<path d="M44.25 15.375H40.5H37.5H33.75C33.3 15.375 33 15.6749 33 16.1249V19.875H30.75C30.3 19.875 30.0001 20.1749 30.0001 20.6249V29.6249H27.7029C27.2428 11.7132 23.4302 1.125 17.25 1.125H6.00003C5.55003 1.125 5.25006 1.42497 5.25006 1.87497V4.87494C5.25006 5.32494 5.55003 5.62491 6.00003 5.62491H6.74016L4.5327 18.0495C4.0834 17.7804 3.55904 17.6251 2.99997 17.6251C1.35 17.625 0 18.975 0 20.625C0 21.6434 0.514687 22.547 1.2963 23.0899C0.503262 23.7926 0 24.8164 0 25.95V28.875V33.375V37.8C0 39.525 1.35 40.875 3.07503 40.875H3.82254C4.1618 42.6048 5.65752 43.875 7.49997 43.875C9.34242 43.875 10.8381 42.6048 11.1774 40.875H16.5725C16.9117 42.6048 18.4075 43.875 20.2499 43.875C22.0924 43.875 23.5881 42.6048 23.9273 40.875H24.6749C26.3999 40.875 27.7499 39.525 27.7499 37.8V37.125H29.9999V40.125C29.9999 40.575 30.2999 40.875 30.7499 40.875H41.2499C43.3499 40.875 44.9999 39.225 44.9999 37.1249V26.625V16.125C45 15.675 44.7 15.375 44.25 15.375ZM34.5 27.375H36.75V29.625C36.75 30.075 37.0499 30.375 37.4999 30.375H40.5C40.95 30.375 41.25 30.075 41.25 29.625V27.375H43.5V36.375H34.5V27.375ZM38.25 27.375H39.75V28.8751H38.25V27.375ZM39.75 16.875V18.375H38.25V16.875H39.75ZM34.5 16.875H36.75V19.125C36.75 19.575 37.0499 19.875 37.4999 19.875H40.5C40.95 19.875 41.25 19.575 41.25 19.125V16.875H43.5V25.875H40.5H37.5H34.5001V20.625V16.875H34.5ZM30 31.125V32.625H27.7477C27.7452 32.1196 27.74 31.6199 27.7327 31.125H30ZM6.75 2.62503H17.25C22.65 2.62503 26.1751 14.4 26.25 32.625H24.75C24.75 31.3692 24.7392 30.199 24.7179 29.1017C24.7393 29.0341 24.75 28.96 24.75 28.875L24.675 27.075C24.6705 27.0659 24.667 27.0579 24.663 27.0494C24.4132 19.8788 23.6289 16.0988 22.35 11.775C20.925 6.975 19.0499 4.12497 17.2499 4.12497H10.65H7.65H6.75V2.62503ZM1.50003 29.625H8.25003H15.75H21.45H23.2185C23.2355 30.5681 23.2455 31.566 23.2487 32.625H1.50003V29.625ZM4.5 23.625H7.49997V28.125H1.50003V25.95C1.50003 24.6749 2.55006 23.625 3.825 23.625H4.5ZM17.25 5.625C17.775 5.625 19.4251 7.27497 20.925 12.225C21.9943 15.7893 22.6832 19.0086 23.0154 24.2755L19.8898 19.2556C20.6209 18.4157 20.5661 17.1162 19.725 16.275C18.9 15.375 17.475 15.375 16.575 16.275L13.95 18.9C13.05 19.725 13.05 21.15 13.95 22.05C14.4 22.5 14.925 22.725 15.525 22.725C15.8936 22.725 16.2621 22.6397 16.5785 22.4699L20.1413 28.125H16.575V26.55C16.575 24.975 15.3 23.7 13.725 23.7H13.125C12.5249 23.7 12 23.175 12 22.575V19.7249C12 17.175 10.425 16.8749 9.74997 16.8749H9.71648L11.3048 5.62491H17.25V5.625ZM18.675 18.375L16.05 21.0001C15.75 21.3 15.3 21.3 14.9999 21.0001C14.6999 20.7001 14.7 20.2501 14.9999 19.95L17.6999 17.25C17.85 17.1 17.9999 17.025 18.2249 17.025C18.3749 17.025 18.5999 17.1 18.6749 17.325C18.975 17.625 18.975 18.075 18.675 18.375ZM18.825 20.325L23.1584 27.2733C23.1643 27.445 23.1697 27.6192 23.1751 27.7949V28.125H21.9001L17.7 21.45L18.825 20.325ZM8.99851 22.8403C8.99895 22.8269 9 22.8139 9 22.8001V18.3001H9.675C9.9 18.3001 10.425 18.3001 10.425 19.6501V22.5C10.425 23.925 11.6249 25.125 13.05 25.125H13.65C14.4 25.125 15 25.7251 15 26.475V28.125H9V22.875C9 22.8632 8.99895 22.8519 8.99851 22.8403ZM9.82503 5.625L8.25003 16.875C7.80003 16.875 7.50006 17.175 7.50006 17.625V22.125H5.625C5.73882 21.8973 5.83321 21.6505 5.89887 21.3943C5.94712 21.2137 5.97832 21.0265 5.99177 20.8347C5.99229 20.8277 5.99291 20.8208 5.99335 20.8138C5.9973 20.7513 5.99994 20.6885 5.99994 20.625C5.99994 20.5777 5.99871 20.5303 5.99634 20.4829C5.9799 20.1343 5.90291 19.8011 5.77626 19.493L8.325 5.625H9.82503ZM2.99997 19.125C3.61626 19.125 4.14853 19.5018 4.37854 20.0363C4.43206 20.1994 4.48005 20.3625 4.4949 20.5256C4.4971 20.5587 4.5 20.5915 4.5 20.625C4.5 20.6728 4.49719 20.72 4.49279 20.7667C4.45975 21.0934 4.31218 21.4128 4.05 21.675C3.97468 21.7126 3.91834 21.7692 3.8809 21.8352C3.63296 22.0165 3.32895 22.125 3.00006 22.125C2.17503 22.125 1.50003 21.45 1.50003 20.6249C1.50003 19.8 2.17503 19.125 2.99997 19.125ZM7.49997 42.375C6.22494 42.375 5.24997 41.4 5.24997 40.125C5.24997 38.8499 6.22494 37.875 7.49997 37.875C8.775 37.875 9.74997 38.8499 9.74997 40.125C9.74997 41.4 8.775 42.375 7.49997 42.375ZM20.25 42.375C18.975 42.375 18 41.4 18 40.125C18 38.8499 18.975 37.875 20.25 37.875C21.525 37.875 22.5 38.8499 22.5 40.125C22.5 41.4 21.525 42.375 20.25 42.375ZM26.25 37.8C26.25 38.7 25.5001 39.375 24.675 39.375H23.9275C23.6095 37.7534 22.2749 36.5366 20.5914 36.3906C20.5765 36.3893 20.5615 36.3885 20.5465 36.3873C20.507 36.3843 20.4674 36.3811 20.4275 36.3793C20.3687 36.3766 20.3096 36.3749 20.25 36.3749C20.1904 36.3749 20.1313 36.3765 20.0725 36.3793C20.0326 36.3811 19.993 36.3843 19.9535 36.3873C19.9385 36.3884 19.9235 36.3892 19.9086 36.3906C18.2251 36.5366 16.8906 37.7534 16.5725 39.375H11.1774C10.8594 37.7534 9.5248 36.5366 7.84125 36.3906C7.8264 36.3893 7.81137 36.3885 7.79643 36.3873C7.75688 36.3843 7.71732 36.3811 7.67742 36.3793C7.61862 36.3766 7.55947 36.3749 7.49988 36.3749C7.44029 36.3749 7.38123 36.3765 7.32234 36.3793C7.28244 36.3811 7.24289 36.3843 7.20334 36.3873C7.1884 36.3884 7.17337 36.3892 7.15852 36.3906C5.47515 36.5366 4.14053 37.7534 3.82254 39.375H3.07503C2.17503 39.375 1.50003 38.7 1.50003 37.8V34.125H24H26.25V37.8ZM27.75 35.625V34.1249H30V35.625H27.75ZM41.25 39.375H31.5V21.375H33V26.625V37.125C33 37.575 33.3 37.875 33.75 37.875H43.35C43.05 38.775 42.225 39.375 41.25 39.375Z" fill="#14112A"/>
</svg>
