<svg width="45" height="45" viewBox="0 0 45 45" fill="none" xmlns="http://www.w3.org/2000/svg">
<path d="M41.6066 9.96857C41.5322 9.58046 41.1588 9.32601 40.7692 9.40011L35.9924 10.3141C34.6932 10.5637 33.5874 11.3722 32.9577 12.5326L32.9364 12.5705C32.9345 12.5738 32.9327 12.5771 32.9309 12.5804C31.5899 15.0519 29.6749 17.2293 27.3924 18.8772L26.2705 19.6875C26.2396 19.7099 26.2105 19.7347 26.1834 19.7616L18.5028 27.4424C17.7294 28.2155 16.5271 28.312 15.6439 27.6721C15.5491 27.6031 15.4583 27.5257 15.375 27.4424C14.957 27.0243 14.7268 26.469 14.7268 25.8784C14.7268 25.2871 14.9568 24.7319 15.3749 24.3145L20.4299 19.2595C22.2833 17.4049 22.5065 14.5221 20.9608 12.4048C19.969 11.0461 18.3736 10.2349 16.6932 10.2349C16.5894 10.2349 16.2505 10.2526 16.1037 10.2606C14.8171 10.3408 13.6064 10.887 12.6948 11.7988L8.49104 16.0025C8.35936 16.1342 8.28416 16.312 8.28152 16.4981L8.17142 24.04C8.16514 24.4626 8.00032 24.86 7.71493 25.1626H7.1827C6.85118 25.1626 6.57306 25.3884 6.4918 25.6944C6.49158 25.6944 6.49147 25.6944 6.49125 25.6944C5.5654 25.6944 4.81219 24.9422 4.81219 24.0175C4.81219 23.9927 5.2046 14.3194 5.2046 14.3194C5.21836 13.9854 5.35312 13.6709 5.585 13.4325L16.2495 2.42226C16.8908 1.78333 17.743 1.43133 18.6499 1.43133H31.5163C31.9116 1.43133 32.232 1.11093 32.232 0.715666C32.232 0.320398 31.9116 0 31.5163 0H18.6499C17.3588 0 16.1457 0.502288 15.2337 1.41416C15.2311 1.4168 15.2284 1.41955 15.2258 1.4223L4.55807 12.4359C4.081 12.9261 3.80277 13.5742 3.77448 14.2612C3.77448 14.2612 3.38086 23.9767 3.38086 24.0179C3.38086 25.7236 4.76309 27.1123 6.46703 27.1255V44.2843C6.46703 44.6796 6.78743 45 7.1827 45H15.2235C15.6187 45 15.9391 44.6796 15.9391 44.2843V29.3835C16.2671 29.4781 16.6036 29.5275 16.9399 29.5275C17.8756 29.5275 18.8052 29.1642 19.5149 28.4546L27.1551 20.8143L28.2305 20.0377C30.6843 18.2661 32.7436 15.9251 34.1863 13.2682L34.2078 13.23C34.2099 13.2264 34.2119 13.2229 34.2138 13.2192C34.638 12.435 35.3847 11.8884 36.2622 11.7199L41.0384 10.806C41.4264 10.7317 41.6809 10.3567 41.6066 9.96857ZM13.3654 26.5942C13.4844 27.1946 13.7538 27.753 14.1537 28.2259H7.89836V26.5942H13.3654ZM7.89836 38.8664H14.5078V40.5047H7.89836V38.8664ZM7.89836 37.4351V35.7966H14.5078V37.4351H7.89836ZM7.89836 34.3654V32.727H14.5078V34.3654H7.89836ZM7.89836 31.2957V29.6572H14.5078V31.2957H7.89836ZM13.707 12.8111C14.3718 12.1462 15.2547 11.7478 16.1869 11.6896C16.3902 11.6786 16.6417 11.6667 16.6933 11.6664C17.6694 11.6664 18.6055 12.0429 19.3118 12.6968L16.8189 14.4172C16.4935 14.6417 16.4118 15.0873 16.6363 15.4127C16.7752 15.614 16.9987 15.722 17.2259 15.722C17.366 15.722 17.5078 15.6809 17.6318 15.5953L20.1651 13.847C20.8733 15.3031 20.6015 17.063 19.4177 18.2476L18.6947 18.9707L14.0354 19.0542C13.1754 19.051 12.4768 18.3505 12.4768 17.4899V14.0414L13.707 12.8111ZM9.60253 24.0613L9.70845 16.8096L11.0453 15.4728V17.49C11.0453 19.1419 12.3892 20.4857 14.0411 20.4857C14.0454 20.4857 14.0497 20.4857 14.0539 20.4856L17.2369 20.4284L14.3634 23.3021C13.8466 23.8179 13.5041 24.4619 13.3654 25.1628H9.3831C9.5205 24.8166 9.59691 24.4444 9.60253 24.0613ZM7.89836 43.5687V41.9362H14.5078V43.5687H7.89836Z" fill="#14112A"/>
<path d="M26.3439 40.5049H18.3026C17.9073 40.5049 17.5869 40.8253 17.5869 41.2205V44.284C17.5869 44.6793 17.9073 44.9997 18.3026 44.9997H26.3439C26.7392 44.9997 27.0596 44.6793 27.0596 44.284V41.2205C27.0596 40.8253 26.7392 40.5049 26.3439 40.5049ZM25.6283 43.5684H19.0182V41.9362H25.6283V43.5684Z" fill="#14112A"/>
</svg>
