<svg width="44" height="50" viewBox="0 0 44 50" fill="none" xmlns="http://www.w3.org/2000/svg">
<circle opacity="0.2" cx="14.706" cy="13.2353" r="13.2353" fill="#4F11FF"/>
<path d="M41.3262 34.8289C41.14 34.8289 40.9526 34.8525 40.7695 34.8989C37.5275 35.7203 33.8161 36.5849 30.8698 36.77C30.7275 36.779 30.5477 36.7835 30.3355 36.7835C28.0904 36.7836 24.539 36.366 23.8946 36.0263C23.4407 35.787 23.1528 35.4906 22.9703 35.2065H28.0751C29.3578 35.2065 30.4151 34.4707 30.7703 33.4261H40.9877C42.3242 33.4261 43.4115 32.3317 43.4115 30.9865V12.4386C43.4115 11.0934 42.3242 9.99902 40.9877 9.99902H19.7705C18.434 9.99902 17.3467 11.0934 17.3467 12.4386V28.1222C15.1417 28.1973 12.0989 28.8356 10.1605 30.4473C9.38184 31.0947 8.82034 31.5363 8.36915 31.8911C8.07732 32.1206 7.82535 32.3188 7.58804 32.515C6.63103 33.3059 5.80443 33.9889 1.02789 33.9889C0.460136 33.9889 0 34.4521 0 35.0235V44.9644C0 45.301 0.162674 45.6166 0.436092 45.8104C0.611727 45.9348 0.818824 45.999 1.02798 45.999C1.14453 45.999 1.26171 45.979 1.37433 45.9385C5.44896 44.4701 6.17519 44.2563 7.92957 43.7397L8.08733 43.6933C8.23338 43.6502 8.37451 43.6069 8.5135 43.5643C9.32258 43.3159 9.96157 43.1197 11.1623 43.1197C12.475 43.1197 14.2601 43.3564 16.7807 43.8647C21.7141 44.8596 24.0908 45.2957 26.1448 45.2957H26.1449C27.3375 45.2957 28.4267 45.1544 29.8353 44.9547C32.7721 44.5386 38.546 42.5981 41.4923 41.0373C42.4303 40.5404 44.0002 39.7087 44.0002 37.934V37.8666C44 36.4298 42.902 34.8289 41.3262 34.8289ZM28.0277 12.0683H32.7303V20.6657H28.0277V12.0683ZM19.7705 12.0683H25.9719V21.7002C25.9719 22.2716 26.4321 22.7348 26.9998 22.7348H33.7582C34.326 22.7348 34.7861 22.2716 34.7861 21.7002V12.0682H40.9877C41.1906 12.0682 41.3557 12.2343 41.3557 12.4386V30.9865C41.3557 31.1908 41.1906 31.3569 40.9877 31.3569H30.8038C30.5136 30.1452 29.5181 29.2829 28.2453 29.2001C27.0154 29.12 25.0587 28.8812 23.1664 28.65C21.785 28.4814 20.4651 28.3203 19.4026 28.2158V12.4386C19.4025 12.2344 19.5676 12.0683 19.7705 12.0683ZM41.9442 37.934C41.9442 38.3368 41.6149 38.634 40.5347 39.2063C37.7998 40.6552 32.2555 42.5222 29.5485 42.9058C28.2235 43.0937 27.2037 43.2266 26.1448 43.2265C24.3785 43.2265 22.3584 42.8794 17.1844 41.836C14.5275 41.3001 12.6139 41.0506 11.1622 41.0506C9.65499 41.0506 8.76966 41.3225 7.91366 41.5852C7.78182 41.6257 7.64819 41.6667 7.50974 41.7075L7.35225 41.7539C5.77646 42.218 5.01144 42.4432 2.05568 43.4975V36.0468C6.34251 35.9478 7.57151 35.2058 8.89239 34.1142C9.11048 33.934 9.35341 33.743 9.63479 33.5217C10.0957 33.1592 10.6695 32.708 11.4697 32.0427C13.0141 30.7586 15.7552 30.1837 17.7866 30.1837C18.0203 30.1837 18.242 30.1917 18.4454 30.2075C19.5541 30.2933 21.1884 30.4928 22.9188 30.7042C24.8391 30.9387 26.825 31.1812 28.1124 31.265C28.5215 31.2916 28.7968 31.5743 28.8306 31.9987C28.8353 32.0705 28.8405 32.4002 28.8426 32.6549C28.8426 32.984 28.3846 33.1374 28.0751 33.1374H21.6285C21.0806 33.1374 20.6291 33.57 20.6019 34.1207C20.597 34.2204 20.5096 36.5774 22.9407 37.8592C24.2646 38.5573 28.7672 38.8527 30.3355 38.8527C30.5903 38.8527 30.8132 38.8468 30.9979 38.8351C34.1113 38.6395 37.9382 37.7498 41.2713 36.9054C41.2909 36.9005 41.3088 36.8981 41.3262 36.8981C41.5587 36.8981 41.9442 37.3672 41.9442 37.8667V37.934V37.934Z" fill="black"/>
</svg>
