<svg width="124" height="37" viewBox="0 0 124 37" fill="none" xmlns="http://www.w3.org/2000/svg">
<path d="M21.3633 8.73438V14.1641C21.1615 14.431 20.8457 14.724 20.416 15.043C19.9928 15.3555 19.4297 15.6257 18.7266 15.8535C18.0234 16.0814 17.1478 16.1953 16.0996 16.1953C15.2077 16.1953 14.3906 16.0456 13.6484 15.7461C12.9062 15.4401 12.265 14.9941 11.7246 14.4082C11.1908 13.8223 10.7773 13.1094 10.4844 12.2695C10.1914 11.4232 10.0449 10.4596 10.0449 9.37891V8.39258C10.0449 7.31836 10.1784 6.36133 10.4453 5.52148C10.7188 4.67513 11.1094 3.95898 11.6172 3.37305C12.125 2.78711 12.737 2.3444 13.4531 2.04492C14.1758 1.73893 14.9928 1.58594 15.9043 1.58594C17.0697 1.58594 18.0332 1.78125 18.7949 2.17188C19.5632 2.55599 20.1556 3.08984 20.5723 3.77344C20.9889 4.45703 21.2526 5.23828 21.3633 6.11719H18.9609C18.8828 5.6224 18.7298 5.17969 18.502 4.78906C18.2806 4.39844 17.9616 4.09245 17.5449 3.87109C17.1348 3.64323 16.6009 3.5293 15.9434 3.5293C15.377 3.5293 14.8789 3.63672 14.4492 3.85156C14.0195 4.06641 13.6615 4.38216 13.375 4.79883C13.0951 5.21549 12.8835 5.72331 12.7402 6.32227C12.597 6.92122 12.5254 7.60482 12.5254 8.37305V9.37891C12.5254 10.1602 12.6068 10.8535 12.7695 11.459C12.9388 12.0645 13.1797 12.5755 13.4922 12.9922C13.8112 13.4089 14.1986 13.7246 14.6543 13.9395C15.11 14.1478 15.6243 14.252 16.1973 14.252C16.7572 14.252 17.2161 14.2064 17.5742 14.1152C17.9323 14.0176 18.2155 13.9036 18.4238 13.7734C18.6387 13.6367 18.8047 13.5065 18.9219 13.3828V10.5605H15.9629V8.73438H21.3633ZM31.5586 12.3379C31.5586 12.0449 31.513 11.7845 31.4219 11.5566C31.3372 11.3288 31.1842 11.1204 30.9629 10.9316C30.7415 10.7428 30.429 10.5605 30.0254 10.3848C29.6283 10.2025 29.1204 10.0169 28.502 9.82812C27.8249 9.61979 27.1999 9.38867 26.627 9.13477C26.0605 8.87435 25.5658 8.57487 25.1426 8.23633C24.7194 7.89128 24.3906 7.4974 24.1562 7.05469C23.9219 6.60547 23.8047 6.08789 23.8047 5.50195C23.8047 4.92253 23.9251 4.39518 24.166 3.91992C24.4134 3.44466 24.7617 3.03451 25.2109 2.68945C25.6667 2.33789 26.2038 2.06771 26.8223 1.87891C27.4408 1.68359 28.1243 1.58594 28.873 1.58594C29.9277 1.58594 30.8359 1.78125 31.5977 2.17188C32.3659 2.5625 32.9551 3.08659 33.3652 3.74414C33.7819 4.40169 33.9902 5.1276 33.9902 5.92188H31.5586C31.5586 5.45312 31.4577 5.03971 31.2559 4.68164C31.0605 4.31706 30.7611 4.0306 30.3574 3.82227C29.9603 3.61393 29.4557 3.50977 28.8438 3.50977C28.2643 3.50977 27.7826 3.59766 27.3984 3.77344C27.0143 3.94922 26.7279 4.18685 26.5391 4.48633C26.3503 4.78581 26.2559 5.12435 26.2559 5.50195C26.2559 5.76888 26.3177 6.01302 26.4414 6.23438C26.5651 6.44922 26.7539 6.65104 27.0078 6.83984C27.2617 7.02214 27.5807 7.19466 27.9648 7.35742C28.349 7.52018 28.8014 7.67643 29.3223 7.82617C30.11 8.06055 30.7969 8.32096 31.3828 8.60742C31.9688 8.88737 32.457 9.20638 32.8477 9.56445C33.2383 9.92253 33.5312 10.3294 33.7266 10.7852C33.9219 11.2344 34.0195 11.7454 34.0195 12.3184C34.0195 12.9173 33.8991 13.4577 33.6582 13.9395C33.4173 14.4147 33.0723 14.8216 32.623 15.1602C32.1803 15.4922 31.6465 15.7493 31.0215 15.9316C30.403 16.1074 29.7129 16.1953 28.9512 16.1953C28.2676 16.1953 27.5938 16.1042 26.9297 15.9219C26.2721 15.7396 25.6732 15.4629 25.1328 15.0918C24.5924 14.7142 24.1628 14.2454 23.8438 13.6855C23.5247 13.1191 23.3652 12.4583 23.3652 11.7031H25.8164C25.8164 12.1654 25.8945 12.5592 26.0508 12.8848C26.2135 13.2103 26.4382 13.4772 26.7246 13.6855C27.0111 13.8874 27.3431 14.0371 27.7207 14.1348C28.1048 14.2324 28.515 14.2812 28.9512 14.2812C29.5241 14.2812 30.0026 14.1999 30.3867 14.0371C30.7773 13.8743 31.0703 13.6465 31.2656 13.3535C31.4609 13.0605 31.5586 12.722 31.5586 12.3379ZM47.1055 8.73438V14.1641C46.9036 14.431 46.5879 14.724 46.1582 15.043C45.735 15.3555 45.1719 15.6257 44.4688 15.8535C43.7656 16.0814 42.89 16.1953 41.8418 16.1953C40.9499 16.1953 40.1328 16.0456 39.3906 15.7461C38.6484 15.4401 38.0072 14.9941 37.4668 14.4082C36.9329 13.8223 36.5195 13.1094 36.2266 12.2695C35.9336 11.4232 35.7871 10.4596 35.7871 9.37891V8.39258C35.7871 7.31836 35.9206 6.36133 36.1875 5.52148C36.4609 4.67513 36.8516 3.95898 37.3594 3.37305C37.8672 2.78711 38.4792 2.3444 39.1953 2.04492C39.918 1.73893 40.735 1.58594 41.6465 1.58594C42.8118 1.58594 43.7754 1.78125 44.5371 2.17188C45.3053 2.55599 45.8978 3.08984 46.3145 3.77344C46.7311 4.45703 46.9948 5.23828 47.1055 6.11719H44.7031C44.625 5.6224 44.472 5.17969 44.2441 4.78906C44.0228 4.39844 43.7038 4.09245 43.2871 3.87109C42.877 3.64323 42.3431 3.5293 41.6855 3.5293C41.1191 3.5293 40.6211 3.63672 40.1914 3.85156C39.7617 4.06641 39.4036 4.38216 39.1172 4.79883C38.8372 5.21549 38.6257 5.72331 38.4824 6.32227C38.3392 6.92122 38.2676 7.60482 38.2676 8.37305V9.37891C38.2676 10.1602 38.349 10.8535 38.5117 11.459C38.681 12.0645 38.9219 12.5755 39.2344 12.9922C39.5534 13.4089 39.9408 13.7246 40.3965 13.9395C40.8522 14.1478 41.3665 14.252 41.9395 14.252C42.4993 14.252 42.9583 14.2064 43.3164 14.1152C43.6745 14.0176 43.9577 13.9036 44.166 13.7734C44.3809 13.6367 44.5469 13.5065 44.6641 13.3828V10.5605H41.7051V8.73438H47.1055Z" fill="#EF4242"/>
<path d="M59.4102 5.43359V7.15234H53.4531V5.43359H59.4102ZM55.1719 2.8457H57.5254V13.0801C57.5254 13.4056 57.571 13.6562 57.6621 13.832C57.7598 14.0013 57.8932 14.1152 58.0625 14.1738C58.2318 14.2324 58.4303 14.2617 58.6582 14.2617C58.821 14.2617 58.9772 14.252 59.127 14.2324C59.2767 14.2129 59.3971 14.1934 59.4883 14.1738L59.498 15.9707C59.3027 16.0293 59.0749 16.0814 58.8145 16.127C58.5605 16.1725 58.2676 16.1953 57.9355 16.1953C57.3952 16.1953 56.9167 16.1009 56.5 15.9121C56.0833 15.7168 55.7578 15.401 55.5234 14.9648C55.2891 14.5286 55.1719 13.9492 55.1719 13.2266V2.8457ZM63.5898 7.44531V16H61.2363V5.43359H63.4824L63.5898 7.44531ZM66.8223 5.36523L66.8027 7.55273C66.6595 7.52669 66.5033 7.50716 66.334 7.49414C66.1712 7.48112 66.0085 7.47461 65.8457 7.47461C65.4421 7.47461 65.0872 7.5332 64.7812 7.65039C64.4753 7.76107 64.2181 7.92383 64.0098 8.13867C63.8079 8.34701 63.6517 8.60091 63.541 8.90039C63.4303 9.19987 63.3652 9.53516 63.3457 9.90625L62.8086 9.94531C62.8086 9.28125 62.8737 8.66602 63.0039 8.09961C63.1341 7.5332 63.3294 7.03516 63.5898 6.60547C63.8568 6.17578 64.1888 5.84049 64.5859 5.59961C64.9896 5.35872 65.4551 5.23828 65.9824 5.23828C66.1257 5.23828 66.2786 5.2513 66.4414 5.27734C66.6107 5.30339 66.7376 5.33268 66.8223 5.36523ZM73.9023 13.8809V8.8418C73.9023 8.46419 73.834 8.13867 73.6973 7.86523C73.5605 7.5918 73.3522 7.38021 73.0723 7.23047C72.7988 7.08073 72.4538 7.00586 72.0371 7.00586C71.653 7.00586 71.321 7.07096 71.041 7.20117C70.7611 7.33138 70.543 7.50716 70.3867 7.72852C70.2305 7.94987 70.1523 8.20052 70.1523 8.48047H67.8086C67.8086 8.0638 67.9095 7.66016 68.1113 7.26953C68.3132 6.87891 68.6061 6.5306 68.9902 6.22461C69.3743 5.91862 69.8333 5.67773 70.3672 5.50195C70.901 5.32617 71.5 5.23828 72.1641 5.23828C72.9583 5.23828 73.6615 5.37174 74.2734 5.63867C74.8919 5.9056 75.377 6.30924 75.7285 6.84961C76.0866 7.38346 76.2656 8.05404 76.2656 8.86133V13.5586C76.2656 14.0404 76.2982 14.4733 76.3633 14.8574C76.4349 15.235 76.5358 15.5638 76.666 15.8438V16H74.2539C74.1432 15.7461 74.0553 15.4238 73.9902 15.0332C73.9316 14.6361 73.9023 14.252 73.9023 13.8809ZM74.2441 9.57422L74.2637 11.0293H72.5742C72.138 11.0293 71.7539 11.0716 71.4219 11.1562C71.0898 11.2344 70.8132 11.3516 70.5918 11.5078C70.3704 11.6641 70.2044 11.8529 70.0938 12.0742C69.9831 12.2956 69.9277 12.5462 69.9277 12.8262C69.9277 13.1061 69.9928 13.3633 70.123 13.5977C70.2533 13.8255 70.4421 14.0046 70.6895 14.1348C70.9434 14.265 71.2493 14.3301 71.6074 14.3301C72.0892 14.3301 72.5091 14.2324 72.8672 14.0371C73.2318 13.8353 73.5182 13.5911 73.7266 13.3047C73.9349 13.0117 74.0456 12.735 74.0586 12.4746L74.8203 13.5195C74.7422 13.7865 74.6087 14.0729 74.4199 14.3789C74.2311 14.6849 73.9837 14.9779 73.6777 15.2578C73.3783 15.5312 73.0169 15.7559 72.5938 15.9316C72.1771 16.1074 71.6953 16.1953 71.1484 16.1953C70.4583 16.1953 69.8431 16.0586 69.3027 15.7852C68.7624 15.5052 68.3392 15.1309 68.0332 14.6621C67.7272 14.1868 67.5742 13.6497 67.5742 13.0508C67.5742 12.4909 67.6784 11.9961 67.8867 11.5664C68.1016 11.1302 68.4141 10.7656 68.8242 10.4727C69.2409 10.1797 69.7487 9.95833 70.3477 9.80859C70.9466 9.65234 71.6302 9.57422 72.3984 9.57422H74.2441ZM81.0605 7.68945V16H78.707V5.43359H80.9238L81.0605 7.68945ZM80.6406 10.3262L79.8789 10.3164C79.8854 9.56771 79.9896 8.88086 80.1914 8.25586C80.3997 7.63086 80.6862 7.09375 81.0508 6.64453C81.4219 6.19531 81.8646 5.85026 82.3789 5.60938C82.8932 5.36198 83.4661 5.23828 84.0977 5.23828C84.6055 5.23828 85.0645 5.3099 85.4746 5.45312C85.8913 5.58984 86.2461 5.81445 86.5391 6.12695C86.8385 6.43945 87.0664 6.84635 87.2227 7.34766C87.3789 7.84245 87.457 8.45117 87.457 9.17383V16H85.0938V9.16406C85.0938 8.65625 85.0189 8.25586 84.8691 7.96289C84.7259 7.66341 84.5143 7.45182 84.2344 7.32812C83.9609 7.19792 83.6191 7.13281 83.209 7.13281C82.8053 7.13281 82.444 7.21745 82.125 7.38672C81.806 7.55599 81.5358 7.78711 81.3145 8.08008C81.0996 8.37305 80.9336 8.71159 80.8164 9.0957C80.6992 9.47982 80.6406 9.88997 80.6406 10.3262ZM95.7871 13.1387C95.7871 12.9043 95.7285 12.6927 95.6113 12.5039C95.4941 12.3086 95.2695 12.1328 94.9375 11.9766C94.612 11.8203 94.1302 11.6771 93.4922 11.5469C92.9323 11.4232 92.418 11.2767 91.9492 11.1074C91.487 10.9316 91.0898 10.7201 90.7578 10.4727C90.4258 10.2253 90.1686 9.93229 89.9863 9.59375C89.804 9.25521 89.7129 8.86458 89.7129 8.42188C89.7129 7.99219 89.8073 7.58529 89.9961 7.20117C90.1849 6.81706 90.4551 6.47852 90.8066 6.18555C91.1582 5.89258 91.5846 5.66146 92.0859 5.49219C92.5938 5.32292 93.1602 5.23828 93.7852 5.23828C94.6706 5.23828 95.429 5.38802 96.0605 5.6875C96.6986 5.98047 97.1868 6.38086 97.5254 6.88867C97.8639 7.38997 98.0332 7.95638 98.0332 8.58789H95.6797C95.6797 8.30794 95.6081 8.04753 95.4648 7.80664C95.3281 7.55924 95.1198 7.36068 94.8398 7.21094C94.5599 7.05469 94.2083 6.97656 93.7852 6.97656C93.3815 6.97656 93.0462 7.04167 92.7793 7.17188C92.5189 7.29557 92.3236 7.45833 92.1934 7.66016C92.0697 7.86198 92.0078 8.08333 92.0078 8.32422C92.0078 8.5 92.0404 8.65951 92.1055 8.80273C92.1771 8.93945 92.2943 9.06641 92.457 9.18359C92.6198 9.29427 92.8411 9.39844 93.1211 9.49609C93.4076 9.59375 93.7656 9.68815 94.1953 9.7793C95.0026 9.94857 95.696 10.1667 96.2754 10.4336C96.8613 10.694 97.3105 11.0326 97.623 11.4492C97.9355 11.8594 98.0918 12.3802 98.0918 13.0117C98.0918 13.4805 97.9909 13.9102 97.7891 14.3008C97.5938 14.6849 97.3073 15.0202 96.9297 15.3066C96.5521 15.5866 96.0996 15.8047 95.5723 15.9609C95.0514 16.1172 94.4655 16.1953 93.8145 16.1953C92.8574 16.1953 92.0469 16.026 91.3828 15.6875C90.7188 15.3424 90.2142 14.903 89.8691 14.3691C89.5306 13.8288 89.3613 13.2689 89.3613 12.6895H91.6367C91.6628 13.1257 91.7832 13.474 91.998 13.7344C92.2194 13.9883 92.4928 14.1738 92.8184 14.291C93.1504 14.4017 93.4922 14.457 93.8438 14.457C94.2669 14.457 94.6217 14.4017 94.9082 14.291C95.1947 14.1738 95.4128 14.0176 95.5625 13.8223C95.7122 13.6204 95.7871 13.3926 95.7871 13.1387ZM103.336 16H100.982V4.41797C100.982 3.63021 101.129 2.9694 101.422 2.43555C101.721 1.89518 102.148 1.48828 102.701 1.21484C103.255 0.934896 103.909 0.794922 104.664 0.794922C104.898 0.794922 105.13 0.811198 105.357 0.84375C105.585 0.869792 105.807 0.912109 106.021 0.970703L105.963 2.78711C105.833 2.75456 105.689 2.73177 105.533 2.71875C105.383 2.70573 105.221 2.69922 105.045 2.69922C104.687 2.69922 104.378 2.76758 104.117 2.9043C103.863 3.03451 103.668 3.22656 103.531 3.48047C103.401 3.73438 103.336 4.04688 103.336 4.41797V16ZM105.514 5.43359V7.15234H99.3613V5.43359H105.514ZM111.646 16.1953C110.865 16.1953 110.159 16.0684 109.527 15.8145C108.902 15.554 108.368 15.1927 107.926 14.7305C107.49 14.2682 107.154 13.7246 106.92 13.0996C106.686 12.4746 106.568 11.8008 106.568 11.0781V10.6875C106.568 9.86068 106.689 9.11198 106.93 8.44141C107.171 7.77083 107.506 7.19792 107.936 6.72266C108.365 6.24089 108.873 5.87305 109.459 5.61914C110.045 5.36523 110.68 5.23828 111.363 5.23828C112.118 5.23828 112.779 5.36523 113.346 5.61914C113.912 5.87305 114.381 6.23112 114.752 6.69336C115.13 7.14909 115.41 7.69271 115.592 8.32422C115.781 8.95573 115.875 9.65234 115.875 10.4141V11.4199H107.711V9.73047H113.551V9.54492C113.538 9.12174 113.453 8.72461 113.297 8.35352C113.147 7.98242 112.916 7.68294 112.604 7.45508C112.291 7.22721 111.874 7.11328 111.354 7.11328C110.963 7.11328 110.615 7.19792 110.309 7.36719C110.009 7.52995 109.758 7.76758 109.557 8.08008C109.355 8.39258 109.199 8.77018 109.088 9.21289C108.984 9.64909 108.932 10.1406 108.932 10.6875V11.0781C108.932 11.5404 108.993 11.9701 109.117 12.3672C109.247 12.7578 109.436 13.0996 109.684 13.3926C109.931 13.6855 110.23 13.9167 110.582 14.0859C110.934 14.2487 111.334 14.3301 111.783 14.3301C112.35 14.3301 112.854 14.2161 113.297 13.9883C113.74 13.7604 114.124 13.4382 114.449 13.0215L115.689 14.2227C115.462 14.5547 115.165 14.8737 114.801 15.1797C114.436 15.4792 113.99 15.7233 113.463 15.9121C112.942 16.1009 112.337 16.1953 111.646 16.1953ZM120.074 7.44531V16H117.721V5.43359H119.967L120.074 7.44531ZM123.307 5.36523L123.287 7.55273C123.144 7.52669 122.988 7.50716 122.818 7.49414C122.656 7.48112 122.493 7.47461 122.33 7.47461C121.926 7.47461 121.572 7.5332 121.266 7.65039C120.96 7.76107 120.702 7.92383 120.494 8.13867C120.292 8.34701 120.136 8.60091 120.025 8.90039C119.915 9.19987 119.85 9.53516 119.83 9.90625L119.293 9.94531C119.293 9.28125 119.358 8.66602 119.488 8.09961C119.618 7.5332 119.814 7.03516 120.074 6.60547C120.341 6.17578 120.673 5.84049 121.07 5.59961C121.474 5.35872 121.939 5.23828 122.467 5.23828C122.61 5.23828 122.763 5.2513 122.926 5.27734C123.095 5.30339 123.222 5.33268 123.307 5.36523Z" fill="white"/>
<path d="M1 2V36" stroke="white" stroke-width="2" stroke-linecap="round" stroke-linejoin="round"/>
<path d="M14.1553 22.7168V23.6543H11.5771V22.7168H14.1553ZM15.0781 22.7168V28H13.9014V22.7168H15.0781ZM11.2891 22.7168H12.4512L12.3096 25.3291C12.29 25.7165 12.251 26.0583 12.1924 26.3545C12.137 26.6475 12.0622 26.8997 11.9678 27.1113C11.8734 27.3197 11.7578 27.4889 11.6211 27.6191C11.4844 27.7493 11.3249 27.8454 11.1426 27.9072C10.9603 27.9691 10.7552 28 10.5273 28H10.1611L10.1562 27.0332L10.3418 27.0186C10.4622 27.0088 10.5664 26.9779 10.6543 26.9258C10.7422 26.8704 10.8171 26.7923 10.8789 26.6914C10.944 26.5905 10.9961 26.4603 11.0352 26.3008C11.0775 26.1413 11.11 25.9525 11.1328 25.7344C11.1589 25.5163 11.1784 25.2624 11.1914 24.9727L11.2891 22.7168ZM16.1035 25.417V25.3047C16.1035 24.9238 16.1589 24.5706 16.2695 24.2451C16.3802 23.9163 16.5397 23.6315 16.748 23.3906C16.9596 23.1465 17.2168 22.9577 17.5195 22.8242C17.8255 22.6875 18.1706 22.6191 18.5547 22.6191C18.9421 22.6191 19.2871 22.6875 19.5898 22.8242C19.8958 22.9577 20.1546 23.1465 20.3662 23.3906C20.5778 23.6315 20.7389 23.9163 20.8496 24.2451C20.9603 24.5706 21.0156 24.9238 21.0156 25.3047V25.417C21.0156 25.7979 20.9603 26.151 20.8496 26.4766C20.7389 26.8021 20.5778 27.0869 20.3662 27.3311C20.1546 27.5719 19.8975 27.7607 19.5947 27.8975C19.292 28.0309 18.9486 28.0977 18.5645 28.0977C18.1771 28.0977 17.8304 28.0309 17.5244 27.8975C17.2217 27.7607 16.9645 27.5719 16.7529 27.3311C16.5413 27.0869 16.3802 26.8021 16.2695 26.4766C16.1589 26.151 16.1035 25.7979 16.1035 25.417ZM17.2803 25.3047V25.417C17.2803 25.6546 17.3047 25.8792 17.3535 26.0908C17.4023 26.3024 17.4788 26.488 17.583 26.6475C17.6872 26.807 17.8206 26.9323 17.9834 27.0234C18.1462 27.1146 18.3398 27.1602 18.5645 27.1602C18.7826 27.1602 18.9714 27.1146 19.1309 27.0234C19.2936 26.9323 19.4271 26.807 19.5312 26.6475C19.6354 26.488 19.7119 26.3024 19.7607 26.0908C19.8128 25.8792 19.8389 25.6546 19.8389 25.417V25.3047C19.8389 25.0703 19.8128 24.849 19.7607 24.6406C19.7119 24.429 19.6338 24.2419 19.5264 24.0791C19.4222 23.9163 19.2887 23.7894 19.126 23.6982C18.9665 23.6038 18.776 23.5566 18.5547 23.5566C18.3333 23.5566 18.1413 23.6038 17.9785 23.6982C17.819 23.7894 17.6872 23.9163 17.583 24.0791C17.4788 24.2419 17.4023 24.429 17.3535 24.6406C17.3047 24.849 17.2803 25.0703 17.2803 25.3047ZM25.5176 22.7168V23.6543H23.2129V28H22.0361V22.7168H25.5176ZM27.417 26.2812L29.4922 22.7168H30.6689V28H29.4922V24.4307L27.417 28H26.2402V22.7168H27.417V26.2812ZM34.0723 27.1602C34.2643 27.1602 34.4368 27.1227 34.5898 27.0479C34.7461 26.9697 34.8714 26.8623 34.9658 26.7256C35.0635 26.5889 35.1172 26.431 35.127 26.252H36.2354C36.2288 26.5938 36.1279 26.9046 35.9326 27.1846C35.7373 27.4645 35.4785 27.6875 35.1562 27.8535C34.834 28.0163 34.4775 28.0977 34.0869 28.0977C33.6833 28.0977 33.3317 28.0293 33.0322 27.8926C32.7327 27.7526 32.4837 27.5605 32.2852 27.3164C32.0866 27.0723 31.9368 26.7907 31.8359 26.4717C31.7383 26.1527 31.6895 25.8109 31.6895 25.4463V25.2754C31.6895 24.9108 31.7383 24.569 31.8359 24.25C31.9368 23.9277 32.0866 23.6445 32.2852 23.4004C32.4837 23.1562 32.7327 22.9658 33.0322 22.8291C33.3317 22.6891 33.6816 22.6191 34.082 22.6191C34.5052 22.6191 34.8763 22.7038 35.1953 22.873C35.5143 23.0391 35.765 23.2718 35.9473 23.5713C36.1328 23.8675 36.2288 24.2126 36.2354 24.6064H35.127C35.1172 24.4111 35.0684 24.2354 34.9805 24.0791C34.8958 23.9196 34.7754 23.7926 34.6191 23.6982C34.4661 23.6038 34.2822 23.5566 34.0674 23.5566C33.8298 23.5566 33.6328 23.6055 33.4766 23.7031C33.3203 23.7975 33.1982 23.9277 33.1104 24.0938C33.0225 24.2565 32.959 24.4404 32.9199 24.6455C32.8841 24.8473 32.8662 25.0573 32.8662 25.2754V25.4463C32.8662 25.6644 32.8841 25.876 32.9199 26.0811C32.9557 26.2861 33.0176 26.4701 33.1055 26.6328C33.1966 26.7923 33.3203 26.9209 33.4766 27.0186C33.6328 27.113 33.8314 27.1602 34.0723 27.1602ZM39.5898 22.7168V28H38.4082V22.7168H39.5898ZM41.3232 22.7168V23.6445H36.7041V22.7168H41.3232ZM43.3252 26.2812L45.4004 22.7168H46.5771V28H45.4004V24.4307L43.3252 28H42.1484V22.7168H43.3252V26.2812ZM52.0654 22.7168V28H50.8887V22.7168H52.0654ZM51.5674 25.0557V25.9883C51.4242 26.0501 51.263 26.1071 51.084 26.1592C50.9082 26.208 50.7227 26.2487 50.5273 26.2812C50.332 26.3105 50.1351 26.3252 49.9365 26.3252C49.471 26.3252 49.069 26.2536 48.7305 26.1104C48.3952 25.9671 48.1364 25.7474 47.9541 25.4512C47.7751 25.1517 47.6855 24.7725 47.6855 24.3135V22.7119H48.8574V24.3135C48.8574 24.5771 48.8965 24.7871 48.9746 24.9434C49.056 25.0996 49.1764 25.2119 49.3359 25.2803C49.4954 25.3486 49.6956 25.3828 49.9365 25.3828C50.1383 25.3828 50.3288 25.3698 50.5078 25.3438C50.6868 25.3145 50.8643 25.2754 51.04 25.2266C51.2158 25.1777 51.3916 25.1208 51.5674 25.0557ZM55.6494 28.0977C55.2588 28.0977 54.9056 28.0342 54.5898 27.9072C54.2773 27.777 54.0104 27.5964 53.7891 27.3652C53.571 27.1341 53.4033 26.8623 53.2861 26.5498C53.1689 26.2373 53.1104 25.9004 53.1104 25.5391V25.3438C53.1104 24.9303 53.1706 24.556 53.291 24.2207C53.4115 23.8854 53.5791 23.599 53.7939 23.3613C54.0088 23.1204 54.2627 22.9365 54.5557 22.8096C54.8486 22.6826 55.166 22.6191 55.5078 22.6191C55.8854 22.6191 56.2158 22.6826 56.499 22.8096C56.7822 22.9365 57.0166 23.1156 57.2021 23.3467C57.391 23.5745 57.5309 23.8464 57.6221 24.1621C57.7165 24.4779 57.7637 24.8262 57.7637 25.207V25.71H53.6816V24.8652H56.6016V24.7725C56.5951 24.5609 56.5527 24.3623 56.4746 24.1768C56.3997 23.9912 56.2842 23.8415 56.1279 23.7275C55.9717 23.6136 55.7633 23.5566 55.5029 23.5566C55.3076 23.5566 55.1335 23.599 54.9805 23.6836C54.8307 23.765 54.7054 23.8838 54.6045 24.04C54.5036 24.1963 54.4255 24.3851 54.3701 24.6064C54.318 24.8245 54.292 25.0703 54.292 25.3438V25.5391C54.292 25.7702 54.3229 25.985 54.3848 26.1836C54.4499 26.3789 54.5443 26.5498 54.668 26.6963C54.7917 26.8428 54.9414 26.9583 55.1172 27.043C55.293 27.1243 55.4932 27.165 55.7178 27.165C56.001 27.165 56.2533 27.1081 56.4746 26.9941C56.696 26.8802 56.888 26.7191 57.0508 26.5107L57.6709 27.1113C57.557 27.2773 57.4089 27.4368 57.2266 27.5898C57.0443 27.7396 56.8213 27.8617 56.5576 27.9561C56.2972 28.0505 55.9945 28.0977 55.6494 28.0977ZM60.8398 27.1602C61.0319 27.1602 61.2044 27.1227 61.3574 27.0479C61.5137 26.9697 61.639 26.8623 61.7334 26.7256C61.8311 26.5889 61.8848 26.431 61.8945 26.252H63.0029C62.9964 26.5938 62.8955 26.9046 62.7002 27.1846C62.5049 27.4645 62.2461 27.6875 61.9238 27.8535C61.6016 28.0163 61.2451 28.0977 60.8545 28.0977C60.4508 28.0977 60.0993 28.0293 59.7998 27.8926C59.5003 27.7526 59.2513 27.5605 59.0527 27.3164C58.8542 27.0723 58.7044 26.7907 58.6035 26.4717C58.5059 26.1527 58.457 25.8109 58.457 25.4463V25.2754C58.457 24.9108 58.5059 24.569 58.6035 24.25C58.7044 23.9277 58.8542 23.6445 59.0527 23.4004C59.2513 23.1562 59.5003 22.9658 59.7998 22.8291C60.0993 22.6891 60.4492 22.6191 60.8496 22.6191C61.2728 22.6191 61.6439 22.7038 61.9629 22.873C62.2819 23.0391 62.5326 23.2718 62.7148 23.5713C62.9004 23.8675 62.9964 24.2126 63.0029 24.6064H61.8945C61.8848 24.4111 61.8359 24.2354 61.748 24.0791C61.6634 23.9196 61.543 23.7926 61.3867 23.6982C61.2337 23.6038 61.0498 23.5566 60.835 23.5566C60.5973 23.5566 60.4004 23.6055 60.2441 23.7031C60.0879 23.7975 59.9658 23.9277 59.8779 24.0938C59.79 24.2565 59.7266 24.4404 59.6875 24.6455C59.6517 24.8473 59.6338 25.0573 59.6338 25.2754V25.4463C59.6338 25.6644 59.6517 25.876 59.6875 26.0811C59.7233 26.2861 59.7852 26.4701 59.873 26.6328C59.9642 26.7923 60.0879 26.9209 60.2441 27.0186C60.4004 27.113 60.599 27.1602 60.8398 27.1602ZM65.1758 22.7168V28H63.999V22.7168H65.1758ZM68.623 22.7168L66.2451 25.8955H64.9023L64.7461 24.8311H65.7275L67.1533 22.7168H68.623ZM67.2461 28L65.6543 25.6953L66.582 25.0264L68.7939 28H67.2461ZM72.4121 26.9404V24.4209C72.4121 24.2321 72.3779 24.0693 72.3096 23.9326C72.2412 23.7959 72.137 23.6901 71.9971 23.6152C71.8604 23.5404 71.6878 23.5029 71.4795 23.5029C71.2874 23.5029 71.1214 23.5355 70.9814 23.6006C70.8415 23.6657 70.7324 23.7536 70.6543 23.8643C70.5762 23.9749 70.5371 24.1003 70.5371 24.2402H69.3652C69.3652 24.0319 69.4157 23.8301 69.5166 23.6348C69.6175 23.4395 69.764 23.2653 69.9561 23.1123C70.1481 22.9593 70.3776 22.8389 70.6445 22.751C70.9115 22.6631 71.2109 22.6191 71.543 22.6191C71.9401 22.6191 72.2917 22.6859 72.5977 22.8193C72.9069 22.9528 73.1494 23.1546 73.3252 23.4248C73.5042 23.6917 73.5938 24.027 73.5938 24.4307V26.7793C73.5938 27.0202 73.61 27.2367 73.6426 27.4287C73.6784 27.6175 73.7288 27.7819 73.7939 27.9219V28H72.5879C72.5326 27.873 72.4886 27.7119 72.4561 27.5166C72.4268 27.318 72.4121 27.126 72.4121 26.9404ZM72.583 24.7871L72.5928 25.5146H71.748C71.5299 25.5146 71.3379 25.5358 71.1719 25.5781C71.0059 25.6172 70.8675 25.6758 70.7568 25.7539C70.6462 25.832 70.5632 25.9264 70.5078 26.0371C70.4525 26.1478 70.4248 26.2731 70.4248 26.4131C70.4248 26.5531 70.4574 26.6816 70.5225 26.7988C70.5876 26.9128 70.682 27.0023 70.8057 27.0674C70.9326 27.1325 71.0856 27.165 71.2646 27.165C71.5055 27.165 71.7155 27.1162 71.8945 27.0186C72.0768 26.9176 72.2201 26.7956 72.3242 26.6523C72.4284 26.5059 72.4837 26.3675 72.4902 26.2373L72.8711 26.7598C72.832 26.8932 72.7653 27.0365 72.6709 27.1895C72.5765 27.3424 72.4528 27.4889 72.2998 27.6289C72.1501 27.7656 71.9694 27.8779 71.7578 27.9658C71.5495 28.0537 71.3086 28.0977 71.0352 28.0977C70.6901 28.0977 70.3825 28.0293 70.1123 27.8926C69.8421 27.7526 69.6305 27.5654 69.4775 27.3311C69.3245 27.0934 69.248 26.8249 69.248 26.5254C69.248 26.2454 69.3001 25.998 69.4043 25.7832C69.5117 25.5651 69.668 25.3828 69.873 25.2363C70.0814 25.0898 70.3353 24.9792 70.6348 24.9043C70.9342 24.8262 71.276 24.7871 71.6602 24.7871H72.583ZM75.9375 25.417H77.1582L75.6592 28H74.4434L75.9375 25.417ZM76.7969 22.7168H79.0625V28H77.8906V23.6445H76.7969C76.5755 23.6445 76.3932 23.6836 76.25 23.7617C76.1068 23.8366 76.001 23.9359 75.9326 24.0596C75.8643 24.18 75.8301 24.3037 75.8301 24.4307C75.8301 24.5576 75.861 24.6797 75.9229 24.7969C75.988 24.9141 76.0872 25.0101 76.2207 25.085C76.3574 25.1598 76.5283 25.1973 76.7334 25.1973H78.2861V26.0566H76.7334C76.4079 26.0566 76.1165 26.016 75.8594 25.9346C75.6022 25.8499 75.3841 25.7344 75.2051 25.5879C75.026 25.4382 74.8893 25.264 74.7949 25.0654C74.7005 24.8636 74.6533 24.6439 74.6533 24.4062C74.6533 24.1621 74.7021 23.9375 74.7998 23.7324C74.8975 23.5273 75.0374 23.3483 75.2197 23.1953C75.4053 23.0423 75.6299 22.9251 75.8936 22.8438C76.1605 22.7591 76.4616 22.7168 76.7969 22.7168ZM11.875 30.7168V36H10.6982V30.7168H11.875ZM15.3223 30.7168L12.9443 33.8955H11.6016L11.4453 32.8311H12.4268L13.8525 30.7168H15.3223ZM13.9453 36L12.3535 33.6953L13.2812 33.0264L15.4932 36H13.9453ZM15.7324 33.417V33.3047C15.7324 32.9238 15.7878 32.5706 15.8984 32.2451C16.0091 31.9163 16.1686 31.6315 16.377 31.3906C16.5885 31.1465 16.8457 30.9577 17.1484 30.8242C17.4544 30.6875 17.7995 30.6191 18.1836 30.6191C18.571 30.6191 18.916 30.6875 19.2188 30.8242C19.5247 30.9577 19.7835 31.1465 19.9951 31.3906C20.2067 31.6315 20.3678 31.9163 20.4785 32.2451C20.5892 32.5706 20.6445 32.9238 20.6445 33.3047V33.417C20.6445 33.7979 20.5892 34.151 20.4785 34.4766C20.3678 34.8021 20.2067 35.0869 19.9951 35.3311C19.7835 35.5719 19.5264 35.7607 19.2236 35.8975C18.9209 36.0309 18.5775 36.0977 18.1934 36.0977C17.806 36.0977 17.4593 36.0309 17.1533 35.8975C16.8506 35.7607 16.5934 35.5719 16.3818 35.3311C16.1702 35.0869 16.0091 34.8021 15.8984 34.4766C15.7878 34.151 15.7324 33.7979 15.7324 33.417ZM16.9092 33.3047V33.417C16.9092 33.6546 16.9336 33.8792 16.9824 34.0908C17.0312 34.3024 17.1077 34.488 17.2119 34.6475C17.3161 34.807 17.4495 34.9323 17.6123 35.0234C17.7751 35.1146 17.9688 35.1602 18.1934 35.1602C18.4115 35.1602 18.6003 35.1146 18.7598 35.0234C18.9225 34.9323 19.056 34.807 19.1602 34.6475C19.2643 34.488 19.3408 34.3024 19.3896 34.0908C19.4417 33.8792 19.4678 33.6546 19.4678 33.417V33.3047C19.4678 33.0703 19.4417 32.849 19.3896 32.6406C19.3408 32.429 19.2627 32.2419 19.1553 32.0791C19.0511 31.9163 18.9176 31.7894 18.7549 31.6982C18.5954 31.6038 18.4049 31.5566 18.1836 31.5566C17.9622 31.5566 17.7702 31.6038 17.6074 31.6982C17.4479 31.7894 17.3161 31.9163 17.2119 32.0791C17.1077 32.2419 17.0312 32.429 16.9824 32.6406C16.9336 32.849 16.9092 33.0703 16.9092 33.3047ZM24.7705 34.5742L26.3428 30.7168H27.3633L25.1709 36H24.3701L22.1826 30.7168H23.2031L24.7705 34.5742ZM22.9004 30.7168V36H21.7236V30.7168H22.9004ZM26.6406 36V30.7168H27.8223V36H26.6406ZM32.6855 30.7168V31.6543H30.0781V30.7168H32.6855ZM30.3564 30.7168V36H29.1797V30.7168H30.3564ZM33.6084 30.7168V36H32.4268V30.7168H33.6084ZM37.832 34.9404V32.4209C37.832 32.2321 37.7979 32.0693 37.7295 31.9326C37.6611 31.7959 37.557 31.6901 37.417 31.6152C37.2803 31.5404 37.1077 31.5029 36.8994 31.5029C36.7074 31.5029 36.5413 31.5355 36.4014 31.6006C36.2614 31.6657 36.1523 31.7536 36.0742 31.8643C35.9961 31.9749 35.957 32.1003 35.957 32.2402H34.7852C34.7852 32.0319 34.8356 31.8301 34.9365 31.6348C35.0374 31.4395 35.1839 31.2653 35.376 31.1123C35.568 30.9593 35.7975 30.8389 36.0645 30.751C36.3314 30.6631 36.6309 30.6191 36.9629 30.6191C37.36 30.6191 37.7116 30.6859 38.0176 30.8193C38.3268 30.9528 38.5693 31.1546 38.7451 31.4248C38.9242 31.6917 39.0137 32.027 39.0137 32.4307V34.7793C39.0137 35.0202 39.0299 35.2367 39.0625 35.4287C39.0983 35.6175 39.1488 35.7819 39.2139 35.9219V36H38.0078C37.9525 35.873 37.9085 35.7119 37.876 35.5166C37.8467 35.318 37.832 35.126 37.832 34.9404ZM38.0029 32.7871L38.0127 33.5146H37.168C36.9499 33.5146 36.7578 33.5358 36.5918 33.5781C36.4258 33.6172 36.2874 33.6758 36.1768 33.7539C36.0661 33.832 35.9831 33.9264 35.9277 34.0371C35.8724 34.1478 35.8447 34.2731 35.8447 34.4131C35.8447 34.5531 35.8773 34.6816 35.9424 34.7988C36.0075 34.9128 36.1019 35.0023 36.2256 35.0674C36.3525 35.1325 36.5055 35.165 36.6846 35.165C36.9255 35.165 37.1354 35.1162 37.3145 35.0186C37.4967 34.9176 37.64 34.7956 37.7441 34.6523C37.8483 34.5059 37.9036 34.3675 37.9102 34.2373L38.291 34.7598C38.252 34.8932 38.1852 35.0365 38.0908 35.1895C37.9964 35.3424 37.8727 35.4889 37.7197 35.6289C37.57 35.7656 37.3893 35.8779 37.1777 35.9658C36.9694 36.0537 36.7285 36.0977 36.4551 36.0977C36.11 36.0977 35.8024 36.0293 35.5322 35.8926C35.262 35.7526 35.0505 35.5654 34.8975 35.3311C34.7445 35.0934 34.668 34.8249 34.668 34.5254C34.668 34.2454 34.7201 33.998 34.8242 33.7832C34.9316 33.5651 35.0879 33.3828 35.293 33.2363C35.5013 33.0898 35.7552 32.9792 36.0547 32.9043C36.3542 32.8262 36.696 32.7871 37.0801 32.7871H38.0029ZM43.8525 32.9238V33.8516H41.1182V32.9238H43.8525ZM41.46 30.7168V36H40.2832V30.7168H41.46ZM44.7021 30.7168V36H43.5254V30.7168H44.7021ZM47.1729 34.2812L49.248 30.7168H50.4248V36H49.248V32.4307L47.1729 36H45.9961V30.7168H47.1729V34.2812ZM52.7832 33.417H54.0039L52.5049 36H51.2891L52.7832 33.417ZM53.6426 30.7168H55.9082V36H54.7363V31.6445H53.6426C53.4212 31.6445 53.2389 31.6836 53.0957 31.7617C52.9525 31.8366 52.8467 31.9359 52.7783 32.0596C52.71 32.18 52.6758 32.3037 52.6758 32.4307C52.6758 32.5576 52.7067 32.6797 52.7686 32.7969C52.8337 32.9141 52.9329 33.0101 53.0664 33.085C53.2031 33.1598 53.374 33.1973 53.5791 33.1973H55.1318V34.0566H53.5791C53.2536 34.0566 52.9622 34.016 52.7051 33.9346C52.4479 33.8499 52.2298 33.7344 52.0508 33.5879C51.8717 33.4382 51.735 33.264 51.6406 33.0654C51.5462 32.8636 51.499 32.6439 51.499 32.4062C51.499 32.1621 51.5479 31.9375 51.6455 31.7324C51.7432 31.5273 51.8831 31.3483 52.0654 31.1953C52.251 31.0423 52.4756 30.9251 52.7393 30.8438C53.0062 30.7591 53.3073 30.7168 53.6426 30.7168Z" fill="white"/>
</svg>
