<svg width="195" height="68" viewBox="0 0 195 68" fill="none" xmlns="http://www.w3.org/2000/svg">
<path d="M21.1328 13.6484V22.8789C20.7897 23.3327 20.2529 23.8307 19.5225 24.373C18.8031 24.9043 17.8457 25.3636 16.6504 25.751C15.4551 26.1383 13.9665 26.332 12.1846 26.332C10.6683 26.332 9.2793 26.0775 8.01758 25.5684C6.75586 25.0482 5.66569 24.29 4.74707 23.2939C3.83952 22.2979 3.13672 21.0859 2.63867 19.6582C2.14062 18.2194 1.8916 16.5814 1.8916 14.7441V13.0674C1.8916 11.2412 2.11849 9.61426 2.57227 8.18652C3.03711 6.74772 3.70117 5.53027 4.56445 4.53418C5.42773 3.53809 6.4681 2.78548 7.68555 2.27637C8.91406 1.75618 10.3031 1.49609 11.8525 1.49609C13.8337 1.49609 15.4717 1.82812 16.7666 2.49219C18.0726 3.14518 19.0798 4.05273 19.7881 5.21484C20.4964 6.37695 20.9447 7.70508 21.1328 9.19922H17.0488C16.916 8.35807 16.6559 7.60547 16.2686 6.94141C15.8923 6.27734 15.3499 5.75716 14.6416 5.38086C13.9443 4.99349 13.0368 4.7998 11.9189 4.7998C10.9561 4.7998 10.1094 4.98242 9.37891 5.34766C8.64844 5.71289 8.03971 6.24967 7.55273 6.95801C7.07682 7.66634 6.71712 8.52962 6.47363 9.54785C6.23014 10.5661 6.1084 11.7282 6.1084 13.0342V14.7441C6.1084 16.0723 6.24674 17.251 6.52344 18.2803C6.8112 19.3096 7.2207 20.1784 7.75195 20.8867C8.29427 21.5951 8.9528 22.1318 9.72754 22.4971C10.5023 22.8512 11.3766 23.0283 12.3506 23.0283C13.3024 23.0283 14.0827 22.9508 14.6914 22.7959C15.3001 22.6299 15.7816 22.4362 16.1357 22.2148C16.501 21.9824 16.7832 21.7611 16.9824 21.5508V16.7529H11.9521V13.6484H21.1328ZM38.4648 19.7744C38.4648 19.2764 38.3874 18.8337 38.2324 18.4463C38.0885 18.0589 37.8285 17.7048 37.4521 17.3838C37.0758 17.0628 36.5446 16.7529 35.8584 16.4541C35.1833 16.1442 34.32 15.8288 33.2686 15.5078C32.1175 15.1536 31.055 14.7607 30.0811 14.3291C29.1182 13.8864 28.277 13.3773 27.5576 12.8018C26.8382 12.2152 26.2793 11.5456 25.8809 10.793C25.4824 10.0293 25.2832 9.14941 25.2832 8.15332C25.2832 7.16829 25.488 6.27181 25.8975 5.46387C26.318 4.65592 26.9102 3.95866 27.6738 3.37207C28.4486 2.77441 29.3617 2.3151 30.4131 1.99414C31.4645 1.66211 32.6266 1.49609 33.8994 1.49609C35.6924 1.49609 37.2363 1.82812 38.5312 2.49219C39.8372 3.15625 40.8389 4.0472 41.5361 5.16504C42.2445 6.28288 42.5986 7.51693 42.5986 8.86719H38.4648C38.4648 8.07031 38.2933 7.36751 37.9502 6.75879C37.6182 6.139 37.109 5.65202 36.4229 5.29785C35.7477 4.94368 34.89 4.7666 33.8496 4.7666C32.8646 4.7666 32.0456 4.91602 31.3926 5.21484C30.7396 5.51367 30.2526 5.91764 29.9316 6.42676C29.6107 6.93587 29.4502 7.51139 29.4502 8.15332C29.4502 8.6071 29.5553 9.02214 29.7656 9.39844C29.9759 9.76367 30.2969 10.1068 30.7285 10.4277C31.1602 10.7376 31.7025 11.0309 32.3555 11.3076C33.0085 11.5843 33.7777 11.8499 34.6631 12.1045C36.0023 12.5029 37.1699 12.9456 38.166 13.4326C39.1621 13.9085 39.9922 14.4508 40.6562 15.0596C41.3203 15.6683 41.8184 16.36 42.1504 17.1348C42.4824 17.8984 42.6484 18.7673 42.6484 19.7412C42.6484 20.7594 42.4437 21.6781 42.0342 22.4971C41.6247 23.305 41.0381 23.9967 40.2744 24.5723C39.5218 25.1367 38.6143 25.5739 37.5518 25.8838C36.5003 26.1826 35.3271 26.332 34.0322 26.332C32.8701 26.332 31.7246 26.1771 30.5957 25.8672C29.4779 25.5573 28.4596 25.0869 27.541 24.4561C26.6224 23.8141 25.8919 23.0173 25.3496 22.0654C24.8073 21.1025 24.5361 19.9792 24.5361 18.6953H28.7031C28.7031 19.4811 28.8359 20.1507 29.1016 20.7041C29.3783 21.2575 29.7601 21.7113 30.2471 22.0654C30.734 22.4085 31.2985 22.6631 31.9404 22.8291C32.5934 22.9951 33.2907 23.0781 34.0322 23.0781C35.0062 23.0781 35.8197 22.9398 36.4727 22.6631C37.1367 22.3864 37.6348 21.999 37.9668 21.501C38.2988 21.0029 38.4648 20.4274 38.4648 19.7744ZM64.8945 13.6484V22.8789C64.5514 23.3327 64.0146 23.8307 63.2842 24.373C62.5648 24.9043 61.6074 25.3636 60.4121 25.751C59.2168 26.1383 57.7282 26.332 55.9463 26.332C54.43 26.332 53.041 26.0775 51.7793 25.5684C50.5176 25.0482 49.4274 24.29 48.5088 23.2939C47.6012 22.2979 46.8984 21.0859 46.4004 19.6582C45.9023 18.2194 45.6533 16.5814 45.6533 14.7441V13.0674C45.6533 11.2412 45.8802 9.61426 46.334 8.18652C46.7988 6.74772 47.4629 5.53027 48.3262 4.53418C49.1895 3.53809 50.2298 2.78548 51.4473 2.27637C52.6758 1.75618 54.0648 1.49609 55.6143 1.49609C57.5954 1.49609 59.2334 1.82812 60.5283 2.49219C61.8343 3.14518 62.8415 4.05273 63.5498 5.21484C64.2581 6.37695 64.7064 7.70508 64.8945 9.19922H60.8105C60.6777 8.35807 60.4176 7.60547 60.0303 6.94141C59.654 6.27734 59.1117 5.75716 58.4033 5.38086C57.7061 4.99349 56.7985 4.7998 55.6807 4.7998C54.7178 4.7998 53.8711 4.98242 53.1406 5.34766C52.4102 5.71289 51.8014 6.24967 51.3145 6.95801C50.8385 7.66634 50.4788 8.52962 50.2354 9.54785C49.9919 10.5661 49.8701 11.7282 49.8701 13.0342V14.7441C49.8701 16.0723 50.0085 17.251 50.2852 18.2803C50.5729 19.3096 50.9824 20.1784 51.5137 20.8867C52.056 21.5951 52.7145 22.1318 53.4893 22.4971C54.264 22.8512 55.1383 23.0283 56.1123 23.0283C57.0641 23.0283 57.8444 22.9508 58.4531 22.7959C59.0618 22.6299 59.5433 22.4362 59.8975 22.2148C60.2627 21.9824 60.5449 21.7611 60.7441 21.5508V16.7529H55.7139V13.6484H64.8945Z" fill="#EF4242"/>
<path d="M85.8125 8.03711V10.959H75.6855V8.03711H85.8125ZM78.6074 3.6377H82.6084V21.0361C82.6084 21.5895 82.6859 22.0156 82.8408 22.3145C83.0068 22.6022 83.2337 22.7959 83.5215 22.8955C83.8092 22.9951 84.1468 23.0449 84.5342 23.0449C84.8109 23.0449 85.0765 23.0283 85.3311 22.9951C85.5856 22.9619 85.7904 22.9287 85.9453 22.8955L85.9619 25.9502C85.6299 26.0498 85.2425 26.1383 84.7998 26.2158C84.3682 26.2933 83.8701 26.332 83.3057 26.332C82.387 26.332 81.5736 26.1715 80.8652 25.8506C80.1569 25.5186 79.6035 24.9818 79.2051 24.2402C78.8066 23.4987 78.6074 22.5137 78.6074 21.2852V3.6377ZM92.918 11.457V26H88.917V8.03711H92.7354L92.918 11.457ZM98.4131 7.9209L98.3799 11.6396C98.1364 11.5954 97.8708 11.5622 97.583 11.54C97.3063 11.5179 97.0296 11.5068 96.7529 11.5068C96.0667 11.5068 95.4635 11.6064 94.9434 11.8057C94.4232 11.9938 93.986 12.2705 93.6318 12.6357C93.2887 12.9899 93.0231 13.4215 92.835 13.9307C92.6468 14.4398 92.5361 15.0098 92.5029 15.6406L91.5898 15.707C91.5898 14.5781 91.7005 13.5322 91.9219 12.5693C92.1432 11.6064 92.4753 10.7598 92.918 10.0293C93.3717 9.29883 93.9362 8.72884 94.6113 8.31934C95.2975 7.90983 96.0889 7.70508 96.9854 7.70508C97.2288 7.70508 97.4889 7.72721 97.7656 7.77148C98.0534 7.81576 98.2692 7.86556 98.4131 7.9209ZM110.449 22.3975V13.8311C110.449 13.1891 110.333 12.6357 110.101 12.1709C109.868 11.7061 109.514 11.3464 109.038 11.0918C108.573 10.8372 107.987 10.71 107.278 10.71C106.625 10.71 106.061 10.8206 105.585 11.042C105.109 11.2633 104.738 11.5622 104.473 11.9385C104.207 12.3148 104.074 12.7409 104.074 13.2168H100.09C100.09 12.5085 100.261 11.8223 100.604 11.1582C100.948 10.4941 101.446 9.90202 102.099 9.38184C102.752 8.86165 103.532 8.45215 104.439 8.15332C105.347 7.85449 106.365 7.70508 107.494 7.70508C108.844 7.70508 110.04 7.93197 111.08 8.38574C112.132 8.83952 112.956 9.52572 113.554 10.4443C114.162 11.3519 114.467 12.4919 114.467 13.8643V21.8496C114.467 22.6686 114.522 23.4046 114.633 24.0576C114.755 24.6995 114.926 25.2585 115.147 25.7344V26H111.047C110.859 25.5684 110.709 25.0205 110.599 24.3564C110.499 23.6813 110.449 23.0283 110.449 22.3975ZM111.03 15.0762L111.063 17.5498H108.191C107.45 17.5498 106.797 17.6217 106.232 17.7656C105.668 17.8984 105.198 18.0977 104.821 18.3633C104.445 18.6289 104.163 18.9499 103.975 19.3262C103.786 19.7025 103.692 20.1286 103.692 20.6045C103.692 21.0804 103.803 21.5176 104.024 21.916C104.246 22.3034 104.567 22.6077 104.987 22.8291C105.419 23.0505 105.939 23.1611 106.548 23.1611C107.367 23.1611 108.081 22.9951 108.689 22.6631C109.309 22.32 109.796 21.9049 110.15 21.418C110.505 20.9199 110.693 20.4495 110.715 20.0068L112.01 21.7832C111.877 22.237 111.65 22.724 111.329 23.2441C111.008 23.7643 110.588 24.2624 110.067 24.7383C109.558 25.2031 108.944 25.585 108.225 25.8838C107.516 26.1826 106.697 26.332 105.768 26.332C104.594 26.332 103.549 26.0996 102.63 25.6348C101.711 25.1589 100.992 24.5225 100.472 23.7256C99.9515 22.9176 99.6914 22.0046 99.6914 20.9863C99.6914 20.0345 99.8685 19.1934 100.223 18.4629C100.588 17.7214 101.119 17.1016 101.816 16.6035C102.525 16.1055 103.388 15.7292 104.406 15.4746C105.424 15.209 106.587 15.0762 107.893 15.0762H111.03ZM122.618 11.8721V26H118.617V8.03711H122.386L122.618 11.8721ZM121.904 16.3545L120.609 16.3379C120.62 15.0651 120.798 13.8975 121.141 12.835C121.495 11.7725 121.982 10.8594 122.602 10.0957C123.232 9.33203 123.985 8.74544 124.859 8.33594C125.734 7.91536 126.708 7.70508 127.781 7.70508C128.645 7.70508 129.425 7.82682 130.122 8.07031C130.83 8.30273 131.434 8.68457 131.932 9.21582C132.441 9.74707 132.828 10.4388 133.094 11.291C133.359 12.1322 133.492 13.167 133.492 14.3955V26H129.475V14.3789C129.475 13.5156 129.347 12.835 129.093 12.3369C128.849 11.8278 128.49 11.4681 128.014 11.2578C127.549 11.0365 126.968 10.9258 126.271 10.9258C125.584 10.9258 124.97 11.0697 124.428 11.3574C123.885 11.6452 123.426 12.0381 123.05 12.5361C122.685 13.0342 122.402 13.6097 122.203 14.2627C122.004 14.9157 121.904 15.613 121.904 16.3545ZM147.653 21.1357C147.653 20.7373 147.554 20.3776 147.354 20.0566C147.155 19.7246 146.773 19.4258 146.209 19.1602C145.656 18.8945 144.837 18.651 143.752 18.4297C142.8 18.2194 141.926 17.9704 141.129 17.6826C140.343 17.3838 139.668 17.0241 139.104 16.6035C138.539 16.1829 138.102 15.6849 137.792 15.1094C137.482 14.5339 137.327 13.8698 137.327 13.1172C137.327 12.3867 137.488 11.695 137.809 11.042C138.13 10.389 138.589 9.81348 139.187 9.31543C139.784 8.81738 140.509 8.42448 141.361 8.13672C142.225 7.84896 143.188 7.70508 144.25 7.70508C145.755 7.70508 147.045 7.95964 148.118 8.46875C149.203 8.9668 150.033 9.64746 150.608 10.5107C151.184 11.363 151.472 12.3258 151.472 13.3994H147.471C147.471 12.9235 147.349 12.4808 147.105 12.0713C146.873 11.6507 146.519 11.3132 146.043 11.0586C145.567 10.793 144.969 10.6602 144.25 10.6602C143.564 10.6602 142.994 10.7708 142.54 10.9922C142.097 11.2025 141.765 11.4792 141.544 11.8223C141.334 12.1654 141.229 12.5417 141.229 12.9512C141.229 13.25 141.284 13.5212 141.395 13.7646C141.516 13.9971 141.715 14.2129 141.992 14.4121C142.269 14.6003 142.645 14.7773 143.121 14.9434C143.608 15.1094 144.217 15.2699 144.947 15.4248C146.32 15.7126 147.498 16.0833 148.483 16.5371C149.479 16.9798 150.243 17.5553 150.774 18.2637C151.306 18.9609 151.571 19.8464 151.571 20.9199C151.571 21.7168 151.4 22.4473 151.057 23.1113C150.725 23.7643 150.238 24.3343 149.596 24.8213C148.954 25.2972 148.185 25.668 147.288 25.9336C146.403 26.1992 145.407 26.332 144.3 26.332C142.673 26.332 141.295 26.0443 140.166 25.4688C139.037 24.8822 138.179 24.1351 137.593 23.2275C137.017 22.3089 136.729 21.3571 136.729 20.3721H140.598C140.642 21.1136 140.847 21.7057 141.212 22.1484C141.588 22.5801 142.053 22.8955 142.606 23.0947C143.171 23.2829 143.752 23.377 144.35 23.377C145.069 23.377 145.672 23.2829 146.159 23.0947C146.646 22.8955 147.017 22.6299 147.271 22.2979C147.526 21.9548 147.653 21.5674 147.653 21.1357ZM160.486 26H156.485V6.31055C156.485 4.97135 156.734 3.84798 157.232 2.94043C157.742 2.02181 158.466 1.33008 159.407 0.865234C160.348 0.389323 161.46 0.151367 162.744 0.151367C163.143 0.151367 163.535 0.179036 163.923 0.234375C164.31 0.278646 164.687 0.350586 165.052 0.450195L164.952 3.53809C164.731 3.48275 164.487 3.44401 164.222 3.42188C163.967 3.39974 163.69 3.38867 163.392 3.38867C162.783 3.38867 162.257 3.50488 161.814 3.7373C161.383 3.95866 161.051 4.28516 160.818 4.7168C160.597 5.14844 160.486 5.67969 160.486 6.31055V26ZM164.188 8.03711V10.959H153.729V8.03711H164.188ZM174.614 26.332C173.286 26.332 172.085 26.1162 171.012 25.6846C169.949 25.2419 169.042 24.6276 168.289 23.8418C167.548 23.056 166.978 22.1318 166.579 21.0693C166.181 20.0068 165.981 18.8613 165.981 17.6328V16.9688C165.981 15.5632 166.186 14.2904 166.596 13.1504C167.005 12.0104 167.575 11.0365 168.306 10.2285C169.036 9.40951 169.899 8.78418 170.896 8.35254C171.892 7.9209 172.971 7.70508 174.133 7.70508C175.417 7.70508 176.54 7.9209 177.503 8.35254C178.466 8.78418 179.263 9.3929 179.894 10.1787C180.535 10.9535 181.011 11.8776 181.321 12.9512C181.642 14.0247 181.803 15.209 181.803 16.5039V18.2139H167.924V15.3418H177.852V15.0264C177.829 14.307 177.686 13.6318 177.42 13.001C177.165 12.3701 176.772 11.861 176.241 11.4736C175.71 11.0863 175.002 10.8926 174.116 10.8926C173.452 10.8926 172.86 11.0365 172.34 11.3242C171.831 11.6009 171.405 12.0049 171.062 12.5361C170.718 13.0674 170.453 13.7093 170.265 14.4619C170.088 15.2035 169.999 16.0391 169.999 16.9688V17.6328C169.999 18.4186 170.104 19.1491 170.314 19.8242C170.536 20.4883 170.857 21.0693 171.277 21.5674C171.698 22.0654 172.207 22.4583 172.805 22.7461C173.402 23.0228 174.083 23.1611 174.847 23.1611C175.81 23.1611 176.667 22.9674 177.42 22.5801C178.173 22.1927 178.826 21.6449 179.379 20.9365L181.487 22.9785C181.1 23.543 180.596 24.0853 179.977 24.6055C179.357 25.1146 178.599 25.5296 177.702 25.8506C176.817 26.1715 175.787 26.332 174.614 26.332ZM188.941 11.457V26H184.94V8.03711H188.759L188.941 11.457ZM194.437 7.9209L194.403 11.6396C194.16 11.5954 193.894 11.5622 193.606 11.54C193.33 11.5179 193.053 11.5068 192.776 11.5068C192.09 11.5068 191.487 11.6064 190.967 11.8057C190.447 11.9938 190.009 12.2705 189.655 12.6357C189.312 12.9899 189.047 13.4215 188.858 13.9307C188.67 14.4398 188.56 15.0098 188.526 15.6406L187.613 15.707C187.613 14.5781 187.724 13.5322 187.945 12.5693C188.167 11.6064 188.499 10.7598 188.941 10.0293C189.395 9.29883 189.96 8.72884 190.635 8.31934C191.321 7.90983 192.112 7.70508 193.009 7.70508C193.252 7.70508 193.512 7.72721 193.789 7.77148C194.077 7.81576 194.293 7.86556 194.437 7.9209Z" fill="white"/>
<path d="M42.6904 42.4902V44.1777H38.0498V42.4902H42.6904ZM44.3516 42.4902V52H42.2334V42.4902H44.3516ZM37.5312 42.4902H39.623L39.3682 47.1924C39.333 47.8896 39.2627 48.5049 39.1572 49.0381C39.0576 49.5654 38.9229 50.0195 38.7529 50.4004C38.583 50.7754 38.375 51.0801 38.1289 51.3145C37.8828 51.5488 37.5957 51.7217 37.2676 51.833C36.9395 51.9443 36.5703 52 36.1602 52H35.501L35.4922 50.2598L35.8262 50.2334C36.043 50.2158 36.2305 50.1602 36.3887 50.0664C36.5469 49.9668 36.6816 49.8262 36.793 49.6445C36.9102 49.4629 37.0039 49.2285 37.0742 48.9414C37.1504 48.6543 37.209 48.3145 37.25 47.9219C37.2969 47.5293 37.332 47.0723 37.3555 46.5508L37.5312 42.4902ZM46.1973 47.3506V47.1484C46.1973 46.4629 46.2969 45.8271 46.4961 45.2412C46.6953 44.6494 46.9824 44.1367 47.3574 43.7031C47.7383 43.2637 48.2012 42.9238 48.7461 42.6836C49.2969 42.4375 49.918 42.3145 50.6094 42.3145C51.3066 42.3145 51.9277 42.4375 52.4727 42.6836C53.0234 42.9238 53.4893 43.2637 53.8701 43.7031C54.251 44.1367 54.541 44.6494 54.7402 45.2412C54.9395 45.8271 55.0391 46.4629 55.0391 47.1484V47.3506C55.0391 48.0361 54.9395 48.6719 54.7402 49.2578C54.541 49.8438 54.251 50.3564 53.8701 50.7959C53.4893 51.2295 53.0264 51.5693 52.4814 51.8154C51.9365 52.0557 51.3184 52.1758 50.627 52.1758C49.9297 52.1758 49.3057 52.0557 48.7549 51.8154C48.21 51.5693 47.7471 51.2295 47.3662 50.7959C46.9854 50.3564 46.6953 49.8438 46.4961 49.2578C46.2969 48.6719 46.1973 48.0361 46.1973 47.3506ZM48.3154 47.1484V47.3506C48.3154 47.7783 48.3594 48.1826 48.4473 48.5635C48.5352 48.9443 48.6729 49.2783 48.8604 49.5654C49.0479 49.8525 49.2881 50.0781 49.5811 50.2422C49.874 50.4062 50.2227 50.4883 50.627 50.4883C51.0195 50.4883 51.3594 50.4062 51.6465 50.2422C51.9395 50.0781 52.1797 49.8525 52.3672 49.5654C52.5547 49.2783 52.6924 48.9443 52.7803 48.5635C52.874 48.1826 52.9209 47.7783 52.9209 47.3506V47.1484C52.9209 46.7266 52.874 46.3281 52.7803 45.9531C52.6924 45.5723 52.5518 45.2354 52.3584 44.9424C52.1709 44.6494 51.9307 44.4209 51.6377 44.2568C51.3506 44.0869 51.0078 44.002 50.6094 44.002C50.2109 44.002 49.8652 44.0869 49.5723 44.2568C49.2852 44.4209 49.0479 44.6494 48.8604 44.9424C48.6729 45.2354 48.5352 45.5723 48.4473 45.9531C48.3594 46.3281 48.3154 46.7266 48.3154 47.1484ZM63.1426 42.4902V44.1777H58.9941V52H56.876V42.4902H63.1426ZM66.5615 48.9062L70.2969 42.4902H72.415V52H70.2969V45.5752L66.5615 52H64.4434V42.4902H66.5615V48.9062ZM78.541 50.4883C78.8867 50.4883 79.1973 50.4209 79.4727 50.2861C79.7539 50.1455 79.9795 49.9521 80.1494 49.7061C80.3252 49.46 80.4219 49.1758 80.4395 48.8535H82.4346C82.4229 49.4688 82.2412 50.0283 81.8896 50.5322C81.5381 51.0361 81.0723 51.4375 80.4922 51.7363C79.9121 52.0293 79.2705 52.1758 78.5674 52.1758C77.8408 52.1758 77.208 52.0527 76.6689 51.8066C76.1299 51.5547 75.6816 51.209 75.3242 50.7695C74.9668 50.3301 74.6973 49.8232 74.5156 49.249C74.3398 48.6748 74.252 48.0596 74.252 47.4033V47.0957C74.252 46.4395 74.3398 45.8242 74.5156 45.25C74.6973 44.6699 74.9668 44.1602 75.3242 43.7207C75.6816 43.2812 76.1299 42.9385 76.6689 42.6924C77.208 42.4404 77.8379 42.3145 78.5586 42.3145C79.3203 42.3145 79.9883 42.4668 80.5625 42.7715C81.1367 43.0703 81.5879 43.4893 81.916 44.0283C82.25 44.5615 82.4229 45.1826 82.4346 45.8916H80.4395C80.4219 45.54 80.334 45.2236 80.1758 44.9424C80.0234 44.6553 79.8066 44.4268 79.5254 44.2568C79.25 44.0869 78.9189 44.002 78.5322 44.002C78.1045 44.002 77.75 44.0898 77.4688 44.2656C77.1875 44.4355 76.9678 44.6699 76.8096 44.9688C76.6514 45.2617 76.5371 45.5928 76.4668 45.9619C76.4023 46.3252 76.3701 46.7031 76.3701 47.0957V47.4033C76.3701 47.7959 76.4023 48.1768 76.4668 48.5459C76.5312 48.915 76.6426 49.2461 76.8008 49.5391C76.9648 49.8262 77.1875 50.0576 77.4688 50.2334C77.75 50.4033 78.1074 50.4883 78.541 50.4883ZM88.4727 42.4902V52H86.3457V42.4902H88.4727ZM91.5928 42.4902V44.1602H83.2783V42.4902H91.5928ZM95.1963 48.9062L98.9316 42.4902H101.05V52H98.9316V45.5752L95.1963 52H93.0781V42.4902H95.1963V48.9062ZM110.929 42.4902V52H108.811V42.4902H110.929ZM110.032 46.7002V48.3789C109.774 48.4902 109.484 48.5928 109.162 48.6865C108.846 48.7744 108.512 48.8477 108.16 48.9062C107.809 48.959 107.454 48.9854 107.097 48.9854C106.259 48.9854 105.535 48.8564 104.926 48.5986C104.322 48.3408 103.856 47.9453 103.528 47.4121C103.206 46.873 103.045 46.1904 103.045 45.3643V42.4814H105.154V45.3643C105.154 45.8389 105.225 46.2168 105.365 46.498C105.512 46.7793 105.729 46.9814 106.016 47.1045C106.303 47.2275 106.663 47.2891 107.097 47.2891C107.46 47.2891 107.803 47.2656 108.125 47.2188C108.447 47.166 108.767 47.0957 109.083 47.0078C109.399 46.9199 109.716 46.8174 110.032 46.7002ZM117.38 52.1758C116.677 52.1758 116.041 52.0615 115.473 51.833C114.91 51.5986 114.43 51.2734 114.031 50.8574C113.639 50.4414 113.337 49.9521 113.126 49.3896C112.915 48.8271 112.81 48.2207 112.81 47.5703V47.2188C112.81 46.4746 112.918 45.8008 113.135 45.1973C113.352 44.5938 113.653 44.0781 114.04 43.6504C114.427 43.2168 114.884 42.8857 115.411 42.6572C115.938 42.4287 116.51 42.3145 117.125 42.3145C117.805 42.3145 118.399 42.4287 118.909 42.6572C119.419 42.8857 119.841 43.208 120.175 43.624C120.515 44.0342 120.767 44.5234 120.931 45.0918C121.101 45.6602 121.186 46.2871 121.186 46.9727V47.8779H113.838V46.3574H119.094V46.1904C119.082 45.8096 119.006 45.4521 118.865 45.1182C118.73 44.7842 118.522 44.5146 118.241 44.3096C117.96 44.1045 117.585 44.002 117.116 44.002C116.765 44.002 116.451 44.0781 116.176 44.2305C115.906 44.377 115.681 44.5908 115.499 44.8721C115.317 45.1533 115.177 45.4932 115.077 45.8916C114.983 46.2842 114.937 46.7266 114.937 47.2188V47.5703C114.937 47.9863 114.992 48.373 115.104 48.7305C115.221 49.082 115.391 49.3896 115.613 49.6533C115.836 49.917 116.105 50.125 116.422 50.2773C116.738 50.4238 117.099 50.4971 117.503 50.4971C118.013 50.4971 118.467 50.3945 118.865 50.1895C119.264 49.9844 119.609 49.6943 119.902 49.3193L121.019 50.4004C120.813 50.6992 120.547 50.9863 120.219 51.2617C119.891 51.5312 119.489 51.751 119.015 51.9209C118.546 52.0908 118.001 52.1758 117.38 52.1758ZM126.723 50.4883C127.068 50.4883 127.379 50.4209 127.654 50.2861C127.936 50.1455 128.161 49.9521 128.331 49.7061C128.507 49.46 128.604 49.1758 128.621 48.8535H130.616C130.604 49.4688 130.423 50.0283 130.071 50.5322C129.72 51.0361 129.254 51.4375 128.674 51.7363C128.094 52.0293 127.452 52.1758 126.749 52.1758C126.022 52.1758 125.39 52.0527 124.851 51.8066C124.312 51.5547 123.863 51.209 123.506 50.7695C123.148 50.3301 122.879 49.8232 122.697 49.249C122.521 48.6748 122.434 48.0596 122.434 47.4033V47.0957C122.434 46.4395 122.521 45.8242 122.697 45.25C122.879 44.6699 123.148 44.1602 123.506 43.7207C123.863 43.2812 124.312 42.9385 124.851 42.6924C125.39 42.4404 126.02 42.3145 126.74 42.3145C127.502 42.3145 128.17 42.4668 128.744 42.7715C129.318 43.0703 129.77 43.4893 130.098 44.0283C130.432 44.5615 130.604 45.1826 130.616 45.8916H128.621C128.604 45.54 128.516 45.2236 128.357 44.9424C128.205 44.6553 127.988 44.4268 127.707 44.2568C127.432 44.0869 127.101 44.002 126.714 44.002C126.286 44.002 125.932 44.0898 125.65 44.2656C125.369 44.4355 125.149 44.6699 124.991 44.9688C124.833 45.2617 124.719 45.5928 124.648 45.9619C124.584 46.3252 124.552 46.7031 124.552 47.0957V47.4033C124.552 47.7959 124.584 48.1768 124.648 48.5459C124.713 48.915 124.824 49.2461 124.982 49.5391C125.146 49.8262 125.369 50.0576 125.65 50.2334C125.932 50.4033 126.289 50.4883 126.723 50.4883ZM134.527 42.4902V52H132.409V42.4902H134.527ZM140.732 42.4902L136.452 48.2119H134.035L133.754 46.2959H135.521L138.087 42.4902H140.732ZM138.254 52L135.389 47.8516L137.059 46.6475L141.04 52H138.254ZM147.553 50.0928V45.5576C147.553 45.2178 147.491 44.9248 147.368 44.6787C147.245 44.4326 147.058 44.2422 146.806 44.1074C146.56 43.9727 146.249 43.9053 145.874 43.9053C145.528 43.9053 145.229 43.9639 144.978 44.0811C144.726 44.1982 144.529 44.3564 144.389 44.5557C144.248 44.7549 144.178 44.9805 144.178 45.2324H142.068C142.068 44.8574 142.159 44.4941 142.341 44.1426C142.522 43.791 142.786 43.4775 143.132 43.2021C143.478 42.9268 143.891 42.71 144.371 42.5518C144.852 42.3936 145.391 42.3145 145.988 42.3145C146.703 42.3145 147.336 42.4346 147.887 42.6748C148.443 42.915 148.88 43.2783 149.196 43.7646C149.519 44.2451 149.68 44.8486 149.68 45.5752V49.8027C149.68 50.2363 149.709 50.626 149.768 50.9717C149.832 51.3115 149.923 51.6074 150.04 51.8594V52H147.869C147.77 51.7715 147.69 51.4814 147.632 51.1299C147.579 50.7725 147.553 50.4268 147.553 50.0928ZM147.86 46.2168L147.878 47.5264H146.357C145.965 47.5264 145.619 47.5645 145.32 47.6406C145.021 47.7109 144.772 47.8164 144.573 47.957C144.374 48.0977 144.225 48.2676 144.125 48.4668C144.025 48.666 143.976 48.8916 143.976 49.1436C143.976 49.3955 144.034 49.627 144.151 49.8379C144.269 50.043 144.438 50.2041 144.661 50.3213C144.89 50.4385 145.165 50.4971 145.487 50.4971C145.921 50.4971 146.299 50.4092 146.621 50.2334C146.949 50.0518 147.207 49.832 147.395 49.5742C147.582 49.3105 147.682 49.0615 147.693 48.8271L148.379 49.7676C148.309 50.0078 148.188 50.2656 148.019 50.541C147.849 50.8164 147.626 51.0801 147.351 51.332C147.081 51.5781 146.756 51.7803 146.375 51.9385C146 52.0967 145.566 52.1758 145.074 52.1758C144.453 52.1758 143.899 52.0527 143.413 51.8066C142.927 51.5547 142.546 51.2178 142.271 50.7959C141.995 50.3682 141.857 49.8848 141.857 49.3457C141.857 48.8418 141.951 48.3965 142.139 48.0098C142.332 47.6172 142.613 47.2891 142.982 47.0254C143.357 46.7617 143.814 46.5625 144.354 46.4277C144.893 46.2871 145.508 46.2168 146.199 46.2168H147.86ZM153.898 47.3506H156.096L153.397 52H151.209L153.898 47.3506ZM155.445 42.4902H159.523V52H157.414V44.1602H155.445C155.047 44.1602 154.719 44.2305 154.461 44.3711C154.203 44.5059 154.013 44.6846 153.89 44.9072C153.767 45.124 153.705 45.3467 153.705 45.5752C153.705 45.8037 153.761 46.0234 153.872 46.2344C153.989 46.4453 154.168 46.6182 154.408 46.7529C154.654 46.8877 154.962 46.9551 155.331 46.9551H158.126V48.502H155.331C154.745 48.502 154.221 48.4287 153.758 48.2822C153.295 48.1299 152.902 47.9219 152.58 47.6582C152.258 47.3887 152.012 47.0752 151.842 46.7178C151.672 46.3545 151.587 45.959 151.587 45.5312C151.587 45.0918 151.675 44.6875 151.851 44.3184C152.026 43.9492 152.278 43.627 152.606 43.3516C152.94 43.0762 153.345 42.8652 153.819 42.7188C154.3 42.5664 154.842 42.4902 155.445 42.4902ZM59.4248 57.4902V67H57.3066V57.4902H59.4248ZM65.6299 57.4902L61.3496 63.2119H58.9326L58.6514 61.2959H60.418L62.9844 57.4902H65.6299ZM63.1514 67L60.2861 62.8516L61.9561 61.6475L65.9375 67H63.1514ZM66.3682 62.3506V62.1484C66.3682 61.4629 66.4678 60.8271 66.667 60.2412C66.8662 59.6494 67.1533 59.1367 67.5283 58.7031C67.9092 58.2637 68.3721 57.9238 68.917 57.6836C69.4678 57.4375 70.0889 57.3145 70.7803 57.3145C71.4775 57.3145 72.0986 57.4375 72.6436 57.6836C73.1943 57.9238 73.6602 58.2637 74.041 58.7031C74.4219 59.1367 74.7119 59.6494 74.9111 60.2412C75.1104 60.8271 75.21 61.4629 75.21 62.1484V62.3506C75.21 63.0361 75.1104 63.6719 74.9111 64.2578C74.7119 64.8438 74.4219 65.3564 74.041 65.7959C73.6602 66.2295 73.1973 66.5693 72.6523 66.8154C72.1074 67.0557 71.4893 67.1758 70.7979 67.1758C70.1006 67.1758 69.4766 67.0557 68.9258 66.8154C68.3809 66.5693 67.918 66.2295 67.5371 65.7959C67.1562 65.3564 66.8662 64.8438 66.667 64.2578C66.4678 63.6719 66.3682 63.0361 66.3682 62.3506ZM68.4863 62.1484V62.3506C68.4863 62.7783 68.5303 63.1826 68.6182 63.5635C68.7061 63.9443 68.8438 64.2783 69.0312 64.5654C69.2188 64.8525 69.459 65.0781 69.752 65.2422C70.0449 65.4062 70.3936 65.4883 70.7979 65.4883C71.1904 65.4883 71.5303 65.4062 71.8174 65.2422C72.1104 65.0781 72.3506 64.8525 72.5381 64.5654C72.7256 64.2783 72.8633 63.9443 72.9512 63.5635C73.0449 63.1826 73.0918 62.7783 73.0918 62.3506V62.1484C73.0918 61.7266 73.0449 61.3281 72.9512 60.9531C72.8633 60.5723 72.7227 60.2354 72.5293 59.9424C72.3418 59.6494 72.1016 59.4209 71.8086 59.2568C71.5215 59.0869 71.1787 59.002 70.7803 59.002C70.3818 59.002 70.0361 59.0869 69.7432 59.2568C69.4561 59.4209 69.2188 59.6494 69.0312 59.9424C68.8438 60.2354 68.7061 60.5723 68.6182 60.9531C68.5303 61.3281 68.4863 61.7266 68.4863 62.1484ZM82.6367 64.4336L85.4668 57.4902H87.3037L83.3574 67H81.916L77.9785 57.4902H79.8154L82.6367 64.4336ZM79.2705 57.4902V67H77.1523V57.4902H79.2705ZM86.0029 67V57.4902H88.1299V67H86.0029ZM96.8838 57.4902V59.1777H92.1904V57.4902H96.8838ZM92.6914 57.4902V67H90.5732V57.4902H92.6914ZM98.5449 57.4902V67H96.418V57.4902H98.5449ZM106.147 65.0928V60.5576C106.147 60.2178 106.086 59.9248 105.963 59.6787C105.84 59.4326 105.652 59.2422 105.4 59.1074C105.154 58.9727 104.844 58.9053 104.469 58.9053C104.123 58.9053 103.824 58.9639 103.572 59.0811C103.32 59.1982 103.124 59.3564 102.983 59.5557C102.843 59.7549 102.772 59.9805 102.772 60.2324H100.663C100.663 59.8574 100.754 59.4941 100.936 59.1426C101.117 58.791 101.381 58.4775 101.727 58.2021C102.072 57.9268 102.485 57.71 102.966 57.5518C103.446 57.3936 103.985 57.3145 104.583 57.3145C105.298 57.3145 105.931 57.4346 106.481 57.6748C107.038 57.915 107.475 58.2783 107.791 58.7646C108.113 59.2451 108.274 59.8486 108.274 60.5752V64.8027C108.274 65.2363 108.304 65.626 108.362 65.9717C108.427 66.3115 108.518 66.6074 108.635 66.8594V67H106.464C106.364 66.7715 106.285 66.4814 106.227 66.1299C106.174 65.7725 106.147 65.4268 106.147 65.0928ZM106.455 61.2168L106.473 62.5264H104.952C104.56 62.5264 104.214 62.5645 103.915 62.6406C103.616 62.7109 103.367 62.8164 103.168 62.957C102.969 63.0977 102.819 63.2676 102.72 63.4668C102.62 63.666 102.57 63.8916 102.57 64.1436C102.57 64.3955 102.629 64.627 102.746 64.8379C102.863 65.043 103.033 65.2041 103.256 65.3213C103.484 65.4385 103.76 65.4971 104.082 65.4971C104.516 65.4971 104.894 65.4092 105.216 65.2334C105.544 65.0518 105.802 64.832 105.989 64.5742C106.177 64.3105 106.276 64.0615 106.288 63.8271L106.974 64.7676C106.903 65.0078 106.783 65.2656 106.613 65.541C106.443 65.8164 106.221 66.0801 105.945 66.332C105.676 66.5781 105.351 66.7803 104.97 66.9385C104.595 67.0967 104.161 67.1758 103.669 67.1758C103.048 67.1758 102.494 67.0527 102.008 66.8066C101.521 66.5547 101.141 66.2178 100.865 65.7959C100.59 65.3682 100.452 64.8848 100.452 64.3457C100.452 63.8418 100.546 63.3965 100.733 63.0098C100.927 62.6172 101.208 62.2891 101.577 62.0254C101.952 61.7617 102.409 61.5625 102.948 61.4277C103.487 61.2871 104.103 61.2168 104.794 61.2168H106.455ZM116.984 61.4629V63.1328H112.062V61.4629H116.984ZM112.678 57.4902V67H110.56V57.4902H112.678ZM118.514 57.4902V67H116.396V57.4902H118.514ZM122.961 63.9062L126.696 57.4902H128.814V67H126.696V60.5752L122.961 67H120.843V57.4902H122.961V63.9062ZM133.06 62.3506H135.257L132.559 67H130.37L133.06 62.3506ZM134.606 57.4902H138.685V67H136.575V59.1602H134.606C134.208 59.1602 133.88 59.2305 133.622 59.3711C133.364 59.5059 133.174 59.6846 133.051 59.9072C132.928 60.124 132.866 60.3467 132.866 60.5752C132.866 60.8037 132.922 61.0234 133.033 61.2344C133.15 61.4453 133.329 61.6182 133.569 61.7529C133.815 61.8877 134.123 61.9551 134.492 61.9551H137.287V63.502H134.492C133.906 63.502 133.382 63.4287 132.919 63.2822C132.456 63.1299 132.063 62.9219 131.741 62.6582C131.419 62.3887 131.173 62.0752 131.003 61.7178C130.833 61.3545 130.748 60.959 130.748 60.5312C130.748 60.0918 130.836 59.6875 131.012 59.3184C131.188 58.9492 131.439 58.627 131.768 58.3516C132.102 58.0762 132.506 57.8652 132.98 57.7188C133.461 57.5664 134.003 57.4902 134.606 57.4902Z" fill="white"/>
</svg>
