<svg width="84" height="53" viewBox="0 0 84 53" fill="none" xmlns="http://www.w3.org/2000/svg">
<path d="M25.3633 7.73438V13.1641C25.1615 13.431 24.8457 13.724 24.416 14.043C23.9928 14.3555 23.4297 14.6257 22.7266 14.8535C22.0234 15.0814 21.1478 15.1953 20.0996 15.1953C19.2077 15.1953 18.3906 15.0456 17.6484 14.7461C16.9062 14.4401 16.265 13.9941 15.7246 13.4082C15.1908 12.8223 14.7773 12.1094 14.4844 11.2695C14.1914 10.4232 14.0449 9.45964 14.0449 8.37891V7.39258C14.0449 6.31836 14.1784 5.36133 14.4453 4.52148C14.7188 3.67513 15.1094 2.95898 15.6172 2.37305C16.125 1.78711 16.737 1.3444 17.4531 1.04492C18.1758 0.738932 18.9928 0.585938 19.9043 0.585938C21.0697 0.585938 22.0332 0.78125 22.7949 1.17188C23.5632 1.55599 24.1556 2.08984 24.5723 2.77344C24.9889 3.45703 25.2526 4.23828 25.3633 5.11719H22.9609C22.8828 4.6224 22.7298 4.17969 22.502 3.78906C22.2806 3.39844 21.9616 3.09245 21.5449 2.87109C21.1348 2.64323 20.6009 2.5293 19.9434 2.5293C19.377 2.5293 18.8789 2.63672 18.4492 2.85156C18.0195 3.06641 17.6615 3.38216 17.375 3.79883C17.0951 4.21549 16.8835 4.72331 16.7402 5.32227C16.597 5.92122 16.5254 6.60482 16.5254 7.37305V8.37891C16.5254 9.16016 16.6068 9.85352 16.7695 10.459C16.9388 11.0645 17.1797 11.5755 17.4922 11.9922C17.8112 12.4089 18.1986 12.7246 18.6543 12.9395C19.11 13.1478 19.6243 13.252 20.1973 13.252C20.7572 13.252 21.2161 13.2064 21.5742 13.1152C21.9323 13.0176 22.2155 12.9036 22.4238 12.7734C22.6387 12.6367 22.8047 12.5065 22.9219 12.3828V9.56055H19.9629V7.73438H25.3633ZM35.5586 11.3379C35.5586 11.0449 35.513 10.7845 35.4219 10.5566C35.3372 10.3288 35.1842 10.1204 34.9629 9.93164C34.7415 9.74284 34.429 9.56055 34.0254 9.38477C33.6283 9.20247 33.1204 9.01693 32.502 8.82812C31.8249 8.61979 31.1999 8.38867 30.627 8.13477C30.0605 7.87435 29.5658 7.57487 29.1426 7.23633C28.7194 6.89128 28.3906 6.4974 28.1562 6.05469C27.9219 5.60547 27.8047 5.08789 27.8047 4.50195C27.8047 3.92253 27.9251 3.39518 28.166 2.91992C28.4134 2.44466 28.7617 2.03451 29.2109 1.68945C29.6667 1.33789 30.2038 1.06771 30.8223 0.878906C31.4408 0.683594 32.1243 0.585938 32.873 0.585938C33.9277 0.585938 34.8359 0.78125 35.5977 1.17188C36.3659 1.5625 36.9551 2.08659 37.3652 2.74414C37.7819 3.40169 37.9902 4.1276 37.9902 4.92188H35.5586C35.5586 4.45312 35.4577 4.03971 35.2559 3.68164C35.0605 3.31706 34.7611 3.0306 34.3574 2.82227C33.9603 2.61393 33.4557 2.50977 32.8438 2.50977C32.2643 2.50977 31.7826 2.59766 31.3984 2.77344C31.0143 2.94922 30.7279 3.18685 30.5391 3.48633C30.3503 3.78581 30.2559 4.12435 30.2559 4.50195C30.2559 4.76888 30.3177 5.01302 30.4414 5.23438C30.5651 5.44922 30.7539 5.65104 31.0078 5.83984C31.2617 6.02214 31.5807 6.19466 31.9648 6.35742C32.349 6.52018 32.8014 6.67643 33.3223 6.82617C34.11 7.06055 34.7969 7.32096 35.3828 7.60742C35.9688 7.88737 36.457 8.20638 36.8477 8.56445C37.2383 8.92253 37.5312 9.32943 37.7266 9.78516C37.9219 10.2344 38.0195 10.7454 38.0195 11.3184C38.0195 11.9173 37.8991 12.4577 37.6582 12.9395C37.4173 13.4147 37.0723 13.8216 36.623 14.1602C36.1803 14.4922 35.6465 14.7493 35.0215 14.9316C34.403 15.1074 33.7129 15.1953 32.9512 15.1953C32.2676 15.1953 31.5938 15.1042 30.9297 14.9219C30.2721 14.7396 29.6732 14.4629 29.1328 14.0918C28.5924 13.7142 28.1628 13.2454 27.8438 12.6855C27.5247 12.1191 27.3652 11.4583 27.3652 10.7031H29.8164C29.8164 11.1654 29.8945 11.5592 30.0508 11.8848C30.2135 12.2103 30.4382 12.4772 30.7246 12.6855C31.0111 12.8874 31.3431 13.0371 31.7207 13.1348C32.1048 13.2324 32.515 13.2812 32.9512 13.2812C33.5241 13.2812 34.0026 13.1999 34.3867 13.0371C34.7773 12.8743 35.0703 12.6465 35.2656 12.3535C35.4609 12.0605 35.5586 11.722 35.5586 11.3379ZM51.1055 7.73438V13.1641C50.9036 13.431 50.5879 13.724 50.1582 14.043C49.735 14.3555 49.1719 14.6257 48.4688 14.8535C47.7656 15.0814 46.89 15.1953 45.8418 15.1953C44.9499 15.1953 44.1328 15.0456 43.3906 14.7461C42.6484 14.4401 42.0072 13.9941 41.4668 13.4082C40.9329 12.8223 40.5195 12.1094 40.2266 11.2695C39.9336 10.4232 39.7871 9.45964 39.7871 8.37891V7.39258C39.7871 6.31836 39.9206 5.36133 40.1875 4.52148C40.4609 3.67513 40.8516 2.95898 41.3594 2.37305C41.8672 1.78711 42.4792 1.3444 43.1953 1.04492C43.918 0.738932 44.735 0.585938 45.6465 0.585938C46.8118 0.585938 47.7754 0.78125 48.5371 1.17188C49.3053 1.55599 49.8978 2.08984 50.3145 2.77344C50.7311 3.45703 50.9948 4.23828 51.1055 5.11719H48.7031C48.625 4.6224 48.472 4.17969 48.2441 3.78906C48.0228 3.39844 47.7038 3.09245 47.2871 2.87109C46.877 2.64323 46.3431 2.5293 45.6855 2.5293C45.1191 2.5293 44.6211 2.63672 44.1914 2.85156C43.7617 3.06641 43.4036 3.38216 43.1172 3.79883C42.8372 4.21549 42.6257 4.72331 42.4824 5.32227C42.3392 5.92122 42.2676 6.60482 42.2676 7.37305V8.37891C42.2676 9.16016 42.349 9.85352 42.5117 10.459C42.681 11.0645 42.9219 11.5755 43.2344 11.9922C43.5534 12.4089 43.9408 12.7246 44.3965 12.9395C44.8522 13.1478 45.3665 13.252 45.9395 13.252C46.4993 13.252 46.9583 13.2064 47.3164 13.1152C47.6745 13.0176 47.9577 12.9036 48.166 12.7734C48.3809 12.6367 48.5469 12.5065 48.6641 12.3828V9.56055H45.7051V7.73438H51.1055Z" fill="#EF4242"/>
<path d="M19.0547 20.4336V22.1523H13.0977V20.4336H19.0547ZM14.8164 17.8457H17.1699V28.0801C17.1699 28.4056 17.2155 28.6562 17.3066 28.832C17.4043 29.0013 17.5378 29.1152 17.707 29.1738C17.8763 29.2324 18.0749 29.2617 18.3027 29.2617C18.4655 29.2617 18.6217 29.252 18.7715 29.2324C18.9212 29.2129 19.0417 29.1934 19.1328 29.1738L19.1426 30.9707C18.9473 31.0293 18.7194 31.0814 18.459 31.127C18.2051 31.1725 17.9121 31.1953 17.5801 31.1953C17.0397 31.1953 16.5612 31.1009 16.1445 30.9121C15.7279 30.7168 15.4023 30.401 15.168 29.9648C14.9336 29.5286 14.8164 28.9492 14.8164 28.2266V17.8457ZM23.2344 22.4453V31H20.8809V20.4336H23.127L23.2344 22.4453ZM26.4668 20.3652L26.4473 22.5527C26.304 22.5267 26.1478 22.5072 25.9785 22.4941C25.8158 22.4811 25.653 22.4746 25.4902 22.4746C25.0866 22.4746 24.7318 22.5332 24.4258 22.6504C24.1198 22.7611 23.8626 22.9238 23.6543 23.1387C23.4525 23.347 23.2962 23.6009 23.1855 23.9004C23.0749 24.1999 23.0098 24.5352 22.9902 24.9062L22.4531 24.9453C22.4531 24.2812 22.5182 23.666 22.6484 23.0996C22.7786 22.5332 22.974 22.0352 23.2344 21.6055C23.5013 21.1758 23.8333 20.8405 24.2305 20.5996C24.6341 20.3587 25.0996 20.2383 25.627 20.2383C25.7702 20.2383 25.9232 20.2513 26.0859 20.2773C26.2552 20.3034 26.3822 20.3327 26.4668 20.3652ZM33.5469 28.8809V23.8418C33.5469 23.4642 33.4785 23.1387 33.3418 22.8652C33.2051 22.5918 32.9967 22.3802 32.7168 22.2305C32.4434 22.0807 32.0983 22.0059 31.6816 22.0059C31.2975 22.0059 30.9655 22.071 30.6855 22.2012C30.4056 22.3314 30.1875 22.5072 30.0312 22.7285C29.875 22.9499 29.7969 23.2005 29.7969 23.4805H27.4531C27.4531 23.0638 27.554 22.6602 27.7559 22.2695C27.9577 21.8789 28.2507 21.5306 28.6348 21.2246C29.0189 20.9186 29.4779 20.6777 30.0117 20.502C30.5456 20.3262 31.1445 20.2383 31.8086 20.2383C32.6029 20.2383 33.306 20.3717 33.918 20.6387C34.5365 20.9056 35.0215 21.3092 35.373 21.8496C35.7311 22.3835 35.9102 23.054 35.9102 23.8613V28.5586C35.9102 29.0404 35.9427 29.4733 36.0078 29.8574C36.0794 30.235 36.1803 30.5638 36.3105 30.8438V31H33.8984C33.7878 30.7461 33.6999 30.4238 33.6348 30.0332C33.5762 29.6361 33.5469 29.252 33.5469 28.8809ZM33.8887 24.5742L33.9082 26.0293H32.2188C31.7826 26.0293 31.3984 26.0716 31.0664 26.1562C30.7344 26.2344 30.4577 26.3516 30.2363 26.5078C30.015 26.6641 29.849 26.8529 29.7383 27.0742C29.6276 27.2956 29.5723 27.5462 29.5723 27.8262C29.5723 28.1061 29.6374 28.3633 29.7676 28.5977C29.8978 28.8255 30.0866 29.0046 30.334 29.1348C30.5879 29.265 30.8939 29.3301 31.252 29.3301C31.7337 29.3301 32.1536 29.2324 32.5117 29.0371C32.8763 28.8353 33.1628 28.5911 33.3711 28.3047C33.5794 28.0117 33.6901 27.735 33.7031 27.4746L34.4648 28.5195C34.3867 28.7865 34.2533 29.0729 34.0645 29.3789C33.8757 29.6849 33.6283 29.9779 33.3223 30.2578C33.0228 30.5312 32.6615 30.7559 32.2383 30.9316C31.8216 31.1074 31.3398 31.1953 30.793 31.1953C30.1029 31.1953 29.4876 31.0586 28.9473 30.7852C28.4069 30.5052 27.9837 30.1309 27.6777 29.6621C27.3717 29.1868 27.2188 28.6497 27.2188 28.0508C27.2188 27.4909 27.3229 26.9961 27.5312 26.5664C27.7461 26.1302 28.0586 25.7656 28.4688 25.4727C28.8854 25.1797 29.3932 24.9583 29.9922 24.8086C30.5911 24.6523 31.2747 24.5742 32.043 24.5742H33.8887ZM40.7051 22.6895V31H38.3516V20.4336H40.5684L40.7051 22.6895ZM40.2852 25.3262L39.5234 25.3164C39.5299 24.5677 39.6341 23.8809 39.8359 23.2559C40.0443 22.6309 40.3307 22.0938 40.6953 21.6445C41.0664 21.1953 41.5091 20.8503 42.0234 20.6094C42.5378 20.362 43.1107 20.2383 43.7422 20.2383C44.25 20.2383 44.709 20.3099 45.1191 20.4531C45.5358 20.5898 45.8906 20.8145 46.1836 21.127C46.4831 21.4395 46.7109 21.8464 46.8672 22.3477C47.0234 22.8424 47.1016 23.4512 47.1016 24.1738V31H44.7383V24.1641C44.7383 23.6562 44.6634 23.2559 44.5137 22.9629C44.3704 22.6634 44.1589 22.4518 43.8789 22.3281C43.6055 22.1979 43.2637 22.1328 42.8535 22.1328C42.4499 22.1328 42.0885 22.2174 41.7695 22.3867C41.4505 22.556 41.1803 22.7871 40.959 23.0801C40.7441 23.373 40.5781 23.7116 40.4609 24.0957C40.3438 24.4798 40.2852 24.89 40.2852 25.3262ZM55.4316 28.1387C55.4316 27.9043 55.373 27.6927 55.2559 27.5039C55.1387 27.3086 54.9141 27.1328 54.582 26.9766C54.2565 26.8203 53.7747 26.6771 53.1367 26.5469C52.5768 26.4232 52.0625 26.2767 51.5938 26.1074C51.1315 25.9316 50.7344 25.7201 50.4023 25.4727C50.0703 25.2253 49.8132 24.9323 49.6309 24.5938C49.4486 24.2552 49.3574 23.8646 49.3574 23.4219C49.3574 22.9922 49.4518 22.5853 49.6406 22.2012C49.8294 21.8171 50.0996 21.4785 50.4512 21.1855C50.8027 20.8926 51.2292 20.6615 51.7305 20.4922C52.2383 20.3229 52.8047 20.2383 53.4297 20.2383C54.3151 20.2383 55.0736 20.388 55.7051 20.6875C56.3431 20.9805 56.8314 21.3809 57.1699 21.8887C57.5085 22.39 57.6777 22.9564 57.6777 23.5879H55.3242C55.3242 23.3079 55.2526 23.0475 55.1094 22.8066C54.9727 22.5592 54.7643 22.3607 54.4844 22.2109C54.2044 22.0547 53.8529 21.9766 53.4297 21.9766C53.026 21.9766 52.6908 22.0417 52.4238 22.1719C52.1634 22.2956 51.9681 22.4583 51.8379 22.6602C51.7142 22.862 51.6523 23.0833 51.6523 23.3242C51.6523 23.5 51.6849 23.6595 51.75 23.8027C51.8216 23.9395 51.9388 24.0664 52.1016 24.1836C52.2643 24.2943 52.4857 24.3984 52.7656 24.4961C53.0521 24.5938 53.4102 24.6882 53.8398 24.7793C54.6471 24.9486 55.3405 25.1667 55.9199 25.4336C56.5059 25.694 56.9551 26.0326 57.2676 26.4492C57.5801 26.8594 57.7363 27.3802 57.7363 28.0117C57.7363 28.4805 57.6354 28.9102 57.4336 29.3008C57.2383 29.6849 56.9518 30.0202 56.5742 30.3066C56.1966 30.5866 55.7441 30.8047 55.2168 30.9609C54.696 31.1172 54.11 31.1953 53.459 31.1953C52.502 31.1953 51.6914 31.026 51.0273 30.6875C50.3633 30.3424 49.8587 29.903 49.5137 29.3691C49.1751 28.8288 49.0059 28.2689 49.0059 27.6895H51.2812C51.3073 28.1257 51.4277 28.474 51.6426 28.7344C51.8639 28.9883 52.1374 29.1738 52.4629 29.291C52.7949 29.4017 53.1367 29.457 53.4883 29.457C53.9115 29.457 54.2663 29.4017 54.5527 29.291C54.8392 29.1738 55.0573 29.0176 55.207 28.8223C55.3568 28.6204 55.4316 28.3926 55.4316 28.1387ZM62.9805 31H60.627V19.418C60.627 18.6302 60.7734 17.9694 61.0664 17.4355C61.3659 16.8952 61.7923 16.4883 62.3457 16.2148C62.8991 15.9349 63.5534 15.7949 64.3086 15.7949C64.543 15.7949 64.7741 15.8112 65.002 15.8438C65.2298 15.8698 65.4512 15.9121 65.666 15.9707L65.6074 17.7871C65.4772 17.7546 65.334 17.7318 65.1777 17.7188C65.028 17.7057 64.8652 17.6992 64.6895 17.6992C64.3314 17.6992 64.0221 17.7676 63.7617 17.9043C63.5078 18.0345 63.3125 18.2266 63.1758 18.4805C63.0456 18.7344 62.9805 19.0469 62.9805 19.418V31ZM65.1582 20.4336V22.1523H59.0059V20.4336H65.1582ZM71.291 31.1953C70.5098 31.1953 69.8034 31.0684 69.1719 30.8145C68.5469 30.554 68.013 30.1927 67.5703 29.7305C67.1341 29.2682 66.7988 28.7246 66.5645 28.0996C66.3301 27.4746 66.2129 26.8008 66.2129 26.0781V25.6875C66.2129 24.8607 66.3333 24.112 66.5742 23.4414C66.8151 22.7708 67.1504 22.1979 67.5801 21.7227C68.0098 21.2409 68.5176 20.873 69.1035 20.6191C69.6895 20.3652 70.3242 20.2383 71.0078 20.2383C71.763 20.2383 72.4238 20.3652 72.9902 20.6191C73.5566 20.873 74.0254 21.2311 74.3965 21.6934C74.7741 22.1491 75.054 22.6927 75.2363 23.3242C75.4251 23.9557 75.5195 24.6523 75.5195 25.4141V26.4199H67.3555V24.7305H73.1953V24.5449C73.1823 24.1217 73.0977 23.7246 72.9414 23.3535C72.7917 22.9824 72.5605 22.6829 72.248 22.4551C71.9355 22.2272 71.5189 22.1133 70.998 22.1133C70.6074 22.1133 70.2591 22.1979 69.9531 22.3672C69.6536 22.5299 69.403 22.7676 69.2012 23.0801C68.9993 23.3926 68.8431 23.7702 68.7324 24.2129C68.6283 24.6491 68.5762 25.1406 68.5762 25.6875V26.0781C68.5762 26.5404 68.638 26.9701 68.7617 27.3672C68.8919 27.7578 69.0807 28.0996 69.3281 28.3926C69.5755 28.6855 69.875 28.9167 70.2266 29.0859C70.5781 29.2487 70.9785 29.3301 71.4277 29.3301C71.9941 29.3301 72.4987 29.2161 72.9414 28.9883C73.3841 28.7604 73.7682 28.4382 74.0938 28.0215L75.334 29.2227C75.1061 29.5547 74.8099 29.8737 74.4453 30.1797C74.0807 30.4792 73.6348 30.7233 73.1074 30.9121C72.5866 31.1009 71.9811 31.1953 71.291 31.1953ZM79.7188 22.4453V31H77.3652V20.4336H79.6113L79.7188 22.4453ZM82.9512 20.3652L82.9316 22.5527C82.7884 22.5267 82.6322 22.5072 82.4629 22.4941C82.3001 22.4811 82.1374 22.4746 81.9746 22.4746C81.571 22.4746 81.2161 22.5332 80.9102 22.6504C80.6042 22.7611 80.347 22.9238 80.1387 23.1387C79.9368 23.347 79.7806 23.6009 79.6699 23.9004C79.5592 24.1999 79.4941 24.5352 79.4746 24.9062L78.9375 24.9453C78.9375 24.2812 79.0026 23.666 79.1328 23.0996C79.263 22.5332 79.4583 22.0352 79.7188 21.6055C79.9857 21.1758 80.3177 20.8405 80.7148 20.5996C81.1185 20.3587 81.584 20.2383 82.1113 20.2383C82.2546 20.2383 82.4076 20.2513 82.5703 20.2773C82.7396 20.3034 82.8665 20.3327 82.9512 20.3652Z" fill="white"/>
<path d="M18.1553 38.7168V39.6543H15.5771V38.7168H18.1553ZM19.0781 38.7168V44H17.9014V38.7168H19.0781ZM15.2891 38.7168H16.4512L16.3096 41.3291C16.29 41.7165 16.251 42.0583 16.1924 42.3545C16.137 42.6475 16.0622 42.8997 15.9678 43.1113C15.8734 43.3197 15.7578 43.4889 15.6211 43.6191C15.4844 43.7493 15.3249 43.8454 15.1426 43.9072C14.9603 43.9691 14.7552 44 14.5273 44H14.1611L14.1562 43.0332L14.3418 43.0186C14.4622 43.0088 14.5664 42.9779 14.6543 42.9258C14.7422 42.8704 14.8171 42.7923 14.8789 42.6914C14.944 42.5905 14.9961 42.4603 15.0352 42.3008C15.0775 42.1413 15.11 41.9525 15.1328 41.7344C15.1589 41.5163 15.1784 41.2624 15.1914 40.9727L15.2891 38.7168ZM20.1035 41.417V41.3047C20.1035 40.9238 20.1589 40.5706 20.2695 40.2451C20.3802 39.9163 20.5397 39.6315 20.748 39.3906C20.9596 39.1465 21.2168 38.9577 21.5195 38.8242C21.8255 38.6875 22.1706 38.6191 22.5547 38.6191C22.9421 38.6191 23.2871 38.6875 23.5898 38.8242C23.8958 38.9577 24.1546 39.1465 24.3662 39.3906C24.5778 39.6315 24.7389 39.9163 24.8496 40.2451C24.9603 40.5706 25.0156 40.9238 25.0156 41.3047V41.417C25.0156 41.7979 24.9603 42.151 24.8496 42.4766C24.7389 42.8021 24.5778 43.0869 24.3662 43.3311C24.1546 43.5719 23.8975 43.7607 23.5947 43.8975C23.292 44.0309 22.9486 44.0977 22.5645 44.0977C22.1771 44.0977 21.8304 44.0309 21.5244 43.8975C21.2217 43.7607 20.9645 43.5719 20.7529 43.3311C20.5413 43.0869 20.3802 42.8021 20.2695 42.4766C20.1589 42.151 20.1035 41.7979 20.1035 41.417ZM21.2803 41.3047V41.417C21.2803 41.6546 21.3047 41.8792 21.3535 42.0908C21.4023 42.3024 21.4788 42.488 21.583 42.6475C21.6872 42.807 21.8206 42.9323 21.9834 43.0234C22.1462 43.1146 22.3398 43.1602 22.5645 43.1602C22.7826 43.1602 22.9714 43.1146 23.1309 43.0234C23.2936 42.9323 23.4271 42.807 23.5312 42.6475C23.6354 42.488 23.7119 42.3024 23.7607 42.0908C23.8128 41.8792 23.8389 41.6546 23.8389 41.417V41.3047C23.8389 41.0703 23.8128 40.849 23.7607 40.6406C23.7119 40.429 23.6338 40.2419 23.5264 40.0791C23.4222 39.9163 23.2887 39.7894 23.126 39.6982C22.9665 39.6038 22.776 39.5566 22.5547 39.5566C22.3333 39.5566 22.1413 39.6038 21.9785 39.6982C21.819 39.7894 21.6872 39.9163 21.583 40.0791C21.4788 40.2419 21.4023 40.429 21.3535 40.6406C21.3047 40.849 21.2803 41.0703 21.2803 41.3047ZM29.5176 38.7168V39.6543H27.2129V44H26.0361V38.7168H29.5176ZM31.417 42.2812L33.4922 38.7168H34.6689V44H33.4922V40.4307L31.417 44H30.2402V38.7168H31.417V42.2812ZM38.0723 43.1602C38.2643 43.1602 38.4368 43.1227 38.5898 43.0479C38.7461 42.9697 38.8714 42.8623 38.9658 42.7256C39.0635 42.5889 39.1172 42.431 39.127 42.252H40.2354C40.2288 42.5938 40.1279 42.9046 39.9326 43.1846C39.7373 43.4645 39.4785 43.6875 39.1562 43.8535C38.834 44.0163 38.4775 44.0977 38.0869 44.0977C37.6833 44.0977 37.3317 44.0293 37.0322 43.8926C36.7327 43.7526 36.4837 43.5605 36.2852 43.3164C36.0866 43.0723 35.9368 42.7907 35.8359 42.4717C35.7383 42.1527 35.6895 41.8109 35.6895 41.4463V41.2754C35.6895 40.9108 35.7383 40.569 35.8359 40.25C35.9368 39.9277 36.0866 39.6445 36.2852 39.4004C36.4837 39.1562 36.7327 38.9658 37.0322 38.8291C37.3317 38.6891 37.6816 38.6191 38.082 38.6191C38.5052 38.6191 38.8763 38.7038 39.1953 38.873C39.5143 39.0391 39.765 39.2718 39.9473 39.5713C40.1328 39.8675 40.2288 40.2126 40.2354 40.6064H39.127C39.1172 40.4111 39.0684 40.2354 38.9805 40.0791C38.8958 39.9196 38.7754 39.7926 38.6191 39.6982C38.4661 39.6038 38.2822 39.5566 38.0674 39.5566C37.8298 39.5566 37.6328 39.6055 37.4766 39.7031C37.3203 39.7975 37.1982 39.9277 37.1104 40.0938C37.0225 40.2565 36.959 40.4404 36.9199 40.6455C36.8841 40.8473 36.8662 41.0573 36.8662 41.2754V41.4463C36.8662 41.6644 36.8841 41.876 36.9199 42.0811C36.9557 42.2861 37.0176 42.4701 37.1055 42.6328C37.1966 42.7923 37.3203 42.9209 37.4766 43.0186C37.6328 43.113 37.8314 43.1602 38.0723 43.1602ZM43.5898 38.7168V44H42.4082V38.7168H43.5898ZM45.3232 38.7168V39.6445H40.7041V38.7168H45.3232ZM47.3252 42.2812L49.4004 38.7168H50.5771V44H49.4004V40.4307L47.3252 44H46.1484V38.7168H47.3252V42.2812ZM56.0654 38.7168V44H54.8887V38.7168H56.0654ZM55.5674 41.0557V41.9883C55.4242 42.0501 55.263 42.1071 55.084 42.1592C54.9082 42.208 54.7227 42.2487 54.5273 42.2812C54.332 42.3105 54.1351 42.3252 53.9365 42.3252C53.471 42.3252 53.069 42.2536 52.7305 42.1104C52.3952 41.9671 52.1364 41.7474 51.9541 41.4512C51.7751 41.1517 51.6855 40.7725 51.6855 40.3135V38.7119H52.8574V40.3135C52.8574 40.5771 52.8965 40.7871 52.9746 40.9434C53.056 41.0996 53.1764 41.2119 53.3359 41.2803C53.4954 41.3486 53.6956 41.3828 53.9365 41.3828C54.1383 41.3828 54.3288 41.3698 54.5078 41.3438C54.6868 41.3145 54.8643 41.2754 55.04 41.2266C55.2158 41.1777 55.3916 41.1208 55.5674 41.0557ZM59.6494 44.0977C59.2588 44.0977 58.9056 44.0342 58.5898 43.9072C58.2773 43.777 58.0104 43.5964 57.7891 43.3652C57.571 43.1341 57.4033 42.8623 57.2861 42.5498C57.1689 42.2373 57.1104 41.9004 57.1104 41.5391V41.3438C57.1104 40.9303 57.1706 40.556 57.291 40.2207C57.4115 39.8854 57.5791 39.599 57.7939 39.3613C58.0088 39.1204 58.2627 38.9365 58.5557 38.8096C58.8486 38.6826 59.166 38.6191 59.5078 38.6191C59.8854 38.6191 60.2158 38.6826 60.499 38.8096C60.7822 38.9365 61.0166 39.1156 61.2021 39.3467C61.391 39.5745 61.5309 39.8464 61.6221 40.1621C61.7165 40.4779 61.7637 40.8262 61.7637 41.207V41.71H57.6816V40.8652H60.6016V40.7725C60.5951 40.5609 60.5527 40.3623 60.4746 40.1768C60.3997 39.9912 60.2842 39.8415 60.1279 39.7275C59.9717 39.6136 59.7633 39.5566 59.5029 39.5566C59.3076 39.5566 59.1335 39.599 58.9805 39.6836C58.8307 39.765 58.7054 39.8838 58.6045 40.04C58.5036 40.1963 58.4255 40.3851 58.3701 40.6064C58.318 40.8245 58.292 41.0703 58.292 41.3438V41.5391C58.292 41.7702 58.3229 41.985 58.3848 42.1836C58.4499 42.3789 58.5443 42.5498 58.668 42.6963C58.7917 42.8428 58.9414 42.9583 59.1172 43.043C59.293 43.1243 59.4932 43.165 59.7178 43.165C60.001 43.165 60.2533 43.1081 60.4746 42.9941C60.696 42.8802 60.888 42.7191 61.0508 42.5107L61.6709 43.1113C61.557 43.2773 61.4089 43.4368 61.2266 43.5898C61.0443 43.7396 60.8213 43.8617 60.5576 43.9561C60.2972 44.0505 59.9945 44.0977 59.6494 44.0977ZM64.8398 43.1602C65.0319 43.1602 65.2044 43.1227 65.3574 43.0479C65.5137 42.9697 65.639 42.8623 65.7334 42.7256C65.8311 42.5889 65.8848 42.431 65.8945 42.252H67.0029C66.9964 42.5938 66.8955 42.9046 66.7002 43.1846C66.5049 43.4645 66.2461 43.6875 65.9238 43.8535C65.6016 44.0163 65.2451 44.0977 64.8545 44.0977C64.4508 44.0977 64.0993 44.0293 63.7998 43.8926C63.5003 43.7526 63.2513 43.5605 63.0527 43.3164C62.8542 43.0723 62.7044 42.7907 62.6035 42.4717C62.5059 42.1527 62.457 41.8109 62.457 41.4463V41.2754C62.457 40.9108 62.5059 40.569 62.6035 40.25C62.7044 39.9277 62.8542 39.6445 63.0527 39.4004C63.2513 39.1562 63.5003 38.9658 63.7998 38.8291C64.0993 38.6891 64.4492 38.6191 64.8496 38.6191C65.2728 38.6191 65.6439 38.7038 65.9629 38.873C66.2819 39.0391 66.5326 39.2718 66.7148 39.5713C66.9004 39.8675 66.9964 40.2126 67.0029 40.6064H65.8945C65.8848 40.4111 65.8359 40.2354 65.748 40.0791C65.6634 39.9196 65.543 39.7926 65.3867 39.6982C65.2337 39.6038 65.0498 39.5566 64.835 39.5566C64.5973 39.5566 64.4004 39.6055 64.2441 39.7031C64.0879 39.7975 63.9658 39.9277 63.8779 40.0938C63.79 40.2565 63.7266 40.4404 63.6875 40.6455C63.6517 40.8473 63.6338 41.0573 63.6338 41.2754V41.4463C63.6338 41.6644 63.6517 41.876 63.6875 42.0811C63.7233 42.2861 63.7852 42.4701 63.873 42.6328C63.9642 42.7923 64.0879 42.9209 64.2441 43.0186C64.4004 43.113 64.599 43.1602 64.8398 43.1602ZM69.1758 38.7168V44H67.999V38.7168H69.1758ZM72.623 38.7168L70.2451 41.8955H68.9023L68.7461 40.8311H69.7275L71.1533 38.7168H72.623ZM71.2461 44L69.6543 41.6953L70.582 41.0264L72.7939 44H71.2461ZM76.4121 42.9404V40.4209C76.4121 40.2321 76.3779 40.0693 76.3096 39.9326C76.2412 39.7959 76.137 39.6901 75.9971 39.6152C75.8604 39.5404 75.6878 39.5029 75.4795 39.5029C75.2874 39.5029 75.1214 39.5355 74.9814 39.6006C74.8415 39.6657 74.7324 39.7536 74.6543 39.8643C74.5762 39.9749 74.5371 40.1003 74.5371 40.2402H73.3652C73.3652 40.0319 73.4157 39.8301 73.5166 39.6348C73.6175 39.4395 73.764 39.2653 73.9561 39.1123C74.1481 38.9593 74.3776 38.8389 74.6445 38.751C74.9115 38.6631 75.2109 38.6191 75.543 38.6191C75.9401 38.6191 76.2917 38.6859 76.5977 38.8193C76.9069 38.9528 77.1494 39.1546 77.3252 39.4248C77.5042 39.6917 77.5938 40.027 77.5938 40.4307V42.7793C77.5938 43.0202 77.61 43.2367 77.6426 43.4287C77.6784 43.6175 77.7288 43.7819 77.7939 43.9219V44H76.5879C76.5326 43.873 76.4886 43.7119 76.4561 43.5166C76.4268 43.318 76.4121 43.126 76.4121 42.9404ZM76.583 40.7871L76.5928 41.5146H75.748C75.5299 41.5146 75.3379 41.5358 75.1719 41.5781C75.0059 41.6172 74.8675 41.6758 74.7568 41.7539C74.6462 41.832 74.5632 41.9264 74.5078 42.0371C74.4525 42.1478 74.4248 42.2731 74.4248 42.4131C74.4248 42.5531 74.4574 42.6816 74.5225 42.7988C74.5876 42.9128 74.682 43.0023 74.8057 43.0674C74.9326 43.1325 75.0856 43.165 75.2646 43.165C75.5055 43.165 75.7155 43.1162 75.8945 43.0186C76.0768 42.9176 76.2201 42.7956 76.3242 42.6523C76.4284 42.5059 76.4837 42.3675 76.4902 42.2373L76.8711 42.7598C76.832 42.8932 76.7653 43.0365 76.6709 43.1895C76.5765 43.3424 76.4528 43.4889 76.2998 43.6289C76.1501 43.7656 75.9694 43.8779 75.7578 43.9658C75.5495 44.0537 75.3086 44.0977 75.0352 44.0977C74.6901 44.0977 74.3825 44.0293 74.1123 43.8926C73.8421 43.7526 73.6305 43.5654 73.4775 43.3311C73.3245 43.0934 73.248 42.8249 73.248 42.5254C73.248 42.2454 73.3001 41.998 73.4043 41.7832C73.5117 41.5651 73.668 41.3828 73.873 41.2363C74.0814 41.0898 74.3353 40.9792 74.6348 40.9043C74.9342 40.8262 75.276 40.7871 75.6602 40.7871H76.583ZM79.9375 41.417H81.1582L79.6592 44H78.4434L79.9375 41.417ZM80.7969 38.7168H83.0625V44H81.8906V39.6445H80.7969C80.5755 39.6445 80.3932 39.6836 80.25 39.7617C80.1068 39.8366 80.001 39.9359 79.9326 40.0596C79.8643 40.18 79.8301 40.3037 79.8301 40.4307C79.8301 40.5576 79.861 40.6797 79.9229 40.7969C79.988 40.9141 80.0872 41.0101 80.2207 41.085C80.3574 41.1598 80.5283 41.1973 80.7334 41.1973H82.2861V42.0566H80.7334C80.4079 42.0566 80.1165 42.016 79.8594 41.9346C79.6022 41.8499 79.3841 41.7344 79.2051 41.5879C79.026 41.4382 78.8893 41.264 78.7949 41.0654C78.7005 40.8636 78.6533 40.6439 78.6533 40.4062C78.6533 40.1621 78.7021 39.9375 78.7998 39.7324C78.8975 39.5273 79.0374 39.3483 79.2197 39.1953C79.4053 39.0423 79.6299 38.9251 79.8936 38.8438C80.1605 38.7591 80.4616 38.7168 80.7969 38.7168ZM15.875 46.7168V52H14.6982V46.7168H15.875ZM19.3223 46.7168L16.9443 49.8955H15.6016L15.4453 48.8311H16.4268L17.8525 46.7168H19.3223ZM17.9453 52L16.3535 49.6953L17.2812 49.0264L19.4932 52H17.9453ZM19.7324 49.417V49.3047C19.7324 48.9238 19.7878 48.5706 19.8984 48.2451C20.0091 47.9163 20.1686 47.6315 20.377 47.3906C20.5885 47.1465 20.8457 46.9577 21.1484 46.8242C21.4544 46.6875 21.7995 46.6191 22.1836 46.6191C22.571 46.6191 22.916 46.6875 23.2188 46.8242C23.5247 46.9577 23.7835 47.1465 23.9951 47.3906C24.2067 47.6315 24.3678 47.9163 24.4785 48.2451C24.5892 48.5706 24.6445 48.9238 24.6445 49.3047V49.417C24.6445 49.7979 24.5892 50.151 24.4785 50.4766C24.3678 50.8021 24.2067 51.0869 23.9951 51.3311C23.7835 51.5719 23.5264 51.7607 23.2236 51.8975C22.9209 52.0309 22.5775 52.0977 22.1934 52.0977C21.806 52.0977 21.4593 52.0309 21.1533 51.8975C20.8506 51.7607 20.5934 51.5719 20.3818 51.3311C20.1702 51.0869 20.0091 50.8021 19.8984 50.4766C19.7878 50.151 19.7324 49.7979 19.7324 49.417ZM20.9092 49.3047V49.417C20.9092 49.6546 20.9336 49.8792 20.9824 50.0908C21.0312 50.3024 21.1077 50.488 21.2119 50.6475C21.3161 50.807 21.4495 50.9323 21.6123 51.0234C21.7751 51.1146 21.9688 51.1602 22.1934 51.1602C22.4115 51.1602 22.6003 51.1146 22.7598 51.0234C22.9225 50.9323 23.056 50.807 23.1602 50.6475C23.2643 50.488 23.3408 50.3024 23.3896 50.0908C23.4417 49.8792 23.4678 49.6546 23.4678 49.417V49.3047C23.4678 49.0703 23.4417 48.849 23.3896 48.6406C23.3408 48.429 23.2627 48.2419 23.1553 48.0791C23.0511 47.9163 22.9176 47.7894 22.7549 47.6982C22.5954 47.6038 22.4049 47.5566 22.1836 47.5566C21.9622 47.5566 21.7702 47.6038 21.6074 47.6982C21.4479 47.7894 21.3161 47.9163 21.2119 48.0791C21.1077 48.2419 21.0312 48.429 20.9824 48.6406C20.9336 48.849 20.9092 49.0703 20.9092 49.3047ZM28.7705 50.5742L30.3428 46.7168H31.3633L29.1709 52H28.3701L26.1826 46.7168H27.2031L28.7705 50.5742ZM26.9004 46.7168V52H25.7236V46.7168H26.9004ZM30.6406 52V46.7168H31.8223V52H30.6406ZM36.6855 46.7168V47.6543H34.0781V46.7168H36.6855ZM34.3564 46.7168V52H33.1797V46.7168H34.3564ZM37.6084 46.7168V52H36.4268V46.7168H37.6084ZM41.832 50.9404V48.4209C41.832 48.2321 41.7979 48.0693 41.7295 47.9326C41.6611 47.7959 41.557 47.6901 41.417 47.6152C41.2803 47.5404 41.1077 47.5029 40.8994 47.5029C40.7074 47.5029 40.5413 47.5355 40.4014 47.6006C40.2614 47.6657 40.1523 47.7536 40.0742 47.8643C39.9961 47.9749 39.957 48.1003 39.957 48.2402H38.7852C38.7852 48.0319 38.8356 47.8301 38.9365 47.6348C39.0374 47.4395 39.1839 47.2653 39.376 47.1123C39.568 46.9593 39.7975 46.8389 40.0645 46.751C40.3314 46.6631 40.6309 46.6191 40.9629 46.6191C41.36 46.6191 41.7116 46.6859 42.0176 46.8193C42.3268 46.9528 42.5693 47.1546 42.7451 47.4248C42.9242 47.6917 43.0137 48.027 43.0137 48.4307V50.7793C43.0137 51.0202 43.0299 51.2367 43.0625 51.4287C43.0983 51.6175 43.1488 51.7819 43.2139 51.9219V52H42.0078C41.9525 51.873 41.9085 51.7119 41.876 51.5166C41.8467 51.318 41.832 51.126 41.832 50.9404ZM42.0029 48.7871L42.0127 49.5146H41.168C40.9499 49.5146 40.7578 49.5358 40.5918 49.5781C40.4258 49.6172 40.2874 49.6758 40.1768 49.7539C40.0661 49.832 39.9831 49.9264 39.9277 50.0371C39.8724 50.1478 39.8447 50.2731 39.8447 50.4131C39.8447 50.5531 39.8773 50.6816 39.9424 50.7988C40.0075 50.9128 40.1019 51.0023 40.2256 51.0674C40.3525 51.1325 40.5055 51.165 40.6846 51.165C40.9255 51.165 41.1354 51.1162 41.3145 51.0186C41.4967 50.9176 41.64 50.7956 41.7441 50.6523C41.8483 50.5059 41.9036 50.3675 41.9102 50.2373L42.291 50.7598C42.252 50.8932 42.1852 51.0365 42.0908 51.1895C41.9964 51.3424 41.8727 51.4889 41.7197 51.6289C41.57 51.7656 41.3893 51.8779 41.1777 51.9658C40.9694 52.0537 40.7285 52.0977 40.4551 52.0977C40.11 52.0977 39.8024 52.0293 39.5322 51.8926C39.262 51.7526 39.0505 51.5654 38.8975 51.3311C38.7445 51.0934 38.668 50.8249 38.668 50.5254C38.668 50.2454 38.7201 49.998 38.8242 49.7832C38.9316 49.5651 39.0879 49.3828 39.293 49.2363C39.5013 49.0898 39.7552 48.9792 40.0547 48.9043C40.3542 48.8262 40.696 48.7871 41.0801 48.7871H42.0029ZM47.8525 48.9238V49.8516H45.1182V48.9238H47.8525ZM45.46 46.7168V52H44.2832V46.7168H45.46ZM48.7021 46.7168V52H47.5254V46.7168H48.7021ZM51.1729 50.2812L53.248 46.7168H54.4248V52H53.248V48.4307L51.1729 52H49.9961V46.7168H51.1729V50.2812ZM56.7832 49.417H58.0039L56.5049 52H55.2891L56.7832 49.417ZM57.6426 46.7168H59.9082V52H58.7363V47.6445H57.6426C57.4212 47.6445 57.2389 47.6836 57.0957 47.7617C56.9525 47.8366 56.8467 47.9359 56.7783 48.0596C56.71 48.18 56.6758 48.3037 56.6758 48.4307C56.6758 48.5576 56.7067 48.6797 56.7686 48.7969C56.8337 48.9141 56.9329 49.0101 57.0664 49.085C57.2031 49.1598 57.374 49.1973 57.5791 49.1973H59.1318V50.0566H57.5791C57.2536 50.0566 56.9622 50.016 56.7051 49.9346C56.4479 49.8499 56.2298 49.7344 56.0508 49.5879C55.8717 49.4382 55.735 49.264 55.6406 49.0654C55.5462 48.8636 55.499 48.6439 55.499 48.4062C55.499 48.1621 55.5479 47.9375 55.6455 47.7324C55.7432 47.5273 55.8831 47.3483 56.0654 47.1953C56.251 47.0423 56.4756 46.9251 56.7393 46.8438C57.0062 46.7591 57.3073 46.7168 57.6426 46.7168Z" fill="white"/>
<path d="M1 3.5V49.5" stroke="white" stroke-width="2" stroke-linecap="round" stroke-linejoin="round"/>
</svg>
