<svg width="45" height="45" viewBox="0 0 45 45" fill="none" xmlns="http://www.w3.org/2000/svg">
<g clip-path="url(#clip0_359_1541)">
<path d="M22.6087 0.0084369C22.5352 -0.0028123 22.4654 -0.0028123 22.3919 0.0084369C14.171 0.0676827 7.50098 6.76846 7.50098 15.0021C7.50098 15.4161 7.8362 15.7521 8.25092 15.7521H10.2675L19.8534 22.3426L12.5819 24.021C12.2414 24.099 12.0007 24.402 12.0007 24.7514V25.5014H10.5008C10.086 25.5014 9.75082 25.8374 9.75082 26.2513V44.2501C9.75082 44.664 10.086 45 10.5008 45H20.2501H24.7498H34.4991C34.9138 45 35.249 44.664 35.249 44.2501V26.2513C35.249 25.8374 34.9138 25.5014 34.4991 25.5014H32.9992V24.7514C32.9992 24.402 32.7584 24.099 32.418 24.0202L25.0415 22.3179L33.9951 15.7521H36.7489C37.1636 15.7521 37.4988 15.4161 37.4988 15.0021C37.4988 6.76846 30.8288 0.0676827 22.6087 0.0084369ZM22.4999 1.58183C26.8661 3.9974 29.7369 8.87356 29.9829 14.2522H15.0169C15.2629 8.87431 18.1337 3.99815 22.4999 1.58183ZM21 25.5014V24.7514C21 24.3382 21.336 24.0015 21.75 24.0015C21.75 24.4155 22.0852 24.7514 22.4999 24.7514C22.9146 24.7514 23.2499 24.4155 23.2499 24.0015C23.6638 24.0015 23.9998 24.3382 23.9998 24.7514V25.5014H21ZM23.9998 27.0013V36.0006H23.2499C23.2499 35.5867 22.9146 35.2507 22.4999 35.2507C22.0852 35.2507 21.75 35.5867 21.75 36.0006H21V27.0013H23.9998ZM9.02112 14.2522C9.35485 8.19036 13.7113 3.19496 19.4559 1.86306C15.9439 4.79685 13.7323 9.34078 13.5253 14.2522H9.02112ZM12.9156 15.7521H14.2505H21.75V21.8259L12.9156 15.7521ZM13.5006 25.3476L19.6621 23.9257C19.5601 24.1822 19.5001 24.4597 19.5001 24.7514V25.5014H13.5006V25.3476ZM19.5001 39.7504V43.5001H11.2507V27.0013H19.5001V36.7506C19.5001 37.1646 19.8354 37.5005 20.2501 37.5005H21.75V39.0004H20.2501C19.8354 39.0004 19.5001 39.3364 19.5001 39.7504ZM23.9998 43.5001H21V40.5003H21.75C21.75 40.9143 22.0852 41.2503 22.4999 41.2503C22.9146 41.2503 23.2499 40.9143 23.2499 40.5003H23.9998V43.5001ZM31.4993 25.3476V25.5014H25.4997V24.7514C25.4997 24.4597 25.4397 24.1822 25.3385 23.9265L31.4993 25.3476ZM25.4997 36.7506V27.0013H33.7491V43.5001H25.4997V39.7504C25.4997 39.3364 25.1645 39.0004 24.7498 39.0004H23.2499V37.5005H24.7498C25.1645 37.5005 25.4997 37.1646 25.4997 36.7506ZM23.2499 21.7711V15.7521H30.7493H31.458L23.2499 21.7711ZM31.4745 14.2522C31.2683 9.34078 29.0567 4.79685 25.5439 1.86306C31.2885 3.19421 35.645 8.19036 35.9787 14.2522H31.4745Z" fill="#14112A"/>
<path d="M22.4998 11.2524C24.1542 11.2524 25.4996 9.90698 25.4996 8.2526C25.4996 6.59821 24.1542 5.25281 22.4998 5.25281C20.8454 5.25281 19.5 6.59821 19.5 8.2526C19.5 9.90698 20.8454 11.2524 22.4998 11.2524ZM22.4998 6.7527C23.327 6.7527 23.9997 7.42541 23.9997 8.2526C23.9997 9.07979 23.327 9.75249 22.4998 9.75249C21.6726 9.75249 20.9999 9.07979 20.9999 8.2526C20.9999 7.42541 21.6726 6.7527 22.4998 6.7527Z" fill="#14112A"/>
<path d="M13.5004 30.0011H15.7503C16.165 30.0011 16.5002 29.6651 16.5002 29.2511C16.5002 28.8371 16.165 28.5012 15.7503 28.5012H13.5004C13.0857 28.5012 12.7505 28.8371 12.7505 29.2511C12.7505 29.6651 13.0857 30.0011 13.5004 30.0011Z" fill="#14112A"/>
<path d="M17.2502 31.501H13.5004C13.0857 31.501 12.7505 31.837 12.7505 32.2509C12.7505 32.6649 13.0857 33.0009 13.5004 33.0009H17.2502C17.6649 33.0009 18.0001 32.6649 18.0001 32.2509C18.0001 31.837 17.6649 31.501 17.2502 31.501Z" fill="#14112A"/>
<path d="M29.2495 37.5005C28.8347 37.5005 28.4995 37.8365 28.4995 38.2505C28.4995 38.6645 28.8347 39.0004 29.2495 39.0004H31.4993C31.914 39.0004 32.2492 38.6645 32.2492 38.2505C32.2492 37.8365 31.914 37.5005 31.4993 37.5005H29.2495Z" fill="#14112A"/>
<path d="M27.7495 42.0002H31.4992C31.9139 42.0002 32.2491 41.6642 32.2491 41.2503C32.2491 40.8363 31.9139 40.5003 31.4992 40.5003H27.7495C27.3347 40.5003 26.9995 40.8363 26.9995 41.2503C26.9995 41.6642 27.3347 42.0002 27.7495 42.0002Z" fill="#14112A"/>
<path d="M27.7495 33.0008H29.9993C31.2397 33.0008 32.2491 31.9914 32.2491 30.751V29.2511C32.2491 28.8371 31.9139 28.5012 31.4992 28.5012H29.2494C28.0089 28.5012 26.9995 29.5106 26.9995 30.751V32.2509C26.9995 32.6649 27.3347 33.0008 27.7495 33.0008ZM28.4994 30.751C28.4994 30.3378 28.8354 30.0011 29.2494 30.0011H30.7492V30.751C30.7492 31.1642 30.4133 31.5009 29.9993 31.5009H28.4994V30.751Z" fill="#14112A"/>
</g>
<defs>
<clipPath id="clip0_359_1541">
<rect width="45" height="45" fill="white"/>
</clipPath>
</defs>
</svg>
