<svg width="20" height="16" viewBox="0 0 20 16" fill="none" xmlns="http://www.w3.org/2000/svg">
<path d="M0 16V11.3977C0 10.0592 0.254453 8.67954 0.763359 7.25869C1.27226 5.83784 1.94402 4.49936 2.77863 3.24324C3.61323 1.96654 4.52926 0.885457 5.52672 0L9.61832 2.40927C8.8855 3.64479 8.25445 4.97297 7.72519 6.39382C7.19593 7.81467 6.9313 9.48263 6.9313 11.3977V16H0ZM10.3817 16V11.3977C10.3817 10.0592 10.6361 8.67954 11.145 7.25869C11.6539 5.83784 12.3257 4.49936 13.1603 3.24324C13.9949 1.96654 14.9109 0.885457 15.9084 0L20 2.40927C19.2672 3.64479 18.6361 4.97297 18.1069 6.39382C17.5776 7.81467 17.313 9.48263 17.313 11.3977V16H10.3817Z" fill="#D7BC68"/>
</svg>
