<svg width="45" height="45" viewBox="0 0 45 45" fill="none" xmlns="http://www.w3.org/2000/svg">
<g clip-path="url(#clip0_360_1678)">
<path d="M26.2515 9.36276H29.0649V32.8083C29.0649 34.3595 30.3272 35.6218 31.8784 35.6218H33.754C35.3052 35.6218 36.5675 34.3595 36.5675 32.8083V9.36276H39.381C39.7486 9.36276 40.0825 9.14893 40.2363 8.81316C40.3882 8.47739 40.3301 8.08351 40.0881 7.80779L33.5233 0.305239C33.167 -0.101746 32.4673 -0.101746 32.111 0.305239L25.5462 7.80779C25.3042 8.08351 25.2442 8.47739 25.398 8.81316C25.55 9.14893 25.8838 9.36276 26.2515 9.36276ZM32.8162 2.34782L37.314 7.48705H35.6296C35.112 7.48705 34.6918 7.90723 34.6918 8.42491V32.8083C34.6918 33.3241 34.2716 33.7461 33.7539 33.7461H31.8783C31.3607 33.7461 30.9405 33.3241 30.9405 32.8083V8.42491C30.9405 7.90723 30.5203 7.48705 30.0026 7.48705H28.3183L32.8162 2.34782Z" fill="#14112A"/>
<path d="M5.61907 9.36276H8.43253V32.8083C8.43253 34.3595 9.69481 35.6218 11.246 35.6218H13.1216C14.6728 35.6218 15.9351 34.3595 15.9351 32.8083V9.36276H18.7485C19.1161 9.36276 19.4501 9.14893 19.6038 8.81316C19.7558 8.47739 19.6977 8.08351 19.4557 7.80779L12.8909 0.305239C12.5346 -0.101746 11.8349 -0.101746 11.4785 0.305239L4.91385 7.80779C4.67189 8.08351 4.61184 8.47739 4.76571 8.81316C4.91755 9.14893 5.25147 9.36276 5.61907 9.36276ZM12.1838 2.34782L16.6816 7.48705H14.9973C14.4796 7.48705 14.0595 7.90723 14.0595 8.42491V32.8083C14.0595 33.3241 13.6393 33.7461 13.1216 33.7461H11.246C10.7283 33.7461 10.3081 33.3241 10.3081 32.8083V8.42491C10.3081 7.90723 9.88797 7.48705 9.3703 7.48705H7.686L12.1838 2.34782Z" fill="#14112A"/>
<path d="M41.2565 37.4974H3.74364C2.19246 37.4974 0.930176 38.7597 0.930176 40.3109V42.1865C0.930176 43.7377 2.19246 45 3.74364 45H41.2566C42.8078 45 44.07 43.7377 44.07 42.1865V40.3109C44.07 38.7597 42.8077 37.4974 41.2565 37.4974ZM42.1943 42.1865C42.1943 42.7024 41.7742 43.1244 41.2565 43.1244H3.74364C3.22597 43.1244 2.80579 42.7024 2.80579 42.1865V40.3109C2.80579 39.7951 3.22597 39.3731 3.74364 39.3731H41.2566C41.7743 39.3731 42.1944 39.7951 42.1944 40.3109V42.1865H42.1943Z" fill="#14112A"/>
</g>
<defs>
<clipPath id="clip0_360_1678">
<rect width="45" height="45" fill="white"/>
</clipPath>
</defs>
</svg>
