<svg width="45" height="45" viewBox="0 0 45 45" fill="none" xmlns="http://www.w3.org/2000/svg">
<g clip-path="url(#clip0_359_1586)">
<path d="M39.8947 0V13.9168H36.1861V6.49444H22.2692V2.78336H7.88621V13.9168H4.64131V0H0V45H4.64122V36.6499H39.8946V45H44.9999V0H39.8947ZM1.3941 43.6059V1.3941H3.24713V43.6059H1.3941ZM22.2692 7.88853H34.7919V13.9167H22.2692V7.88853ZM13.9191 4.17745H16.2362V8.35007H13.9191V4.17745ZM9.28031 4.17745H12.5251V9.74417H17.6304V4.17745H20.8752V13.9168H9.28031V4.17745ZM39.8947 35.2558H4.64131V33.8666H39.8947V35.2558ZM10.208 32.4725V26.4443H22.7307V32.4725H10.208ZM32.4748 28.2999V22.7331H35.7196V32.4725H24.1248V22.7331H27.3696V28.2999H32.4748ZM28.7638 26.9058V22.7331H31.0809V26.9058H28.7638ZM39.8947 32.4725H37.1138V21.339H22.7307V25.0502H8.81393V32.4725H4.64131V18.0942H39.8947V32.4725ZM39.8947 16.7001H4.64131V15.3109H39.8947V16.7001ZM43.6058 43.6059H41.2887V1.3941H43.6058V43.6059Z" fill="#14112A"/>
<path d="M33.1696 10.2056H30.3862V11.5997H33.1696V10.2056Z" fill="#14112A"/>
<path d="M29.4582 10.2056H24.8193V11.5997H29.4582V10.2056Z" fill="#14112A"/>
<path d="M21.1081 28.7614H18.3247V30.1554H21.1081V28.7614Z" fill="#14112A"/>
<path d="M17.3972 28.7614H12.7583V30.1554H17.3972V28.7614Z" fill="#14112A"/>
</g>
<defs>
<clipPath id="clip0_359_1586">
<rect width="45" height="45" fill="white"/>
</clipPath>
</defs>
</svg>
