<svg width="45" height="45" viewBox="0 0 45 45" fill="none" xmlns="http://www.w3.org/2000/svg">
<path d="M44.3395 38.7476H42.182V18.2671C43.401 17.96 44.2955 16.8139 44.2955 15.455V6.29649C44.2955 5.54382 43.6832 4.93152 42.9305 4.93152H2.06947C1.3168 4.93152 0.704501 5.54382 0.704501 6.29649V15.455C0.704501 16.814 1.59904 17.96 2.818 18.2671V38.7476H0.66047C0.295714 38.7476 0 39.0433 0 39.408C0 39.7728 0.295714 40.0685 0.66047 40.0685H44.3395C44.7043 40.0685 45 39.7728 45 39.408C45 39.0433 44.7043 38.7476 44.3395 38.7476ZM42.9746 6.29649V15.455C42.9746 16.2813 42.3582 16.9859 41.6006 17.0255C41.196 17.0462 40.8134 16.9057 40.5215 16.6288C40.2294 16.3516 40.0684 15.9771 40.0684 15.5746V6.25246H42.9304C42.9548 6.25246 42.9746 6.27218 42.9746 6.29649ZM6.25245 6.25246H9.15851V15.5746C9.15851 16.3758 8.50667 17.0276 7.70548 17.0276C6.90429 17.0276 6.25245 16.3758 6.25245 15.5746V6.25246ZM10.4795 6.25246H13.3855V15.5746C13.3855 16.3758 12.7337 17.0276 11.9325 17.0276C11.1313 17.0276 10.4795 16.3758 10.4795 15.5746V6.25246ZM14.7065 6.25246H17.6125V15.5746C17.6125 16.3758 16.9607 17.0276 16.1595 17.0276C15.3583 17.0276 14.7065 16.3758 14.7065 15.5746V6.25246ZM18.9335 6.25246H21.8395V15.5746C21.8395 16.3758 21.1877 17.0276 20.3865 17.0276C19.5853 17.0276 18.9335 16.3758 18.9335 15.5746V6.25246ZM23.1605 6.25246H26.0665V15.5746C26.0665 16.3758 25.4147 17.0276 24.6135 17.0276C23.8123 17.0276 23.1605 16.3758 23.1605 15.5746V6.25246ZM27.3875 6.25246H30.2935V15.5746C30.2935 16.3758 29.6417 17.0276 28.8405 17.0276C28.0393 17.0276 27.3875 16.3758 27.3875 15.5746V6.25246ZM31.6145 6.25246H34.5205V15.5746C34.5205 16.3758 33.8687 17.0276 33.0675 17.0276C32.2663 17.0276 31.6145 16.3758 31.6145 15.5746V6.25246ZM35.8415 6.25246H38.7476V15.5746C38.7476 16.3758 38.0957 17.0276 37.2945 17.0276C36.4933 17.0276 35.8415 16.3758 35.8415 15.5746V6.25246ZM2.02544 15.455V6.29649C2.02544 6.27218 2.04517 6.25246 2.06947 6.25246H4.93151V15.5746C4.93151 15.9771 4.77062 16.3516 4.47842 16.6288C4.18658 16.9058 3.8036 17.0465 3.39931 17.0255C2.64179 16.9859 2.02544 16.2813 2.02544 15.455ZM4.13894 18.2697C4.60268 18.157 5.03084 17.9256 5.38776 17.5869C5.46015 17.5182 5.52857 17.4457 5.59259 17.3701C6.10177 17.9683 6.86008 18.3485 7.70548 18.3485C8.55123 18.3485 9.3098 17.968 9.81898 17.3693C10.3282 17.968 11.0867 18.3485 11.9325 18.3485C12.7782 18.3485 13.5368 17.968 14.046 17.3693C14.5552 17.968 15.3137 18.3485 16.1595 18.3485C17.0052 18.3485 17.7638 17.968 18.273 17.3693C18.7822 17.968 19.5407 18.3485 20.3865 18.3485C21.2323 18.3485 21.9908 17.968 22.5 17.3693C23.0092 17.968 23.7677 18.3485 24.6135 18.3485C25.4593 18.3485 26.2178 17.968 26.727 17.3693C27.2362 17.968 27.9948 18.3485 28.8405 18.3485C29.6863 18.3485 30.4448 17.968 30.954 17.3693C31.4632 17.968 32.2218 18.3485 33.0675 18.3485C33.9133 18.3485 34.6718 17.968 35.181 17.3693C35.6902 17.968 36.4488 18.3485 37.2945 18.3485C38.1399 18.3485 38.8981 17.9683 39.4074 17.3701C39.4715 17.4457 39.5399 17.5182 39.6122 17.5869C39.9692 17.9257 40.3972 18.1577 40.8611 18.2704V38.7476H37.955V23.2045C37.955 22.4518 37.3427 21.8395 36.59 21.8395H28.136C27.3833 21.8395 26.771 22.4518 26.771 23.2045V38.7476H4.13894V18.2697ZM36.6341 38.7476H28.092V23.2045C28.092 23.1802 28.1117 23.1605 28.136 23.1605H36.59C36.6143 23.1605 36.6341 23.1802 36.6341 23.2045V38.7476Z" fill="#14112A"/>
<path d="M30.2493 29.5891C29.8846 29.5891 29.5889 29.8848 29.5889 30.2496V31.6586C29.5889 32.0233 29.8846 32.3191 30.2493 32.3191C30.6141 32.3191 30.9098 32.0233 30.9098 31.6586V30.2496C30.9098 29.8848 30.6141 29.5891 30.2493 29.5891Z" fill="#14112A"/>
<path d="M23.1164 21.8396H7.79345C7.3807 21.8396 7.04492 22.1754 7.04492 22.5881V35.093C7.04492 35.5058 7.3807 35.8416 7.79345 35.8416H23.1164C23.5291 35.8416 23.8649 35.5058 23.8649 35.093V22.5881C23.8649 22.1754 23.5291 21.8396 23.1164 21.8396ZM22.5439 34.5206H8.36586V23.1605H22.5439V34.5206Z" fill="#14112A"/>
</svg>
