<svg width="30" height="30" viewBox="0 0 30 30" fill="none" xmlns="http://www.w3.org/2000/svg">
<path fill-rule="evenodd" clip-rule="evenodd" d="M15 30C23.2843 30 30 23.2843 30 15C30 6.71573 23.2843 0 15 0C6.71573 0 0 6.71573 0 15C0 23.2843 6.71573 30 15 30ZM11.765 21.5731L12.0628 17.3851L19.733 10.4978C20.0668 10.2023 19.661 10.0388 19.2148 10.3343L9.73251 16.2676L5.65026 14.9978C4.76226 14.7226 4.74576 14.1151 5.83551 13.6921L21.803 7.57883C22.5425 7.30358 23.189 7.74233 22.9483 8.86433L22.9475 8.86508L20.231 21.5941C20.0263 22.4926 19.4915 22.7153 18.7325 22.2923L14.594 19.2616L12.5968 21.1703C12.3755 21.3901 12.191 21.5731 11.765 21.5731Z" fill="#F5F5F5"/>
</svg>
