<svg width="45" height="45" viewBox="0 0 45 45" fill="none" xmlns="http://www.w3.org/2000/svg">
<path d="M38.2036 23.7516L30.5437 18.2812L38.2036 12.8095L41.7431 13.9894L42.6319 11.3217L39.375 10.2361V7.03125H36.5625V10.5258L29.5312 15.5489V7.54734L33.1242 5.1525L31.5633 2.8125L28.125 5.10469L24.6867 2.8125L23.1258 5.1525L26.7187 7.54734V15.5489L22.5 12.5353V15.9919L25.7063 18.2812L22.5 20.5706V24.0272L26.7187 21.0136V30.5198L31.5633 33.75L33.1242 31.41L29.5312 29.0152V21.0136L36.5625 26.0367V29.5312H39.375V26.3264L42.6319 25.2394L41.7431 22.5717L38.2036 23.7516Z" fill="#14112A"/>
<path d="M16.875 32.3438C16.875 33.4626 16.4305 34.5357 15.6394 35.3269C14.8482 36.118 13.7751 36.5625 12.6562 36.5625C11.5374 36.5625 10.4643 36.118 9.67314 35.3269C8.88197 34.5357 8.4375 33.4626 8.4375 32.3438H16.875Z" fill="#14112A"/>
<path d="M12.6562 42.1875C10.7186 42.1894 8.82361 41.6189 7.20914 40.5475C5.59467 39.4762 4.33265 37.9518 3.58152 36.1658C2.83038 34.3797 2.62361 32.4115 2.98715 30.5083C3.35069 28.6052 4.26835 26.8518 5.62492 25.4683V9.84375C5.62492 7.97895 6.36571 6.19052 7.68433 4.87191C9.00295 3.55329 10.7914 2.8125 12.6562 2.8125C14.521 2.8125 16.3094 3.55329 17.628 4.87191C18.9466 6.19052 19.6874 7.97895 19.6874 9.84375V25.4683C21.044 26.8518 21.9617 28.6052 22.3252 30.5083C22.6887 32.4115 22.482 34.3797 21.7308 36.1658C20.9797 37.9518 19.7177 39.4762 18.1032 40.5475C16.4887 41.6189 14.5938 42.1894 12.6562 42.1875ZM12.6562 5.625C11.5377 5.62623 10.4653 6.0711 9.67442 6.862C8.88352 7.6529 8.43865 8.72524 8.43742 9.84375V26.6954L7.97055 27.1149C6.90866 28.064 6.16003 29.3132 5.82374 30.6971C5.48745 32.0811 5.57937 33.5345 6.08733 34.8651C6.59528 36.1956 7.49532 37.3406 8.66832 38.1483C9.84131 38.9561 11.232 39.3886 12.6562 39.3886C14.0804 39.3886 15.471 38.9561 16.644 38.1483C17.817 37.3406 18.7171 36.1956 19.225 34.8651C19.733 33.5345 19.8249 32.0811 19.4886 30.6971C19.1523 29.3132 18.4037 28.064 17.3418 27.1149L16.8749 26.6954V9.84375C16.8737 8.72524 16.4288 7.6529 15.6379 6.862C14.847 6.0711 13.7747 5.62623 12.6562 5.625Z" fill="#14112A"/>
</svg>
