<svg width="45" height="45" viewBox="0 0 45 45" fill="none" xmlns="http://www.w3.org/2000/svg">
<path d="M4.49997 33C4.04997 33 3.75 33.3 3.75 33.75C3.75 34.2 4.04997 34.4999 4.49997 34.4999C4.94997 34.4999 5.24994 34.2 5.24994 33.75C5.24994 33.3 4.94997 33 4.49997 33Z" fill="#14112A"/>
<path d="M7.49997 33C7.04997 33 6.75 33.3 6.75 33.75C6.75 34.2 7.04997 34.4999 7.49997 34.4999C7.94997 34.4999 8.24994 34.2 8.24994 33.75C8.24994 33.3 7.94997 33 7.49997 33Z" fill="#14112A"/>
<path d="M10.5 33C10.05 33 9.75 33.3 9.75 33.75C9.75 34.2 10.05 34.4999 10.5 34.4999C10.95 34.4999 11.2499 34.2 11.2499 33.75C11.2499 33.3 10.95 33 10.5 33Z" fill="#14112A"/>
<path d="M13.5 33C13.05 33 12.75 33.3 12.75 33.75C12.75 34.2 13.05 34.4999 13.5 34.4999C13.95 34.4999 14.2499 34.2 14.2499 33.75C14.2499 33.3 13.95 33 13.5 33Z" fill="#14112A"/>
<path d="M16.5 33C16.05 33 15.75 33.3 15.75 33.75C15.75 34.2 16.05 34.4999 16.5 34.4999C16.95 34.4999 17.2499 34.2 17.2499 33.75C17.2499 33.3 16.95 33 16.5 33Z" fill="#14112A"/>
<path d="M19.5 33C19.05 33 18.75 33.3 18.75 33.75C18.75 34.2 19.05 34.4999 19.5 34.4999C19.95 34.4999 20.2499 34.2 20.2499 33.75C20.2499 33.3 19.95 33 19.5 33Z" fill="#14112A"/>
<path d="M22.5 33C22.05 33 21.75 33.3 21.75 33.75C21.75 34.2 22.05 34.4999 22.5 34.4999C22.95 34.4999 23.2499 34.2 23.2499 33.75C23.2499 33.3 22.95 33 22.5 33Z" fill="#14112A"/>
<path d="M25.5 33C25.05 33 24.75 33.3 24.75 33.75C24.75 34.2 25.05 34.4999 25.5 34.4999C25.95 34.4999 26.2499 34.2 26.2499 33.75C26.2499 33.3 25.95 33 25.5 33Z" fill="#14112A"/>
<path d="M28.5 33C28.05 33 27.75 33.3 27.75 33.75C27.75 34.2 28.05 34.4999 28.5 34.4999C28.95 34.4999 29.2499 34.2 29.2499 33.75C29.2499 33.3 28.95 33 28.5 33Z" fill="#14112A"/>
<path d="M31.5 33C31.05 33 30.75 33.3 30.75 33.75C30.75 34.2 31.05 34.4999 31.5 34.4999C31.95 34.4999 32.2499 34.2 32.2499 33.75C32.2499 33.3 31.95 33 31.5 33Z" fill="#14112A"/>
<path d="M34.5 33C34.05 33 33.75 33.3 33.75 33.75C33.75 34.2 34.05 34.4999 34.5 34.4999C34.95 34.4999 35.2499 34.2 35.2499 33.75C35.2499 33.3 34.95 33 34.5 33Z" fill="#14112A"/>
<path d="M37.5 33C37.05 33 36.75 33.3 36.75 33.75C36.75 34.2 37.05 34.4999 37.5 34.4999C37.95 34.4999 38.2499 34.2 38.2499 33.75C38.2499 33.3 37.95 33 37.5 33Z" fill="#14112A"/>
<path d="M40.5 33C40.05 33 39.75 33.3 39.75 33.75C39.75 34.2 40.05 34.4999 40.5 34.4999C40.95 34.4999 41.2499 34.2 41.2499 33.75C41.2499 33.3 40.95 33 40.5 33Z" fill="#14112A"/>
<path d="M41.25 30H22.5V11.25C22.5 9.975 21.525 9.00003 20.25 9.00003H16.5C16.5 8.175 15.825 7.5 14.9999 7.5H10.4999C9.67491 7.5 8.99991 8.175 8.99991 9.00003H5.24997C3.97494 9.00003 2.99997 9.975 2.99997 11.25V30.0726C1.2702 30.4118 0 31.9076 0 33.75C0 35.85 1.64997 37.5001 3.75003 37.5001H41.2501C43.35 37.5001 45 35.85 45 33.75C45 31.6501 43.35 30 41.25 30ZM10.5 9.00003H15V10.5001V15.4501L12.75 13.2001L10.5 15.4501V10.5001V9.00003ZM4.5 11.25C4.5 10.8 4.79997 10.5001 5.24997 10.5001H9V15.975C9 16.5 9.29997 16.95 9.74997 17.175C10.2749 17.325 10.8 17.25 11.1749 16.875L12.7499 15.3L14.3249 16.875C14.5499 17.1 14.925 17.2501 15.2249 17.2501C15.375 17.2501 15.5249 17.2501 15.6749 17.1751C16.1999 16.9501 16.5 16.5001 16.5 15.9751V10.5001H20.25C20.7 10.5001 21 10.8001 21 11.2501V30.0001H4.5V11.25ZM41.25 36H3.75003C2.475 36 1.50003 35.0251 1.50003 33.75C1.50003 32.475 2.475 31.5 3.75003 31.5H22.5H41.25C42.525 31.5 43.5 32.475 43.5 33.75C43.5 35.0251 42.525 36 41.25 36Z" fill="#14112A"/>
<path d="M27 20.2501H39.1392L36.225 22.6501C35.925 22.8751 35.8499 23.4001 36.15 23.7001C36.3 23.9251 36.525 24.0001 36.75 24.0001C36.9001 24.0001 37.1251 23.9251 37.2 23.9251L41.7 20.1751C41.925 20.0251 42 19.8001 42 19.5751C42 19.5665 41.9983 19.5579 41.9979 19.5492C41.9987 19.5328 42 19.5168 42 19.5C42 19.1244 41.7905 18.8539 41.4596 18.7747L37.2 15.225C36.9001 14.9251 36.4501 15 36.15 15.3C35.8499 15.6 35.925 16.05 36.225 16.35L39.1392 18.7501H27C26.55 18.7501 26.25 19.05 26.25 19.5C26.25 19.9501 26.55 20.2501 27 20.2501Z" fill="#14112A"/>
<path d="M12.75 22.5H6.74997C6.29997 22.5 6 22.8 6 23.25V27.75C6 28.2 6.29997 28.4999 6.74997 28.4999H12.75C13.2 28.4999 13.5 28.2 13.5 27.75V23.25C13.5 22.8 13.2 22.5 12.75 22.5ZM11.9999 27H7.49994V24H11.9999V27Z" fill="#14112A"/>
</svg>
