<svg width="45" height="45" viewBox="0 0 45 45" fill="none" xmlns="http://www.w3.org/2000/svg">
<path d="M43.2017 18.5284C42.0801 17.3234 40.4952 16.6561 38.7341 16.6561H34.6837V14.5243C34.6837 14.4872 34.6837 14.4501 34.6744 14.4223C34.6744 14.4038 34.6651 14.3852 34.6651 14.376C34.6651 14.3574 34.6559 14.3389 34.6559 14.3204C34.6559 14.3018 34.6466 14.2833 34.6466 14.2647C34.6466 14.2462 34.6373 14.2277 34.6373 14.2184C34.6281 14.1999 34.6281 14.1813 34.6188 14.1628C34.6095 14.1442 34.6095 14.1257 34.6003 14.1164C34.591 14.0979 34.5817 14.0886 34.5817 14.0701C34.5724 14.0516 34.5632 14.033 34.5539 14.0238C34.5446 14.0052 34.5354 13.9959 34.5261 13.9774C34.5168 13.9589 34.5076 13.9403 34.4983 13.9311C34.489 13.9125 34.4798 13.9033 34.4612 13.8847C34.452 13.8755 34.4427 13.8569 34.4334 13.8476C34.4149 13.8198 34.3871 13.792 34.3685 13.7735C34.3685 13.7735 34.3685 13.7735 34.3593 13.7642L30.1698 9.53766C29.9566 9.32448 29.6785 9.21326 29.3819 9.21326H17.8979C17.6013 9.21326 17.3233 9.33375 17.1101 9.53766L12.9206 13.7272C12.9206 13.7272 12.9206 13.7272 12.9113 13.7364C12.8835 13.7642 12.865 13.7828 12.8464 13.8106C12.8372 13.8198 12.8279 13.8384 12.8186 13.8476C12.8094 13.8662 12.7908 13.8755 12.7816 13.894C12.7723 13.9125 12.763 13.9311 12.7538 13.9403C12.7445 13.9589 12.7352 13.9681 12.726 13.9867C12.7167 14.0052 12.7074 14.0238 12.6981 14.033C12.6889 14.0516 12.6796 14.0608 12.6796 14.0794C12.6703 14.0979 12.6703 14.1164 12.6611 14.1257C12.6518 14.1442 12.6518 14.1628 12.6425 14.1813C12.6333 14.1999 12.6333 14.2184 12.6333 14.2277C12.624 14.2462 12.624 14.2647 12.624 14.2833C12.624 14.3018 12.6147 14.3204 12.6147 14.3389C12.6147 14.3574 12.6055 14.376 12.6055 14.3852C12.6055 14.4223 12.5962 14.4594 12.5962 14.4872V32.0701C12.5962 32.6818 13.0967 33.1823 13.7084 33.1823H16.6374C17.0174 34.6746 18.3799 35.7868 19.9834 35.7868C21.5869 35.7868 22.9494 34.6746 23.3294 33.1823H33.5621H35.0637C35.4437 34.6746 36.8062 35.7868 38.4097 35.7868C40.0225 35.7868 41.3757 34.6746 41.7557 33.1823H43.8876C44.4993 33.1823 44.9998 32.6818 44.9998 32.0701V23.8023C45.0091 21.6427 44.3881 19.8075 43.2017 18.5284ZM30.8927 13.412H24.6178V11.447H28.9185L30.8927 13.412ZM18.3614 11.4378H22.3933V13.4027H16.3964L18.3614 11.4378ZM14.8207 15.6365H32.4592V17.7683V30.9856H23.2089C23.1904 30.9856 23.1811 30.9856 23.1626 30.9856C22.6343 29.7621 21.4108 28.9001 19.9927 28.9001C18.5653 28.9001 17.3418 29.7621 16.8135 30.9949C16.7671 30.9856 16.7208 30.9856 16.6652 30.9856H14.8207V15.6365ZM19.9927 33.5901C19.316 33.5901 18.7599 33.034 18.7599 32.3574C18.7599 31.6808 19.316 31.1246 19.9927 31.1246C20.6693 31.1246 21.2254 31.6808 21.2254 32.3574C21.2254 33.034 20.6693 33.5901 19.9927 33.5901ZM38.419 33.5901C37.7424 33.5901 37.1862 33.034 37.1862 32.3574C37.1862 31.6808 37.7424 31.1246 38.419 31.1246C39.0956 31.1246 39.6517 31.6808 39.6517 32.3574C39.6517 33.034 39.1049 33.5901 38.419 33.5901ZM42.7846 30.9856H41.5982C41.0699 29.7621 39.8464 28.9001 38.4283 28.9001C37.0101 28.9001 35.7867 29.7621 35.2583 30.9856H34.6929V18.8806H38.7434C41.283 18.8806 42.7938 20.7343 42.7938 23.8394V30.9856H42.7846Z" fill="#14112A"/>
<path d="M10.5851 17.8703H4.49555C3.88381 17.8703 3.3833 18.3708 3.3833 18.9826C3.3833 19.5943 3.88381 20.0948 4.49555 20.0948H10.5851C11.1969 20.0948 11.6974 19.5943 11.6974 18.9826C11.6974 18.3708 11.1969 17.8703 10.5851 17.8703Z" fill="#14112A"/>
<path d="M10.5849 22.1988H1.11225C0.500514 22.1988 0 22.6993 0 23.311C0 23.9228 0.500514 24.4233 1.11225 24.4233H10.5849C11.1967 24.4233 11.6972 23.9228 11.6972 23.311C11.6972 22.6993 11.1967 22.1988 10.5849 22.1988Z" fill="#14112A"/>
<path d="M10.5851 26.5273H4.49555C3.88381 26.5273 3.3833 27.0279 3.3833 27.6396C3.3833 28.2513 3.88381 28.7519 4.49555 28.7519H10.5851C11.1969 28.7519 11.6974 28.2513 11.6974 27.6396C11.6974 27.0279 11.1969 26.5273 10.5851 26.5273Z" fill="#14112A"/>
</svg>
